<svg width="126" height="40" viewBox="0 0 126 40" fill="none" xmlns="http://www.w3.org/2000/svg">
<path d="M117.922 21.0868L117.89 21.5028C117.89 21.9188 118.002 22.2814 118.226 22.5908C118.46 22.8894 118.823 23.0388 119.314 23.0388C119.815 23.0388 120.434 22.7508 121.17 22.1748C121.916 21.5881 122.562 20.8521 123.106 19.9668C123.66 19.0708 123.938 18.2388 123.938 17.4708C123.938 16.4681 123.66 15.9668 123.106 15.9668C122.786 15.9668 122.423 16.0948 122.018 16.3508C121.612 16.6068 121.228 16.9268 120.866 17.3108C120.226 17.9721 119.756 18.5161 119.458 18.9428C119.415 19.0068 119.372 19.0388 119.33 19.0388C119.287 19.0388 119.266 19.0228 119.266 18.9908C119.266 18.9588 119.276 18.9214 119.298 18.8788C120.898 16.6601 122.306 15.5508 123.522 15.5508C124.012 15.5508 124.407 15.7428 124.706 16.1268C125.004 16.5108 125.154 16.9854 125.154 17.5508C125.154 18.1161 124.946 18.7508 124.53 19.4548C124.114 20.1588 123.602 20.7881 122.994 21.3428C122.386 21.8974 121.719 22.3614 120.994 22.7348C120.279 23.1081 119.671 23.2948 119.17 23.2948C118.679 23.2948 118.178 23.2094 117.666 23.0388C117.164 22.8681 116.908 22.6441 116.898 22.3668C116.898 22.2281 117.036 21.9721 117.314 21.5988C117.602 21.2148 117.794 21.0228 117.89 21.0228C117.911 21.0228 117.922 21.0441 117.922 21.0868Z" fill="white"/>
<path d="M114.184 17.6324L113.32 19.4244C114.408 18.2297 115.72 16.6457 117.256 14.6724C118.802 12.699 119.922 11.131 120.616 9.96836C121.309 8.80569 122.018 7.42436 122.744 5.82436C123.48 4.22436 123.848 3.10436 123.848 2.46436C123.848 2.16569 123.752 2.01636 123.56 2.01636C123.186 2.01636 122.728 2.30969 122.184 2.89636C121.64 3.48303 121.09 4.23503 120.536 5.15236C119.565 6.77369 118.738 8.28836 118.056 9.69636L114.344 17.3444C114.365 17.4297 114.376 17.515 114.376 17.6004C114.376 17.6857 114.344 17.7284 114.28 17.7284C114.248 17.7284 114.216 17.6964 114.184 17.6324ZM113.736 16.6404C113.394 16.107 112.904 15.8404 112.264 15.8404C111.634 15.8404 110.968 16.139 110.264 16.7364C109.57 17.3337 109.01 18.0484 108.584 18.8804C108.157 19.7124 107.944 20.491 107.944 21.2164C107.944 21.9417 108.242 22.3044 108.84 22.3044C109.64 22.3044 110.653 21.7924 111.88 20.7684C112.061 20.1177 112.68 18.7417 113.736 16.6404ZM113.896 16.2884L116.936 10.1764C117.874 8.25636 118.504 7.04569 118.824 6.54436C119.154 6.04303 119.49 5.54169 119.832 5.04036C120.184 4.52836 120.509 4.11236 120.808 3.79236C121.629 2.92836 122.386 2.29369 123.08 1.88836C123.442 1.67503 123.741 1.56836 123.976 1.56836C124.36 1.56836 124.552 1.83503 124.552 2.36836C124.552 3.58436 124.237 4.86436 123.608 6.20836C122.978 7.54169 122.13 8.97103 121.064 10.4964C120.338 11.5524 119.064 13.163 117.24 15.3284C115.426 17.4937 114.056 19.0404 113.128 19.9684C112.914 20.5124 112.808 20.9924 112.808 21.4084C112.808 22.091 113.186 22.4324 113.944 22.4324C114.701 22.4324 115.618 22.011 116.696 21.1684C117.784 20.315 118.546 19.5524 118.984 18.8804C119.026 18.8164 119.069 18.7844 119.112 18.7844C119.154 18.7844 119.176 18.8004 119.176 18.8324C119.176 18.8644 119.165 18.9017 119.144 18.9444C118.568 19.7124 117.992 20.347 117.416 20.8484C116.85 21.3497 116.173 21.8297 115.384 22.2884C114.605 22.747 113.938 22.9764 113.384 22.9764C112.84 22.9764 112.429 22.8537 112.152 22.6084C111.885 22.3524 111.752 22.0164 111.752 21.6004C111.752 21.4084 111.773 21.227 111.816 21.0564C110.376 22.251 109.117 22.8484 108.04 22.8484C107.144 22.8484 106.696 22.3044 106.696 21.2164C106.696 20.427 106.973 19.5844 107.528 18.6884C108.093 17.7817 108.813 17.019 109.688 16.4004C110.573 15.771 111.4 15.4564 112.168 15.4564C112.936 15.4564 113.512 15.7337 113.896 16.2884Z" fill="white"/>
<path d="M102.401 15.6791C102.71 15.6791 102.945 15.7644 103.105 15.9351C103.275 16.1057 103.361 16.2817 103.361 16.4631C103.361 16.6444 103.318 16.8417 103.233 17.0551C103.147 17.2684 103.057 17.4657 102.961 17.6471C102.865 17.8284 102.758 18.0204 102.641 18.2231C102.534 18.4151 102.475 18.5271 102.465 18.5591C103.105 17.8231 103.894 17.1191 104.833 16.4471C105.505 15.9777 106.379 15.5297 107.457 15.1031C107.585 15.0604 107.665 15.0391 107.697 15.0391C107.729 15.0391 107.745 15.0551 107.745 15.0871C107.745 15.1191 107.734 15.1457 107.713 15.1671C107.702 15.1777 107.686 15.1884 107.665 15.1991C107.643 15.2097 107.579 15.2417 107.473 15.2951C107.377 15.3484 107.158 15.5244 106.817 15.8231C106.475 16.1111 106.305 16.3671 106.305 16.5911C106.305 16.8151 106.401 16.9271 106.593 16.9271C106.838 16.9271 107.211 16.7457 107.713 16.3831C107.809 16.3191 107.867 16.2871 107.889 16.2871C107.921 16.2871 107.937 16.3084 107.937 16.3511C107.937 16.3937 107.905 16.4364 107.841 16.4791C107.403 16.7991 107.057 17.0177 106.801 17.1351C106.555 17.2524 106.31 17.3111 106.065 17.3111C105.819 17.3111 105.622 17.2684 105.473 17.1831C105.323 17.0977 105.249 16.9751 105.249 16.8151C105.249 16.6444 105.313 16.4791 105.441 16.3191C104.95 16.5964 104.374 17.0551 103.713 17.6951C103.051 18.3244 102.39 19.0817 101.729 19.9671C100.747 21.7804 100.193 22.7617 100.065 22.9111C99.9367 23.0604 99.8407 23.1351 99.7767 23.1351C99.7234 23.1351 99.6807 23.1191 99.6487 23.0871C99.6167 23.0657 99.574 23.0124 99.5207 22.9271C99.478 22.8417 99.414 22.7404 99.3287 22.6231C99.2433 22.4951 99.2007 22.3937 99.2007 22.3191C99.2007 22.2337 99.2753 22.0791 99.4247 21.8551C99.574 21.6204 99.7447 21.3964 99.9367 21.1831C100.139 20.9591 100.31 20.7564 100.449 20.5751C101.323 18.9324 101.857 17.9137 102.049 17.5191C102.241 17.1137 102.337 16.8204 102.337 16.6391C102.337 16.4471 102.289 16.3031 102.193 16.2071C102.107 16.1111 101.958 16.0631 101.745 16.0631C101.531 16.0631 101.217 16.2017 100.801 16.4791C100.705 16.5431 100.641 16.5751 100.609 16.5751C100.587 16.5751 100.577 16.5537 100.577 16.5111C100.577 16.4684 100.609 16.4257 100.673 16.3831C101.355 15.9137 101.931 15.6791 102.401 15.6791Z" fill="white"/>
<path d="M95.8038 20.1591C96.8918 19.0711 97.4358 18.3457 97.4358 17.9831C97.4358 17.8977 97.3931 17.8551 97.3078 17.8551C97.0945 17.8551 96.5931 18.6231 95.8038 20.1591ZM95.4838 15.8391C94.8118 15.8391 94.1238 16.1377 93.4198 16.7351C92.7265 17.3324 92.1665 18.0471 91.7398 18.8791C91.3131 19.7111 91.0998 20.4897 91.0998 21.2151C91.0998 21.9404 91.3985 22.3031 91.9958 22.3031C92.6571 22.3031 93.3931 22.0044 94.2038 21.4071C94.4278 20.6177 94.8865 19.7537 95.5798 18.8151C96.2198 17.9084 96.7531 17.3751 97.1798 17.2151C96.8171 16.2977 96.2518 15.8391 95.4838 15.8391ZM95.4198 15.4551C96.4438 15.4551 97.1158 16.0204 97.4358 17.1511C97.7131 17.1511 97.8518 17.2684 97.8518 17.5031C97.8518 17.7911 97.8038 18.0311 97.7078 18.2231C97.6118 18.4044 97.5371 18.5431 97.4838 18.6391C97.4411 18.7244 97.3611 18.8364 97.2438 18.9751C97.1158 19.1137 97.0305 19.2097 96.9878 19.2631C96.5505 19.7537 96.0918 20.2124 95.6118 20.6391C95.4411 21.1937 95.3558 21.5671 95.3558 21.7591C95.3558 22.2071 95.7131 22.4311 96.4278 22.4311C97.1425 22.4311 98.0278 22.0044 99.0838 21.1511C100.15 20.2977 100.902 19.5404 101.34 18.8791C101.382 18.8151 101.425 18.7831 101.468 18.7831C101.51 18.7831 101.532 18.7991 101.532 18.8311C101.532 18.8631 101.521 18.9004 101.5 18.9431C100.924 19.7111 100.348 20.3457 99.7718 20.8471C99.2065 21.3484 98.5078 21.8391 97.6758 22.3191C96.8545 22.7991 96.1025 23.0391 95.4198 23.0391C94.5665 23.0391 94.1398 22.6977 94.1398 22.0151C94.1398 21.9831 94.1451 21.9351 94.1558 21.8711C94.1665 21.8071 94.1718 21.7591 94.1718 21.7271C92.9665 22.4737 91.9745 22.8471 91.1958 22.8471C90.2998 22.8471 89.8518 22.3031 89.8518 21.2151C89.8518 20.4257 90.1291 19.5831 90.6838 18.6871C91.2491 17.7804 91.9691 17.0177 92.8438 16.3991C93.7291 15.7697 94.5878 15.4551 95.4198 15.4551Z" fill="white"/>
<path d="M91.0549 16.2872C91.0869 16.2872 91.1029 16.3086 91.1029 16.3512C91.1029 16.3939 91.0815 16.4312 91.0389 16.4632C91.0069 16.4846 90.9055 16.5486 90.7349 16.6552C90.5749 16.7619 90.4522 16.8419 90.3669 16.8952C90.2815 16.9486 90.1429 17.0286 89.9509 17.1352C89.7695 17.2419 89.6095 17.3272 89.4709 17.3912C89.3322 17.4659 89.1722 17.5352 88.9909 17.5992C88.6389 17.7272 88.3242 17.7912 88.0469 17.7912C87.7695 17.7912 87.5189 17.7592 87.2949 17.6952C87.4015 18.1966 87.4549 18.7512 87.4549 19.3592C87.4549 19.9672 87.3269 20.5539 87.0709 21.1192C86.8149 21.6952 86.5055 22.1219 86.1429 22.3992C85.1295 22.9539 84.5162 23.2312 84.3029 23.2312C84.2815 23.2312 84.2655 23.2312 84.2549 23.2312C83.6575 23.2312 83.2842 23.0446 83.1349 22.6712C83.0069 22.3512 82.9429 21.9299 82.9429 21.4072C82.9429 19.9992 82.8042 19.2952 82.5269 19.2952C82.3349 19.2952 81.8442 19.6099 81.0549 20.2392C80.2762 20.8686 79.7589 21.3006 79.5029 21.5352C79.2575 21.7592 79.0709 21.9406 78.9429 22.0792C78.8149 22.2072 78.7082 22.3139 78.6229 22.3992C78.5375 22.4846 78.4415 22.5699 78.3349 22.6552C78.1429 22.8259 77.9935 22.9112 77.8869 22.9112C77.7162 22.9112 77.6309 22.7832 77.6309 22.5272C77.6309 21.8019 78.3775 20.2872 79.8709 17.9832C80.5749 16.9059 80.9269 16.2766 80.9269 16.0952C80.9269 16.0312 80.8895 15.9619 80.8149 15.8872C80.7402 15.8126 80.6602 15.7752 80.5749 15.7752C80.1482 15.7752 79.5829 16.0099 78.8789 16.4792C78.7829 16.5432 78.7189 16.5752 78.6869 16.5752C78.6655 16.5752 78.6549 16.5539 78.6549 16.5112C78.6549 16.4686 78.6815 16.4259 78.7349 16.3832C78.7882 16.3406 78.9269 16.2446 79.1509 16.0952C79.3855 15.9352 79.6949 15.7646 80.0789 15.5832C80.4735 15.3912 80.8095 15.2952 81.0869 15.2952C81.3749 15.2952 81.6042 15.3806 81.7749 15.5512C81.9562 15.7112 82.0469 15.9299 82.0469 16.2072C82.0469 16.4846 81.8869 16.8739 81.5669 17.3752C81.2469 17.8766 80.8042 18.5486 80.2389 19.3912C79.6842 20.2232 79.2202 21.0126 78.8469 21.7592C79.4122 21.1619 80.1589 20.4792 81.0869 19.7112C82.0255 18.9432 82.7082 18.5592 83.1349 18.5592C83.6895 18.5592 83.9669 19.4232 83.9669 21.1512C83.9669 21.9832 84.0735 22.4952 84.2869 22.6872C84.3935 22.7726 84.5322 22.8152 84.7029 22.8152C85.2682 22.8152 85.7109 22.5006 86.0309 21.8712C86.3615 21.2419 86.5269 20.4846 86.5269 19.5992C86.5269 18.7139 86.3135 17.7486 85.8869 16.7032C85.8122 16.6286 85.6842 16.4846 85.5029 16.2712C85.3322 16.0472 85.2469 15.8926 85.2469 15.8072C85.2469 15.6792 85.3802 15.5459 85.6469 15.4072C85.9135 15.2686 86.0842 15.1992 86.1589 15.1992C86.2442 15.1992 86.3722 15.3432 86.5429 15.6312C86.7135 15.9086 86.8575 16.2019 86.9749 16.5112C87.5082 17.0446 88.0735 17.3112 88.6709 17.3112C88.8842 17.3112 89.0549 17.2899 89.1829 17.2472C89.3215 17.2046 89.4282 17.1726 89.5029 17.1512C89.5775 17.1299 89.6629 17.0926 89.7589 17.0392C89.8655 16.9859 89.9509 16.9486 90.0149 16.9272C90.0789 16.8952 90.1589 16.8472 90.2549 16.7832C90.3615 16.7192 90.4362 16.6712 90.4789 16.6392C90.5109 16.6179 90.5802 16.5752 90.6869 16.5112C90.9002 16.3619 91.0229 16.2872 91.0549 16.2872Z" fill="white"/>
<path d="M74.3086 17.6324L73.4446 19.4244C74.5326 18.2297 75.8446 16.6457 77.3806 14.6724C78.9272 12.699 80.0472 11.131 80.7406 9.96836C81.4339 8.80569 82.1432 7.42436 82.8686 5.82436C83.6046 4.22436 83.9726 3.10436 83.9726 2.46436C83.9726 2.16569 83.8766 2.01636 83.6846 2.01636C83.3112 2.01636 82.8526 2.30969 82.3086 2.89636C81.7646 3.48303 81.2152 4.23503 80.6606 5.15236C79.6899 6.77369 78.8632 8.28836 78.1806 9.69636L74.4686 17.3444C74.4899 17.4297 74.5006 17.515 74.5006 17.6004C74.5006 17.6857 74.4686 17.7284 74.4046 17.7284C74.3726 17.7284 74.3406 17.6964 74.3086 17.6324ZM73.8606 16.6404C73.5192 16.107 73.0286 15.8404 72.3886 15.8404C71.7592 15.8404 71.0926 16.139 70.3886 16.7364C69.6952 17.3337 69.1352 18.0484 68.7086 18.8804C68.2819 19.7124 68.0686 20.491 68.0686 21.2164C68.0686 21.9417 68.3672 22.3044 68.9646 22.3044C69.7646 22.3044 70.7779 21.7924 72.0046 20.7684C72.1859 20.1177 72.8046 18.7417 73.8606 16.6404ZM74.0206 16.2884L77.0606 10.1764C77.9992 8.25636 78.6286 7.04569 78.9486 6.54436C79.2792 6.04303 79.6152 5.54169 79.9566 5.04036C80.3086 4.52836 80.6339 4.11236 80.9326 3.79236C81.7539 2.92836 82.5112 2.29369 83.2046 1.88836C83.5672 1.67503 83.8659 1.56836 84.1006 1.56836C84.4846 1.56836 84.6766 1.83503 84.6766 2.36836C84.6766 3.58436 84.3619 4.86436 83.7326 6.20836C83.1032 7.54169 82.2552 8.97103 81.1886 10.4964C80.4632 11.5524 79.1886 13.163 77.3646 15.3284C75.5512 17.4937 74.1806 19.0404 73.2526 19.9684C73.0392 20.5124 72.9326 20.9924 72.9326 21.4084C72.9326 22.091 73.3112 22.4324 74.0686 22.4324C74.8259 22.4324 75.7432 22.011 76.8206 21.1684C77.9086 20.315 78.6712 19.5524 79.1086 18.8804C79.1512 18.8164 79.1939 18.7844 79.2366 18.7844C79.2792 18.7844 79.3006 18.8004 79.3006 18.8324C79.3006 18.8644 79.2899 18.9017 79.2686 18.9444C78.6926 19.7124 78.1166 20.347 77.5406 20.8484C76.9752 21.3497 76.2979 21.8297 75.5086 22.2884C74.7299 22.747 74.0632 22.9764 73.5086 22.9764C72.9646 22.9764 72.5539 22.8537 72.2766 22.6084C72.0099 22.3524 71.8766 22.0164 71.8766 21.6004C71.8766 21.4084 71.8979 21.227 71.9406 21.0564C70.5006 22.251 69.2419 22.8484 68.1646 22.8484C67.2686 22.8484 66.8206 22.3044 66.8206 21.2164C66.8206 20.427 67.0979 19.5844 67.6526 18.6884C68.2179 17.7817 68.9379 17.019 69.8126 16.4004C70.6979 15.771 71.5246 15.4564 72.2926 15.4564C73.0606 15.4564 73.6366 15.7337 74.0206 16.2884Z" fill="white"/>
<path d="M64.9328 18.8479L64.8688 18.4319C64.8688 18.3679 64.8901 18.3359 64.9328 18.3359L65.3168 18.5919C65.3382 18.6025 65.3595 18.6239 65.3808 18.6559C65.4128 18.6772 65.4341 18.6932 65.4448 18.7039C65.4661 18.7145 65.4875 18.7305 65.5088 18.7519C65.5195 18.7519 65.5302 18.7625 65.5408 18.7839C65.5622 18.8159 65.5728 18.8692 65.5728 18.9439C65.5728 19.2639 65.4288 19.6585 65.1408 20.1279C64.8635 20.5865 64.4741 21.0559 63.9728 21.5359C63.4822 22.0052 62.8262 22.4052 62.0048 22.7359C61.1835 23.0665 60.2715 23.2319 59.2688 23.2319C58.2662 23.2319 57.3062 22.9119 56.3888 22.2719C55.4715 21.6319 55.0128 20.8105 55.0128 19.8079C55.0128 19.0825 55.1675 18.4105 55.4768 17.7919C55.7968 17.1732 56.1915 16.6772 56.6608 16.3039C57.1301 15.9199 57.6422 15.5785 58.1968 15.2799C58.7515 14.9705 59.2635 14.7412 59.7328 14.5919C60.8315 14.2292 61.3808 14.0265 61.3808 13.9839C61.3808 13.8985 61.3168 13.8132 61.1888 13.7279C60.5488 13.2905 60.2288 12.6932 60.2288 11.9359C60.2288 11.1679 60.6555 10.4319 61.5088 9.72787C62.3728 9.02387 63.5355 8.67188 64.9968 8.67188C65.5195 8.67188 66.0742 8.73588 66.6608 8.86388C67.8128 9.13054 68.3888 9.49321 68.3888 9.95187C68.3888 10.0799 68.3301 10.2399 68.2128 10.4319C68.0955 10.6132 67.9995 10.7839 67.9248 10.9439C67.8502 11.0932 67.7915 11.1679 67.7488 11.1679C67.7062 11.1679 67.6635 11.1039 67.6208 10.9759C67.4928 10.5385 67.1621 10.1119 66.6288 9.69588C66.1061 9.26921 65.4715 9.05587 64.7248 9.05587C63.9888 9.05587 63.3862 9.13054 62.9168 9.27987C62.4368 9.40788 62.0901 9.58921 61.8768 9.82388C61.5035 10.2292 61.3168 10.6399 61.3168 11.0559C61.3168 11.4612 61.4288 11.8772 61.6528 12.3039C61.8875 12.7305 62.1808 13.0452 62.5328 13.2479C62.9595 13.4505 63.1728 13.5785 63.1728 13.6319C63.1728 13.8132 63.1301 13.9572 63.0448 14.0639C62.9595 14.1705 62.7781 14.2399 62.5008 14.2719C61.5621 14.3785 60.7355 14.5705 60.0208 14.8479C59.3061 15.1252 58.7355 15.4399 58.3088 15.7919C57.8928 16.1332 57.5515 16.5279 57.2848 16.9759C56.8368 17.7332 56.6128 18.6025 56.6128 19.5839C56.6128 20.1172 56.7248 20.5865 56.9488 20.9919C57.1728 21.3972 57.4662 21.7065 57.8288 21.9199C58.8315 22.3145 59.5782 22.5279 60.0688 22.5599C61.5515 22.5599 62.7302 22.1812 63.6048 21.4239C64.4902 20.6665 64.9328 19.8079 64.9328 18.8479Z" fill="white"/>
<path d="M42.1194 12.48C42.9941 11.7547 43.7567 11.0987 44.4074 10.512C45.0687 9.91467 45.7674 9.216 46.5034 8.416C47.2501 7.616 47.8634 6.864 48.3434 6.16C48.8234 5.44533 49.2234 4.672 49.5434 3.84C49.8634 2.99733 50.0234 2.18667 50.0234 1.408C50.0234 1.22667 49.9861 1.07733 49.9114 0.960001C49.8367 0.832 49.7354 0.768 49.6074 0.768C49.1274 0.768 48.4127 1.456 47.4634 2.832C46.5141 4.19733 45.5114 5.89867 44.4554 7.936L42.1194 12.48ZM40.2954 14.24C38.1194 15.808 37.0261 16.5867 37.0154 16.576C36.9834 16.576 36.9674 16.5547 36.9674 16.512C36.9674 16.4693 36.9994 16.4267 37.0634 16.384C38.9941 14.9867 40.1461 14.1333 40.5194 13.824L43.3034 8.544C43.3994 8.36267 43.6074 7.96267 43.9274 7.344C44.2474 6.72533 44.4714 6.29867 44.5994 6.064C44.7381 5.82933 44.9514 5.45067 45.2394 4.928C45.5381 4.40533 45.7941 4.00533 46.0074 3.728C46.2207 3.44 46.4821 3.09867 46.7914 2.704C47.3461 2 48.0074 1.376 48.7754 0.832001C49.5114 0.277334 50.1727 0 50.7594 0C50.9514 0 51.0901 0.0799999 51.1754 0.24C51.2607 0.4 51.3034 0.554667 51.3034 0.704C51.3034 2.47467 50.5087 4.34667 48.9194 6.32C48.3861 6.98133 47.8794 7.568 47.3994 8.08C46.9301 8.592 46.3327 9.17333 45.6074 9.824C44.7114 10.6347 43.4634 11.6907 41.8634 12.992L39.5914 17.568C40.0394 17.12 40.5354 16.688 41.0794 16.272C41.6341 15.856 42.0607 15.5573 42.3594 15.376C43.0847 14.9387 43.7087 14.72 44.2314 14.72C44.5727 14.72 44.8501 14.8427 45.0634 15.088C45.2767 15.3333 45.3834 15.6693 45.3834 16.096C45.3834 16.512 45.2021 17.072 44.8394 17.776C44.4767 18.4693 44.1141 19.1893 43.7514 19.936C43.3887 20.6827 43.2074 21.3333 43.2074 21.888C43.2074 22.2507 43.3674 22.432 43.6874 22.432C44.0394 22.432 44.5354 22.24 45.1754 21.856C45.8261 21.4613 46.4607 20.992 47.0794 20.448C47.7087 19.904 48.1887 19.3813 48.5194 18.88C48.5621 18.816 48.6047 18.784 48.6474 18.784C48.6901 18.784 48.7114 18.8 48.7114 18.832C48.7114 18.864 48.7007 18.9013 48.6794 18.944C48.1034 19.712 47.5274 20.3467 46.9514 20.848C46.3861 21.3493 45.7087 21.8293 44.9194 22.288C44.1407 22.7467 43.4954 22.976 42.9834 22.976C42.2581 22.976 41.8954 22.5813 41.8954 21.792C41.8954 21.28 42.0927 20.6293 42.4874 19.84C42.8821 19.0507 43.2767 18.304 43.6714 17.6C44.0661 16.896 44.2634 16.4213 44.2634 16.176C44.2634 15.9307 44.1994 15.7333 44.0714 15.584C43.9434 15.4347 43.7727 15.36 43.5594 15.36C42.9941 15.36 42.2261 15.7867 41.2554 16.64C40.2847 17.4827 39.6127 18.1867 39.2394 18.752C38.0554 20.512 37.3727 21.8453 37.1914 22.752C37.1701 22.8373 37.0634 22.88 36.8714 22.88C36.6794 22.88 36.5194 22.896 36.3914 22.928C36.2634 22.96 36.1887 22.976 36.1674 22.976C35.9754 22.976 35.8794 22.9013 35.8794 22.752C35.8794 22.6453 36.1087 22.1387 36.5674 21.232C37.0261 20.3253 37.4367 19.5413 37.7994 18.88C39.0901 16.416 39.9221 14.8693 40.2954 14.24Z" fill="white"/>
<path d="M29.0247 20.0314L27.8407 22.2394C28.6834 22.0687 29.526 21.7594 30.3687 21.3114C31.222 20.8527 31.9367 20.362 32.5127 19.8394C33.0994 19.306 33.574 18.7887 33.9367 18.2874C34.31 17.786 34.4967 17.386 34.4967 17.0874C34.4967 16.4687 34.262 16.1594 33.7927 16.1594C33.398 16.1594 32.6834 16.5914 31.6487 17.4554C30.614 18.3087 29.7394 19.1674 29.0247 20.0314ZM29.1527 23.6474C28.4914 23.6474 27.862 23.498 27.2647 23.1994C26.166 25.2154 24.8967 27.7007 23.4567 30.6554C22.0167 33.61 20.7474 36.0634 19.6487 38.0154C19.478 38.3247 19.2594 38.602 18.9927 38.8474C18.726 39.0927 18.4754 39.2794 18.2407 39.4074C17.9954 39.5247 17.75 39.626 17.5047 39.7114C17.1314 39.8394 16.87 39.9034 16.7207 39.9034C16.5607 39.9034 16.4807 39.8714 16.4807 39.8074C16.4807 39.754 16.5074 39.7114 16.5607 39.6794C16.6034 39.6474 16.7047 39.5887 16.8647 39.5034C17.014 39.418 17.19 39.2954 17.3927 39.1354C17.5847 38.986 17.8514 38.6767 18.1927 38.2074C18.5234 37.7487 19.414 36.2554 20.8647 33.7274C22.3154 31.21 24.31 27.6047 26.8487 22.9114C26.7847 22.8474 26.7527 22.7994 26.7527 22.7674C26.7527 22.7247 26.8007 22.666 26.8967 22.5914C26.9927 22.506 27.062 22.4634 27.1047 22.4634C28.3634 20.1487 28.9927 18.6234 28.9927 17.8874C28.9927 17.1514 28.886 16.746 28.6727 16.6714C28.5874 16.6394 28.5447 16.6074 28.5447 16.5754C28.5447 16.5327 28.5554 16.5007 28.5767 16.4794C28.6087 16.458 28.6514 16.4314 28.7047 16.3994C28.758 16.3674 28.8114 16.33 28.8647 16.2874C28.918 16.2447 28.9767 16.1967 29.0407 16.1434C29.1154 16.0794 29.1634 16.0314 29.1847 15.9994C29.238 15.9354 29.334 15.9034 29.4727 15.9034C29.6434 15.9034 29.782 16.0634 29.8887 16.3834C29.9954 16.6927 30.0487 17.0394 30.0487 17.4234C30.0487 17.8074 29.9207 18.2714 29.6647 18.8154C30.806 17.6847 31.83 16.826 32.7367 16.2394C33.6434 15.6527 34.3687 15.3594 34.9127 15.3594C35.4674 15.3594 35.7447 15.6954 35.7447 16.3674C35.7447 17.0394 35.398 17.786 34.7047 18.6074C34.0114 19.418 33.0727 20.1914 31.8887 20.9274C30.7047 21.6634 29.4834 22.1967 28.2247 22.5274C28.822 22.8474 29.462 23.0074 30.1447 23.0074C30.8274 23.0074 31.478 22.938 32.0967 22.7994C32.7154 22.6607 33.2807 22.4527 33.7927 22.1754C35.062 21.4927 36.1554 20.6554 37.0727 19.6634C37.414 19.29 37.6167 19.05 37.6807 18.9434C37.7554 18.8367 37.814 18.7834 37.8567 18.7834C37.8994 18.7834 37.9207 18.7994 37.9207 18.8314C37.9207 18.8634 37.91 18.9007 37.8887 18.9434C37.3447 19.6794 36.7687 20.3194 36.1607 20.8634C34.0914 22.7194 31.7554 23.6474 29.1527 23.6474Z" fill="white"/>
<path d="M26.664 12.48C27.5387 11.7547 28.3013 11.0987 28.952 10.512C29.6133 9.91467 30.312 9.216 31.048 8.416C31.7947 7.616 32.408 6.864 32.888 6.16C33.368 5.44533 33.768 4.672 34.088 3.84C34.408 2.99733 34.568 2.18667 34.568 1.408C34.568 1.22667 34.5307 1.07733 34.456 0.960001C34.3814 0.832 34.28 0.768 34.152 0.768C33.672 0.768 32.9573 1.456 32.008 2.832C31.0587 4.19733 30.056 5.89867 29 7.936L26.664 12.48ZM24.84 14.24C23.7627 15.0187 23.0267 15.5627 22.632 15.872C22.0347 16.3413 21.7147 16.576 21.672 16.576C21.6293 16.576 21.608 16.5547 21.608 16.512C21.608 16.4693 21.64 16.4267 21.704 16.384C23.0054 15.4453 24.1253 14.592 25.064 13.824L27.848 8.544C27.9653 8.32 28.2 7.856 28.552 7.152C28.9147 6.43733 29.1707 5.936 29.32 5.648C29.4693 5.36 29.72 4.928 30.072 4.352C30.424 3.776 30.7387 3.32267 31.016 2.992C31.7627 2.07467 32.5307 1.35467 33.32 0.832001C34.056 0.277334 34.7174 0 35.304 0C35.496 0 35.6347 0.0799999 35.72 0.24C35.8054 0.4 35.848 0.554667 35.848 0.704C35.848 2.47467 35.0534 4.34667 33.464 6.32C32.9307 6.98133 32.424 7.568 31.944 8.08C31.4747 8.592 30.8774 9.17333 30.152 9.824C29.256 10.6347 28.008 11.6907 26.408 12.992L24.232 17.248C23.848 18.016 23.5494 18.6133 23.336 19.04C23.1334 19.456 22.9254 19.9413 22.712 20.496C22.5094 21.0507 22.408 21.4667 22.408 21.744C22.408 22.0213 22.4934 22.2613 22.664 22.464C22.8347 22.656 23.0587 22.752 23.336 22.752C24.008 22.752 24.7547 22.5333 25.576 22.096C26.3974 21.6587 27.1547 21.1413 27.848 20.544C28.5413 19.936 29.0533 19.3813 29.384 18.88C29.4267 18.816 29.4694 18.784 29.512 18.784C29.5547 18.784 29.576 18.8 29.576 18.832C29.576 18.864 29.5654 18.9013 29.544 18.944C28.968 19.712 28.392 20.3467 27.816 20.848C27.2507 21.3493 26.648 21.7867 26.008 22.16C25.368 22.5333 24.7494 22.8 24.152 22.96C23.5654 23.12 23.0533 23.2 22.616 23.2C22.1787 23.2 21.832 23.0827 21.576 22.848C21.32 22.624 21.192 22.3413 21.192 22C21.192 21.6587 21.2453 21.328 21.352 21.008C21.4693 20.6773 21.5814 20.4 21.688 20.176C21.8054 19.952 22.0347 19.52 22.376 18.88L24.84 14.24Z" fill="white"/>
<path d="M16.8351 20.1591C17.9231 19.0711 18.4671 18.3457 18.4671 17.9831C18.4671 17.8977 18.4244 17.8551 18.3391 17.8551C18.1257 17.8551 17.6244 18.6231 16.8351 20.1591ZM16.5151 15.8391C15.8431 15.8391 15.1551 16.1377 14.4511 16.7351C13.7577 17.3324 13.1977 18.0471 12.7711 18.8791C12.3444 19.7111 12.1311 20.4897 12.1311 21.2151C12.1311 21.9404 12.4297 22.3031 13.0271 22.3031C13.6884 22.3031 14.4244 22.0044 15.2351 21.4071C15.4591 20.6177 15.9177 19.7537 16.6111 18.8151C17.2511 17.9084 17.7844 17.3751 18.2111 17.2151C17.8484 16.2977 17.2831 15.8391 16.5151 15.8391ZM16.4511 15.4551C17.4751 15.4551 18.1471 16.0204 18.4671 17.1511C18.7444 17.1511 18.8831 17.2684 18.8831 17.5031C18.8831 17.7911 18.8351 18.0311 18.7391 18.2231C18.6431 18.4044 18.5684 18.5431 18.5151 18.6391C18.4724 18.7244 18.3924 18.8364 18.2751 18.9751C18.1471 19.1137 18.0617 19.2097 18.0191 19.2631C17.5817 19.7537 17.1231 20.2124 16.6431 20.6391C16.4724 21.1937 16.3871 21.5671 16.3871 21.7591C16.3871 22.2071 16.7444 22.4311 17.4591 22.4311C18.1737 22.4311 19.0591 22.0044 20.1151 21.1511C21.1817 20.2977 21.9337 19.5404 22.3711 18.8791C22.4137 18.8151 22.4564 18.7831 22.4991 18.7831C22.5417 18.7831 22.5631 18.7991 22.5631 18.8311C22.5631 18.8631 22.5524 18.9004 22.5311 18.9431C21.9551 19.7111 21.3791 20.3457 20.8031 20.8471C20.2377 21.3484 19.5391 21.8391 18.7071 22.3191C17.8857 22.7991 17.1337 23.0391 16.4511 23.0391C15.5977 23.0391 15.1711 22.6977 15.1711 22.0151C15.1711 21.9831 15.1764 21.9351 15.1871 21.8711C15.1977 21.8071 15.2031 21.7591 15.2031 21.7271C13.9977 22.4737 13.0057 22.8471 12.2271 22.8471C11.3311 22.8471 10.8831 22.3031 10.8831 21.2151C10.8831 20.4257 11.1604 19.5831 11.7151 18.6871C12.2804 17.7804 13.0004 17.0177 13.8751 16.3991C14.7604 15.7697 15.6191 15.4551 16.4511 15.4551Z" fill="white"/>
<path d="M3.744 16.2239L3.904 15.9039C3.904 15.9039 3.79733 15.9252 3.584 15.9679C3.62667 16.0319 3.68 16.1172 3.744 16.2239ZM5.568 15.1999C7.40267 14.7945 8.816 14.3785 9.808 13.9519C10.3307 13.7172 10.8427 13.4559 11.344 13.1679C11.856 12.8799 12.256 12.5545 12.544 12.1919C12.8427 11.8185 12.992 11.4239 12.992 11.0079C12.992 10.5812 12.8267 10.1919 12.496 9.83988C12.176 9.48788 11.7227 9.31188 11.136 9.31188C10.3467 9.31188 9.64267 9.57854 9.024 10.1119C8.704 10.3892 8.41067 10.6825 8.144 10.9919C7.87733 11.2905 7.584 11.6959 7.264 12.2079C6.79467 12.9545 6.22933 13.9519 5.568 15.1999ZM0.672 23.1039C0.522667 23.1679 0.410667 23.2265 0.336 23.2799C0.261333 23.3332 0.186667 23.3599 0.112 23.3599C0.0373333 23.3599 0 23.3279 0 23.2639C0 23.2212 0.096 23.0559 0.288 22.7679C0.490667 22.4692 0.608 22.2932 0.64 22.2399C1.35467 20.9279 1.936 19.8185 2.384 18.9119C2.832 18.0052 3.18933 17.3012 3.456 16.7999C3.15733 16.2025 3.008 15.8505 3.008 15.7439C3.008 15.7119 3.38133 15.6265 4.128 15.4879C4.85333 14.1119 5.45067 13.0772 5.92 12.3839C6.63467 11.2532 7.60533 10.3519 8.832 9.67988C10.0587 9.00788 11.2 8.67188 12.256 8.67188C12.832 8.67188 13.296 8.82654 13.648 9.13587C14 9.43454 14.176 9.85587 14.176 10.3999C14.176 11.4879 13.4827 12.4639 12.096 13.3279C10.7093 14.1919 8.45867 14.9545 5.344 15.6159L4.448 17.3439L8 23.1999C8.68267 24.4265 9.33333 25.3225 9.952 25.8879C10.5813 26.4639 11.3173 26.7519 12.16 26.7519C13.3013 26.7519 14.1973 26.2932 14.848 25.3759C14.9973 25.2265 15.1573 25.1519 15.328 25.1519C15.4987 25.1519 15.584 25.1945 15.584 25.2799V25.3759C14.3573 26.5279 13.0133 27.1039 11.552 27.1039C10.0907 27.1039 8.97067 26.5279 8.192 25.3759C7.72267 24.6719 6.98133 23.3705 5.968 21.4719C4.96533 19.5625 4.34133 18.3999 4.096 17.9839C3.712 18.7839 3.30667 19.7439 2.88 20.8639C2.464 21.9732 2.224 22.5972 2.16 22.7359C2.10667 22.8745 2.01067 22.9492 1.872 22.9599C1.73333 22.9812 1.536 22.9972 1.28 23.0079C1.03467 23.0185 0.832 23.0505 0.672 23.1039Z" fill="white"/>
</svg>
