<svg width="97" height="60" viewBox="0 0 97 60" fill="none" xmlns="http://www.w3.org/2000/svg">
<path fill-rule="evenodd" clip-rule="evenodd" d="M81.7316 59.5756V46.6981H76.4171V59.5756H81.7316ZM53.5962 54.2286V46.893H48.4451V52.5005C48.4451 54.1303 48.38 54.5873 48.2823 55.0112C47.9235 56.1851 46.6844 56.7056 45.4134 56.7056C43.6533 56.7056 42.8381 56.0212 42.5119 54.9455C42.4142 54.5879 42.3817 54.1965 42.3491 53.8052C42.3165 53.3814 42.3491 52.9244 42.3491 52.4365V46.8935H37.1329V54.2617C37.1329 55.9252 37.6875 57.1637 38.5999 58.0109C40.1646 59.5436 42.8055 60 45.2506 60C48.2171 60 50.4993 59.5761 52.1292 57.9789C52.9775 57.1631 53.5962 56.0874 53.5962 54.2286ZM28.2977 53.3157C28.0394 53.2708 27.7777 53.2492 27.5156 53.2511H21.6475C21.3539 53.2511 21.0277 53.2837 20.8649 53.3157C20.9626 53.2174 21.1585 53.0226 21.3539 52.7616L23.9943 48.3925C24.3531 47.8064 24.5159 47.4151 24.581 47.2523C24.6461 47.4151 24.809 47.8064 25.1677 48.4262L27.8738 52.8278C28.0046 53.0226 28.2 53.2174 28.2977 53.3157ZM38.1434 59.5756L26.4068 41.9715H19.8218L21.5493 44.0252C21.5819 44.0577 21.6475 44.0898 21.7121 44.1234C21.647 44.156 21.5819 44.188 21.5493 44.2206L11.3128 59.5756H17.246L18.8438 56.9346C18.9089 56.8044 18.9415 56.6736 18.9415 56.609C19.0066 56.609 19.17 56.6736 19.3328 56.6736H29.9281C30.0909 56.6736 30.2211 56.641 30.2863 56.609C30.2803 56.7007 30.303 56.7919 30.3514 56.8701L32.0143 59.5756H38.1434ZM74.9832 52.958C74.9832 51.523 74.396 49.8601 72.5708 47.5453L68.1692 41.9709H62.0401L65.5282 45.8829C66.1155 46.5353 66.865 47.1215 66.865 47.1215C66.0178 46.6319 64.9421 46.4371 64.0943 46.4371C62.0732 46.4371 60.0184 46.861 58.1937 47.8721C56.2371 48.9467 54.9329 50.7404 54.9329 53.1209C54.9329 54.9461 55.7481 56.3485 56.7913 57.4242C59.1392 59.771 63.4088 59.9995 64.9741 59.9995C67.2883 59.9995 70.9073 59.4779 72.9621 57.6196C74.1686 56.5108 74.9832 54.9792 74.9832 52.958ZM69.8972 53.1209C69.8972 54.4576 69.0164 55.4676 67.9081 56.0218C66.9952 56.5113 65.919 56.6416 64.9741 56.6416C64.0292 56.6416 62.9204 56.4456 62.0075 55.9892C60.8992 55.4351 60.0509 54.3594 60.0509 53.1854C60.0509 51.7841 61.1266 50.6747 62.3988 50.1206C63.1814 49.763 64.1269 49.6322 64.8758 49.6322C65.5939 49.6322 66.637 49.7293 67.4522 50.056C68.9198 50.6747 69.8972 51.8487 69.8972 53.1209ZM80.0433 2.4288e-05C76.2261 -0.00613815 72.5196 1.28164 69.5286 3.65319C66.5376 1.28148 62.831 -0.00631258 59.0139 2.4288e-05C55.1969 -0.00588252 51.4907 1.28187 48.4997 3.65319C45.5091 1.28137 41.8026 -0.00644941 37.9856 2.4288e-05C34.1687 -0.00588252 30.4624 1.28187 27.4714 3.65319C24.4805 1.2818 20.7742 -0.0059697 16.9573 2.4288e-05C7.5906 2.4288e-05 0 7.59005 0 16.9573C0 26.3234 7.59005 33.9145 16.9573 33.9145C20.7742 33.9204 24.4805 32.6326 27.4714 30.2614C30.4623 32.6327 34.1686 33.9205 37.9856 33.9145C41.8026 33.9209 45.509 32.6331 48.4997 30.2614C51.4907 32.6327 55.1969 33.9204 59.0139 33.9145C62.831 33.9208 66.5376 32.633 69.5286 30.2614C72.5195 32.633 76.2261 33.9208 80.0433 33.9145C89.41 33.9145 97 26.3239 97 16.9573C97 7.59061 89.41 2.4288e-05 80.0433 2.4288e-05ZM24.6969 27.4913C22.5361 29.0675 19.8367 30.0295 16.9573 30.0295C9.73151 30.0295 3.88444 24.183 3.88444 16.9573C3.88444 9.73151 9.73151 3.88445 16.9573 3.88445C19.8367 3.88445 22.5345 4.847 24.6969 6.42384C22.3144 9.41705 21.0209 13.1316 21.0288 16.9573C21.0306 20.7814 22.3231 24.4931 24.6969 27.4913ZM27.472 24.7245C25.8056 22.4782 24.9084 19.7542 24.9138 16.9573C24.9068 14.1601 25.8041 11.4356 27.472 9.19008C29.1395 11.4358 30.0368 14.1602 30.0302 16.9573C30.0354 19.7542 29.1383 22.4781 27.472 24.7245ZM45.7258 27.4913C43.4808 29.144 40.7645 30.0324 37.9767 30.0257C35.1948 30.0313 32.4846 29.1429 30.246 27.4913C32.62 24.4934 33.9125 20.7819 33.914 16.9578C33.922 13.1322 32.6285 9.4176 30.246 6.42439C32.4844 4.77232 35.1947 3.88361 37.9767 3.88942C40.8771 3.88942 43.5567 4.82768 45.7258 6.42439C43.3432 9.4176 42.0497 13.1322 42.0577 16.9578C42.0593 20.7819 43.3518 24.4934 45.7258 27.4913ZM48.4997 24.7245C46.8333 22.4782 45.9361 19.7542 45.9416 16.9573C45.9348 14.1602 46.8321 11.4357 48.4997 9.19008C50.1677 11.4356 51.0652 14.1601 51.0584 16.9573C51.0638 19.7543 50.1664 22.4783 48.4997 24.7245ZM66.7541 27.4913C64.585 29.0885 61.9054 30.0257 59.0056 30.0257C56.1058 30.0257 53.4433 29.0869 51.2742 27.4913C53.6486 24.4935 54.9411 20.7819 54.9423 16.9578C54.9503 13.1322 53.6568 9.4176 51.2742 6.42439C53.4433 4.82824 56.1058 3.88942 59.0056 3.88942C61.9054 3.88942 64.585 4.82768 66.7541 6.42439C64.3718 9.41775 63.0783 13.1322 63.086 16.9578C63.0879 20.7818 64.3803 24.4932 66.7541 27.4913ZM69.5291 24.7245C67.8627 22.4782 66.9655 19.7542 66.9709 16.9573C66.9637 14.1601 67.861 11.4355 69.5291 9.19008C71.1967 11.4358 72.0939 14.1602 72.0873 16.9573C72.0923 19.7541 71.1952 22.478 69.5291 24.7245ZM80.0433 30.0295C77.1628 30.0295 74.4639 29.0675 72.3036 27.4913C74.6775 24.4933 75.9699 20.7818 75.9717 16.9578C75.9794 13.1322 74.6859 9.41775 72.3036 6.42439C74.4661 4.84811 77.1633 3.885 80.0433 3.885C87.2679 3.885 93.1161 9.73206 93.1161 16.9578C93.1161 24.1825 87.2679 30.0295 80.0433 30.0295Z" fill="white"/>
</svg>
