<svg width="180" height="50" viewBox="0 0 180 50" fill="none" xmlns="http://www.w3.org/2000/svg">
<path fill-rule="evenodd" clip-rule="evenodd" d="M152.225 34.0449H157.526L159.293 31.2598H170.824L168.638 27.4709H161.494L165.613 20.5824L173.938 34.0449H179.24L168.218 16.0449H162.917L152.225 34.0449ZM54.4229 34.0449H59.724L61.4911 31.2598H73.0218L70.8355 27.4709H63.6774L67.8105 20.5824L76.1367 34.0449H81.4378L70.4162 16.0449H65.115L54.4229 34.0449ZM128.774 33.9551H133.401V20.0882H144.228C145.816 20.0882 146.669 20.8369 146.669 22.0948C146.669 23.3977 145.531 23.9667 144.228 23.9667H134.495L135.258 27.8902H142.746C146.28 27.8902 146.37 28.729 146.789 34.0449H151.251L150.997 29.6572C150.907 27.8155 149.904 27.0518 149.14 26.5422L148.885 26.3777C150.233 25.614 151.326 24.5358 151.326 21.6755C151.326 18.0663 148.63 16.0449 144.677 16.0449H128.774L128.774 33.9551ZM101.759 16.0449H87.8621C84.1633 16.0449 81.1383 18.0666 81.1383 21.9301V28.729C81.1383 32.0982 84.2531 34.0449 87.3679 34.0449H101.759V30.3311L88.0418 30.3161C86.5144 30.3161 85.7656 29.073 85.7656 27.6354V22.7687C85.7656 20.5824 87.0235 19.8336 89.0451 19.8336H101.759V16.0449ZM104.425 16.0449V27.8153C104.425 31.005 106.132 34.0447 110.325 34.0447H120.268C124.551 34.0447 126.004 30.9301 126.004 27.89V16.0449H121.287V28.3093C121.287 29.822 120.178 30.4956 118.471 30.4956H111.792C109.471 30.4956 109.127 28.9834 109.127 27.1414V16.0449H104.425Z" fill="#D6D6D8"/>
<path fill-rule="evenodd" clip-rule="evenodd" d="M22.0871 45.043C7.46124 45.043 0.7854 36.5112 0.7854 25.0428C0.7854 11.7188 8.40306 5.04297 22.0871 5.04297C36.4914 5.04297 43.3889 12.162 43.3889 25.0428C43.3889 38.0066 35.5219 45.043 22.0871 45.043ZM11.8102 40.5274L14.1648 24.101L20.0927 7.06511C11.4224 7.64682 4.10947 11.9681 4.10947 24.9874C4.10947 32.6054 6.93493 37.757 11.8102 40.5274ZM21.4777 7.00971V20.8046H22.8351V7.00971H21.4777ZM24.2755 7.06511L30.2034 24.101L32.558 40.5555C37.4333 37.8127 40.2033 32.6604 40.2033 24.9878C40.2033 11.5526 32.6688 7.59142 24.2755 7.06511ZM31.3945 41.1368L23.306 23.7686H20.9514L12.9183 41.1091C15.5221 42.3002 18.6246 42.9096 22.1425 42.9096C25.7159 42.9096 28.8184 42.3279 31.3945 41.1368Z" fill="#D6D6D8"/>
</svg>
