<svg width="272" height="54" viewBox="0 0 272 54" fill="none" xmlns="http://www.w3.org/2000/svg">
<path d="M177.556 16.6187V11.3298H141.667V18.8853H159.233L141.667 35.5075V41.552H177.556V33.9964H160.178L177.556 17.3742V16.6187ZM260.667 11.3298H272V41.552H260.667V11.3298ZM230.444 22.0964V11.3298H219.111V41.552H230.444V29.652L242.344 41.552H257.644L240.644 25.6853L258.022 11.3298H242.722L230.444 22.0964ZM204 11.3298V29.652C204 32.2964 203.244 35.5075 197.2 35.5075C191.156 35.5075 190.778 32.2964 190.778 29.652V11.3298H179.444V30.5964C179.444 39.6631 181.9 43.4409 196.822 43.4409C211.744 43.4409 215.333 39.6631 215.333 30.5964V11.3298H204ZM128.444 11.3298V29.652C128.444 32.2964 127.689 35.5075 121.644 35.5075C115.6 35.5075 115.222 32.2964 115.222 29.652V11.3298H103.889V30.5964C103.889 39.6631 107.478 43.4409 122.4 43.4409C137.322 43.4409 139.778 39.6631 139.778 30.5964V11.3298H128.444ZM78.3889 32.1075C78.9556 34.1853 80.2778 35.5075 84.0556 35.5075C86.8889 35.5075 88.2111 34.9409 88.2111 33.9964C88.2111 31.5409 86.5111 31.5409 74.9889 30.0298C63.6556 28.5187 64.0334 21.3409 64.0334 20.2076C64.0334 10.5742 77.6334 10.5742 82.3556 10.5742C90.8556 10.5742 100.111 13.2187 100.111 20.5853H86.8889C86.5111 19.0742 84.6223 17.5631 81.2223 17.5631C78.3889 17.5631 76.8778 18.1298 76.8778 19.2631C76.8778 21.3409 77.8223 21.152 88.9667 22.852C100.3 24.552 101.433 30.0298 101.433 33.052C101.433 43.0631 87.4556 42.4964 82.7334 42.4964C71.4 42.4964 64.2223 40.0409 63.8445 31.9187H78.3889V32.1075Z" fill="#D6D6D8"/>
<path d="M51.9444 18.3222C48.7333 20.9667 39.1 24.7444 33.2444 20.9667L19.6444 11.5222L17.3778 12.8444L51.9444 36.8333C43.2555 40.2333 33.2444 47.0333 26.0667 53.0778L0.377778 34.7556C4.15555 31.9222 13.0333 28.5222 18.8889 32.3L32.6778 41.9333L34.5667 40.6111L0 16.4333C7.36666 13.7889 20.7778 5.47778 25.8778 0L51.9444 18.3222Z" fill="#D6D6D8"/>
</svg>
