<svg width="195" height="50" viewBox="0 0 195 50" fill="none" xmlns="http://www.w3.org/2000/svg">
<path fill-rule="evenodd" clip-rule="evenodd" d="M20.4163 24.8919L21.3112 24.3896L32.5111 31.9176L20.4163 24.8919ZM19.7729 24.4904L18.9404 24.0207L19.8686 9.65234L19.7729 24.4904ZM18.77 24.4415L15.0585 27.4526L19.5058 24.8807L18.77 24.4415Z" fill="#D6D6D8"/>
<path fill-rule="evenodd" clip-rule="evenodd" d="M19.9995 5.39209C8.95446 5.39209 -0.000488281 14.1704 -0.000488281 24.9999C-0.000488281 35.8294 8.95446 44.6078 19.9995 44.6078C31.0456 44.6078 40.0005 35.8294 40.0005 24.9999C40.0005 14.1704 31.0456 5.39209 19.9995 5.39209ZM20.0016 43.5623C15.4316 43.5623 11.1547 42.0685 7.96812 39.3265C4.86777 36.6568 2.45963 32.4149 1.86513 27.906C3.27447 36.4806 10.8585 43.0304 20.0016 43.0304C30.1476 43.0304 38.3729 34.9664 38.3729 25.0193C38.3729 20.8925 36.8004 16.8513 34.4183 13.8148C36.8316 15.6398 38.9155 20.8375 38.9155 25.0193C38.9155 35.2598 30.4469 43.5623 20.0016 43.5623ZM18.2649 23.6029L19.8821 7.34544L19.9995 7.34442H20.0411L20.2001 24.4528L22.9835 22.8214L20.1835 7.34645C30.0447 7.44326 38.0102 15.3086 38.0102 24.9999C38.0102 28.1139 37.1871 31.0383 35.7445 33.5775L23.2443 23.3237L22.0605 23.982L35.6592 33.7243L35.5553 33.8995L20.2625 25.274V28.3166L35.4503 34.0717C32.3022 39.2134 26.5609 42.6554 19.9985 42.6554C13.4434 42.6554 7.70621 39.2205 4.55701 34.087L19.7355 28.2851V25.2435L4.42502 33.869L4.3242 33.6978L17.8751 23.982L16.6913 23.3237L4.22546 33.5235C2.7552 30.9142 1.98622 27.981 1.99089 24.9999C1.99089 15.385 9.83062 7.56553 19.5848 7.34849L17.1455 22.9447L18.2649 23.6029ZM19.9995 6.44569C9.55312 6.44569 1.08562 14.7482 1.08562 24.9887C1.08562 29.1481 2.62488 33.0823 4.97275 36.4805C5.76888 37.9407 6.63049 38.8445 7.78 40.0377C3.27551 36.5101 0.361202 31.0801 0.361202 24.9877C0.361202 14.3549 9.15297 5.73446 19.9995 5.73446C30.8461 5.73446 39.8052 14.7298 39.483 24.9877C39.2107 14.9795 30.2734 6.44569 19.9995 6.44569ZM107.854 26.2981C107.854 22.8591 106.303 20.0712 102.898 20.0712C99.7376 20.0712 97.9406 22.8591 97.9406 26.2981C97.9406 29.7371 99.4424 32.5249 102.898 32.5249C106.254 32.5249 107.241 30.8946 107.756 28.2871L106.599 28.283C106.502 29.25 105.858 31.4285 103.392 31.4764C100.578 31.5325 100.382 27.9926 100.43 26.2991L100.479 25.3311C100.479 24.2673 100.381 21.1218 102.996 21.1218C105.068 21.1218 105.365 23.7354 105.365 25.3311H100.479L100.43 26.2991L107.854 26.2981ZM49.47 15.7865L49.4201 16.5609H50.1601C50.7026 16.5609 51.3948 16.6088 51.3948 17.2864L51.1485 30.4004C51.1485 30.8844 50.9011 31.4163 49.9138 31.4163H49.1738L49.1239 32.1907H54.1085V31.4163H53.2698C52.6275 31.4163 52.1837 31.2227 52.1837 30.4004L52.43 17.8193L57.7608 31.3674H58.3033L63.6829 17.6736L63.9303 30.4004C63.9303 30.8355 63.4855 31.4163 62.7943 31.4163H61.7581V32.1907H68.0263V31.4163H67.2863C66.7438 31.4163 66.1015 31.1259 66.1015 30.4483L65.8541 17.48C65.8541 17.0439 66.3478 16.5609 66.8415 16.5609H67.779V15.7865H63.2869L58.6473 27.69L54.0077 15.7865H49.47ZM84.1901 32.2009V31.5722H83.6964C83.2526 31.5722 82.4627 31.4265 82.4627 30.5553V24.2164C82.4627 22.2324 83.499 21.5069 84.5352 21.5069C84.9301 21.5069 85.1775 21.7005 85.0777 22.426C84.979 23.1515 85.6203 23.6355 86.1638 23.5876C86.7074 23.5398 87.3986 23.4419 87.2988 22.0877C87.199 20.7335 86.4112 20.1038 85.0289 20.1038C83.9428 20.1038 83.0541 20.7814 82.8078 21.1207C82.521 21.5151 82.1655 21.3622 82.1166 20.9271C82.0678 20.492 81.8703 20.057 81.3766 20.2016C80.4324 20.4976 79.454 20.6763 78.4644 20.7335V21.2176C80.5368 21.1208 80.3404 22.1367 80.3404 22.6207V30.5563C80.3404 31.4275 79.5505 31.5732 79.1057 31.5732H78.4145V32.2019L84.1901 32.2009ZM95.1853 20.8405C94.4578 20.3198 93.5431 20.0213 92.43 20.0213C89.2715 20.0213 87.4734 22.8092 87.4734 26.2492C87.4734 29.6882 88.9742 32.4597 92.43 32.476C95.4898 32.4913 96.2309 30.7978 96.7453 28.1893L95.5886 28.1842C95.4898 29.1512 95.1448 31.3776 92.9237 31.4265C90.1112 31.4887 89.9138 27.9417 89.9626 26.2492C89.9626 25.1844 90.1112 20.9251 92.4799 20.9251C94.5024 20.9251 95.7372 22.3292 95.7372 23.9259H96.3785V19.8613H95.8359L95.1853 20.8405ZM166.589 31.4754C163.775 31.5315 163.579 27.9916 163.627 26.2981H171.051C171.051 22.8591 169.502 20.0712 166.095 20.0712C162.937 20.0712 161.14 22.8591 161.14 26.2981C161.14 29.7371 162.639 32.5249 166.095 32.5249C169.451 32.5249 170.44 30.8946 170.953 28.2871L169.798 28.282C169.699 29.25 169.057 31.4285 166.589 31.4754ZM166.195 21.1207C168.267 21.1207 168.564 23.7344 168.564 25.3301H163.678C163.678 24.2663 163.579 21.1207 166.195 21.1207ZM126.012 31.4754C123.199 31.5315 123.002 27.9916 123.05 26.2981H130.474C130.474 22.8591 128.923 20.0712 125.518 20.0712C122.36 20.0712 120.561 22.8591 120.561 26.2981C120.561 29.7371 122.063 32.5249 125.518 32.5249C128.874 32.5249 129.861 30.8946 130.376 28.2871L129.219 28.282C129.122 29.25 128.481 31.4285 126.012 31.4754ZM125.616 21.1207C127.691 21.1207 127.985 23.7344 127.985 25.3301H123.099C123.099 24.2663 123.002 21.1207 125.616 21.1207ZM73.6284 31.4754C70.8159 31.5315 70.6184 27.9916 70.6673 26.2981H78.0913C78.0913 22.8591 76.5406 20.0712 73.1357 20.0712C69.9761 20.0712 68.1791 22.8591 68.1791 26.2981C68.1791 29.7371 69.6799 32.5249 73.1357 32.5249C76.4917 32.5249 77.4791 30.8946 77.9936 28.2871L76.8368 28.283C76.7381 29.25 76.0968 31.4285 73.6284 31.4754ZM73.2334 21.1207C75.3069 21.1207 75.6021 23.7344 75.6021 25.3301H70.7161C70.7161 24.2663 70.6184 21.1207 73.2334 21.1207ZM118.603 29.6739V16.1727C118.603 15.6163 118.309 15.1558 117.813 15.3015C116.869 15.5977 115.891 15.7764 114.902 15.8334V16.3174C116.333 16.2206 116.481 16.6567 116.481 17.1407V21.3021C115.84 20.7213 115.099 20.1405 113.768 20.1405C112.089 20.1405 108.979 21.4468 108.979 26.0433C108.979 32.0929 112.583 32.4791 113.669 32.4791C114.755 32.4791 116.186 31.6089 116.482 31.1483C116.506 31.0515 116.655 30.9303 116.704 31.1483C116.755 31.5845 117.075 32.2366 117.568 32.0919C118.512 31.7961 119.49 31.6174 120.48 31.56V31.076C118.406 31.1738 118.603 30.1569 118.603 29.6739ZM116.481 28.2219C116.432 30.8824 115.001 31.7057 113.816 31.7057C111.152 31.6578 111.348 27.69 111.348 25.9955C111.348 24.3009 111.448 20.9628 113.865 21.2532C116.285 21.5436 116.482 24.0594 116.482 25.5593L116.481 28.2219ZM147.576 25.274V24.1613H141.063V25.274H147.576ZM132.088 28.0874V32.1999H132.63L133.123 31.1351C133.617 31.5712 134.654 32.2967 135.986 32.2967C137.319 32.2967 139.195 31.5712 139.936 30.217C140.675 28.8618 140.33 26.6354 138.651 25.9578C137.182 25.3647 135.893 24.6545 134.901 24.1674C134.592 24.0232 134.339 23.7852 134.179 23.4888C134.019 23.1923 133.961 22.8532 134.013 22.5218C134.162 21.7474 134.852 20.9251 136.43 20.8762C138.01 20.8283 138.799 22.1346 138.999 23.6345H139.54V19.7645H139.046L138.503 20.6836C137.468 20.006 137.023 19.9092 136.085 19.9092C135.148 19.9092 133.568 20.3932 132.679 21.7484C131.792 23.1036 132.038 25.2312 134.162 26.1035C136.283 26.9737 137.271 27.5066 137.863 27.797C138.455 28.0874 138.8 29.249 138.406 29.9266C138.01 30.6032 137.271 31.3786 136.086 31.3786C134.902 31.3786 133.028 30.5553 132.583 28.0884L132.088 28.0874ZM156.853 23.335C158.039 23.0445 159.224 20.9638 159.224 19.5607C159.224 18.1576 158.681 15.7865 155.225 15.7865H147.822V16.4152C148.563 16.4152 149.845 16.5609 149.845 17.7704V29.7228C149.845 30.4004 149.796 31.5131 147.822 31.5131V32.1907H153.893C155.718 32.1907 159.914 32.045 160.014 27.3038C160.014 25.7061 159.224 23.819 156.853 23.335ZM151.967 16.5609H154.436C156.263 16.5609 157.002 17.8662 157.002 19.5607C157.002 21.6414 156.361 23.2382 154.436 23.2382H151.967V16.5609ZM154.485 31.4163H151.967V24.0126H154.781C156.411 24.0126 157.842 25.1253 157.842 27.5443C157.842 29.9643 156.36 31.4163 154.485 31.4163ZM180.172 23.3941V30.5553C180.172 31.4265 179.382 31.5722 178.937 31.5722H178.641V32.2009H184.021V31.5722H183.527C183.082 31.5722 182.292 31.4265 182.292 30.5553V23.443C182.243 20.2006 179.282 20.1038 178.246 20.1038C177.16 20.1038 175.974 20.7814 175.729 21.1207C175.441 21.5151 175.085 21.3622 175.037 20.9271C174.988 20.492 174.791 20.057 174.296 20.2016C173.352 20.4976 172.374 20.6763 171.384 20.7335V21.2176C173.457 21.1208 173.26 22.1367 173.26 22.6207V30.5563C173.26 31.4275 172.471 31.5732 172.026 31.5732H171.336V32.2019H177.109V31.5732H176.615C176.171 31.5732 175.381 31.4275 175.381 30.5563V24.2174C175.381 23.1536 175.777 21.459 177.8 21.3133C179.826 21.1686 180.172 22.475 180.172 23.3941ZM185.165 23.6366L186.054 20.3463H194.445L187.238 31.5243H191.087C191.976 31.5243 192.667 31.185 193.604 28.9586H194L193.211 32.2009H184.621L191.779 21.0239H188.57C187.78 21.0239 186.893 21.024 185.659 23.6366H185.165Z" fill="#D6D6D8"/>
</svg>
