<svg width="200" height="40" viewBox="0 0 200 40" fill="none" xmlns="http://www.w3.org/2000/svg">
<path d="M64.8056 11.6058H48.7225V28.9881H64.7779C70.1111 28.9881 71.9722 27.236 71.9722 22.9252V17.6688C71.9722 13.3858 70.1111 11.6058 64.7779 11.6058M66.6667 21.3955C66.6667 23.8708 65.7779 24.5105 63.5001 24.5105H54.0558V15.9444H63.5001C65.7779 15.9444 66.6667 16.5841 66.6667 18.9481V21.3955ZM80.0555 24.8164H93.9442V28.9881H74.7222V11.6058H93.722V15.6385H80.0555V18.4197H92.9998V22.0352H80.0555V24.8164ZM156.832 11.4111H148.305C143.499 11.4111 140.666 12.607 140.666 17.6966V22.8974C140.666 27.9869 143.444 29.1828 148.305 29.1828H156.832C161.638 29.1828 164.471 27.9869 164.471 22.8974V17.7244C164.471 12.6348 161.693 11.4389 156.832 11.4389M159.027 21.2565C159.027 23.7595 158.499 24.7329 155.971 24.7329H149.166C146.638 24.7329 146.11 23.7595 146.11 21.2565V19.3653C146.11 17.196 146.638 15.8888 149.444 15.8888H155.555C158.332 15.8888 158.888 17.2238 158.888 19.3653L159.027 21.2565ZM194.776 11.6058V15.9444H187.304V28.9881H181.971V15.9444H174.499V11.6058H194.776ZM132.722 11.6058H116.666V28.9881H121.999V24.5105H130.333C131.999 24.5105 132.527 25.0945 132.527 26.9301V29.016H137.86V26.0401C137.86 23.2589 136.527 22.4802 135.083 22.2021C137.527 21.618 138.055 20.2553 138.055 17.9191V16.8066C138.055 13.6917 136.944 11.6336 132.86 11.6336M132.86 18.3641C132.86 19.6156 132.333 20.1996 130.888 20.1996H121.972V15.9444H130.305C131.972 15.9444 132.749 16.2226 132.749 17.7522L132.86 18.3641ZM167.527 11.6058H172.86V28.9881H167.527V11.6058ZM95.0275 11.6058H115.305V15.9444H107.805V28.9881H102.5V15.9444H94.9997L95.0275 11.6058Z" fill="#D6D6D8"/>
<path d="M195.723 11.9056V11.6553H197.473V11.9056H196.75V13.8524H196.445V11.9056H195.723Z" fill="#D6D6D8"/>
<path d="M198.889 13.5187L199.583 11.6553H200V13.8524H199.722V12.0168L199.028 13.8524H198.778L198.083 12.0168V13.8524H197.806V11.6553H198.194L198.889 13.5187Z" fill="#D6D6D8"/>
<path d="M34.1116 29.305L27.9172 22.9361H32.556V20.155C32.556 20.155 32.6671 7.02783 19.4451 7.02783C16.5403 7.06782 13.7256 8.04297 11.4174 9.809L13.3618 11.8114C14.8638 10.6509 16.6608 9.93555 18.5486 9.74677C20.4365 9.558 22.3393 9.90336 24.0409 10.7436C25.7424 11.5838 27.1743 12.8852 28.1738 14.4998C29.1734 16.1143 29.7004 17.9773 29.6949 19.8768H21.3617L34.1949 33.0596C36.2679 30.784 37.772 28.0484 38.5837 25.0776L34.1116 29.305Z" fill="#D6D6D8"/>
<path d="M19.4457 0.393925C14.8112 0.393568 10.3291 2.05056 6.80692 5.06629L9.02911 7.34686C11.9812 4.98476 15.6675 3.73477 19.4457 3.81477C21.622 3.71963 23.7949 4.07127 25.8305 4.84805C27.8661 5.62483 29.7215 6.81034 31.2826 8.33166C32.8437 9.85298 34.0774 11.678 34.9079 13.6944C35.7385 15.7108 36.1483 17.876 36.1121 20.0568V22.838H38.8899C39.3217 20.0436 39.1405 17.1886 38.3587 14.4714C37.5769 11.7543 36.2133 9.24026 34.3627 7.10422C32.5122 4.96818 30.2191 3.26139 27.643 2.10256C25.0669 0.943727 22.2696 0.360665 19.4457 0.393925Z" fill="#D6D6D8"/>
<path d="M11.1133 17.2462H6.58559V20.0277C6.58559 20.0277 6.58559 33.0453 19.6966 33.0453C22.6309 32.9012 25.4512 31.8627 27.7798 30.0691L25.8076 28.0386C24.3056 29.1993 22.5086 29.9147 20.6208 30.1035C18.7329 30.2923 16.8301 29.9469 15.1285 29.1066C13.427 28.2662 11.9951 26.9647 10.9955 25.3499C9.99603 23.7351 9.46902 21.8719 9.47445 19.9721H17.891L5.08561 6.7876C2.96161 9.12145 1.43632 11.9376 0.641214 14.9931L5.03005 10.9043L11.1133 17.2462ZM30.0853 32.5725C27.116 35.0893 23.3364 36.4432 19.4466 36.3832C17.3052 36.4091 15.1801 36.0073 13.1956 35.2012C11.2111 34.395 9.40699 33.2008 7.8888 31.6883C6.37061 30.1758 5.16879 28.3754 4.35361 26.3924C3.53844 24.4093 3.12626 22.2834 3.14119 20.139V17.3575H0.196774C0.0675038 18.279 0.00253226 19.2084 0.0023322 20.139C-0.0561107 23.9179 0.984967 27.6321 2.99857 30.8286C5.01217 34.0251 7.91126 36.5657 11.3422 38.1405C14.7731 39.7152 18.5875 40.2561 22.3202 39.6971C26.0529 39.1381 29.5424 37.5034 32.3631 34.9924L30.0853 32.5725Z" fill="#D6D6D8"/>
<path d="M37.0577 0.000158039C37.5478 0.000189017 38.0269 0.146088 38.434 0.419321C38.8411 0.692554 39.158 1.08079 39.3442 1.5347C39.5305 1.98862 39.5778 2.48772 39.4801 2.96862C39.3825 3.44951 39.1442 3.89049 38.7957 4.23552C38.4472 4.58056 38.0041 4.81408 37.5227 4.90643C37.0414 4.99877 36.5434 4.94577 36.0922 4.75415C35.641 4.56253 35.2568 4.24095 34.9886 3.83026C34.7203 3.41956 34.58 2.93829 34.5855 2.44759C34.5855 2.12383 34.6496 1.80329 34.7742 1.50453C34.8988 1.20577 35.0813 0.934719 35.3112 0.707087C35.5412 0.479454 35.8139 0.299761 36.1137 0.178414C36.4135 0.0570675 36.7343 -0.003521 37.0577 0.000158039ZM37.0577 4.56128C37.3311 4.56151 37.6018 4.50637 37.8534 4.39916C38.105 4.29195 38.3324 4.1349 38.5218 3.93744C38.7112 3.73999 38.8588 3.50622 38.9557 3.25018C39.0525 2.99415 39.0967 2.72114 39.0854 2.44759C39.0854 1.90913 38.8718 1.39273 38.4915 1.01198C38.1112 0.631235 37.5955 0.417334 37.0577 0.417334C36.5199 0.417334 36.0041 0.631235 35.6238 1.01198C35.2436 1.39273 35.0299 1.90913 35.0299 2.44759C35.0187 2.72114 35.0628 2.99415 35.1597 3.25018C35.2565 3.50622 35.4041 3.73999 35.5936 3.93744C35.783 4.1349 36.0103 4.29195 36.2619 4.39916C36.5136 4.50637 36.7842 4.56151 37.0577 4.56128ZM36.1132 1.02919H37.2243C37.9188 1.02919 38.2243 1.30731 38.2243 1.86354C38.2281 1.96447 38.2114 2.06512 38.1754 2.15946C38.1394 2.2538 38.0847 2.33989 38.0147 2.41259C37.9447 2.4853 37.8608 2.54311 37.7679 2.58257C37.6751 2.62204 37.5752 2.64234 37.4743 2.64227L38.3077 3.92161H37.8354L37.0577 2.67008H36.5855V3.92161H36.1132V1.02919ZM36.5577 2.30853H37.0299C37.4188 2.30853 37.7799 2.30853 37.7799 1.83573C37.7799 1.36293 37.4466 1.39074 37.141 1.39074H36.5577V2.30853Z" fill="#D6D6D8"/>
</svg>
