<svg width="200" height="200" viewBox="0 0 200 200" fill="none" xmlns="http://www.w3.org/2000/svg">
<circle cx="100" cy="100" r="100" fill="#FF3600"/>
<path d="M108.331 31.1963C106.848 31.0181 105.607 30.5468 104.61 29.7823C103.629 29.0054 102.918 28.0101 102.476 26.7965C102.05 25.5705 101.928 24.2018 102.109 22.6905C102.291 21.1793 102.734 19.8785 103.438 18.7882C104.156 17.6995 105.084 16.894 106.221 16.3715C107.373 15.8508 108.69 15.6794 110.173 15.8576C111.967 16.073 113.382 16.6943 114.419 17.7216C115.456 18.7488 116.019 20.0915 116.106 21.7497L112.992 21.3756C112.903 20.5626 112.589 19.9016 112.048 19.3925C111.523 18.871 110.788 18.5534 109.841 18.4397C108.966 18.3345 108.185 18.4556 107.498 18.803C106.827 19.138 106.277 19.6664 105.846 20.3884C105.417 21.0963 105.139 21.9799 105.012 23.0392C104.886 24.0843 104.947 25.0086 105.195 25.812C105.442 26.6155 105.852 27.2593 106.424 27.7435C107.011 28.2295 107.742 28.525 108.617 28.6302C109.564 28.7439 110.351 28.6307 110.979 28.2906C111.609 27.9365 112.061 27.3961 112.334 26.6696L115.47 27.0462C115.003 28.5518 114.144 29.6737 112.895 30.412C111.646 31.1503 110.124 31.4117 108.331 31.1963Z" fill="white"/>
<path d="M122.742 34.5892C121.777 34.2477 120.983 33.7181 120.362 33.0004C119.759 32.2741 119.369 31.4346 119.193 30.4821C119.035 29.5209 119.139 28.5239 119.504 27.4912C119.878 26.4317 120.427 25.5846 121.149 24.9498C121.89 24.3064 122.728 23.901 123.662 23.7335C124.601 23.5526 125.553 23.6329 126.519 23.9744C127.498 24.3206 128.289 24.8569 128.892 25.5833C129.514 26.301 129.903 27.1404 130.061 28.1016C130.238 29.0542 130.141 30.0535 129.771 31.0996C129.401 32.1457 128.845 32.9905 128.105 33.6339C127.382 34.2687 126.552 34.6765 125.613 34.8574C124.678 35.0248 123.721 34.9355 122.742 34.5892ZM123.575 32.2355C124.031 32.3968 124.471 32.4318 124.896 32.3405C125.334 32.254 125.732 32.025 126.089 31.6536C126.46 31.2869 126.762 30.7749 126.995 30.1178C127.227 29.4606 127.312 28.8795 127.249 28.3744C127.204 27.8607 127.039 27.4325 126.753 27.0899C126.485 26.7386 126.129 26.4846 125.687 26.3281C125.257 26.1763 124.822 26.1504 124.379 26.2503C123.941 26.3369 123.536 26.5635 123.165 26.9302C122.812 27.2882 122.519 27.7958 122.287 28.4529C122.055 29.1101 121.961 29.6956 122.005 30.2093C122.064 30.7278 122.229 31.1559 122.502 31.4939C122.788 31.8365 123.146 32.0837 123.575 32.2355Z" fill="white"/>
<path d="M130.988 37.6308L136.49 28.3899L138.672 29.6889L137.96 31.3015C138.547 30.9555 139.192 30.7764 139.894 30.7643C140.609 30.7594 141.327 30.9716 142.048 31.401C142.818 31.8594 143.371 32.404 143.708 33.0347C144.044 33.6655 144.165 34.3665 144.07 35.1377C143.987 35.9163 143.68 36.7517 143.149 37.644L139.973 42.9795L137.516 41.5168L140.55 36.4196C140.987 35.6862 141.163 35.0294 141.078 34.449C141.005 33.8759 140.645 33.3966 139.997 33.0109C139.581 32.7634 139.15 32.6393 138.704 32.6384C138.27 32.6447 137.852 32.7767 137.45 33.0342C137.056 33.2796 136.706 33.6589 136.4 34.1723L133.464 39.1044L130.988 37.6308Z" fill="white"/>
<path d="M145.907 47.9374C145.33 47.4516 144.898 46.9383 144.609 46.3976C144.341 45.8552 144.261 45.2765 144.37 44.6614C144.488 44.0355 144.854 43.3581 145.468 42.6292L148.411 39.137L147.007 37.9546L148.561 36.1106L149.964 37.293L152.093 35.2636L154.051 36.9135L152.167 39.1491L154.338 40.9777L152.784 42.8217L150.614 40.9931L147.644 44.5179C147.332 44.8878 147.198 45.2122 147.242 45.4911C147.287 45.77 147.504 46.0745 147.896 46.4045L148.973 47.3119L147.392 49.1885L145.907 47.9374Z" fill="white"/>
<path d="M151.503 53.9144C150.917 53.2364 150.541 52.5838 150.374 51.9565C150.219 51.3199 150.231 50.7358 150.411 50.2043C150.611 49.6742 150.937 49.2138 151.389 48.823C151.884 48.3951 152.427 48.1421 153.017 48.064C153.617 47.9967 154.244 48.1229 154.896 48.4427C155.558 48.7732 156.224 49.3259 156.894 50.1008L158.638 52.1186C159.036 51.7744 159.318 51.4369 159.483 51.106C159.659 50.7658 159.714 50.4269 159.648 50.0892C159.581 49.7516 159.386 49.3945 159.06 49.0178C158.706 48.6088 158.313 48.3381 157.879 48.2057C157.464 48.0747 157.047 48.1351 156.625 48.3869L154.797 46.2721C155.424 45.8236 156.088 45.5793 156.786 45.5394C157.505 45.5009 158.216 45.6483 158.918 45.9818C159.629 46.326 160.273 46.8317 160.85 47.4989C161.51 48.263 161.953 49.0365 162.179 49.8194C162.404 50.6023 162.405 51.3538 162.181 52.0737C161.957 52.7937 161.49 53.4607 160.78 54.0747L155.743 58.4285L154.153 56.5882L155.186 55.2715C154.869 55.3392 154.554 55.3668 154.242 55.3542C153.931 55.3416 153.617 55.2835 153.302 55.1799C152.987 55.0763 152.68 54.9179 152.383 54.7046C152.075 54.5007 151.782 54.2373 151.503 53.9144ZM153.628 52.9798C153.87 53.2596 154.133 53.4652 154.415 53.5967C154.718 53.7297 155.026 53.8025 155.338 53.8151C155.66 53.8184 155.971 53.7654 156.272 53.6561C156.592 53.5483 156.901 53.3942 157.198 53.194L157.214 53.18L155.777 51.5173C155.489 51.1836 155.208 50.9464 154.936 50.8056C154.684 50.6663 154.441 50.6133 154.206 50.6466C153.972 50.68 153.758 50.7805 153.564 50.9479C153.349 51.134 153.213 51.3359 153.157 51.5537C153.101 51.7715 153.114 52.0044 153.197 52.2525C153.28 52.5006 153.424 52.743 153.628 52.9798Z" fill="white"/>
<path d="M159.847 65.5049C159.303 64.5708 159.029 63.6194 159.024 62.6507C159.019 61.682 159.261 60.7836 159.75 59.9554C160.239 59.1273 160.951 58.441 161.885 57.8967C162.843 57.3381 163.803 57.0503 164.765 57.0333C165.739 57.0092 166.646 57.238 167.486 57.7197C168.339 58.1942 169.038 58.8985 169.582 59.8326C170.277 61.0248 170.547 62.2092 170.393 63.3857C170.239 64.5622 169.679 65.5797 168.714 66.4384L167.178 63.8019C167.544 63.4407 167.746 63.0102 167.784 62.5105C167.829 62.0231 167.712 61.5397 167.433 61.0604C167.182 60.6302 166.846 60.3075 166.424 60.0922C166.022 59.8821 165.554 59.8005 165.022 59.8473C164.509 59.8993 163.969 60.09 163.404 60.4195C162.974 60.6702 162.619 60.9511 162.339 61.2622C162.072 61.5662 161.873 61.8882 161.741 62.2281C161.622 62.5608 161.58 62.8982 161.615 63.2402C161.657 63.5945 161.771 63.9315 161.957 64.251C162.143 64.5706 162.367 64.8272 162.628 65.0209C162.896 65.2268 163.182 65.3647 163.486 65.4345C163.803 65.4971 164.13 65.4793 164.468 65.3812L166.004 68.0176C164.806 68.4195 163.647 68.3949 162.528 67.9438C161.429 67.4978 160.535 66.6849 159.847 65.5049Z" fill="white"/>
<path d="M165.35 76.8278C165.081 76.1238 164.95 75.4653 164.959 74.8525C164.987 74.2479 165.197 73.7028 165.59 73.2172C165.996 72.7265 166.644 72.3107 167.534 71.9698L171.798 70.3366L171.142 68.6229L173.394 67.7604L174.05 69.4741L176.895 68.7274L177.81 71.1187L175.08 72.1643L176.095 74.8145L173.844 75.6769L172.829 73.0267L168.524 74.6752C168.073 74.8482 167.799 75.0674 167.702 75.3328C167.606 75.5982 167.649 75.9701 167.833 76.4483L168.336 77.7635L166.045 78.6412L165.35 76.8278Z" fill="white"/>
<path d="M168.707 93.3866C168.604 92.2962 168.729 91.284 169.083 90.35C169.437 89.4161 170.029 88.6454 170.857 88.038C171.685 87.4305 172.779 87.0621 174.138 86.9329L183.273 86.0645L183.545 88.9322L174.39 89.8027C173.653 89.8727 173.042 90.0523 172.555 90.3415C172.082 90.6294 171.747 91.0113 171.549 91.4874C171.353 91.9776 171.285 92.5414 171.346 93.1787C171.407 93.8301 171.58 94.371 171.864 94.8012C172.149 95.2457 172.551 95.5647 173.07 95.7584C173.603 95.9506 174.237 96.0118 174.973 95.9417L184.129 95.0713L184.402 97.939L175.267 98.8075C173.908 98.9367 172.763 98.774 171.834 98.3194C170.905 97.8647 170.177 97.198 169.651 96.3192C169.126 95.4546 168.811 94.4771 168.707 93.3866Z" fill="white"/>
<path d="M168.651 107.171C168.748 106.195 168.989 105.361 169.372 104.67C169.756 103.979 170.244 103.456 170.837 103.101C171.43 102.745 172.076 102.574 172.776 102.587L172.491 105.432C172.215 105.476 171.956 105.571 171.712 105.719C171.483 105.867 171.291 106.077 171.135 106.347C170.979 106.618 170.882 106.951 170.842 107.347C170.804 107.73 170.822 108.046 170.897 108.296C170.987 108.548 171.117 108.74 171.29 108.872C171.461 109.018 171.646 109.1 171.844 109.12C172.142 109.15 172.377 109.087 172.549 108.933C172.736 108.78 172.895 108.546 173.027 108.23C173.159 107.915 173.297 107.528 173.443 107.071C173.593 106.571 173.763 106.081 173.954 105.599C174.158 105.134 174.392 104.721 174.657 104.362C174.922 104.002 175.242 103.727 175.619 103.535C175.995 103.344 176.445 103.275 176.969 103.327C177.606 103.391 178.155 103.617 178.617 104.006C179.093 104.397 179.446 104.933 179.679 105.614C179.911 106.294 179.981 107.095 179.889 108.015C179.761 109.303 179.369 110.293 178.713 110.986C178.058 111.678 177.214 112.044 176.18 112.084L176.45 109.387C176.784 109.335 177.058 109.169 177.271 108.89C177.498 108.627 177.635 108.254 177.683 107.773C177.734 107.264 177.681 106.865 177.524 106.578C177.367 106.291 177.139 106.132 176.842 106.102C176.644 106.083 176.459 106.15 176.286 106.304C176.112 106.473 175.952 106.714 175.806 107.028C175.674 107.344 175.536 107.73 175.39 108.188C175.138 108.992 174.868 109.694 174.579 110.294C174.305 110.896 173.945 111.353 173.499 111.666C173.067 111.98 172.469 112.099 171.705 112.023C171.025 111.955 170.435 111.71 169.934 111.288C169.447 110.868 169.089 110.303 168.859 109.594C168.628 108.899 168.559 108.091 168.651 107.171Z" fill="white"/>
<path d="M164.977 124.118L176.786 128.544L178.321 124.447L180.499 125.264L176.433 136.114L174.255 135.297L175.783 131.221L163.974 126.796L164.977 124.118Z" fill="white"/>
<path d="M159.273 135.452C159.799 134.573 160.475 133.9 161.301 133.433C162.132 132.985 163.032 132.769 164.001 132.784C164.974 132.82 165.931 133.118 166.871 133.68C167.836 134.257 168.558 134.962 169.037 135.796C169.521 136.649 169.753 137.55 169.733 138.499C169.725 139.455 169.458 140.373 168.932 141.252C168.399 142.144 167.717 142.813 166.886 143.261C166.06 143.728 165.16 143.944 164.186 143.909C163.218 143.893 162.257 143.601 161.305 143.032C160.352 142.462 159.634 141.751 159.15 140.898C158.67 140.064 158.435 139.169 158.443 138.213C158.463 137.264 158.74 136.343 159.273 135.452ZM161.416 136.733C161.168 137.148 161.046 137.573 161.052 138.007C161.05 138.454 161.196 138.889 161.489 139.313C161.775 139.749 162.218 140.146 162.816 140.504C163.414 140.862 163.967 141.06 164.475 141.098C164.987 141.156 165.439 141.078 165.832 140.865C166.229 140.672 166.548 140.374 166.789 139.971C167.023 139.58 167.134 139.158 167.124 138.704C167.126 138.258 166.984 137.816 166.697 137.38C166.416 136.963 165.977 136.576 165.378 136.219C164.78 135.861 164.225 135.653 163.712 135.595C163.192 135.55 162.74 135.627 162.355 135.828C161.962 136.041 161.649 136.343 161.416 136.733Z" fill="white"/>
<path d="M151.254 146.338C151.918 145.615 152.693 145.129 153.579 144.88C154.455 144.641 155.356 144.648 156.283 144.901C157.21 145.154 158.066 145.641 158.852 146.363C159.658 147.104 160.222 147.92 160.541 148.813C160.862 149.726 160.936 150.634 160.763 151.537C160.591 152.461 160.172 153.284 159.508 154.007C158.989 154.572 158.427 154.974 157.823 155.211C157.219 155.448 156.602 155.519 155.974 155.425L160.39 159.481L158.441 161.603L147.127 151.21L148.859 149.324L150.16 150.084C150.084 149.725 150.058 149.333 150.08 148.91C150.093 148.496 150.19 148.074 150.373 147.644C150.557 147.213 150.85 146.778 151.254 146.338ZM152.647 148.544C152.262 148.963 152.019 149.416 151.919 149.904C151.82 150.411 151.861 150.913 152.043 151.409C152.226 151.904 152.542 152.359 152.992 152.773C153.443 153.187 153.923 153.463 154.432 153.603C154.941 153.742 155.439 153.736 155.926 153.585C156.414 153.453 156.85 153.178 157.235 152.759C157.601 152.361 157.834 151.908 157.933 151.4C158.043 150.902 158.011 150.4 157.839 149.894C157.657 149.399 157.346 148.949 156.906 148.544C156.445 148.121 155.959 147.84 155.45 147.7C154.931 147.571 154.428 147.572 153.94 147.704C153.453 147.855 153.022 148.135 152.647 148.544Z" fill="white"/>
<path d="M141.419 155.362C142.141 154.831 142.821 154.507 143.46 154.39C144.106 154.285 144.688 154.343 145.204 154.564C145.716 154.805 146.15 155.166 146.504 155.647C146.892 156.174 147.102 156.735 147.133 157.33C147.153 157.934 146.978 158.548 146.609 159.173C146.227 159.807 145.624 160.428 144.799 161.035L142.651 162.616C142.963 163.04 143.277 163.347 143.594 163.538C143.92 163.74 144.253 163.821 144.595 163.782C144.937 163.742 145.308 163.575 145.709 163.28C146.144 162.959 146.445 162.588 146.611 162.165C146.774 161.763 146.747 161.341 146.529 160.901L148.78 159.244C149.178 159.905 149.37 160.586 149.355 161.285C149.337 162.005 149.134 162.702 148.747 163.375C148.348 164.057 147.793 164.66 147.083 165.183C146.27 165.781 145.464 166.162 144.666 166.326C143.868 166.489 143.118 166.431 142.418 166.152C141.718 165.872 141.089 165.354 140.533 164.598L136.587 159.236L138.546 157.794L139.778 158.928C139.735 158.606 139.733 158.29 139.769 157.98C139.806 157.671 139.889 157.363 140.017 157.056C140.145 156.75 140.327 156.458 140.563 156.178C140.79 155.887 141.076 155.615 141.419 155.362ZM142.185 157.554C141.887 157.773 141.661 158.019 141.508 158.291C141.352 158.582 141.255 158.883 141.218 159.193C141.19 159.514 141.218 159.829 141.303 160.137C141.386 160.465 141.515 160.785 141.692 161.096L141.704 161.113L143.474 159.811C143.83 159.549 144.088 159.289 144.25 159.028C144.408 158.788 144.48 158.55 144.465 158.313C144.45 158.077 144.367 157.856 144.215 157.649C144.047 157.42 143.856 157.269 143.643 157.196C143.431 157.123 143.197 157.118 142.943 157.181C142.69 157.244 142.437 157.369 142.185 157.554Z" fill="white"/>
<path d="M131.015 156.931L131.242 163.366L131.818 163.087L139.867 169.809L137.044 171.177L131.254 166.277L131.783 173.728L129.038 175.059L128.269 158.263L131.015 156.931Z" fill="white"/>
<path d="M114.528 175.834L114.668 178.846L116.613 176.559L118.026 178.231L115.51 179.776L118.385 180.312L117.722 182.256L115.016 180.865L115.999 183.743L113.942 184.12L113.861 181.076L111.824 183.337L110.539 181.771L113.051 180.205L110.13 179.655L110.824 177.641L113.492 179.061L112.513 176.203L114.528 175.834Z" fill="white"/>
<path d="M91.5444 168.842C93.0286 169.009 94.272 169.472 95.2745 170.229C96.2612 170.999 96.9797 171.989 97.43 173.2C97.8646 174.423 97.9964 175.791 97.8257 177.303C97.6549 178.816 97.2213 180.12 96.525 181.215C95.8145 182.308 94.8925 183.121 93.7589 183.651C92.6112 184.18 91.2952 184.361 89.8109 184.193C88.0157 183.99 86.5959 183.379 85.5514 182.359C84.507 181.339 83.9352 180.001 83.836 178.343L86.953 178.695C87.0473 179.508 87.3666 180.166 87.9109 180.672C88.4393 181.189 89.1771 181.502 90.1242 181.609C91.0006 181.708 91.7809 181.581 92.4648 181.229C93.1331 180.889 93.68 180.357 94.1054 179.632C94.5293 178.921 94.801 178.035 94.9208 176.975C95.0389 175.929 94.9714 175.005 94.7183 174.204C94.4653 173.402 94.0509 172.761 93.4752 172.281C92.8854 171.799 92.1523 171.509 91.2759 171.41C90.3288 171.303 89.5423 171.422 88.9164 171.766C88.289 172.125 87.8411 172.668 87.5727 173.397L84.4346 173.042C84.8913 171.533 85.7416 170.405 86.9856 169.658C88.2295 168.911 89.7491 168.639 91.5444 168.842Z" fill="white"/>
<path d="M77.1086 165.554C78.0766 165.888 78.8739 166.412 79.5004 167.125C80.1087 167.847 80.5044 168.684 80.6874 169.635C80.8522 170.595 80.7558 171.593 80.398 172.628C80.0308 173.69 79.4884 174.541 78.7705 175.181C78.0345 175.83 77.2 176.241 76.2668 176.416C75.329 176.603 74.3761 176.53 73.408 176.195C72.4265 175.856 71.6316 175.325 71.0232 174.603C70.3967 173.89 70.0011 173.053 69.8362 172.093C69.6532 171.142 69.743 170.142 70.1054 169.093C70.4679 168.045 71.0171 167.196 71.7531 166.547C72.4709 165.907 73.2988 165.494 74.2366 165.306C75.1698 165.132 76.1271 165.214 77.1086 165.554ZM76.293 167.913C75.8359 167.755 75.3954 167.723 74.9714 167.818C74.5341 167.907 74.1379 168.139 73.7829 168.513C73.4144 168.882 73.1163 169.397 72.8886 170.055C72.6609 170.714 72.5802 171.296 72.6467 171.8C72.695 172.314 72.8635 172.741 73.1522 173.081C73.4227 173.431 73.7799 173.682 74.2236 173.836C74.6538 173.984 75.0899 174.007 75.5319 173.904C75.9693 173.814 76.3722 173.585 76.7407 173.215C77.0911 172.855 77.3801 172.345 77.6078 171.686C77.8355 171.028 77.9252 170.442 77.8769 169.928C77.8151 169.41 77.6466 168.983 77.3714 168.647C77.0827 168.307 76.7233 168.062 76.293 167.913Z" fill="white"/>
<path d="M68.8415 162.57L63.4059 171.849L61.2148 170.566L61.9151 168.948C61.3308 169.298 60.6874 169.482 59.9849 169.499C59.2702 169.509 58.5507 169.302 57.8265 168.878C57.0531 168.425 56.496 167.884 56.1552 167.256C55.8143 166.628 55.6886 165.928 55.778 165.156C55.8552 164.377 56.1562 163.539 56.6811 162.643L59.8194 157.285L62.2867 158.73L59.2885 163.849C58.8571 164.585 58.6859 165.243 58.775 165.823C58.8518 166.396 59.2155 166.872 59.8661 167.254C60.2834 167.498 60.7153 167.619 61.1618 167.617C61.596 167.607 62.013 167.472 62.4128 167.212C62.8054 166.964 63.1527 166.582 63.4547 166.067L66.3558 161.114L68.8415 162.57Z" fill="white"/>
<path d="M53.8509 152.369C54.4309 152.85 54.8671 153.361 55.1594 153.899C55.4317 154.44 55.5156 155.018 55.411 155.634C55.2973 156.26 54.936 156.94 54.3271 157.674L51.4097 161.187L52.8214 162.359L51.2809 164.214L49.8692 163.042L47.7552 165.086L45.7854 163.45L47.653 161.201L45.4698 159.388L47.0103 157.533L49.1935 159.346L52.1382 155.8C52.4472 155.428 52.5787 155.103 52.5327 154.824C52.4867 154.546 52.2667 154.243 51.8728 153.916L50.7893 153.016L52.3571 151.128L53.8509 152.369Z" fill="white"/>
<path d="M48.2127 146.432C48.8036 147.106 49.1843 147.756 49.3549 148.382C49.5149 149.018 49.5068 149.602 49.3307 150.135C49.1346 150.666 48.8119 151.129 48.3626 151.523C47.8706 151.954 47.3296 152.211 46.7395 152.293C46.1401 152.365 45.513 152.243 44.8583 151.928C44.1941 151.602 43.5244 151.054 42.8492 150.284L41.0906 148.279C40.6948 148.626 40.4155 148.965 40.2526 149.297C40.079 149.639 40.0265 149.978 40.0951 150.315C40.1637 150.652 40.3622 151.008 40.6904 151.382C41.0468 151.789 41.4426 152.057 41.8776 152.186C42.2926 152.314 42.7101 152.251 43.13 151.996L44.973 154.098C44.3485 154.551 43.687 154.8 42.9885 154.845C42.2699 154.888 41.5585 154.746 40.8543 154.417C40.1406 154.078 39.493 153.577 38.9115 152.914C38.2456 152.154 37.7972 151.384 37.5662 150.603C37.3352 149.822 37.329 149.07 37.5477 148.349C37.7664 147.627 38.2287 146.957 38.9346 146.338L43.9403 141.948L45.5441 143.777L44.5197 145.101C44.8368 145.031 45.1513 145.002 45.4631 145.012C45.7749 145.022 46.0888 145.078 46.4047 145.18C46.7207 145.281 47.0279 145.437 47.3266 145.648C47.6359 145.85 47.9313 146.111 48.2127 146.432ZM46.0939 147.382C45.8501 147.104 45.5862 146.9 45.3024 146.771C44.9985 146.64 44.6906 146.569 44.3788 146.559C44.0563 146.558 43.7452 146.613 43.4455 146.724C43.1258 146.834 42.8182 146.991 42.5227 147.193L42.5066 147.207L43.9557 148.86C44.2464 149.191 44.5284 149.426 44.8015 149.565C45.0546 149.703 45.2982 149.754 45.5324 149.719C45.7665 149.684 45.9799 149.582 46.1724 149.413C46.3863 149.226 46.5206 149.023 46.5752 148.805C46.6298 148.586 46.6149 148.354 46.5303 148.106C46.4457 147.859 46.3003 147.617 46.0939 147.382Z" fill="white"/>
<path d="M39.7855 134.901C40.3365 135.831 40.6177 136.781 40.6293 137.749C40.6408 138.718 40.4052 139.618 39.9222 140.45C39.4393 141.281 38.7327 141.973 37.8025 142.524C36.8478 143.089 35.8898 143.384 34.9284 143.407C33.9548 143.438 33.046 143.216 32.2022 142.74C31.346 142.272 30.6425 141.573 30.0916 140.642C29.3884 139.455 29.1097 138.273 29.2554 137.095C29.4012 135.918 29.9535 134.896 30.9124 134.031L32.4674 136.656C32.1042 137.02 31.9054 137.452 31.8708 137.952C31.829 138.44 31.9494 138.922 32.2322 139.399C32.4859 139.828 32.8244 140.148 33.2477 140.36C33.6515 140.568 34.1195 140.646 34.6516 140.595C35.1643 140.54 35.7021 140.345 36.2652 140.012C36.6936 139.758 37.0465 139.474 37.324 139.161C37.5892 138.855 37.7862 138.532 37.915 138.191C38.0316 137.858 38.0713 137.52 38.0342 137.178C37.9899 136.824 37.8735 136.488 37.685 136.17C37.4965 135.852 37.2711 135.597 37.0087 135.405C36.739 135.201 36.4519 135.065 36.1474 134.997C35.8305 134.937 35.5035 134.957 35.1663 135.058L33.6113 132.432C34.8066 132.022 35.9654 132.038 37.0876 132.481C38.1902 132.919 39.0896 133.726 39.7855 134.901Z" fill="white"/>
<path d="M34.2013 123.619C34.476 124.321 34.611 124.979 34.6063 125.591C34.5832 126.196 34.377 126.743 33.9876 127.231C33.5849 127.725 32.9398 128.145 32.0522 128.492L27.7996 130.156L28.4682 131.865L26.2227 132.744L25.5541 131.035L22.7151 131.802L21.7822 129.417L24.5046 128.352L23.4707 125.709L25.7162 124.83L26.7501 127.473L31.0424 125.794C31.4929 125.618 31.7653 125.397 31.8598 125.131C31.9543 124.865 31.9082 124.493 31.7217 124.016L31.2086 122.705L33.4938 121.811L34.2013 123.619Z" fill="white"/>
<path d="M30.7263 107.084C30.8377 108.174 30.7196 109.187 30.3721 110.123C30.0245 111.06 29.4388 111.835 28.6149 112.448C27.7911 113.061 26.6999 113.438 25.3413 113.576L16.2134 114.51L15.9204 111.644L25.0695 110.709C25.8054 110.633 26.4158 110.449 26.9006 110.157C27.3713 109.865 27.7038 109.481 27.8981 109.004C28.0909 108.512 28.1548 107.948 28.0897 107.311C28.0231 106.66 27.8464 106.12 27.5595 105.692C27.2712 105.25 26.8671 104.934 26.3472 104.744C25.8131 104.555 25.1781 104.499 24.4422 104.574L15.2931 105.509L15.0001 102.644L24.128 101.71C25.4865 101.571 26.632 101.726 27.5644 102.174C28.4968 102.622 29.2294 103.283 29.7622 104.158C30.2935 105.019 30.6148 105.995 30.7263 107.084Z" fill="white"/>
<path d="M30.6859 93.3002C30.5953 94.2776 30.3607 95.113 29.9821 95.8066C29.6035 96.5001 29.119 97.0266 28.5284 97.3862C27.9379 97.7458 27.293 97.9217 26.5937 97.914L26.8576 95.0669C27.1333 95.021 27.3924 94.9236 27.6347 94.7746C27.863 94.6244 28.054 94.4135 28.2077 94.142C28.3614 93.8705 28.4567 93.5365 28.4935 93.1399C28.5289 92.7574 28.5082 92.4412 28.4314 92.1912C28.3404 91.9399 28.2081 91.749 28.0344 91.6186C27.8621 91.4741 27.6768 91.3926 27.4785 91.3742C27.181 91.3467 26.9465 91.4107 26.7749 91.5662C26.5892 91.7204 26.4317 91.9558 26.3023 92.2724C26.173 92.589 26.037 92.9764 25.8946 93.4347C25.7481 93.9354 25.5811 94.4271 25.3935 94.9098C25.1931 95.3769 24.9618 95.7912 24.6997 96.1527C24.4376 96.5141 24.119 96.7917 23.7439 96.9856C23.3687 97.1794 22.9191 97.252 22.395 97.2034C21.7576 97.1443 21.2068 96.9218 20.7425 96.5359C20.2641 96.1487 19.9064 95.6155 19.6693 94.9363C19.4322 94.2572 19.3564 93.4573 19.4417 92.5365C19.5612 91.2475 19.9461 90.2546 20.5965 89.5577C21.2468 88.8608 22.0885 88.4888 23.1215 88.4417L22.8713 91.1401C22.5377 91.1949 22.265 91.3624 22.0533 91.6428C21.8287 91.9078 21.6941 92.281 21.6495 92.7626C21.6022 93.2725 21.6582 93.6706 21.8173 93.9568C21.9765 94.243 22.2049 94.3999 22.5023 94.4275C22.7006 94.4459 22.8856 94.3773 23.0572 94.2217C23.23 94.052 23.3882 93.8096 23.5318 93.4943C23.6611 93.1777 23.797 92.7902 23.9395 92.332C24.1856 91.5262 24.4509 90.8222 24.7353 90.2199C25.0056 89.6164 25.3625 89.1566 25.8061 88.8405C26.2355 88.5232 26.8327 88.3999 27.5976 88.4708C28.2775 88.5339 28.8695 88.7745 29.3737 89.1926C29.8636 89.6095 30.2258 90.1717 30.4603 90.8792C30.696 91.5725 30.7712 92.3795 30.6859 93.3002Z" fill="white"/>
<path d="M34.239 76.3255L22.3987 71.9846L20.893 76.0916L18.7092 75.291L22.6976 64.4124L24.8813 65.213L23.3829 69.3L35.2232 73.6409L34.239 76.3255Z" fill="white"/>
<path d="M39.8614 64.9513C39.3421 65.8341 38.6709 66.5121 37.848 66.9852C37.0199 67.4389 36.1216 67.6614 35.1529 67.6527C34.1792 67.6245 33.2203 67.3327 32.2762 66.7773C31.3076 66.2075 30.5805 65.5075 30.0952 64.6773C29.6047 63.8276 29.3664 62.9282 29.3801 61.979C29.3816 61.0226 29.642 60.103 30.1613 59.2202C30.6879 58.3251 31.3652 57.6508 32.1932 57.1971C33.0162 56.724 33.9145 56.5015 34.8882 56.5297C35.8569 56.5384 36.8194 56.824 37.7758 57.3866C38.7322 57.9492 39.4556 58.6554 39.946 59.5051C40.4314 60.3352 40.6733 61.2285 40.6719 62.1849C40.6581 63.1341 40.388 64.0562 39.8614 64.9513ZM37.7096 63.6854C37.9548 63.2685 38.0731 62.843 38.0645 62.4088C38.0631 61.9623 37.9141 61.5281 37.6177 61.1062C37.3285 60.672 36.8835 60.2782 36.2827 59.9247C35.6819 59.5713 35.1276 59.3772 34.6198 59.3426C34.107 59.2885 33.6551 59.3693 33.2642 59.5849C32.8682 59.7811 32.5512 60.0815 32.3132 60.4861C32.0824 60.8785 31.9738 61.3015 31.9875 61.7552C31.9889 62.2016 32.1342 62.642 32.4235 63.0762C32.7076 63.4909 33.1501 63.875 33.7509 64.2284C34.3517 64.5819 34.9085 64.7856 35.4213 64.8397C35.9414 64.8816 36.3932 64.8008 36.777 64.5974C37.1679 64.3818 37.4788 64.0778 37.7096 63.6854Z" fill="white"/>
<path d="M47.802 54.0132C47.1431 54.7407 46.3718 55.2321 45.4881 55.4874C44.614 55.7321 43.7126 55.7315 42.7839 55.4854C41.8552 55.2393 40.9955 54.7582 40.2046 54.042C39.3927 53.3067 38.8237 52.4939 38.4976 51.6037C38.1706 50.6933 38.0904 49.7858 38.2571 48.8812C38.4228 47.9565 38.835 47.1304 39.4939 46.4029C40.0096 45.8335 40.5686 45.4281 41.171 45.1868C41.7734 44.9454 42.389 44.8696 43.0179 44.9593L38.5735 40.9344L40.5072 38.7992L51.895 49.1122L50.1762 51.0102L48.87 50.2591C48.9482 50.6178 48.9776 51.0091 48.9583 51.433C48.9486 51.8465 48.8537 52.2691 48.6737 52.701C48.4936 53.1329 48.2031 53.5703 47.802 54.0132ZM46.394 51.8169C46.776 51.3951 47.0153 50.9401 47.112 50.4519C47.2077 49.9436 47.1627 49.4423 46.9771 48.9479C46.7915 48.4535 46.4719 48.001 46.0185 47.5904C45.5651 47.1798 45.0833 46.9066 44.573 46.7707C44.0627 46.6348 43.5646 46.6444 43.0788 46.7994C42.592 46.9343 42.1576 47.2126 41.7757 47.6344C41.4128 48.0351 41.1835 48.4895 41.0878 48.9979C40.9816 49.4966 41.0165 49.9984 41.1926 50.5034C41.3782 50.9977 41.6925 51.4454 42.1353 51.8465C42.5993 52.2667 43.0864 52.5447 43.5967 52.6806C44.1165 52.8059 44.6199 52.8011 45.1067 52.6662C45.5925 52.5112 46.0216 52.2281 46.394 51.8169Z" fill="white"/>
<path d="M57.5722 44.9154C56.8541 45.4517 56.1763 45.7804 55.5388 45.9015C54.8927 46.0112 54.311 45.9574 53.7936 45.7401C53.2791 45.503 52.8431 45.145 52.4856 44.6664C52.094 44.1421 51.8803 43.5826 51.8445 42.9879C51.8201 42.3847 51.9906 41.769 52.356 41.141C52.7328 40.5044 53.3315 39.8797 54.1521 39.2668L56.2891 37.6706C55.9741 37.2489 55.6575 36.9439 55.3392 36.7554C55.0124 36.5556 54.6783 36.4767 54.3368 36.5187C53.9953 36.5607 53.6251 36.7307 53.2262 37.0287C52.7931 37.3522 52.495 37.7257 52.332 38.1493C52.1719 38.553 52.2023 38.9741 52.4234 39.4127L50.1838 41.0855C49.7811 40.4275 49.5847 39.7485 49.5946 39.0486C49.6074 38.3289 49.8051 37.6308 50.1877 36.9544C50.5817 36.2695 51.132 35.6631 51.8386 35.1354C52.6478 34.5309 53.4509 34.1442 54.2479 33.975C55.0449 33.8059 55.7945 33.8586 56.4967 34.1331C57.1989 34.4076 57.8309 34.921 58.3927 35.6732L62.3767 41.0072L60.4278 42.4628L59.1881 41.338C59.233 41.6596 59.2381 41.9754 59.2033 42.2855C59.1686 42.5955 59.0883 42.904 58.9625 43.2111C58.8367 43.5181 58.6569 43.8122 58.423 44.0934C58.1977 44.386 57.9141 44.66 57.5722 44.9154ZM56.7912 42.7288C57.0875 42.5075 57.3114 42.2604 57.4627 41.9875C57.6169 41.6948 57.7114 41.3934 57.7462 41.0834C57.7724 40.7619 57.7417 40.4475 57.6541 40.14C57.5694 39.8127 57.4378 39.4938 57.2591 39.1833L57.2464 39.1662L55.4855 40.4814C55.1322 40.7453 54.8756 41.008 54.7157 41.2694C54.5588 41.5109 54.4886 41.7498 54.5052 41.986C54.5218 42.2221 54.6067 42.4428 54.76 42.648C54.9302 42.8759 55.122 43.0257 55.3352 43.0972C55.5485 43.1688 55.7817 43.1721 56.0351 43.1071C56.2884 43.0422 56.5405 42.9161 56.7912 42.7288Z" fill="white"/>
<path d="M67.9646 43.2724L67.6916 36.8391L67.1176 37.1225L59.0205 30.459L61.8331 29.0703L67.6585 33.9283L67.0756 26.4819L69.8117 25.1311L70.7006 41.9215L67.9646 43.2724Z" fill="white"/>
<path d="M84.3243 24.2516L84.1636 21.2411L82.2342 23.5419L80.8098 21.88L83.3142 20.3168L80.4355 19.8008L81.0853 17.8524L83.8013 19.2249L82.7981 16.3531L84.8524 15.9618L84.9542 19.0053L86.9755 16.7304L88.2711 18.2866L85.7707 19.8707L88.6953 20.3997L88.0156 22.419L85.3375 21.0176L86.3366 23.8683L84.3243 24.2516Z" fill="white"/>
<path d="M137.06 99.014C134.619 97.552 132.192 96.0656 129.735 94.6355C129.368 94.406 128.918 94.5382 128.516 94.5094C124.213 94.5246 119.909 94.4957 115.607 94.5078C115.339 94.5322 115.13 94.3331 114.911 94.216C110.458 91.5154 106.102 88.6505 101.619 86C96.096 86.0851 90.5701 85.9832 85.0473 86.0593C83.5761 86.8876 82.0594 87.6292 80.57 88.4225C78.0655 89.7782 75.5396 91.0928 73.032 92.4454C72.8131 92.5853 72.5457 92.5534 72.301 92.5609C69.2387 92.5275 66.1763 92.564 63.114 92.564C61.7113 95.6689 60.3875 98.8103 59 101.923C61.114 104.698 63.1535 107.528 65.2569 110.311C66.3086 110.3 67.3618 110.321 68.4149 110.291C66.1383 107.466 64.0623 104.485 61.8328 101.622C62.8298 99.4304 63.7341 97.1933 64.7751 95.023C68.5988 95.0291 72.4225 95.0443 76.2448 95.0321C78.1217 95.0732 80.0092 94.982 81.8801 95.0868C82.7661 96.4394 83.5579 97.8528 84.3968 99.2374C86.1096 102.096 87.8345 104.947 89.5519 107.805C88.2874 108.63 87.0199 109.449 85.7707 110.297C87.2525 110.264 88.7357 110.288 90.2175 110.28C93.9683 110.297 97.7206 110.204 101.471 110.267C105.269 110.23 109.069 110.253 112.867 110.232C113.596 110.221 114.33 110.274 115.057 110.18C107.286 108.982 99.4972 107.87 91.7206 106.71C90.9592 105.376 90.1324 104.078 89.3619 102.75C88.0412 100.455 86.5914 98.2359 85.3497 95.8954C86.4652 96.2419 87.5823 96.5808 88.7038 96.9106C89.3102 96.9881 89.9272 96.9243 90.5382 96.9517C103.148 96.9608 115.757 96.9258 128.367 96.9744C128.941 96.9122 129.391 97.3316 129.876 97.5687C132.645 99.2146 135.423 100.845 138.174 102.522C137.172 104.406 136.318 106.367 135.327 108.253C134.235 108.887 132.962 109.303 132.114 110.289C133.78 110.335 135.447 110.261 137.113 110.311C138.54 107.408 139.956 104.499 141.385 101.596C139.906 100.8 138.511 99.8591 137.06 99.014ZM89.7692 94.5124C89.4395 94.5154 89.1036 94.52 88.789 94.4076C87.2024 93.906 85.6036 93.447 84.0033 92.9911C83.2996 92.827 82.6172 92.5139 81.8786 92.5868C80.564 92.6416 79.2373 92.4941 77.9333 92.6583C79.2829 91.8573 80.7221 91.2221 82.0899 90.453C83.0762 89.8998 84.0868 89.3922 85.0777 88.8497C85.4166 88.6901 85.7358 88.4271 86.134 88.4666C91.1006 88.4666 96.0687 88.4514 101.035 88.4682C104.269 90.4089 107.464 92.4257 110.61 94.5063C103.663 94.5306 96.7161 94.4972 89.7692 94.5124Z" fill="white"/>
<path d="M83.6931 109.805C84.7965 107.774 84.8664 105.226 83.9135 103.125C82.5062 99.7514 78.4955 97.7589 74.9575 98.6799C72.5669 99.2392 70.5076 100.998 69.5608 103.261C68.9499 104.697 68.8359 106.323 69.1535 107.844C69.7021 110.484 71.7447 112.732 74.2903 113.595C75.8268 114.091 77.5137 114.109 79.0593 113.647C81.0184 113.027 82.7478 111.641 83.6931 109.805ZM75.4864 111.404C74.146 111.039 72.8967 110.22 72.1809 109.012C71.193 107.448 71.1201 105.356 72.0107 103.733C72.6778 102.464 73.88 101.49 75.2645 101.112C77.7691 100.337 80.6308 101.713 81.7204 104.063C82.5016 105.765 82.228 107.867 81.1369 109.373C79.8922 111.1 77.5502 111.981 75.4864 111.404Z" fill="white"/>
<path d="M131.08 109.494C131.817 107.894 131.997 106.037 131.58 104.324C131.055 102.194 129.531 100.365 127.583 99.3828C125.912 98.4831 123.909 98.2248 122.067 98.6837C120.406 99.088 118.9 100.079 117.859 101.432C116.52 103.079 115.956 105.304 116.272 107.395C116.575 109.47 117.795 111.362 119.488 112.582C121.14 113.704 123.219 114.259 125.203 113.883C127.712 113.484 130.008 111.81 131.08 109.494ZM125.344 111.411C122.484 112.208 119.209 110.187 118.721 107.242C118.117 104.616 119.905 101.758 122.505 101.1C124.034 100.684 125.748 100.941 127.055 101.849C128.365 102.754 129.323 104.24 129.388 105.854C129.583 108.356 127.77 110.809 125.344 111.411Z" fill="white"/>
</svg>
