<svg width="150" height="150" viewBox="0 0 150 150" fill="none" xmlns="http://www.w3.org/2000/svg">
<circle cx="75" cy="75" r="75" fill="black"/>
<ellipse cx="75.0831" cy="75.0004" rx="21.1364" ry="21.1364" fill="#FF3600"/>
<path d="M97.7359 74.2232C96.2362 73.3249 94.7449 72.4116 93.235 71.5329C93.0099 71.3919 92.7335 71.4732 92.4861 71.4554C89.8425 71.4648 87.1979 71.447 84.5543 71.4545C84.39 71.4694 84.2611 71.3471 84.1266 71.2752C81.3906 69.6158 78.7143 67.8556 75.9596 66.2271C72.5661 66.2793 69.1708 66.2168 65.7774 66.2635C64.8735 66.7724 63.9415 67.2281 63.0264 67.7155C61.4875 68.5485 59.9355 69.3562 58.3947 70.1873C58.2603 70.2732 58.0959 70.2536 57.9456 70.2583C56.064 70.2377 54.1824 70.2601 52.3008 70.2601C51.4389 72.1679 50.6255 74.0981 49.7729 76.0105C51.0719 77.7156 52.325 79.4544 53.6174 81.1642C54.2636 81.1576 54.9107 81.1707 55.5578 81.152C54.159 79.4161 52.8834 77.5849 51.5135 75.8256C52.1261 74.479 52.6817 73.1045 53.3214 71.771C55.6708 71.7748 58.0203 71.7841 60.3688 71.7766C61.522 71.8018 62.6818 71.7458 63.8313 71.8102C64.3758 72.6413 64.8623 73.5097 65.3777 74.3604C66.4301 76.1169 67.49 77.8687 68.5452 79.6243C67.7683 80.1314 66.9895 80.6347 66.2219 81.1557C67.1324 81.1352 68.0437 81.1501 68.9542 81.1454C71.2588 81.1557 73.5644 81.0988 75.869 81.1371C78.2026 81.1146 80.5371 81.1286 82.8707 81.1156C83.3189 81.1091 83.7699 81.1417 84.2163 81.0838C79.4418 80.348 74.656 79.6644 69.8777 78.952C69.4099 78.1321 68.9019 77.3346 68.4285 76.5185C67.617 75.1084 66.7262 73.7451 65.9632 72.307C66.6486 72.5199 67.335 72.7282 68.0241 72.9308C68.3967 72.9784 68.7758 72.9392 69.1512 72.956C76.899 72.9616 84.6468 72.9401 92.3945 72.97C92.7475 72.9318 93.0239 73.1895 93.3218 73.3352C95.0232 74.3465 96.7302 75.3484 98.4204 76.3784C97.805 77.5364 97.2802 78.7409 96.6714 79.8998C96 80.2892 95.2184 80.5451 94.6973 81.1511C95.7207 81.1791 96.7451 81.1334 97.7686 81.1642C98.6454 79.3806 99.5157 77.5933 100.393 75.8098C99.4849 75.3204 98.6277 74.7424 97.7359 74.2232ZM68.6788 71.4573C68.4761 71.4591 68.2697 71.462 68.0765 71.3929C67.1016 71.0847 66.1192 70.8027 65.1359 70.5226C64.7036 70.4217 64.2843 70.2293 63.8305 70.2742C63.0227 70.3078 62.2075 70.2172 61.4063 70.3181C62.2355 69.8259 63.1198 69.4356 63.9603 68.9631C64.5663 68.6232 65.1873 68.3113 65.7961 67.978C66.0044 67.8799 66.2004 67.7184 66.4451 67.7426C69.4968 67.7426 72.5494 67.7333 75.601 67.7435C77.5882 68.936 79.551 70.1752 81.484 71.4536C77.2156 71.4685 72.9472 71.4479 68.6788 71.4573Z" fill="white"/>
<path d="M64.9453 80.8549C65.6232 79.6074 65.6662 78.0414 65.0807 76.7509C64.216 74.6778 61.7516 73.4536 59.5778 74.0195C58.1089 74.3631 56.8436 75.4435 56.2618 76.834C55.8864 77.7164 55.8164 78.7156 56.0116 79.6503C56.3487 81.2723 57.6037 82.6534 59.1678 83.1838C60.1119 83.4882 61.1484 83.4995 62.0981 83.2155C63.3018 82.8346 64.3644 81.983 64.9453 80.8549ZM59.9027 81.8373C59.0791 81.6132 58.3115 81.1099 57.8717 80.3675C57.2647 79.4066 57.2199 78.1217 57.7671 77.1244C58.177 76.3447 58.9157 75.7461 59.7664 75.5136C61.3053 75.0373 63.0636 75.8834 63.7332 77.327C64.2131 78.3729 64.0451 79.6643 63.3746 80.5897C62.6098 81.6505 61.1708 82.1921 59.9027 81.8373Z" fill="white"/>
<path d="M94.0614 80.6626C94.5143 79.6793 94.6254 78.5382 94.3686 77.4858C94.0465 76.1775 93.1099 75.0532 91.9127 74.45C90.8865 73.8972 89.6557 73.7384 88.524 74.0204C87.5033 74.2688 86.5779 74.8777 85.9382 75.7088C85.1156 76.721 84.7691 78.0881 84.9634 79.373C85.1492 80.6476 85.899 81.8102 86.9393 82.5601C87.9543 83.2492 89.2318 83.5901 90.4504 83.3594C91.9921 83.1138 93.4031 82.0857 94.0614 80.6626ZM90.5372 81.8401C88.7798 82.3304 86.7675 81.0884 86.4677 79.2787C86.097 77.6651 87.1952 75.9095 88.7929 75.5052C89.7323 75.2493 90.7856 75.4071 91.5887 75.9656C92.3937 76.5212 92.982 77.4344 93.0221 78.4261C93.1416 79.9631 92.0276 81.4703 90.5372 81.8401Z" fill="white"/>
<path d="M80.0645 24.3636C79.2728 24.286 78.5705 24.0188 77.9576 23.562C77.3497 23.101 76.8906 22.4722 76.5804 21.6755C76.2752 20.8748 76.1771 19.9187 76.286 18.8074C76.3944 17.7005 76.6875 16.7828 77.1654 16.0542C77.6432 15.3256 78.2411 14.7935 78.9591 14.4579C79.6815 14.1227 80.4635 13.9964 81.3049 14.0788C82.0061 14.1475 82.5876 14.3185 83.0495 14.5918C83.516 14.8656 83.8835 15.1935 84.1521 15.5756C84.4251 15.9581 84.6126 16.3528 84.7143 16.7596C84.8165 17.1618 84.8514 17.5279 84.8191 17.8577C84.8178 17.8712 84.8164 17.8848 84.8151 17.8983C84.8138 17.9119 84.8125 17.9254 84.8111 17.939L82.7619 17.7382C82.7632 17.7247 82.7645 17.7111 82.7659 17.6976C82.7672 17.684 82.7685 17.6705 82.7698 17.6569C82.7902 17.4491 82.7719 17.2398 82.7149 17.0289C82.6583 16.8136 82.5611 16.617 82.4233 16.4393C82.2899 16.2621 82.115 16.1126 81.8986 15.9911C81.6866 15.87 81.4337 15.795 81.1396 15.7662C80.7415 15.7272 80.3505 15.8029 79.9664 15.9934C79.5824 16.1838 79.25 16.523 78.9693 17.0109C78.689 17.4943 78.5071 18.1629 78.4234 19.0168C78.3597 19.6673 78.3695 20.2202 78.4528 20.6753C78.5406 21.1309 78.68 21.5027 78.871 21.7905C79.0625 22.0738 79.2905 22.2877 79.5549 22.4322C79.8239 22.5771 80.1076 22.6642 80.4062 22.6935C80.8179 22.7338 81.1683 22.6997 81.4575 22.5912C81.7517 22.4787 81.9879 22.3285 82.1662 22.1407C82.3444 21.9529 82.4659 21.7618 82.5306 21.5675L82.5943 20.9169L80.6129 20.7228L80.7617 19.2048L84.6091 19.5817L84.1178 24.5965L83.0118 24.4882L82.93 23.3649C82.8854 23.4472 82.7974 23.5526 82.6661 23.6812C82.5348 23.8097 82.3534 23.9356 82.1221 24.0589C81.8958 24.1781 81.6106 24.2688 81.2666 24.3309C80.9266 24.3979 80.5259 24.4088 80.0645 24.3636Z" fill="white"/>
<path d="M89.3353 17.2658L90.5272 16.5535L89.4003 20.5588L89.1031 19.853L92.6739 20.8551L92.2313 22.4283L88.6605 21.4262L89.2823 20.9783L88.1461 25.0163L87.5002 23.7883L92.259 25.1238L91.8164 26.697L85.9285 25.0447L88.6489 15.3757L94.5368 17.0281L94.0941 18.6013L89.3353 17.2658Z" fill="white"/>
<path d="M103.16 22.5123L100.145 21.1244L101.335 20.5626L97.3884 29.1151L95.475 28.2345L99.4214 19.6819L99.7917 20.962L96.7575 19.5655L97.4424 18.0813L103.845 21.0282L103.16 22.5123Z" fill="white"/>
<path d="M103.85 32.8983L109.68 24.7146L111.38 25.9225L105.55 34.1062L103.85 32.8983Z" fill="white"/>
<path d="M108.395 36.3794L106.881 34.9763L113.72 27.6128L116.129 29.8448L112.279 38.9368L111.958 38.7609L118.338 31.8916L119.848 33.2901L113.009 40.6536L110.585 38.4077L114.417 29.3357L114.757 29.5301L108.395 36.3794Z" fill="white"/>
<path d="M126.867 45.6448L125.034 42.8795L126.342 43.0274L118.479 48.225L117.316 46.4704L125.179 41.2728L124.82 42.5559L122.976 39.7735L124.34 38.8716L128.231 44.7428L126.867 45.6448Z" fill="white"/>
<path d="M121.688 54.7721C121.435 54.1989 121.302 53.6173 121.29 53.0273C121.278 52.4373 121.39 51.8645 121.627 51.3089C121.863 50.7533 122.229 50.2374 122.725 49.7614C123.224 49.2835 123.856 48.8761 124.622 48.5392C125.391 48.2004 126.116 48.0078 126.796 47.9614C127.482 47.9174 128.108 47.9965 128.674 48.1987C129.24 48.4008 129.735 48.7063 130.159 49.115C130.583 49.5237 130.922 50.0167 131.177 50.5941C131.43 51.1673 131.564 51.748 131.581 52.3362C131.599 52.9285 131.492 53.5016 131.259 54.0553C131.027 54.6091 130.662 55.122 130.165 55.5938C129.672 56.0639 129.041 56.4683 128.271 56.8071C127.506 57.144 126.778 57.3355 126.088 57.3813C125.404 57.4295 124.776 57.3514 124.204 57.1469C123.634 56.9465 123.133 56.6408 122.704 56.2298C122.276 55.8229 121.937 55.337 121.688 54.7721ZM123.241 54.0881C123.412 54.4744 123.675 54.785 124.032 55.0197C124.391 55.2586 124.85 55.3743 125.408 55.3667C125.97 55.3573 126.635 55.1833 127.405 54.8445C128.179 54.5039 128.753 54.1292 129.129 53.7206C129.507 53.3161 129.726 52.9049 129.784 52.4871C129.848 52.0674 129.794 51.6644 129.623 51.2781C129.453 50.8918 129.19 50.5783 128.836 50.3375C128.487 50.0991 128.036 49.9828 127.482 49.9885C126.928 49.9942 126.264 50.1674 125.491 50.508C124.717 50.8486 124.139 51.2221 123.757 51.6284C123.375 52.0347 123.151 52.4486 123.083 52.8702C123.018 53.2959 123.071 53.7019 123.241 54.0881Z" fill="white"/>
<path d="M129.183 66.6968C127.942 66.977 126.939 66.859 126.174 66.3428C125.414 65.8256 124.905 64.9981 124.648 63.8601C124.389 62.7178 124.492 61.7499 124.955 60.9565C125.424 60.1665 126.28 59.6314 127.521 59.3512C127.689 59.3132 127.869 59.2727 128.06 59.2297C128.25 59.1866 128.45 59.1416 128.658 59.0946L133.786 57.9373L134.253 60.0028L128.833 61.2261C128.664 61.2642 128.507 61.2997 128.361 61.3327C128.214 61.3657 128.079 61.3963 127.955 61.4243C127.263 61.5804 126.782 61.8217 126.511 62.1481C126.245 62.4735 126.175 62.9196 126.304 63.4864C126.431 64.0487 126.685 64.4217 127.067 64.6055C127.453 64.7882 127.992 64.8016 128.684 64.6455L134.982 63.224L135.448 65.2829L129.183 66.6968Z" fill="white"/>
<path d="M129.836 77.5152C129.4 77.5306 128.954 77.4622 128.499 77.3102C128.043 77.1628 127.621 76.9278 127.232 76.6054C126.844 76.2875 126.522 75.8764 126.268 75.3721C126.018 74.8722 125.881 74.2729 125.856 73.5743C125.823 72.6443 126.016 71.8426 126.433 71.1693C126.855 70.4958 127.45 69.9706 128.219 69.5938C128.989 69.2215 129.88 69.0175 130.893 68.9818C131.906 68.9461 132.807 69.087 133.596 69.4044C134.385 69.7263 135.011 70.2084 135.475 70.8507C135.939 71.493 136.187 72.2791 136.22 73.2091C136.248 73.9848 136.13 74.6499 135.868 75.2042C135.605 75.763 135.255 76.2137 134.817 76.5562C134.379 76.9032 133.912 77.1445 133.417 77.28C133.115 77.3633 132.823 77.41 132.542 77.4199L132.467 75.3036C132.603 75.2988 132.734 75.2828 132.861 75.2556C133.191 75.1986 133.482 75.0838 133.736 74.9114C133.989 74.739 134.185 74.514 134.326 74.2365C134.471 73.9634 134.537 73.6409 134.524 73.2689C134.508 72.8334 134.37 72.4499 134.108 72.1185C133.846 71.787 133.455 71.5328 132.935 71.3558C132.414 71.1788 131.759 71.1043 130.969 71.1321C130.174 71.1601 129.521 71.2808 129.01 71.4941C128.503 71.7073 128.129 71.9885 127.887 72.3377C127.649 72.6867 127.538 73.079 127.553 73.5145C127.564 73.8275 127.631 74.1022 127.753 74.3387C127.875 74.5796 128.039 74.7783 128.244 74.9345C128.45 75.0954 128.684 75.2143 128.946 75.2914C129.208 75.373 129.48 75.4088 129.762 75.3989L129.836 77.5152Z" fill="white"/>
<path d="M134.754 88.4783L124.812 86.9676L125.131 84.8741L129.903 85.5992L129.126 86.4454L129.96 80.9658L130.424 82.0004L125.678 81.2794L125.997 79.1859L135.939 80.6965L135.621 82.7901L130.814 82.0598L131.585 81.2127L130.75 86.6922L130.267 85.6545L135.073 86.3848L134.754 88.4783Z" fill="white"/>
<path d="M129.599 97.7267L128.274 98.2201L128.068 97.204L129.571 96.8339L128.745 95.5311L129.6 94.9437L130.21 96.2179L131.159 95.0885L131.775 95.8216L130.82 96.817L132.004 97.2361L131.597 98.2398L130.455 97.7197L130.449 99.0979L129.496 99.1981L129.599 97.7267Z" fill="#FF3600"/>
<path d="M116.259 104.772C116.723 104.127 117.307 103.654 118.01 103.353C118.714 103.059 119.488 102.978 120.334 103.109C121.181 103.247 122.058 103.641 122.966 104.292C123.871 104.941 124.519 105.654 124.911 106.433C125.303 107.211 125.464 107.994 125.395 108.783C125.324 109.576 125.041 110.315 124.548 111.001C124.137 111.572 123.698 111.989 123.23 112.251C122.759 112.517 122.29 112.67 121.825 112.711C121.357 112.755 120.921 112.719 120.517 112.603C120.118 112.49 119.783 112.337 119.513 112.143C119.502 112.135 119.491 112.127 119.48 112.119C119.469 112.112 119.458 112.104 119.447 112.096L120.648 110.425C120.659 110.433 120.67 110.441 120.681 110.449C120.692 110.457 120.703 110.465 120.714 110.473C120.884 110.595 121.075 110.684 121.286 110.74C121.501 110.799 121.72 110.814 121.943 110.784C122.163 110.757 122.38 110.681 122.594 110.555C122.805 110.433 122.997 110.251 123.169 110.012C123.402 109.687 123.533 109.311 123.56 108.884C123.588 108.457 123.46 107.999 123.178 107.512C122.9 107.027 122.412 106.535 121.714 106.035C121.182 105.653 120.698 105.385 120.262 105.228C119.824 105.076 119.432 105.01 119.087 105.031C118.745 105.054 118.446 105.144 118.188 105.3C117.928 105.46 117.71 105.662 117.535 105.905C117.294 106.241 117.148 106.561 117.097 106.865C117.047 107.176 117.059 107.455 117.132 107.703C117.205 107.951 117.31 108.152 117.446 108.306L117.978 108.687L119.139 107.072L120.379 107.961L118.125 111.097L114.026 108.159L114.675 107.257L115.689 107.75C115.64 107.67 115.592 107.541 115.547 107.363C115.501 107.185 115.483 106.965 115.492 106.704C115.502 106.448 115.567 106.156 115.685 105.828C115.798 105.5 115.989 105.148 116.259 104.772Z" fill="white"/>
<path d="M117.761 116.346L117.783 117.733L114.873 114.756L115.634 114.852L112.979 117.438L111.837 116.269L114.491 113.682L114.569 114.444L111.636 111.441L113.024 111.497L109.486 114.944L108.343 113.775L112.72 109.509L119.743 116.698L115.366 120.964L114.223 119.794L117.761 116.346Z" fill="white"/>
<path d="M106.307 125.688L109.016 123.77L108.91 125.081L103.456 117.399L105.175 116.182L110.629 123.864L109.333 123.546L112.058 121.616L113.005 122.949L107.254 127.022L106.307 125.688Z" fill="white"/>
<path d="M96.9511 121.107L101.145 130.236L99.2488 131.105L95.0549 121.976L96.9511 121.107Z" fill="white"/>
<path d="M91.6766 123.298L93.6505 122.69L96.6182 132.286L93.4782 133.254L87.5177 125.379L87.8303 125.19L90.5988 134.142L88.6314 134.749L85.6637 125.153L88.8232 124.179L94.7757 132.027L94.437 132.224L91.6766 123.298Z" fill="white"/>
<path d="M74.3957 134.625L77.7102 134.427L76.9265 135.484L76.3639 126.084L78.467 125.958L79.0296 135.358L78.0982 134.404L81.4331 134.205L81.5308 135.836L74.4933 136.257L74.3957 134.625Z" fill="white"/>
<path d="M68.9951 125.577C69.6186 125.645 70.1892 125.821 70.7066 126.106C71.2241 126.391 71.6644 126.775 72.0276 127.258C72.3908 127.74 72.6548 128.315 72.8195 128.981C72.9837 129.652 73.0203 130.403 72.9292 131.233C72.8377 132.068 72.6418 132.791 72.3416 133.402C72.0364 134.017 71.6545 134.519 71.1958 134.907C70.7371 135.295 70.2246 135.57 69.6581 135.732C69.0917 135.894 68.4944 135.94 67.8663 135.872C67.2428 135.803 66.672 135.629 66.1541 135.349C65.6316 135.068 65.1885 134.688 64.8248 134.21C64.4611 133.732 64.1992 133.16 64.039 132.494C63.8783 131.832 63.8437 131.084 63.9353 130.25C64.0263 129.419 64.2247 128.694 64.5304 128.075C64.8311 127.459 65.2133 126.955 65.677 126.563C66.1361 126.17 66.6514 125.891 67.2229 125.725C67.7899 125.559 68.3806 125.509 68.9951 125.577ZM68.8103 127.262C68.3901 127.216 67.9889 127.289 67.6067 127.48C67.22 127.67 66.8902 128.009 66.6175 128.495C66.3442 128.986 66.1618 129.648 66.0702 130.483C65.9782 131.322 66.0152 132.007 66.1812 132.536C66.3427 133.066 66.5898 133.46 66.9225 133.72C67.2547 133.985 67.6309 134.14 68.0511 134.186C68.4713 134.232 68.8745 134.162 69.2608 133.976C69.642 133.794 69.9687 133.462 70.241 132.98C70.5133 132.499 70.6955 131.838 70.7875 130.999C70.8795 130.16 70.845 129.473 70.6841 128.94C70.5231 128.406 70.2767 128.005 69.945 127.735C69.6088 127.466 69.2305 127.308 68.8103 127.262Z" fill="white"/>
<path d="M54.9213 126.099C55.2989 124.885 55.9027 124.077 56.7325 123.673C57.5611 123.275 58.5331 123.248 59.6487 123.594C60.7686 123.942 61.5567 124.515 62.013 125.312C62.4636 126.113 62.5001 127.12 62.1225 128.334C62.0713 128.498 62.0166 128.674 61.9586 128.86C61.9006 129.047 61.8399 129.242 61.7766 129.446L60.2168 134.459L58.1919 133.831L59.8406 128.531C59.8919 128.366 59.9398 128.212 59.9843 128.069C60.0288 127.926 60.0699 127.794 60.1077 127.673C60.3181 126.997 60.3495 126.46 60.2018 126.062C60.0529 125.669 59.7006 125.386 59.145 125.214C58.5937 125.043 58.143 125.076 57.7927 125.314C57.4412 125.557 57.1602 126.017 56.9498 126.693L55.034 132.851L53.0156 132.224L54.9213 126.099Z" fill="white"/>
<path d="M45.2065 121.239C45.4117 120.855 45.6944 120.504 46.0545 120.186C46.4106 119.866 46.8258 119.619 47.3 119.445C47.7703 119.268 48.2877 119.196 48.8521 119.229C49.4104 119.264 49.9984 119.446 50.6161 119.775C51.4384 120.213 52.0366 120.781 52.4108 121.479C52.7829 122.181 52.9395 122.959 52.8806 123.812C52.8176 124.664 52.5478 125.536 52.071 126.429C51.5942 127.323 51.0205 128.031 50.3501 128.553C49.6756 129.074 48.9439 129.374 48.1549 129.453C47.3659 129.532 46.5602 129.352 45.738 128.914C45.0521 128.549 44.5347 128.114 44.186 127.61C43.8332 127.103 43.6182 126.574 43.5411 126.024C43.46 125.472 43.4849 124.947 43.6158 124.451C43.6948 124.149 43.8007 123.873 43.9332 123.625L45.8044 124.621C45.7403 124.741 45.6883 124.863 45.6485 124.985C45.5325 125.299 45.4858 125.609 45.5083 125.914C45.5308 126.219 45.6271 126.502 45.7972 126.762C45.9612 127.024 46.2076 127.243 46.5365 127.418C46.9216 127.623 47.3234 127.696 47.7418 127.635C48.1602 127.575 48.5765 127.365 48.9905 127.004C49.4046 126.643 49.7977 126.114 50.1697 125.417C50.5439 124.716 50.7666 124.091 50.8379 123.543C50.907 122.998 50.851 122.534 50.6699 122.149C50.4867 121.769 50.2026 121.476 49.8175 121.271C49.5407 121.124 49.2693 121.044 49.0033 121.031C48.7332 121.015 48.479 121.058 48.2405 121.157C47.998 121.254 47.7777 121.397 47.5796 121.584C47.3775 121.77 47.2102 121.987 47.0777 122.235L45.2065 121.239Z" fill="white"/>
<path d="M33.3063 120.029L39.5993 112.194L41.2532 113.52L38.2326 117.28L37.8891 116.184L42.2181 119.653L41.0896 119.534L44.0931 115.795L45.7471 117.12L39.4541 124.954L37.8002 123.629L40.8421 119.842L41.1899 120.933L36.8609 117.464L38.0022 117.567L34.9603 121.354L33.3063 120.029Z" fill="white"/>
<path d="M27.8719 110.956L28.1052 109.564L29.0899 109.892L28.6607 111.377L30.2033 111.313L30.2859 112.347L28.8761 112.238L29.3819 113.624L28.4388 113.79L28.0516 112.467L27.0972 113.282L26.4292 112.43L27.4508 111.701L26.2581 111.007L26.6466 110.133L27.8719 110.956Z" fill="#FF3600"/>
<path d="M28.4115 95.898C28.7401 96.6214 28.8595 97.3624 28.7698 98.1208C28.674 98.877 28.3582 99.5883 27.8224 100.255C27.2806 100.919 26.5005 101.482 25.4822 101.943C24.468 102.402 23.5256 102.608 22.6547 102.559C21.7839 102.509 21.0235 102.258 20.3734 101.805C19.7215 101.348 19.2209 100.735 18.8717 99.9657C18.5806 99.325 18.4381 98.7365 18.4442 98.2004C18.4484 97.6602 18.549 97.1784 18.7461 96.7552C18.9413 96.3278 19.1898 95.9684 19.4917 95.6771C19.7895 95.3877 20.0895 95.1745 20.3917 95.0376C20.4041 95.032 20.4165 95.0264 20.4289 95.0208C20.4414 95.0151 20.4538 95.0095 20.4662 95.0039L21.3168 96.8766C21.3044 96.8822 21.2919 96.8878 21.2795 96.8935C21.2671 96.8991 21.2547 96.9047 21.2423 96.9103C21.0519 96.9966 20.8795 97.1171 20.7251 97.2717C20.5666 97.4283 20.4448 97.6106 20.3596 97.8186C20.2726 98.0226 20.2304 98.2485 20.2332 98.4965C20.2342 98.7403 20.2957 98.9966 20.4177 99.2653C20.583 99.6291 20.8442 99.9294 21.2014 100.166C21.5585 100.403 22.0189 100.521 22.5824 100.52C23.1418 100.521 23.8127 100.344 24.595 99.9897C25.1911 99.7197 25.6657 99.4349 26.0188 99.1354C26.37 98.8317 26.6226 98.5253 26.7767 98.2162C26.9267 97.909 26.9982 97.605 26.9913 97.304C26.9825 96.999 26.9161 96.71 26.7922 96.4372C26.6213 96.061 26.4165 95.7749 26.1778 95.579C25.9331 95.3809 25.6847 95.2516 25.4327 95.1913C25.1807 95.131 24.9543 95.1215 24.7534 95.1626L24.1573 95.4327L24.9797 97.2434L23.5889 97.8735L21.9919 94.3575L26.5867 92.2759L27.0458 93.2867L26.1125 93.9188C26.2062 93.9162 26.3416 93.9396 26.5188 93.989C26.6959 94.0383 26.8958 94.1322 27.1184 94.2706C27.3349 94.4068 27.5561 94.6081 27.782 94.8747C28.0102 95.1352 28.22 95.4763 28.4115 95.898Z" fill="white"/>
<path d="M17.62 91.41L16.4069 90.7342L20.4445 89.7098L19.9805 90.3193L19.0672 86.7292L20.6532 86.3268L21.5665 89.9169L20.8675 89.6025L24.9382 88.5697L24.1952 89.7418L22.978 84.9572L24.564 84.5548L26.0699 90.4745L16.3228 92.9475L14.8168 87.0278L16.4028 86.6254L17.62 91.41Z" fill="white"/>
<path d="M15.2661 76.8456L15.5704 80.1477L14.4881 79.3993L23.878 78.5363L24.071 80.6315L14.6812 81.4944L15.606 80.5342L15.9122 83.8566L14.2827 84.0063L13.6367 76.9954L15.2661 76.8456Z" fill="white"/>
<path d="M23.9247 70.9566L13.9126 70.0107L14.1091 67.9364L24.1212 68.8823L23.9247 70.9566Z" fill="white"/>
<path d="M24.6624 65.3177L24.2036 67.3293L14.3979 65.0986L15.1279 61.8986L24.937 60.6802L24.9447 61.0451L15.7972 58.9642L16.2545 56.9592L26.0602 59.1899L25.3257 62.4098L15.5431 63.6342L15.5415 63.2428L24.6624 65.3177Z" fill="white"/>
<path d="M23.4993 44.6859L22.0099 47.6496L21.4873 46.4429L29.9148 50.6674L28.9697 52.5478L20.5422 48.3234L21.8356 47.9965L20.337 50.9785L18.8745 50.2454L22.0368 43.9528L23.4993 44.6859Z" fill="white"/>
<path d="M33.9983 44.6364C33.6267 45.1411 33.1878 45.5456 32.6816 45.85C32.1753 46.1543 31.6221 46.3425 31.0219 46.4144C30.4216 46.4863 29.7915 46.4264 29.1315 46.2347C28.4678 46.0402 27.7991 45.6956 27.1254 45.2007C26.4479 44.7032 25.9197 44.1715 25.5407 43.6058C25.1608 43.0338 24.9176 42.4522 24.8111 41.8613C24.7046 41.2703 24.7232 40.6895 24.867 40.1189C25.0107 39.5482 25.2697 39.0087 25.644 38.5004C26.0156 37.9957 26.4527 37.5899 26.9553 37.2828C27.4605 36.9721 28.0115 36.7794 28.608 36.7048C29.2046 36.6302 29.8316 36.6906 30.4889 36.886C31.1425 37.0787 31.8081 37.4239 32.4855 37.9214C33.1593 38.4163 33.6879 38.9511 34.0715 39.5258C34.4542 40.0943 34.6992 40.6771 34.8067 41.2744C34.9168 41.8681 34.9005 42.4534 34.7578 43.0304C34.6177 43.6037 34.3646 44.1391 33.9983 44.6364ZM32.6307 43.6319C32.8811 43.2918 33.0193 42.9087 33.0453 42.4826C33.074 42.0529 32.9461 41.5983 32.6615 41.1189C32.3733 40.6368 31.8905 40.1469 31.2131 39.6494C30.532 39.1491 29.9204 38.838 29.3784 38.716C28.839 38.5903 28.3732 38.606 27.9811 38.7631C27.5852 38.9176 27.2621 39.1648 27.0117 39.5049C26.7612 39.845 26.6198 40.2286 26.5875 40.6556C26.5542 41.0763 26.678 41.5251 26.9588 42.0018C27.2397 42.4786 27.7207 42.9671 28.4018 43.4673C29.0829 43.9675 29.6949 44.2818 30.238 44.4102C30.781 44.5386 31.2523 44.5269 31.6517 44.3752C32.0539 44.2198 32.3802 43.972 32.6307 43.6319Z" fill="white"/>
<path d="M40.5922 32.2013C41.4562 33.1346 41.8556 34.061 41.7905 34.9804C41.7224 35.8965 41.2594 36.7505 40.4017 37.5425C39.5406 38.3375 38.6501 38.7331 37.7304 38.7292C36.8109 38.7188 35.9191 38.247 35.0552 37.3137C34.9379 37.187 34.813 37.052 34.6803 36.9087C34.5476 36.7654 34.4088 36.6154 34.2637 36.4587L30.6953 32.6038L32.2523 31.1662L36.0244 35.2411C36.1416 35.3678 36.2512 35.4861 36.353 35.5961C36.4548 35.7061 36.5489 35.8078 36.6353 35.9011C37.1166 36.4211 37.5666 36.7166 37.9852 36.7876C38.4007 36.8553 38.822 36.6919 39.2492 36.2975C39.6731 35.9061 39.8692 35.4994 39.8375 35.0773C39.8028 34.652 39.5447 34.1793 39.0634 33.6593L34.6804 28.9243L36.2324 27.4914L40.5922 32.2013Z" fill="white"/>
<path d="M49.6494 26.2132C49.8809 26.5826 50.0448 27.0023 50.141 27.4723C50.2411 27.94 50.2487 28.4226 50.1638 28.9202C50.0828 29.4154 49.8873 29.8991 49.5774 30.3714C49.2689 30.8374 48.818 31.256 48.2247 31.6269C47.4349 32.1208 46.6437 32.3557 45.8512 32.3318C45.0562 32.304 44.3029 32.052 43.5914 31.5757C42.8837 31.097 42.261 30.4287 41.7231 29.5707C41.1852 28.7126 40.8565 27.8631 40.7368 27.0221C40.621 26.1787 40.7254 25.3957 41.0501 24.6732C41.3748 23.9507 41.932 23.3425 42.7218 22.8487C43.3806 22.4368 44.0159 22.2055 44.6278 22.155C45.2435 22.1021 45.8094 22.1793 46.3256 22.3868C46.8456 22.5919 47.2884 22.8747 47.6538 23.2353C47.8771 23.4545 48.0635 23.6834 48.213 23.922L46.4158 25.0458C46.3434 24.9303 46.2638 24.8248 46.1771 24.7291C45.9625 24.4723 45.7171 24.2776 45.4409 24.145C45.1647 24.0124 44.8712 23.9549 44.5605 23.9725C44.2512 23.9838 43.9386 24.0882 43.6227 24.2858C43.2528 24.517 42.9897 24.8288 42.8335 25.2211C42.6772 25.6134 42.6525 26.0787 42.7594 26.617C42.8663 27.1554 43.1295 27.7593 43.5492 28.4288C43.9713 29.1021 44.4027 29.6063 44.8433 29.9414C45.2815 30.2725 45.7126 30.4555 46.1367 30.4903C46.5583 30.5213 46.954 30.4211 47.3238 30.1899C47.5897 30.0236 47.7945 29.8286 47.9384 29.6047C48.0862 29.3785 48.1763 29.1373 48.2089 28.8813C48.2453 28.6229 48.2314 28.3611 48.1671 28.096C48.1067 27.8286 48.0017 27.5755 47.8521 27.337L49.6494 26.2132Z" fill="white"/>
<path d="M56.6493 16.5115L60.3046 25.868L58.3292 26.6378L56.5747 22.1467L57.6969 22.3964L52.5265 24.4112L53.1927 23.4938L54.9374 27.9595L52.962 28.7293L49.3066 19.3728L51.282 18.603L53.049 23.1259L51.9293 22.8824L57.0996 20.8677L56.4408 21.8041L54.6739 17.2813L56.6493 16.5115Z" fill="white"/>
<path d="M67.2461 16.3547L68.3358 17.2545L67.5575 17.9407L66.4858 16.8253L65.7681 18.1905L64.8313 17.7438L65.6322 16.5801L64.1779 16.3225L64.5066 15.424L65.8468 15.7526L65.6191 14.5193L66.6928 14.3694L66.8124 15.6177L68.0111 14.9347L68.5738 15.7087L67.2461 16.3547Z" fill="#FF3600"/>
</svg>
