<svg width="35" height="35" viewBox="0 0 35 35" fill="none" xmlns="http://www.w3.org/2000/svg">
<path d="M17.5 13.5283C19.7558 13.5283 21.5879 11.6963 21.5879 9.44043C21.3623 4.01953 13.6377 4.01953 13.4121 9.44043C13.4121 11.6963 15.2441 13.5283 17.5 13.5283ZM17.5 6.06348C19.3594 6.06348 20.8769 7.58105 20.8769 9.44043C20.6924 13.918 14.3076 13.918 14.123 9.44043C14.123 7.58105 15.6406 6.06348 17.5 6.06348ZM10.2402 11.3066H11.2383C11.3682 11.7373 11.5391 12.1543 11.751 12.5508L11.0469 13.2549C10.7529 13.5488 10.7529 14.0273 11.0469 14.3213L12.6191 15.8936C12.8994 16.1875 13.4053 16.1875 13.6855 15.8936L14.3896 15.1895C14.7861 15.4014 15.2031 15.5791 15.6338 15.7021V16.7002C15.6338 17.1172 15.9687 17.4521 16.3857 17.4521H18.6142C19.0312 17.4521 19.3662 17.1172 19.3662 16.7002V15.7021C19.7969 15.5723 20.207 15.4014 20.6103 15.1895L21.3213 15.8936C21.6016 16.1875 22.1074 16.1875 22.3877 15.8936L23.9599 14.3213C24.2539 14.041 24.2539 13.5352 23.9599 13.2549L23.2558 12.5508C23.4678 12.1543 23.6455 11.7373 23.7685 11.3066H24.7666C25.1836 11.3066 25.5185 10.9717 25.5185 10.5547V8.32617C25.5185 7.90918 25.1836 7.57422 24.7666 7.57422H23.7685C23.6387 7.14355 23.4678 6.72656 23.2558 6.33008L23.9599 5.62598C24.2539 5.3457 24.2539 4.83984 23.9599 4.55957L22.3877 2.9873C22.0937 2.69336 21.6152 2.69336 21.3213 2.9873L20.6103 3.69141C20.2139 3.47949 19.7969 3.30176 19.3662 3.17871V2.18066C19.3662 1.76367 19.0312 1.42871 18.6142 1.42871H16.3857C15.9687 1.42871 15.6338 1.76367 15.6338 2.18066V3.17871C15.2031 3.30859 14.7861 3.47949 14.3896 3.69141L13.6787 2.98047C13.3848 2.68652 12.9062 2.68652 12.6123 2.98047L11.04 4.55273C10.7461 4.84668 10.7461 5.32519 11.04 5.61914L11.7441 6.32324C11.5322 6.71973 11.3613 7.13672 11.2314 7.56738H10.2334C9.81639 7.56738 9.48143 7.90234 9.48143 8.31933V10.5479C9.48143 10.9717 9.82323 11.3066 10.2402 11.3066ZM10.1924 8.32617C10.1924 8.29883 10.2129 8.27832 10.2402 8.27832H11.5117C11.6758 8.27832 11.8125 8.16894 11.8535 8.01172C11.9902 7.46484 12.209 6.93848 12.5029 6.45312C12.5849 6.31641 12.5644 6.13867 12.4482 6.02246L11.5459 5.12695C11.5254 5.10644 11.5254 5.0791 11.5459 5.06543L13.1182 3.49316C13.1387 3.47266 13.166 3.47949 13.1797 3.49316L14.082 4.38867C14.1982 4.50488 14.376 4.52539 14.5127 4.44336C14.998 4.14941 15.5244 3.9375 16.0713 3.79395C16.2285 3.75293 16.3379 3.60937 16.3379 3.45215V2.18066C16.3379 2.15332 16.3584 2.13281 16.3857 2.13281H18.6142C18.6416 2.13281 18.6621 2.15332 18.6621 2.18066V3.45215C18.6621 3.61621 18.7715 3.75293 18.9287 3.79395C19.4756 3.93066 20.0019 4.14941 20.4873 4.44336C20.624 4.52539 20.8086 4.50488 20.918 4.38867L21.8203 3.48633C21.8408 3.46582 21.8682 3.47266 21.8818 3.48633L23.4541 5.05859V5.12012L22.5586 6.02246C22.4424 6.13867 22.4219 6.31641 22.5039 6.45312C22.7978 6.93848 23.0166 7.46484 23.1533 8.01172C23.1943 8.16894 23.331 8.27832 23.4951 8.27832H24.7666C24.7939 8.27832 24.8144 8.29883 24.8144 8.32617V10.5547C24.8144 10.582 24.7939 10.6025 24.7666 10.6025H23.4951C23.331 10.6025 23.1875 10.7119 23.1533 10.8691C23.0166 11.416 22.7978 11.9424 22.5039 12.4277C22.4219 12.5645 22.4424 12.7422 22.5586 12.8584L23.4541 13.7539V13.8154L21.8818 15.3877L22.1348 15.6406C21.9092 15.5039 21.123 14.6904 20.918 14.4922C20.8017 14.376 20.624 14.3555 20.4873 14.4375C19.9951 14.7314 19.4756 14.9502 18.9287 15.0869C18.7715 15.1279 18.6621 15.2715 18.6621 15.4287V16.7002C18.6621 16.7275 18.6416 16.748 18.6142 16.748H16.3857C16.3584 16.748 16.3379 16.7275 16.3379 16.7002V15.4287C16.3379 15.2646 16.2285 15.1211 16.0713 15.0869C15.5244 14.9502 14.998 14.7314 14.5127 14.4375C14.376 14.3555 14.1982 14.376 14.082 14.4922L13.1865 15.3877L13.4394 15.6406C13.248 15.5449 11.7441 14.0068 11.5527 13.8154C11.5322 13.7949 11.5322 13.7676 11.5527 13.7539L12.4482 12.8584C12.5644 12.7422 12.5849 12.5645 12.5029 12.4277C12.209 11.9424 11.9971 11.416 11.8535 10.8691C11.8125 10.7119 11.6689 10.6025 11.5117 10.6025H10.2402C10.2129 10.6025 10.1924 10.582 10.1924 10.5547V8.32617ZM24.206 22.5791C24.206 22.5859 24.206 22.5859 24.206 22.5791V22.5791ZM34.8769 23.6728C34.7744 23.2148 34.5146 22.8184 34.1933 22.5381C34.6103 22.2646 34.8838 21.7656 34.8838 21.2051C34.9248 20.9043 34.7197 20.6104 34.4121 20.6104C33.9131 20.6445 32.7851 20.4941 32.3545 20.7949L31.2471 18.6074C30.8642 17.8555 30.1396 17.3906 29.3467 17.3906H22.9346C22.0254 17.377 21.2392 18.0264 20.8906 18.8877H14.4443C14.3418 18.8877 14.2461 18.8945 14.1435 18.9082C13.7949 18.04 13.0019 17.3701 12.0859 17.3906H5.67382C4.88085 17.3906 4.1494 17.8555 3.76659 18.6074L2.65917 20.7949C2.2285 20.4941 1.09374 20.6377 0.60155 20.6104C0.293933 20.6035 0.0956903 20.9043 0.136706 21.2051C0.136706 21.7656 0.410144 22.2646 0.8203 22.5381C0.512683 22.8047 0.266589 23.1807 0.150378 23.6113C-0.0957159 24.2676 0.341784 25.7852 0.416979 26.4619V29.4629C0.416979 29.9961 0.827136 30.4336 1.32616 30.4336H2.9121C3.35643 30.4336 3.73241 30.0918 3.81444 29.6406H8.5244V32.5186C8.5244 33.0996 8.96874 33.5713 9.50878 33.5713H11.3066C11.7988 33.5713 12.209 33.1816 12.2842 32.6758H23.8574C23.9258 33.1816 24.3359 33.5713 24.8349 33.5713H26.6328C27.1797 33.5713 27.624 33.0996 27.624 32.5186V29.6406H31.1992C31.2812 30.0918 31.6504 30.4336 32.1016 30.4336H33.6875C34.1933 30.4336 34.6035 29.9961 34.6035 29.4629V26.4414C34.6719 25.8057 35.082 24.3018 34.8769 23.6728ZM33.0586 21.3213H34.166C34.1181 21.7383 33.8037 22.0664 33.4277 22.0664C33.3935 22.0664 33.0176 22.0664 32.9902 22.0596L32.6689 21.4307C32.7851 21.3623 32.9219 21.3213 33.0586 21.3213ZM22.9209 18.1084H29.333C29.8525 18.1084 30.3379 18.4228 30.6045 18.9355C30.6045 18.9355 31.8965 21.4785 31.8965 21.4853C31.9307 21.5742 32.1426 21.9707 32.1904 22.0664L32.1836 22.0596H24.7324L23.8096 20.2412C23.4062 19.4482 22.5654 18.8809 21.6699 18.8877C21.9433 18.4023 22.415 18.1084 22.9209 18.1084ZM14.4307 19.6055H21.7041C22.3125 19.6055 22.8799 19.9746 23.1875 20.5693C23.6455 21.4717 24.5683 23.29 25.0264 24.1855H11.1152C11.3135 23.7959 11.7305 22.9756 11.9287 22.5859C12.5918 21.5059 12.8926 19.6533 14.4307 19.6055ZM23.4541 25.9766C23.0166 26.1475 22.6953 26.5303 22.5449 26.9746C22.5517 26.9473 22.5586 26.9268 22.5723 26.8994C22.5381 26.9883 22.5107 27.0771 22.4971 27.166C22.5107 27.1045 22.5244 27.0361 22.5517 26.9746C22.5312 27.0361 22.5107 27.1045 22.4971 27.166V27.1592H13.6445C13.3027 25.498 11.0742 25.4434 10.6641 27.0908C9.98046 26.9131 9.37206 26.4893 8.94139 25.9355C9.16014 25.252 9.81639 24.8281 10.5342 24.876C10.5273 24.876 10.5137 24.876 10.5068 24.8691C10.6777 24.8691 10.8486 24.876 11.0195 24.876H20.5762H25.457C26.209 24.8008 26.9678 25.1904 27.1933 25.9424C26.6807 26.4551 26.1885 26.8994 25.4639 27.0908C25.2998 26.2158 24.2949 25.6553 23.4541 25.9766ZM24.8076 27.5215C24.7803 28.7656 23.1875 28.7656 23.1601 27.5283C23.1875 26.2842 24.7803 26.2773 24.8076 27.5215ZM12.9678 27.5215C12.9404 28.7656 11.3545 28.7656 11.3203 27.5283C11.3476 26.2842 12.9404 26.2773 12.9678 27.5215ZM3.08983 21.5059C3.083 21.4854 4.38866 18.9561 4.38866 18.9355C4.64842 18.4228 5.13378 18.1084 5.66014 18.1084H12.0723C12.667 18.0947 13.2002 18.5459 13.4394 19.127C12.3183 19.7353 11.9629 21.0137 11.3887 22.0664H2.80956L3.08983 21.5059ZM1.94139 21.3213C2.07811 21.3213 2.20799 21.3623 2.33104 21.4375L2.00975 22.0664C1.99608 22.0732 1.5996 22.0732 1.57225 22.0732C1.19628 22.0732 0.881823 21.7451 0.833972 21.3281H1.94139V21.3213ZM2.90526 29.7227H1.31932C1.05272 29.7158 1.12792 29.2715 1.11424 29.0937C1.333 29.3467 1.62694 29.5381 1.94823 29.6064C2.15331 29.668 2.82323 29.6338 3.04882 29.6406C3.01464 29.6953 2.95995 29.7227 2.90526 29.7227ZM2.25585 28.9365C1.80467 28.9365 1.46971 28.5195 1.40819 28.0957L1.11424 26.3525C1.11424 26.332 1.10057 26.3115 1.10057 26.291L0.8203 24.6094C1.25096 24.9648 1.74999 25.2246 2.29686 25.3477C2.59081 26.8994 4.65526 26.9404 5.01073 25.4023H8.41503C8.34667 25.5391 8.27831 25.6826 8.24413 25.833H7.77245C6.97264 25.833 6.26854 26.25 6.00194 26.8584L5.57128 27.8633C5.52343 27.9727 5.5371 28.0957 5.60546 28.1982C5.66698 28.3008 5.78319 28.3555 5.8994 28.3555H8.40135L8.49706 28.916H2.25585V28.9365ZM2.96678 25.0537C2.95995 24.4863 3.50682 24.0693 3.97167 24.3564C4.54589 24.7119 4.3955 25.8398 3.64354 25.8398C3.2744 25.8467 2.96678 25.4912 2.96678 25.0537ZM5.03124 24.876C5.05858 25.0537 5.04491 25.2383 5.00389 25.4092C5.03807 25.2383 5.04491 25.0537 5.03124 24.876ZM8.12792 26.7559C8.13475 26.9404 8.24413 27.4805 8.27147 27.665H6.42577L6.64452 27.1523C6.79491 26.8037 7.25292 26.5576 7.75878 26.5576H8.12108C8.12108 26.6191 8.12792 26.6875 8.12792 26.7559ZM5.00389 24.7051C5.01757 24.7598 5.0244 24.8213 5.03124 24.876C4.83983 23.2832 2.77538 23.1055 2.31737 24.6299C1.75682 24.4658 1.23046 24.124 0.868151 23.6592C1.05272 23.1602 1.47655 22.8184 1.94823 22.7773H11.0264C10.8896 23.126 10.3291 23.8848 10.124 24.1924C9.71386 24.2402 9.26268 24.3906 8.9619 24.6982H5.00389V24.7051ZM11.3066 32.8672H9.50194C9.11913 32.8535 9.24218 32.2314 9.2285 31.9785C9.75487 32.7578 10.7324 32.7168 11.5527 32.6826C11.5049 32.792 11.4092 32.8672 11.3066 32.8672ZM26.9062 32.5254C26.9062 32.71 26.7764 32.8672 26.626 32.8672H24.8281C24.7187 32.8672 24.6299 32.792 24.582 32.6826C24.6025 32.7236 25.0469 32.6758 25.1016 32.6758C25.7715 32.7305 26.5234 32.5801 26.9131 31.9785V32.5254H26.9062ZM27.2617 26.9404C27.1523 27.6309 27.0293 28.3213 26.9131 29.0117L26.5781 30.9805C26.4824 31.5547 26.0586 31.9717 25.5732 31.9717H10.5683C10.0762 31.9717 9.65233 31.5547 9.55663 30.9805C9.44042 30.3037 9.15331 28.6221 9.04393 27.9727L8.8662 26.9062C9.36522 27.3574 9.98729 27.6924 10.6504 27.8291C10.9512 29.5791 13.2891 29.627 13.6445 27.8838H22.4971L22.4902 27.877C22.4629 27.7607 22.456 27.6445 22.456 27.5215C22.4902 29.4971 25.1084 29.7978 25.4912 27.8223C26.1474 27.6855 26.7558 27.3506 27.2685 26.9062L27.2617 26.9404ZM27.166 24.7051C26.7969 24.3564 26.3047 24.2334 25.8125 24.1855C25.8125 24.1855 25.1016 22.7773 25.0947 22.7773L25.1016 22.7842H33.0517C33.5234 22.8252 33.9473 23.1738 34.1318 23.666C33.7422 24.083 33.2637 24.5068 32.6894 24.6367C32.6416 24.4795 32.5801 24.3291 32.4844 24.1924V24.1992C31.8008 23.1465 30.2353 23.5088 29.9892 24.7119C29.9961 24.7051 27.166 24.7051 27.166 24.7051ZM32.5664 24.3223C32.5527 24.2881 32.5322 24.2607 32.5117 24.2266C32.5322 24.2607 32.5459 24.2949 32.5664 24.3223ZM32.0332 25.0537C32.0195 26.0928 30.6797 26.0928 30.666 25.0537C30.6797 24.0352 31.999 23.9873 32.0332 25.0537ZM33.8857 29.4629C33.8857 29.6064 33.7969 29.7227 33.6807 29.7227H32.0947C32.04 29.7227 31.9853 29.6885 31.9512 29.6406C32.1973 29.627 32.8535 29.6748 33.0791 29.5996C33.3935 29.5312 33.6807 29.3398 33.8857 29.0937V29.4629ZM33.9062 26.291C33.9062 26.3115 33.8926 26.332 33.8926 26.3525L33.5986 28.0957C33.5166 28.5811 33.1611 28.9365 32.751 28.9365H27.6514L27.7471 28.376H29.1142C29.3603 28.3828 29.5449 28.1094 29.4424 27.8838L29.0117 26.8789C28.834 26.4551 28.4375 26.127 27.9316 25.9629H27.9385C27.8906 25.7783 27.8223 25.5869 27.7334 25.4229H30.0029C30.3584 26.9609 32.416 26.9131 32.7168 25.3682C33.25 25.2314 33.7627 24.9853 34.1865 24.6299L33.9062 26.291ZM27.8633 27.665C27.8906 27.4805 27.9932 26.9404 28 26.7627C28.3281 26.9268 28.4375 27.3711 28.5742 27.665H27.8633ZM30.5703 23.8096C30.5771 23.8096 30.5771 23.8096 30.5703 23.8096V23.8096ZM1.24413 24.9238C1.29882 24.958 1.34667 24.9853 1.40135 25.0127C1.31932 24.9717 1.24413 24.9307 1.17577 24.876C1.18944 24.8896 1.21678 24.9033 1.24413 24.9238ZM4.03319 23.6113C4.04003 23.6045 4.04003 23.6113 4.04686 23.6113C4.04686 23.6113 4.04686 23.6113 4.04003 23.6182C4.03319 23.6113 4.03319 23.6113 4.03319 23.6113ZM21.2871 29.5996C21 28.9228 20.2139 28.4717 19.3252 28.4717H16.8096C15.9209 28.4717 15.1348 28.9228 14.8476 29.5996L14.3623 30.748C14.2598 30.9736 14.4443 31.2471 14.6904 31.2402H21.4512C21.6973 31.2471 21.8818 30.9736 21.7793 30.748C21.7724 30.748 21.2871 29.5996 21.2871 29.5996ZM15.2236 30.5293L15.4971 29.8799C15.6748 29.4629 16.2148 29.1758 16.8096 29.1758H19.3252C19.9199 29.1758 20.4599 29.4629 20.6308 29.8799L20.9043 30.5293H15.2236Z" fill="white"/>
<path d="M17.5001 5.80664C19.4877 5.80685 21.0988 7.41858 21.0988 9.40625C21.0985 11.3937 19.4876 13.0047 17.5001 13.0049C15.5125 13.0049 13.9007 11.3939 13.9005 9.40625C13.9005 7.41845 15.5123 5.80664 17.5001 5.80664Z" stroke="#FF3600"/>
</svg>
