<svg width="35" height="35" viewBox="0 0 35 35" fill="none" xmlns="http://www.w3.org/2000/svg">
<path d="M17.5001 13.5283C19.756 13.5283 21.588 11.6963 21.588 9.44043C21.3624 4.01953 13.6378 4.01953 13.4122 9.44043C13.4122 11.6963 15.2443 13.5283 17.5001 13.5283ZM17.5001 6.06348C19.3595 6.06348 20.8771 7.58105 20.8771 9.44043C20.6925 13.918 14.3077 13.918 14.1232 9.44043C14.1232 7.58105 15.6407 6.06348 17.5001 6.06348ZM10.2403 11.3066H11.2384C11.3683 11.7373 11.5392 12.1543 11.7511 12.5508L11.047 13.2549C10.753 13.5488 10.753 14.0273 11.047 14.3213L12.6193 15.8936C12.8995 16.1875 13.4054 16.1875 13.6857 15.8936L14.3898 15.1895C14.7862 15.4014 15.2032 15.5791 15.6339 15.7021V16.7002C15.6339 17.1172 15.9689 17.4521 16.3859 17.4521H18.6144C19.0314 17.4521 19.3663 17.1172 19.3663 16.7002V15.7021C19.797 15.5723 20.2071 15.4014 20.6105 15.1895L21.3214 15.8936C21.6017 16.1875 22.1075 16.1875 22.3878 15.8936L23.9601 14.3213C24.254 14.041 24.254 13.5352 23.9601 13.2549L23.256 12.5508C23.4679 12.1543 23.6456 11.7373 23.7687 11.3066H24.7667C25.1837 11.3066 25.5187 10.9717 25.5187 10.5547V8.32617C25.5187 7.90918 25.1837 7.57422 24.7667 7.57422H23.7687C23.6388 7.14355 23.4679 6.72656 23.256 6.33008L23.9601 5.62598C24.254 5.3457 24.254 4.83984 23.9601 4.55957L22.3878 2.9873C22.0939 2.69336 21.6153 2.69336 21.3214 2.9873L20.6105 3.69141C20.214 3.47949 19.797 3.30176 19.3663 3.17871V2.18066C19.3663 1.76367 19.0314 1.42871 18.6144 1.42871H16.3859C15.9689 1.42871 15.6339 1.76367 15.6339 2.18066V3.17871C15.2032 3.30859 14.7862 3.47949 14.3898 3.69141L13.6788 2.98047C13.3849 2.68652 12.9064 2.68652 12.6124 2.98047L11.0401 4.55273C10.7462 4.84668 10.7462 5.32519 11.0401 5.61914L11.7443 6.32324C11.5323 6.71973 11.3614 7.13672 11.2316 7.56738H10.2335C9.81652 7.56738 9.48155 7.90234 9.48155 8.31933V10.5479C9.48155 10.9717 9.82335 11.3066 10.2403 11.3066ZM10.1925 8.32617C10.1925 8.29883 10.213 8.27832 10.2403 8.27832H11.5118C11.6759 8.27832 11.8126 8.16894 11.8536 8.01172C11.9903 7.46484 12.2091 6.93848 12.503 6.45312C12.5851 6.31641 12.5646 6.13867 12.4484 6.02246L11.546 5.12695C11.5255 5.10644 11.5255 5.0791 11.546 5.06543L13.1183 3.49316C13.1388 3.47266 13.1661 3.47949 13.1798 3.49316L14.0821 4.38867C14.1984 4.50488 14.3761 4.52539 14.5128 4.44336C14.9982 4.14941 15.5245 3.9375 16.0714 3.79395C16.2286 3.75293 16.338 3.60937 16.338 3.45215V2.18066C16.338 2.15332 16.3585 2.13281 16.3859 2.13281H18.6144C18.6417 2.13281 18.6622 2.15332 18.6622 2.18066V3.45215C18.6622 3.61621 18.7716 3.75293 18.9288 3.79395C19.4757 3.93066 20.0021 4.14941 20.4874 4.44336C20.6241 4.52539 20.8087 4.50488 20.9181 4.38867L21.8204 3.48633C21.8409 3.46582 21.8683 3.47266 21.8819 3.48633L23.4542 5.05859V5.12012L22.5587 6.02246C22.4425 6.13867 22.422 6.31641 22.504 6.45312C22.798 6.93848 23.0167 7.46484 23.1534 8.01172C23.1944 8.16894 23.3312 8.27832 23.4952 8.27832H24.7667C24.7941 8.27832 24.8146 8.29883 24.8146 8.32617V10.5547C24.8146 10.582 24.7941 10.6025 24.7667 10.6025H23.4952C23.3312 10.6025 23.1876 10.7119 23.1534 10.8691C23.0167 11.416 22.798 11.9424 22.504 12.4277C22.422 12.5645 22.4425 12.7422 22.5587 12.8584L23.4542 13.7539V13.8154L21.8819 15.3877L22.1349 15.6406C21.9093 15.5039 21.1232 14.6904 20.9181 14.4922C20.8019 14.376 20.6241 14.3555 20.4874 14.4375C19.9952 14.7314 19.4757 14.9502 18.9288 15.0869C18.7716 15.1279 18.6622 15.2715 18.6622 15.4287V16.7002C18.6622 16.7275 18.6417 16.748 18.6144 16.748H16.3859C16.3585 16.748 16.338 16.7275 16.338 16.7002V15.4287C16.338 15.2646 16.2286 15.1211 16.0714 15.0869C15.5245 14.9502 14.9982 14.7314 14.5128 14.4375C14.3761 14.3555 14.1984 14.376 14.0821 14.4922L13.1866 15.3877L13.4396 15.6406C13.2482 15.5449 11.7443 14.0068 11.5528 13.8154C11.5323 13.7949 11.5323 13.7676 11.5528 13.7539L12.4484 12.8584C12.5646 12.7422 12.5851 12.5645 12.503 12.4277C12.2091 11.9424 11.9972 11.416 11.8536 10.8691C11.8126 10.7119 11.6691 10.6025 11.5118 10.6025H10.2403C10.213 10.6025 10.1925 10.582 10.1925 10.5547V8.32617ZM24.2062 22.5791C24.2062 22.5859 24.2062 22.5859 24.2062 22.5791V22.5791ZM34.8771 23.6728C34.7745 23.2148 34.5148 22.8184 34.1935 22.5381C34.6105 22.2646 34.8839 21.7656 34.8839 21.2051C34.9249 20.9043 34.7198 20.6104 34.4122 20.6104C33.9132 20.6445 32.7853 20.4941 32.3546 20.7949L31.2472 18.6074C30.8644 17.8555 30.1398 17.3906 29.3468 17.3906H22.9347C22.0255 17.377 21.2394 18.0264 20.8907 18.8877H14.4444C14.3419 18.8877 14.2462 18.8945 14.1437 18.9082C13.795 18.04 13.0021 17.3701 12.086 17.3906H5.67394C4.88097 17.3906 4.14952 17.8555 3.76671 18.6074L2.65929 20.7949C2.22863 20.4941 1.09386 20.6377 0.601672 20.6104C0.294055 20.6035 0.0958124 20.9043 0.136828 21.2051C0.136828 21.7656 0.410266 22.2646 0.820422 22.5381C0.512805 22.8047 0.266711 23.1807 0.1505 23.6113C-0.0955938 24.2676 0.341906 25.7852 0.417101 26.4619V29.4629C0.417101 29.9961 0.827258 30.4336 1.32628 30.4336H2.91222C3.35655 30.4336 3.73253 30.0918 3.81456 29.6406H8.52452V32.5186C8.52452 33.0996 8.96886 33.5713 9.5089 33.5713H11.3068C11.7989 33.5713 12.2091 33.1816 12.2843 32.6758H23.8575C23.9259 33.1816 24.336 33.5713 24.8351 33.5713H26.6329C27.1798 33.5713 27.6241 33.0996 27.6241 32.5186V29.6406H31.1993C31.2814 30.0918 31.6505 30.4336 32.1017 30.4336H33.6876C34.1935 30.4336 34.6036 29.9961 34.6036 29.4629V26.4414C34.672 25.8057 35.0821 24.3018 34.8771 23.6728ZM33.0587 21.3213H34.1661C34.1183 21.7383 33.8038 22.0664 33.4278 22.0664C33.3937 22.0664 33.0177 22.0664 32.9903 22.0596L32.6691 21.4307C32.7853 21.3623 32.922 21.3213 33.0587 21.3213ZM22.921 18.1084H29.3331C29.8526 18.1084 30.338 18.4228 30.6046 18.9355C30.6046 18.9355 31.8966 21.4785 31.8966 21.4853C31.9308 21.5742 32.1427 21.9707 32.1905 22.0664L32.1837 22.0596H24.7325L23.8097 20.2412C23.4064 19.4482 22.5655 18.8809 21.67 18.8877C21.9435 18.4023 22.4151 18.1084 22.921 18.1084ZM14.4308 19.6055H21.7042C22.3126 19.6055 22.88 19.9746 23.1876 20.5693C23.6456 21.4717 24.5685 23.29 25.0265 24.1855H11.1153C11.3136 23.7959 11.7306 22.9756 11.9288 22.5859C12.5919 21.5059 12.8927 19.6533 14.4308 19.6055ZM23.4542 25.9766C23.0167 26.1475 22.6954 26.5303 22.545 26.9746C22.5519 26.9473 22.5587 26.9268 22.5724 26.8994C22.5382 26.9883 22.5109 27.0771 22.4972 27.166C22.5109 27.1045 22.5245 27.0361 22.5519 26.9746C22.5314 27.0361 22.5109 27.1045 22.4972 27.166V27.1592H13.6446C13.3028 25.498 11.0743 25.4434 10.6642 27.0908C9.98058 26.9131 9.37218 26.4893 8.94152 25.9355C9.16027 25.252 9.81652 24.8281 10.5343 24.876C10.5275 24.876 10.5138 24.876 10.5069 24.8691C10.6778 24.8691 10.8487 24.876 11.0196 24.876H20.5763H25.4571C26.2091 24.8008 26.9679 25.1904 27.1935 25.9424C26.6808 26.4551 26.1886 26.8994 25.464 27.0908C25.2999 26.2158 24.295 25.6553 23.4542 25.9766ZM24.8077 27.5215C24.7804 28.7656 23.1876 28.7656 23.1603 27.5283C23.1876 26.2842 24.7804 26.2773 24.8077 27.5215ZM12.9679 27.5215C12.9405 28.7656 11.3546 28.7656 11.3204 27.5283C11.3478 26.2842 12.9405 26.2773 12.9679 27.5215ZM3.08995 21.5059C3.08312 21.4854 4.38878 18.9561 4.38878 18.9355C4.64855 18.4228 5.1339 18.1084 5.66027 18.1084H12.0724C12.6671 18.0947 13.2003 18.5459 13.4396 19.127C12.3185 19.7353 11.963 21.0137 11.3888 22.0664H2.80968L3.08995 21.5059ZM1.94152 21.3213C2.07823 21.3213 2.20812 21.3623 2.33116 21.4375L2.00988 22.0664C1.9962 22.0732 1.59972 22.0732 1.57238 22.0732C1.1964 22.0732 0.881945 21.7451 0.834094 21.3281H1.94152V21.3213ZM2.90538 29.7227H1.31945C1.05284 29.7158 1.12804 29.2715 1.11437 29.0937C1.33312 29.3467 1.62706 29.5381 1.94835 29.6064C2.15343 29.668 2.82335 29.6338 3.04894 29.6406C3.01476 29.6953 2.96007 29.7227 2.90538 29.7227ZM2.25597 28.9365C1.8048 28.9365 1.46984 28.5195 1.40831 28.0957L1.11437 26.3525C1.11437 26.332 1.1007 26.3115 1.1007 26.291L0.820422 24.6094C1.25109 24.9648 1.75011 25.2246 2.29698 25.3477C2.59093 26.8994 4.65538 26.9404 5.01085 25.4023H8.41515C8.34679 25.5391 8.27843 25.6826 8.24425 25.833H7.77257C6.97277 25.833 6.26866 26.25 6.00206 26.8584L5.5714 27.8633C5.52355 27.9727 5.53722 28.0957 5.60558 28.1982C5.6671 28.3008 5.78331 28.3555 5.89952 28.3555H8.40148L8.49718 28.916H2.25597V28.9365ZM2.96691 25.0537C2.96007 24.4863 3.50695 24.0693 3.97179 24.3564C4.54601 24.7119 4.39562 25.8398 3.64366 25.8398C3.27452 25.8467 2.96691 25.4912 2.96691 25.0537ZM5.03136 24.876C5.0587 25.0537 5.04503 25.2383 5.00402 25.4092C5.0382 25.2383 5.04503 25.0537 5.03136 24.876ZM8.12804 26.7559C8.13488 26.9404 8.24425 27.4805 8.27159 27.665H6.42589L6.64464 27.1523C6.79503 26.8037 7.25304 26.5576 7.7589 26.5576H8.1212C8.1212 26.6191 8.12804 26.6875 8.12804 26.7559ZM5.00402 24.7051C5.01769 24.7598 5.02452 24.8213 5.03136 24.876C4.83995 23.2832 2.7755 23.1055 2.31749 24.6299C1.75695 24.4658 1.23058 24.124 0.868273 23.6592C1.05284 23.1602 1.47667 22.8184 1.94835 22.7773H11.0265C10.8898 23.126 10.3292 23.8848 10.1241 24.1924C9.71398 24.2402 9.26281 24.3906 8.96202 24.6982H5.00402V24.7051ZM11.3068 32.8672H9.50206C9.11925 32.8535 9.2423 32.2314 9.22863 31.9785C9.75499 32.7578 10.7325 32.7168 11.5528 32.6826C11.505 32.792 11.4093 32.8672 11.3068 32.8672ZM26.9064 32.5254C26.9064 32.71 26.7765 32.8672 26.6261 32.8672H24.8282C24.7189 32.8672 24.63 32.792 24.5821 32.6826C24.6026 32.7236 25.047 32.6758 25.1017 32.6758C25.7716 32.7305 26.5235 32.5801 26.9132 31.9785V32.5254H26.9064ZM27.2618 26.9404C27.1525 27.6309 27.0294 28.3213 26.9132 29.0117L26.5782 30.9805C26.4825 31.5547 26.0587 31.9717 25.5734 31.9717H10.5685C10.0763 31.9717 9.65245 31.5547 9.55675 30.9805C9.44054 30.3037 9.15343 28.6221 9.04405 27.9727L8.86632 26.9062C9.36534 27.3574 9.98742 27.6924 10.6505 27.8291C10.9513 29.5791 13.2892 29.627 13.6446 27.8838H22.4972L22.4903 27.877C22.463 27.7607 22.4562 27.6445 22.4562 27.5215C22.4903 29.4971 25.1085 29.7978 25.4913 27.8223C26.1476 27.6855 26.756 27.3506 27.2687 26.9062L27.2618 26.9404ZM27.1661 24.7051C26.797 24.3564 26.3048 24.2334 25.8126 24.1855C25.8126 24.1855 25.1017 22.7773 25.0948 22.7773L25.1017 22.7842H33.0519C33.5235 22.8252 33.9474 23.1738 34.1319 23.666C33.7423 24.083 33.2638 24.5068 32.6896 24.6367C32.6417 24.4795 32.5802 24.3291 32.4845 24.1924V24.1992C31.8009 23.1465 30.2355 23.5088 29.9894 24.7119C29.9962 24.7051 27.1661 24.7051 27.1661 24.7051ZM32.5665 24.3223C32.5528 24.2881 32.5323 24.2607 32.5118 24.2266C32.5323 24.2607 32.546 24.2949 32.5665 24.3223ZM32.0333 25.0537C32.0196 26.0928 30.6798 26.0928 30.6661 25.0537C30.6798 24.0352 31.9991 23.9873 32.0333 25.0537ZM33.8859 29.4629C33.8859 29.6064 33.797 29.7227 33.6808 29.7227H32.0948C32.0401 29.7227 31.9855 29.6885 31.9513 29.6406C32.1974 29.627 32.8536 29.6748 33.0792 29.5996C33.3937 29.5312 33.6808 29.3398 33.8859 29.0937V29.4629ZM33.9064 26.291C33.9064 26.3115 33.8927 26.332 33.8927 26.3525L33.5987 28.0957C33.5167 28.5811 33.1612 28.9365 32.7511 28.9365H27.6515L27.7472 28.376H29.1144C29.3605 28.3828 29.545 28.1094 29.4425 27.8838L29.0118 26.8789C28.8341 26.4551 28.4376 26.127 27.9318 25.9629H27.9386C27.8907 25.7783 27.8224 25.5869 27.7335 25.4229H30.003C30.3585 26.9609 32.4161 26.9131 32.7169 25.3682C33.2501 25.2314 33.7628 24.9853 34.1866 24.6299L33.9064 26.291ZM27.8634 27.665C27.8907 27.4805 27.9933 26.9404 28.0001 26.7627C28.3282 26.9268 28.4376 27.3711 28.5743 27.665H27.8634ZM30.5704 23.8096C30.5773 23.8096 30.5773 23.8096 30.5704 23.8096V23.8096ZM1.24425 24.9238C1.29894 24.958 1.34679 24.9853 1.40148 25.0127C1.31945 24.9717 1.24425 24.9307 1.17589 24.876C1.18956 24.8896 1.21691 24.9033 1.24425 24.9238ZM4.03331 23.6113C4.04015 23.6045 4.04015 23.6113 4.04698 23.6113C4.04698 23.6113 4.04698 23.6113 4.04015 23.6182C4.03331 23.6113 4.03331 23.6113 4.03331 23.6113ZM21.2872 29.5996C21.0001 28.9228 20.214 28.4717 19.3253 28.4717H16.8097C15.921 28.4717 15.1349 28.9228 14.8478 29.5996L14.3624 30.748C14.2599 30.9736 14.4444 31.2471 14.6905 31.2402H21.4513C21.6974 31.2471 21.8819 30.9736 21.7794 30.748C21.7726 30.748 21.2872 29.5996 21.2872 29.5996ZM15.2237 30.5293L15.4972 29.8799C15.6749 29.4629 16.215 29.1758 16.8097 29.1758H19.3253C19.92 29.1758 20.4601 29.4629 20.631 29.8799L20.9044 30.5293H15.2237Z" fill="white"/>
<path d="M17.5002 5.80664C19.4879 5.80685 21.0989 7.41858 21.0989 9.40625C21.0987 11.3937 19.4877 13.0047 17.5002 13.0049C15.5126 13.0049 13.9008 11.3939 13.9006 9.40625C13.9006 7.41845 15.5124 5.80664 17.5002 5.80664Z" stroke="#FF3600"/>
</svg>
