<svg width="30" height="30" viewBox="0 0 30 30" fill="none" xmlns="http://www.w3.org/2000/svg">
<path d="M4.19657 21.1491H4.71313L4.86407 26.7881C4.87876 27.1875 5.20344 27.5003 5.60344 27.5003H9.49469C9.89407 27.5003 10.2188 27.1875 10.2338 26.7828L10.315 23.6572H11.235C11.5547 24.6431 12.4709 25.3625 13.5616 25.3625C14.9163 25.3625 16.0181 24.2606 16.0181 22.9059C16.0181 21.5512 14.9166 20.4494 13.5616 20.4494C12.2716 20.4494 11.2225 21.4522 11.1244 22.7175H10.3394L10.38 21.1487H11.1406C12.0044 21.1487 12.7072 20.4459 12.7072 19.5822V18.7244H20.1106C20.42 18.7244 20.7022 18.5684 20.865 18.3072C21.0291 18.0444 21.045 17.7206 20.9063 17.4359L20.2838 16.1981C20.1366 15.89 19.8303 15.6991 19.4841 15.6991H12.7069V14.8675H18.3125C19.0197 15.155 19.7884 15.3184 20.5938 15.3341L21.7059 17.5416C21.9125 17.9637 22.2941 18.2712 22.7528 18.3859L25.93 19.1816C26.2247 19.2544 26.4306 19.5178 26.4306 19.8216V22.0637C26.4306 22.4266 26.1328 22.7213 25.7669 22.7213H25.0813C24.9853 21.4538 23.935 20.4487 22.6431 20.4487C21.3531 20.4487 20.3041 21.4516 20.2059 22.7169H16.9109C16.6516 22.7169 16.4413 22.9272 16.4413 23.1866C16.4413 23.4459 16.6516 23.6562 16.9109 23.6562H20.3169C20.6366 24.6422 21.5528 25.3616 22.6434 25.3616C23.7328 25.3616 24.6478 24.6444 24.9688 23.6609H25.7672C26.6509 23.6609 27.3703 22.9444 27.3703 22.0637V19.8216C27.3703 19.0841 26.8706 18.4459 26.1569 18.2697L22.9813 17.4744C22.7916 17.4269 22.6344 17.3009 22.5481 17.1244L21.6178 15.27C24.7338 14.8316 27.1413 12.155 27.1413 8.92C27.1413 5.38 24.2613 2.5 20.7213 2.5C17.1813 2.5 14.3013 5.38 14.3013 8.92C14.3013 10.9444 15.2453 12.7497 16.7138 13.9272H12.5966C12.2828 12.8178 11.2725 11.9981 10.0644 11.9981H5.33094C3.84157 11.9981 2.63 13.2097 2.63 14.6987V19.5812C2.62969 20.4462 3.3325 21.1491 4.19657 21.1491ZM13.5613 21.3894C14.3981 21.3894 15.0781 22.07 15.0781 22.9062C15.0781 23.7428 14.3978 24.4231 13.5613 24.4231C12.725 24.4231 12.0444 23.7428 12.0444 22.9062C12.0444 22.0697 12.7253 21.3894 13.5613 21.3894ZM22.6431 24.4231C21.8069 24.4231 21.1263 23.7428 21.1263 22.9062C21.1263 22.0697 21.8069 21.3894 22.6431 21.3894C23.48 21.3894 24.16 22.07 24.16 22.9062C24.1603 23.7425 23.48 24.4231 22.6431 24.4231ZM15.2406 8.92125C15.2406 5.89937 17.6991 3.44094 20.7209 3.44094C23.7428 3.44094 26.2013 5.89937 26.2013 8.92125C26.2013 11.9431 23.7428 14.4016 20.7209 14.4016C17.6991 14.4016 15.2406 11.9431 15.2406 8.92125ZM19.44 16.6122L20.0297 17.7853H12.7069V16.6372L19.44 16.6122ZM3.56938 14.7C3.56938 13.7287 4.35969 12.9387 5.33094 12.9387H10.0644C11.0034 12.9387 11.7675 13.7031 11.7675 14.6422V19.5825C11.7675 19.9281 11.4863 20.2094 11.1406 20.2094H10.3853V16.5787C10.3853 16.3194 10.1753 16.1091 9.91563 16.1091C9.65626 16.1091 9.44594 16.3194 9.44594 16.5787L9.30063 26.5609H8.01938V21.5947C8.01938 21.3353 7.80907 21.125 7.54969 21.125C7.29001 21.125 7.08001 21.3353 7.08001 21.5947V26.5609H5.79844L5.65282 16.5787C5.65282 16.3194 5.44282 16.1091 5.18313 16.1091C4.92376 16.1091 4.71344 16.3194 4.71344 16.5787V20.2097H4.19688C3.85094 20.2097 3.56969 19.9284 3.56969 19.5828V14.7H3.56938Z" fill="white"/>
<path d="M3.84718 6.17922C3.86312 6.27328 4.05406 6.49328 4.09031 6.52484C4.07375 6.65922 4.06437 7.51172 4.06437 7.51172C4.195 9.18609 4.97312 10.5461 6.12718 11.1402C6.5625 11.3798 7.13531 11.5361 7.66062 11.5192C8.03218 11.5073 8.38406 11.4636 8.69718 11.3561C10.1319 10.892 11.1112 9.41828 11.2547 7.47547C11.2547 7.47547 11.2444 6.66078 11.2272 6.52953C11.2487 6.51047 11.4272 6.34297 11.4584 6.25016C11.4584 6.25016 11.7103 5.49797 11.8853 4.90359C12.0944 4.27922 11.8353 3.58266 11.2144 3.22109C10.5559 2.93891 9.40562 2.58266 7.66437 2.60234C5.54687 2.62609 4.07406 3.21891 4.05125 3.23234C3.47812 3.57672 3.2225 4.26141 3.42968 4.89672L3.84718 6.17922ZM10.3169 7.44047C10.2278 8.63141 9.68562 10.0686 8.40031 10.4648C7.30093 10.8036 6.68125 10.3745 6.57562 10.3145C5.70781 9.86766 5.10468 8.76578 5.0025 7.47516V6.99203C5.15406 7.02672 5.30875 7.04891 5.46562 7.04891H9.85312C10.0112 7.04891 10.165 7.02672 10.3159 6.99266L10.3169 7.44047ZM4.50687 4.05578C5.39375 3.71484 6.45562 3.54203 7.66437 3.54203C9.24625 3.54203 10.2666 3.83703 10.7906 4.05766C10.9784 4.16828 11.0641 4.39828 10.9897 4.62141C10.8569 5.07078 10.6841 5.59922 10.6075 5.83172C10.3987 6.00953 10.1281 6.10984 9.85312 6.10984H5.46562C5.25781 6.10984 4.77093 5.88141 4.72687 5.84484L4.32375 4.60609C4.25625 4.39953 4.33156 4.17828 4.50687 4.05578Z" fill="white"/>
<path d="M19.2666 10.8126C19.3941 10.9401 19.5616 11.0041 19.7294 11.0041C19.8972 11.0041 20.0647 10.9401 20.1925 10.8126L23.3675 7.63789C23.551 7.45445 23.551 7.15727 23.3675 6.97352C23.1841 6.79008 22.8869 6.79008 22.7031 6.97352L19.7294 9.94664L18.7394 8.95664C18.556 8.7732 18.2588 8.7732 18.075 8.95664C17.8916 9.14008 17.8916 9.43727 18.075 9.62102L19.2666 10.8126Z" fill="black"/>
</svg>
