<svg width="60" height="60" viewBox="0 0 60 60" fill="none" xmlns="http://www.w3.org/2000/svg">
<g clip-path="url(#clip0_684_621)">
<path d="M13 15H9C8.46957 15 7.96086 15.2107 7.58579 15.5858C7.21071 15.9609 7 16.4696 7 17V21C7 21.5304 7.21071 22.0391 7.58579 22.4142C7.96086 22.7893 8.46957 23 9 23H13C13.5304 23 14.0391 22.7893 14.4142 22.4142C14.7893 22.0391 15 21.5304 15 21V17C15 16.4696 14.7893 15.9609 14.4142 15.5858C14.0391 15.2107 13.5304 15 13 15ZM9 21V17H13V21H9Z" fill="white"/>
<path d="M23 15H19C18.4696 15 17.9609 15.2107 17.5858 15.5858C17.2107 15.9609 17 16.4696 17 17V21C17 21.5304 17.2107 22.0391 17.5858 22.4142C17.9609 22.7893 18.4696 23 19 23H23C23.5304 23 24.0391 22.7893 24.4142 22.4142C24.7893 22.0391 25 21.5304 25 21V17C25 16.4696 24.7893 15.9609 24.4142 15.5858C24.0391 15.2107 23.5304 15 23 15ZM19 21V17H23V21H19Z" fill="white"/>
<path d="M29 23H33C33.5304 23 34.0391 22.7893 34.4142 22.4142C34.7893 22.0391 35 21.5304 35 21V17C35 16.4696 34.7893 15.9609 34.4142 15.5858C34.0391 15.2107 33.5304 15 33 15H29C28.4696 15 27.9609 15.2107 27.5858 15.5858C27.2107 15.9609 27 16.4696 27 17V21C27 21.5304 27.2107 22.0391 27.5858 22.4142C27.9609 22.7893 28.4696 23 29 23ZM29 17H33V21H29V17Z" fill="white"/>
<path d="M39 23H43C43.5304 23 44.0391 22.7893 44.4142 22.4142C44.7893 22.0391 45 21.5304 45 21V17C45 16.4696 44.7893 15.9609 44.4142 15.5858C44.0391 15.2107 43.5304 15 43 15H39C38.4696 15 37.9609 15.2107 37.5858 15.5858C37.2107 15.9609 37 16.4696 37 17V21C37 21.5304 37.2107 22.0391 37.5858 22.4142C37.9609 22.7893 38.4696 23 39 23ZM39 17H43V21H39V17Z" fill="white"/>
<path d="M13 26H9C8.46957 26 7.96086 26.2107 7.58579 26.5858C7.21071 26.9609 7 27.4696 7 28V32C7 32.5304 7.21071 33.0391 7.58579 33.4142C7.96086 33.7893 8.46957 34 9 34H13C13.5304 34 14.0391 33.7893 14.4142 33.4142C14.7893 33.0391 15 32.5304 15 32V28C15 27.4696 14.7893 26.9609 14.4142 26.5858C14.0391 26.2107 13.5304 26 13 26ZM9 32V28H13V32H9Z" fill="white"/>
<path d="M23 26H19C18.4696 26 17.9609 26.2107 17.5858 26.5858C17.2107 26.9609 17 27.4696 17 28V32C17 32.5304 17.2107 33.0391 17.5858 33.4142C17.9609 33.7893 18.4696 34 19 34H23C23.5304 34 24.0391 33.7893 24.4142 33.4142C24.7893 33.0391 25 32.5304 25 32V28C25 27.4696 24.7893 26.9609 24.4142 26.5858C24.0391 26.2107 23.5304 26 23 26ZM19 32V28H23V32H19Z" fill="white"/>
<path d="M29 34H33C33.5304 34 34.0391 33.7893 34.4142 33.4142C34.7893 33.0391 35 32.5304 35 32V28C35 27.4696 34.7893 26.9609 34.4142 26.5858C34.0391 26.2107 33.5304 26 33 26H29C28.4696 26 27.9609 26.2107 27.5858 26.5858C27.2107 26.9609 27 27.4696 27 28V32C27 32.5304 27.2107 33.0391 27.5858 33.4142C27.9609 33.7893 28.4696 34 29 34ZM29 28H33V32H29V28Z" fill="white"/>
<path d="M13 37H9C8.46957 37 7.96086 37.2107 7.58579 37.5858C7.21071 37.9609 7 38.4696 7 39V43C7 43.5304 7.21071 44.0391 7.58579 44.4142C7.96086 44.7893 8.46957 45 9 45H13C13.5304 45 14.0391 44.7893 14.4142 44.4142C14.7893 44.0391 15 43.5304 15 43V39C15 38.4696 14.7893 37.9609 14.4142 37.5858C14.0391 37.2107 13.5304 37 13 37ZM9 43V39H13V43H9Z" fill="white"/>
<path d="M23 37H19C18.4696 37 17.9609 37.2107 17.5858 37.5858C17.2107 37.9609 17 38.4696 17 39V43C17 43.5304 17.2107 44.0391 17.5858 44.4142C17.9609 44.7893 18.4696 45 19 45H23C23.5304 45 24.0391 44.7893 24.4142 44.4142C24.7893 44.0391 25 43.5304 25 43V39C25 38.4696 24.7893 37.9609 24.4142 37.5858C24.0391 37.2107 23.5304 37 23 37ZM19 43V39H23V43H19Z" fill="white"/>
<path d="M52 31.743V7C52 5.93913 51.5786 4.92172 50.8284 4.17157C50.0783 3.42143 49.0609 3 48 3H47C47 2.20435 46.6839 1.44129 46.1213 0.87868C45.5587 0.31607 44.7957 0 44 0C43.2044 0 42.4413 0.31607 41.8787 0.87868C41.3161 1.44129 41 2.20435 41 3H35C35 2.20435 34.6839 1.44129 34.1213 0.87868C33.5587 0.31607 32.7957 0 32 0C31.2044 0 30.4413 0.31607 29.8787 0.87868C29.3161 1.44129 29 2.20435 29 3H23C23 2.20435 22.6839 1.44129 22.1213 0.87868C21.5587 0.31607 20.7957 0 20 0C19.2044 0 18.4413 0.31607 17.8787 0.87868C17.3161 1.44129 17 2.20435 17 3H11C11 2.20435 10.6839 1.44129 10.1213 0.87868C9.55871 0.31607 8.79565 0 8 0C7.20435 0 6.44129 0.31607 5.87868 0.87868C5.31607 1.44129 5 2.20435 5 3H4C2.93913 3 1.92172 3.42143 1.17157 4.17157C0.421427 4.92172 0 5.93913 0 7L0 47C0 48.0609 0.421427 49.0783 1.17157 49.8284C1.92172 50.5786 2.93913 51 4 51H31.261C32.2184 53.196 33.688 55.1306 35.5468 56.6419C37.4055 58.1531 39.5993 59.1971 41.9444 59.6863C44.2895 60.1755 46.7177 60.0957 49.0257 59.4535C51.3336 58.8114 53.4541 57.6257 55.2096 55.9956C56.9651 54.3656 58.3045 52.3386 59.1157 50.0846C59.9268 47.8305 60.1861 45.4148 59.8718 43.0399C59.5575 40.6651 58.6788 38.4 57.3092 36.4345C55.9397 34.469 54.1191 32.8603 52 31.743ZM43 3C43 2.73478 43.1054 2.48043 43.2929 2.29289C43.4804 2.10536 43.7348 2 44 2C44.2652 2 44.5196 2.10536 44.7071 2.29289C44.8946 2.48043 45 2.73478 45 3V5C45 5.26522 44.8946 5.51957 44.7071 5.70711C44.5196 5.89464 44.2652 6 44 6C43.7348 6 43.4804 5.89464 43.2929 5.70711C43.1054 5.51957 43 5.26522 43 5V3ZM31 3C31 2.73478 31.1054 2.48043 31.2929 2.29289C31.4804 2.10536 31.7348 2 32 2C32.2652 2 32.5196 2.10536 32.7071 2.29289C32.8946 2.48043 33 2.73478 33 3V5C33 5.26522 32.8946 5.51957 32.7071 5.70711C32.5196 5.89464 32.2652 6 32 6C31.7348 6 31.4804 5.89464 31.2929 5.70711C31.1054 5.51957 31 5.26522 31 5V3ZM19 3C19 2.73478 19.1054 2.48043 19.2929 2.29289C19.4804 2.10536 19.7348 2 20 2C20.2652 2 20.5196 2.10536 20.7071 2.29289C20.8946 2.48043 21 2.73478 21 3V5C21 5.26522 20.8946 5.51957 20.7071 5.70711C20.5196 5.89464 20.2652 6 20 6C19.7348 6 19.4804 5.89464 19.2929 5.70711C19.1054 5.51957 19 5.26522 19 5V3ZM7 3C7 2.73478 7.10536 2.48043 7.29289 2.29289C7.48043 2.10536 7.73478 2 8 2C8.26522 2 8.51957 2.10536 8.70711 2.29289C8.89464 2.48043 9 2.73478 9 3V5C9 5.26522 8.89464 5.51957 8.70711 5.70711C8.51957 5.89464 8.26522 6 8 6C7.73478 6 7.48043 5.89464 7.29289 5.70711C7.10536 5.51957 7 5.26522 7 5V3ZM4 5H5C5 5.79565 5.31607 6.55871 5.87868 7.12132C6.44129 7.68393 7.20435 8 8 8C8.79565 8 9.55871 7.68393 10.1213 7.12132C10.6839 6.55871 11 5.79565 11 5H17C17 5.79565 17.3161 6.55871 17.8787 7.12132C18.4413 7.68393 19.2044 8 20 8C20.7957 8 21.5587 7.68393 22.1213 7.12132C22.6839 6.55871 23 5.79565 23 5H29C29 5.79565 29.3161 6.55871 29.8787 7.12132C30.4413 7.68393 31.2044 8 32 8C32.7957 8 33.5587 7.68393 34.1213 7.12132C34.6839 6.55871 35 5.79565 35 5H41C41 5.79565 41.3161 6.55871 41.8787 7.12132C42.4413 7.68393 43.2044 8 44 8C44.7957 8 45.5587 7.68393 46.1213 7.12132C46.6839 6.55871 47 5.79565 47 5H48C48.5304 5 49.0391 5.21071 49.4142 5.58579C49.7893 5.96086 50 6.46957 50 7V10H2V7C2 6.46957 2.21071 5.96086 2.58579 5.58579C2.96086 5.21071 3.46957 5 4 5ZM4 49C3.46957 49 2.96086 48.7893 2.58579 48.4142C2.21071 48.0391 2 47.5304 2 47V12H50V30.875C48.3956 30.2997 46.7044 30.0038 45 30V28C45 27.4696 44.7893 26.9609 44.4142 26.5858C44.0391 26.2107 43.5304 26 43 26H39C38.4696 26 37.9609 26.2107 37.5858 26.5858C37.2107 26.9609 37 27.4696 37 28V32C37.0014 32.1056 37.0114 32.211 37.03 32.315C35.1364 33.5092 33.532 35.1095 32.333 37H29C28.4696 37 27.9609 37.2107 27.5858 37.5858C27.2107 37.9609 27 38.4696 27 39V43C27 43.5304 27.2107 44.0391 27.5858 44.4142C27.9609 44.7893 28.4696 45 29 45H30C30.0039 46.3525 30.1916 47.6981 30.558 49H4ZM43 30.149C41.6213 30.3309 40.2748 30.7052 39 31.261V28H43V30.149ZM30.149 43H29V39H31.261C30.7052 40.2748 30.3309 41.6213 30.149 43ZM45 58C42.4288 58 39.9154 57.2376 37.7776 55.8091C35.6398 54.3806 33.9735 52.3503 32.9896 49.9749C32.0056 47.5994 31.7482 44.9856 32.2498 42.4638C32.7514 39.9421 33.9895 37.6257 35.8076 35.8076C37.6257 33.9895 39.9421 32.7514 42.4638 32.2498C44.9856 31.7482 47.5995 32.0056 49.9749 32.9896C52.3503 33.9735 54.3807 35.6397 55.8091 37.7776C57.2376 39.9154 58 42.4288 58 45C57.996 48.4466 56.6251 51.7509 54.188 54.188C51.7509 56.6251 48.4466 57.996 45 58Z" fill="white"/>
<path d="M49.2189 39.375L41.9189 48.503L40.7089 47.293C40.5203 47.1108 40.2677 47.0101 40.0055 47.0123C39.7433 47.0146 39.4925 47.1198 39.3071 47.3052C39.1216 47.4906 39.0165 47.7414 39.0142 48.0036C39.0119 48.2658 39.1127 48.5184 39.2949 48.707L41.2949 50.707C41.3872 50.7999 41.4971 50.8737 41.6181 50.924C41.7391 50.9743 41.8688 51.0001 41.9999 51H42.0559C42.1961 50.9922 42.3332 50.955 42.4581 50.8907C42.583 50.8265 42.693 50.7366 42.7809 50.627L50.7809 40.627C50.9466 40.4199 51.0233 40.1554 50.9941 39.8917C50.9648 39.628 50.832 39.3868 50.6249 39.221C50.4177 39.0552 50.1532 38.9786 49.8896 39.0078C49.6259 39.0371 49.3846 39.1699 49.2189 39.377V39.375Z" fill="#FF3600"/>
</g>
<defs>
<clipPath id="clip0_684_621">
<rect width="60" height="60" fill="white"/>
</clipPath>
</defs>
</svg>
