<svg width="35" height="35" viewBox="0 0 35 35" fill="none" xmlns="http://www.w3.org/2000/svg">
<path d="M8.69531 16.6251L5.90625 16.0235C5.14062 15.8594 4.42969 16.461 4.42969 17.2266V18.3751C4.42969 19.3047 5.14062 19.5235 6.01562 19.5235H9.07812C9.67969 19.5235 10.2812 19.4141 10.2812 18.7579V18.5938C10.2812 17.6094 9.625 16.7891 8.69531 16.6251ZM5.46875 18.3751C5.46875 18.3204 5.46875 18.3204 5.46875 17.1719C5.46875 17.0626 5.57812 16.9532 5.6875 17.0079L8.47656 17.6094C8.85937 17.7188 9.13281 18.0469 9.1875 18.4297C7.27344 18.4297 5.63281 18.4297 5.46875 18.3751Z" fill="white"/>
<path d="M33.5234 10.7734L29.5859 8.91406C28.2734 8.3125 26.8516 8.09375 25.4844 8.36719L24.8828 7.16406C24.4453 6.07031 23.4062 5.30469 22.2031 5.30469H9.40625C8.20312 5.30469 7.16406 6.01563 6.72656 7.10938L4.59375 11.5391C4.10156 10.8281 3.28125 10.3906 2.40625 10.3906H1.47656C0.65625 10.3906 0 11.0469 0 11.8672V12.4687C0 13.2891 0.65625 13.9453 1.47656 13.9453H2.89844C2.29688 14.7109 2.02344 15.6953 2.02344 16.6797V19.9609C2.02344 21.2188 2.46094 22.4219 3.33594 23.4609V25.9219C3.33594 27.0156 4.21094 27.8906 5.30469 27.8906H7.32812C8.42188 27.8906 9.29688 27.0156 9.29688 25.9219V24.9375H20.2344C22.6406 28.2187 26.4141 29.6406 26.4688 29.6406C26.5781 29.6953 26.6875 29.6953 26.8516 29.6406C26.9062 29.5859 35 26.6328 35 19.25V13.125C35 12.1406 34.3984 11.2109 33.5234 10.7734ZM7.71094 7.54688C7.98438 6.83594 8.64062 6.39844 9.40625 6.39844H22.2031C22.9688 6.39844 23.625 6.83594 23.9531 7.60156L24.4453 8.64063C24.2266 8.69531 24.0078 8.80469 23.7891 8.91406L19.8516 10.7734C18.9766 11.2109 18.375 12.0859 18.375 13.0703H4.97656C5.19531 12.7422 4.97656 13.2891 7.71094 7.54688ZM1.09375 12.4687V11.8672C1.09375 11.6484 1.25781 11.4844 1.47656 11.4844H2.40625C3.5 11.4844 3.88281 12.4688 3.99219 12.6328C3.9375 12.7422 3.88281 12.7969 3.77344 12.9063H1.47656C1.25781 12.8516 1.09375 12.6875 1.09375 12.4687ZM8.20312 25.8672C8.20312 26.3594 7.82031 26.7422 7.32812 26.7422H5.25C4.75781 26.7969 4.375 26.3594 4.375 25.8672V24.2812C5.03125 24.6641 5.79688 24.8828 6.5625 24.8828H8.20312V25.8672ZM6.50781 23.8437C4.53906 23.8437 3.00781 21.9297 3.00781 19.9062V16.625C3.00781 15.6953 3.39062 14.8203 4.04688 14.1094H18.375V18.9219H12.3594C12.0859 18.9219 11.8125 19.1406 11.8125 19.4687C11.8125 19.7969 12.0312 20.0156 12.3594 20.0156H18.4297C18.4844 20.3984 18.4844 20.7266 18.5938 21.0547H12.3594C12.0859 21.0547 11.8125 21.2734 11.8125 21.6016C11.8125 21.9297 12.0312 22.1484 12.3594 22.1484H18.8125C19.0312 22.75 19.25 23.3516 19.5781 23.8437H6.50781ZM33.9062 19.25C33.9062 25.3203 27.7812 28.1094 26.6875 28.5469C22.75 26.9609 19.4688 23.5703 19.4688 19.25C19.4688 17.2266 19.4688 16.1328 19.4688 13.125C19.4688 12.5234 19.7969 12.0312 20.3438 11.7578L24.2812 9.89844C25.8672 9.13281 27.6172 9.13281 29.2031 9.89844L33.1406 11.7578C33.6328 12.0312 34.0156 12.5234 34.0156 13.125V19.25H33.9062Z" fill="white"/>
<path d="M32.0469 13.0156L28.4375 11.3203C27.3437 10.7734 25.9766 10.7734 24.8828 11.3203L21.3281 13.0156C21.1641 13.125 21 13.2891 21 13.5078V19.25C21 23.5703 24.7734 25.9219 26.4141 26.7422C26.5781 26.7969 26.7422 26.7969 26.9062 26.7422C28.5469 25.9219 32.3203 23.5703 32.3203 19.25V13.5078C32.3203 13.2891 32.2109 13.125 32.0469 13.0156ZM31.2812 19.25C31.2812 22.75 28.2187 24.8281 26.6875 25.6484C24.8828 24.6641 22.0938 22.6953 22.0938 19.25V13.8359L25.375 12.25C26.1953 11.8672 27.1797 11.8672 28 12.25L31.2812 13.8359V19.25Z" fill="white"/>
<path d="M24.5548 19.0859C24.336 18.9218 24.0079 18.9765 23.7892 19.1952C23.5704 19.414 23.6798 19.7421 23.8985 19.9609L25.9767 21.5468C26.1954 21.7109 26.5235 21.6562 26.7423 21.4374L29.8048 17.4452C29.9688 17.2265 29.9142 16.8984 29.6954 16.6796C29.4767 16.5156 29.1485 16.5702 28.9298 16.789L26.1954 20.3437L24.5548 19.0859Z" fill="#FF3600"/>
</svg>
