<svg width="35" height="35" viewBox="0 0 35 35" fill="none" xmlns="http://www.w3.org/2000/svg">
<path d="M28.75 12.5C28.75 18.725 17.5 33.75 17.5 33.75C17.5 33.75 6.25 18.725 6.25 12.5C6.25 9.51631 7.43526 6.65483 9.54505 4.54505C11.6548 2.43526 14.5163 1.25 17.5 1.25C20.4837 1.25 23.3452 2.43526 25.455 4.54505C27.5647 6.65483 28.75 9.51631 28.75 12.5V12.5Z" stroke="white" stroke-width="1.5" stroke-linecap="round" stroke-linejoin="round"/>
<path d="M17.5 16.25C19.5711 16.25 21.25 14.5711 21.25 12.5C21.25 10.4289 19.5711 8.75 17.5 8.75C15.4289 8.75 13.75 10.4289 13.75 12.5C13.75 14.5711 15.4289 16.25 17.5 16.25Z" stroke="white" stroke-width="1.5" stroke-linecap="round" stroke-linejoin="round"/>
</svg>
