<svg width="44" height="44" viewBox="0 0 44 44" fill="none" xmlns="http://www.w3.org/2000/svg">
<g clip-path="url(#clip0_398_844)">
<path d="M9.88287 11.3334H6.97919C6.59413 11.3334 6.22485 11.4863 5.95258 11.7586C5.68031 12.0309 5.52734 12.4002 5.52734 12.7852V15.6889C5.52734 16.074 5.68031 16.4433 5.95258 16.7155C6.22485 16.9878 6.59413 17.1408 6.97919 17.1408H9.88287C10.2679 17.1408 10.6372 16.9878 10.9095 16.7155C11.1818 16.4433 11.3347 16.074 11.3347 15.6889V12.7852C11.3347 12.4002 11.1818 12.0309 10.9095 11.7586C10.6372 11.4863 10.2679 11.3334 9.88287 11.3334ZM6.97919 15.6889V12.7852H9.88287V15.6889H6.97919Z" fill="white"/>
<path d="M17.1407 11.3334H14.237C13.8519 11.3334 13.4827 11.4863 13.2104 11.7586C12.9381 12.0309 12.7852 12.4002 12.7852 12.7852V15.6889C12.7852 16.074 12.9381 16.4433 13.2104 16.7155C13.4827 16.9878 13.8519 17.1408 14.237 17.1408H17.1407C17.5257 17.1408 17.895 16.9878 18.1673 16.7155C18.4396 16.4433 18.5925 16.074 18.5925 15.6889V12.7852C18.5925 12.4002 18.4396 12.0309 18.1673 11.7586C17.895 11.4863 17.5257 11.3334 17.1407 11.3334ZM14.237 15.6889V12.7852H17.1407V15.6889H14.237Z" fill="white"/>
<path d="M21.4968 17.1408H24.4005C24.7855 17.1408 25.1548 16.9878 25.4271 16.7155C25.6993 16.4433 25.8523 16.074 25.8523 15.6889V12.7852C25.8523 12.4002 25.6993 12.0309 25.4271 11.7586C25.1548 11.4863 24.7855 11.3334 24.4005 11.3334H21.4968C21.1117 11.3334 20.7424 11.4863 20.4702 11.7586C20.1979 12.0309 20.0449 12.4002 20.0449 12.7852V15.6889C20.0449 16.074 20.1979 16.4433 20.4702 16.7155C20.7424 16.9878 21.1117 17.1408 21.4968 17.1408ZM21.4968 12.7852H24.4005V15.6889H21.4968V12.7852Z" fill="white"/>
<path d="M28.7565 17.1408H31.6602C32.0453 17.1408 32.4146 16.9878 32.6868 16.7155C32.9591 16.4433 33.1121 16.074 33.1121 15.6889V12.7852C33.1121 12.4002 32.9591 12.0309 32.6868 11.7586C32.4146 11.4863 32.0453 11.3334 31.6602 11.3334H28.7565C28.3715 11.3334 28.0022 11.4863 27.7299 11.7586C27.4576 12.0309 27.3047 12.4002 27.3047 12.7852V15.6889C27.3047 16.074 27.4576 16.4433 27.7299 16.7155C28.0022 16.9878 28.3715 17.1408 28.7565 17.1408ZM28.7565 12.7852H31.6602V15.6889H28.7565V12.7852Z" fill="white"/>
<path d="M9.88287 19.3185H6.97919C6.59413 19.3185 6.22485 19.4714 5.95258 19.7437C5.68031 20.016 5.52734 20.3853 5.52734 20.7703V23.674C5.52734 24.0591 5.68031 24.4284 5.95258 24.7007C6.22485 24.9729 6.59413 25.1259 6.97919 25.1259H9.88287C10.2679 25.1259 10.6372 24.9729 10.9095 24.7007C11.1818 24.4284 11.3347 24.0591 11.3347 23.674V20.7703C11.3347 20.3853 11.1818 20.016 10.9095 19.7437C10.6372 19.4714 10.2679 19.3185 9.88287 19.3185ZM6.97919 23.674V20.7703H9.88287V23.674H6.97919Z" fill="white"/>
<path d="M17.1407 19.3185H14.237C13.8519 19.3185 13.4827 19.4714 13.2104 19.7437C12.9381 20.016 12.7852 20.3853 12.7852 20.7703V23.674C12.7852 24.0591 12.9381 24.4284 13.2104 24.7007C13.4827 24.9729 13.8519 25.1259 14.237 25.1259H17.1407C17.5257 25.1259 17.895 24.9729 18.1673 24.7007C18.4396 24.4284 18.5925 24.0591 18.5925 23.674V20.7703C18.5925 20.3853 18.4396 20.016 18.1673 19.7437C17.895 19.4714 17.5257 19.3185 17.1407 19.3185ZM14.237 23.674V20.7703H17.1407V23.674H14.237Z" fill="white"/>
<path d="M21.4968 25.1259H24.4005C24.7855 25.1259 25.1548 24.9729 25.4271 24.7007C25.6993 24.4284 25.8523 24.0591 25.8523 23.674V20.7703C25.8523 20.3853 25.6993 20.016 25.4271 19.7437C25.1548 19.4714 24.7855 19.3185 24.4005 19.3185H21.4968C21.1117 19.3185 20.7424 19.4714 20.4702 19.7437C20.1979 20.016 20.0449 20.3853 20.0449 20.7703V23.674C20.0449 24.0591 20.1979 24.4284 20.4702 24.7007C20.7424 24.9729 21.1117 25.1259 21.4968 25.1259ZM21.4968 20.7703H24.4005V23.674H21.4968V20.7703Z" fill="white"/>
<path d="M9.88287 27.3037H6.97919C6.59413 27.3037 6.22485 27.4567 5.95258 27.7289C5.68031 28.0012 5.52734 28.3705 5.52734 28.7556V31.6593C5.52734 32.0443 5.68031 32.4136 5.95258 32.6859C6.22485 32.9582 6.59413 33.1111 6.97919 33.1111H9.88287C10.2679 33.1111 10.6372 32.9582 10.9095 32.6859C11.1818 32.4136 11.3347 32.0443 11.3347 31.6593V28.7556C11.3347 28.3705 11.1818 28.0012 10.9095 27.7289C10.6372 27.4567 10.2679 27.3037 9.88287 27.3037ZM6.97919 31.6593V28.7556H9.88287V31.6593H6.97919Z" fill="white"/>
<path d="M17.1407 27.3037H14.237C13.8519 27.3037 13.4827 27.4567 13.2104 27.7289C12.9381 28.0012 12.7852 28.3705 12.7852 28.7556V31.6593C12.7852 32.0443 12.9381 32.4136 13.2104 32.6859C13.4827 32.9582 13.8519 33.1111 14.237 33.1111H17.1407C17.5257 33.1111 17.895 32.9582 18.1673 32.6859C18.4396 32.4136 18.5925 32.0443 18.5925 31.6593V28.7556C18.5925 28.3705 18.4396 28.0012 18.1673 27.7289C17.895 27.4567 17.5257 27.3037 17.1407 27.3037ZM14.237 31.6593V28.7556H17.1407V31.6593H14.237Z" fill="white"/>
<path d="M38.1932 23.4875V5.52594C38.1932 4.75583 37.8873 4.01726 37.3428 3.47271C36.7982 2.92816 36.0597 2.62224 35.2896 2.62224H34.5636C34.5636 2.04465 34.3342 1.49073 33.9258 1.08231C33.5174 0.673902 32.9634 0.444458 32.3859 0.444458C31.8083 0.444458 31.2544 0.673902 30.846 1.08231C30.4375 1.49073 30.2081 2.04465 30.2081 2.62224H25.8526C25.8526 2.04465 25.6231 1.49073 25.2147 1.08231C24.8063 0.673902 24.2524 0.444458 23.6748 0.444458C23.0972 0.444458 22.5433 0.673902 22.1349 1.08231C21.7265 1.49073 21.497 2.04465 21.497 2.62224H17.1415C17.1415 2.04465 16.9121 1.49073 16.5037 1.08231C16.0952 0.673902 15.5413 0.444458 14.9637 0.444458C14.3862 0.444458 13.8322 0.673902 13.4238 1.08231C13.0154 1.49073 12.786 2.04465 12.786 2.62224H8.43045C8.43045 2.04465 8.20101 1.49073 7.7926 1.08231C7.38419 0.673902 6.83027 0.444458 6.25269 0.444458C5.67511 0.444458 5.12118 0.673902 4.71277 1.08231C4.30436 1.49073 4.07492 2.04465 4.07492 2.62224H3.349C2.57889 2.62224 1.84033 2.92816 1.29578 3.47271C0.751236 4.01726 0.445313 4.75583 0.445312 5.52594L0.445313 34.563C0.445313 35.3331 0.751236 36.0717 1.29578 36.6162C1.84033 37.1608 2.57889 37.4667 3.349 37.4667H23.1383C23.8333 39.0608 24.9002 40.4652 26.2495 41.5623C27.5988 42.6594 29.1913 43.4172 30.8937 43.7723C32.596 44.1274 34.3587 44.0695 36.0341 43.6034C37.7095 43.1372 39.2488 42.2765 40.5232 41.0932C41.7975 39.9099 42.7698 38.4385 43.3587 36.8022C43.9475 35.1659 44.1357 33.4123 43.9076 31.6883C43.6794 29.9643 43.0415 28.3201 42.0473 26.8933C41.0531 25.4664 39.7315 24.2986 38.1932 23.4875ZM31.6599 2.62224C31.6599 2.42971 31.7364 2.24507 31.8726 2.10893C32.0087 1.97279 32.1933 1.89631 32.3859 1.89631C32.5784 1.89631 32.763 1.97279 32.8992 2.10893C33.0353 2.24507 33.1118 2.42971 33.1118 2.62224V4.07409C33.1118 4.26662 33.0353 4.45126 32.8992 4.5874C32.763 4.72354 32.5784 4.80002 32.3859 4.80002C32.1933 4.80002 32.0087 4.72354 31.8726 4.5874C31.7364 4.45126 31.6599 4.26662 31.6599 4.07409V2.62224ZM22.9489 2.62224C22.9489 2.42971 23.0254 2.24507 23.1615 2.10893C23.2976 1.97279 23.4823 1.89631 23.6748 1.89631C23.8673 1.89631 24.052 1.97279 24.1881 2.10893C24.3242 2.24507 24.4007 2.42971 24.4007 2.62224V4.07409C24.4007 4.26662 24.3242 4.45126 24.1881 4.5874C24.052 4.72354 23.8673 4.80002 23.6748 4.80002C23.4823 4.80002 23.2976 4.72354 23.1615 4.5874C23.0254 4.45126 22.9489 4.26662 22.9489 4.07409V2.62224ZM14.2378 2.62224C14.2378 2.42971 14.3143 2.24507 14.4504 2.10893C14.5866 1.97279 14.7712 1.89631 14.9637 1.89631C15.1563 1.89631 15.3409 1.97279 15.4771 2.10893C15.6132 2.24507 15.6897 2.42971 15.6897 2.62224V4.07409C15.6897 4.26662 15.6132 4.45126 15.4771 4.5874C15.3409 4.72354 15.1563 4.80002 14.9637 4.80002C14.7712 4.80002 14.5866 4.72354 14.4504 4.5874C14.3143 4.45126 14.2378 4.26662 14.2378 4.07409V2.62224ZM5.52676 2.62224C5.52676 2.42971 5.60325 2.24507 5.73938 2.10893C5.87552 1.97279 6.06016 1.89631 6.25269 1.89631C6.44521 1.89631 6.62985 1.97279 6.76599 2.10893C6.90213 2.24507 6.97861 2.42971 6.97861 2.62224V4.07409C6.97861 4.26662 6.90213 4.45126 6.76599 4.5874C6.62985 4.72354 6.44521 4.80002 6.25269 4.80002C6.06016 4.80002 5.87552 4.72354 5.73938 4.5874C5.60325 4.45126 5.52676 4.26662 5.52676 4.07409V2.62224ZM3.349 4.07409H4.07492C4.07492 4.65167 4.30436 5.2056 4.71277 5.61401C5.12118 6.02243 5.67511 6.25187 6.25269 6.25187C6.83027 6.25187 7.38419 6.02243 7.7926 5.61401C8.20101 5.2056 8.43045 4.65167 8.43045 4.07409H12.786C12.786 4.65167 13.0154 5.2056 13.4238 5.61401C13.8322 6.02243 14.3862 6.25187 14.9637 6.25187C15.5413 6.25187 16.0952 6.02243 16.5037 5.61401C16.9121 5.2056 17.1415 4.65167 17.1415 4.07409H21.497C21.497 4.65167 21.7265 5.2056 22.1349 5.61401C22.5433 6.02243 23.0972 6.25187 23.6748 6.25187C24.2524 6.25187 24.8063 6.02243 25.2147 5.61401C25.6231 5.2056 25.8526 4.65167 25.8526 4.07409H30.2081C30.2081 4.65167 30.4375 5.2056 30.846 5.61401C31.2544 6.02243 31.8083 6.25187 32.3859 6.25187C32.9634 6.25187 33.5174 6.02243 33.9258 5.61401C34.3342 5.2056 34.5636 4.65167 34.5636 4.07409H35.2896C35.6746 4.07409 36.0439 4.22705 36.3162 4.49933C36.5884 4.7716 36.7414 5.14089 36.7414 5.52594V7.70372H1.89716V5.52594C1.89716 5.14089 2.05012 4.7716 2.32239 4.49933C2.59466 4.22705 2.96395 4.07409 3.349 4.07409ZM3.349 36.0149C2.96395 36.0149 2.59466 35.8619 2.32239 35.5896C2.05012 35.3173 1.89716 34.9481 1.89716 34.563V9.15558H36.7414V22.8574C35.5767 22.4398 34.3491 22.225 33.1118 22.2223V20.7704C33.1118 20.3853 32.9588 20.0161 32.6866 19.7438C32.4143 19.4715 32.045 19.3185 31.6599 19.3185H28.7563C28.3712 19.3185 28.0019 19.4715 27.7296 19.7438C27.4574 20.0161 27.3044 20.3853 27.3044 20.7704V23.6741C27.3054 23.7508 27.3127 23.8273 27.3262 23.9028C25.9516 24.7697 24.7869 25.9313 23.9165 27.3037H21.497C21.112 27.3037 20.7427 27.4567 20.4704 27.729C20.1982 28.0013 20.0452 28.3705 20.0452 28.7556V31.6593C20.0452 32.0444 20.1982 32.4136 20.4704 32.6859C20.7427 32.9582 21.112 33.1112 21.497 33.1112H22.223C22.2258 34.0929 22.3621 35.0698 22.628 36.0149H3.349ZM31.6599 22.3304C30.6591 22.4625 29.6817 22.7342 28.7563 23.1376V20.7704H31.6599V22.3304ZM22.3311 31.6593H21.497V28.7556H23.1383C22.7349 29.681 22.4632 30.6584 22.3311 31.6593ZM33.1118 42.5482C31.2453 42.5482 29.4208 41.9947 27.8689 40.9578C26.317 39.9208 25.1074 38.4469 24.3932 36.7226C23.6789 34.9982 23.492 33.1007 23.8561 31.2701C24.2203 29.4395 25.1191 27.7579 26.4388 26.4382C27.7586 25.1184 29.4401 24.2196 31.2707 23.8554C33.1013 23.4913 34.9988 23.6782 36.7232 24.3925C38.4475 25.1067 39.9214 26.3163 40.9584 27.8682C41.9953 29.4201 42.5488 31.2447 42.5488 33.1112C42.5459 35.6131 41.5507 38.0118 39.7816 39.781C38.0124 41.5501 35.6137 42.5453 33.1118 42.5482Z" fill="white"/>
<path d="M36.1754 29.0278L30.8762 35.6541L29.9978 34.7757C29.8609 34.6435 29.6775 34.5703 29.4872 34.572C29.2969 34.5736 29.1148 34.65 28.9802 34.7845C28.8456 34.9191 28.7693 35.1012 28.7676 35.2915C28.766 35.4819 28.8391 35.6653 28.9714 35.8022L30.4232 37.254C30.4902 37.3215 30.57 37.375 30.6578 37.4115C30.7457 37.448 30.8399 37.4668 30.935 37.4667H30.9756C31.0774 37.4611 31.1769 37.4341 31.2676 37.3874C31.3583 37.3408 31.4381 37.2755 31.5019 37.1959L37.3093 29.9367C37.4296 29.7863 37.4853 29.5943 37.4641 29.4029C37.4428 29.2115 37.3464 29.0364 37.196 28.916C37.0457 28.7957 36.8537 28.74 36.6623 28.7613C36.4709 28.7825 36.2957 28.8789 36.1754 29.0293V29.0278Z" fill="#FF3600"/>
</g>
<defs>
<clipPath id="clip0_398_844">
<rect width="43.5553" height="43.5556" fill="white" transform="translate(0.445312 0.444458)"/>
</clipPath>
</defs>
</svg>
