<svg width="50" height="50" viewBox="0 0 50 50" fill="none" xmlns="http://www.w3.org/2000/svg">
<path d="M6.99427 35.2478H7.85521L8.10677 44.6462C8.13125 45.3119 8.67239 45.8332 9.33906 45.8332H15.8245C16.4901 45.8332 17.0313 45.3119 17.0563 44.6374L17.1917 39.428H18.725C19.2578 41.0712 20.7849 42.2702 22.6026 42.2702C24.8604 42.2702 26.6969 40.4337 26.6969 38.1759C26.6969 35.9181 24.8609 34.0816 22.6026 34.0816C20.4526 34.0816 18.7042 35.753 18.5406 37.8619H17.2323L17.3 35.2473H18.5677C20.0073 35.2473 21.1786 34.0759 21.1786 32.6363V31.2066H33.5177C34.0333 31.2066 34.5036 30.9467 34.775 30.5113C35.0484 30.0733 35.075 29.5337 34.8438 29.0592L33.8063 26.9962C33.5609 26.4827 33.0505 26.1645 32.4734 26.1645H21.1781V24.7785H30.5208C31.6995 25.2577 32.9807 25.5301 34.3229 25.5561L36.1766 29.2353C36.5208 29.9389 37.1568 30.4514 37.9214 30.6426L43.2167 31.9686C43.7078 32.09 44.051 32.529 44.051 33.0353V36.7723C44.051 37.377 43.5547 37.8681 42.9448 37.8681H41.8021C41.6422 35.7556 39.8917 34.0806 37.7385 34.0806C35.5885 34.0806 33.8401 35.752 33.6766 37.8608H28.1849C27.7526 37.8608 27.4021 38.2113 27.4021 38.6436C27.4021 39.0759 27.7526 39.4264 28.1849 39.4264H33.8615C34.3943 41.0697 35.9214 42.2686 37.7391 42.2686C39.5547 42.2686 41.0797 41.0733 41.6146 39.4342H42.9453C44.4182 39.4342 45.6172 38.24 45.6172 36.7723V33.0353C45.6172 31.8061 44.7844 30.7426 43.5948 30.4488L38.3021 29.1233C37.9859 29.0441 37.724 28.8342 37.5802 28.54L36.0297 25.4494C41.2229 24.7186 45.2354 20.2577 45.2354 14.866C45.2354 8.96602 40.4354 4.16602 34.5354 4.16602C28.6354 4.16602 23.8354 8.96602 23.8354 14.866C23.8354 18.24 25.4089 21.2488 27.8563 23.2113H20.9943C20.4714 21.3624 18.7875 19.9962 16.774 19.9962H8.88489C6.4026 19.9962 4.38333 22.0155 4.38333 24.4973V32.6348C4.38281 34.0764 5.55416 35.2478 6.99427 35.2478ZM22.6021 35.6483C23.9969 35.6483 25.1302 36.7827 25.1302 38.1764C25.1302 39.5707 23.9964 40.7046 22.6021 40.7046C21.2083 40.7046 20.074 39.5707 20.074 38.1764C20.074 36.7822 21.2089 35.6483 22.6021 35.6483ZM37.7385 40.7046C36.3448 40.7046 35.2104 39.5707 35.2104 38.1764C35.2104 36.7822 36.3448 35.6483 37.7385 35.6483C39.1333 35.6483 40.2667 36.7827 40.2667 38.1764C40.2672 39.5702 39.1333 40.7046 37.7385 40.7046ZM25.401 14.8681C25.401 9.83164 29.4984 5.73424 34.5349 5.73424C39.5714 5.73424 43.6688 9.83164 43.6688 14.8681C43.6688 19.9046 39.5714 24.002 34.5349 24.002C29.4984 24.002 25.401 19.9046 25.401 14.8681ZM32.4 27.6863L33.3828 29.6415H21.1781V27.728L32.4 27.6863ZM5.94896 24.4993C5.94896 22.8806 7.26614 21.5639 8.88489 21.5639H16.774C18.3391 21.5639 19.6125 22.8379 19.6125 24.403V32.6369C19.6125 33.2129 19.1438 33.6816 18.5677 33.6816H17.3089V27.6306C17.3089 27.1983 16.9589 26.8478 16.526 26.8478C16.0938 26.8478 15.7432 27.1983 15.7432 27.6306L15.501 44.2676H13.3656V35.9905C13.3656 35.5582 13.0151 35.2077 12.5828 35.2077C12.15 35.2077 11.8 35.5582 11.8 35.9905V44.2676H9.66406L9.42135 27.6306C9.42135 27.1983 9.07135 26.8478 8.63854 26.8478C8.20625 26.8478 7.85573 27.1983 7.85573 27.6306V33.6822H6.99479C6.41823 33.6822 5.94948 33.2134 5.94948 32.6374V24.4993H5.94896Z" fill="white"/>
<path d="M6.41198 10.3007C6.43854 10.4574 6.75677 10.8241 6.81719 10.8767C6.78958 11.1007 6.77396 12.5215 6.77396 12.5215C6.99167 15.3121 8.28854 17.5788 10.212 18.5689C10.9375 18.9684 11.8922 19.2288 12.7677 19.2007C13.387 19.1809 13.9734 19.1079 14.4953 18.9288C16.8865 18.1553 18.5187 15.6991 18.7578 12.4611C18.7578 12.4611 18.7406 11.1033 18.712 10.8845C18.7479 10.8527 19.0453 10.5736 19.0974 10.4189C19.0974 10.4189 19.5172 9.16524 19.8089 8.17461C20.1573 7.13399 19.7255 5.97305 18.6906 5.37044C17.5932 4.90013 15.676 4.30638 12.774 4.33919C9.24479 4.37878 6.7901 5.3668 6.75208 5.38919C5.79687 5.96315 5.37083 7.1043 5.71615 8.16315L6.41198 10.3007ZM17.1948 12.4027C17.0464 14.3876 16.1427 16.7829 14.0005 17.4434C12.1682 18.0079 11.1354 17.2928 10.9594 17.1928C9.51302 16.448 8.50781 14.6116 8.3375 12.4605V11.6553C8.5901 11.7132 8.84792 11.7501 9.10937 11.7501H16.4219C16.6854 11.7501 16.9417 11.7132 17.1932 11.6564L17.1948 12.4027ZM7.51146 6.76159C8.98958 6.19336 10.7594 5.90534 12.774 5.90534C15.4104 5.90534 17.1109 6.39701 17.9844 6.76471C18.2974 6.94909 18.4401 7.33242 18.3161 7.7043C18.0948 8.45326 17.8068 9.33398 17.6792 9.72148C17.3312 10.0178 16.8802 10.185 16.4219 10.185H9.10937C8.76302 10.185 7.95156 9.8043 7.87812 9.74336L7.20625 7.67878C7.09375 7.33451 7.21927 6.96576 7.51146 6.76159Z" fill="white"/>
<path d="M32.1109 18.0223C32.3234 18.2348 32.6026 18.3415 32.8823 18.3415C33.162 18.3415 33.4411 18.2348 33.6542 18.0223L38.9458 12.7311C39.2516 12.4254 39.2516 11.9301 38.9458 11.6238C38.6401 11.3181 38.1448 11.3181 37.8385 11.6238L32.8823 16.579L31.2323 14.929C30.9266 14.6233 30.4312 14.6233 30.125 14.929C29.8193 15.2348 29.8193 15.7301 30.125 16.0363L32.1109 18.0223Z" fill="#FF3600"/>
</svg>
