<svg width="30" height="30" viewBox="0 0 30 30" fill="none" xmlns="http://www.w3.org/2000/svg">
<path d="M7.45312 14.2498L5.0625 13.7342C4.40625 13.5936 3.79688 14.1092 3.79688 14.7655V15.7498C3.79688 16.5467 4.40625 16.7342 5.15625 16.7342H7.78125C8.29687 16.7342 8.8125 16.6405 8.8125 16.078V15.9373C8.8125 15.0936 8.25 14.3905 7.45312 14.2498ZM4.6875 15.7498C4.6875 15.703 4.6875 15.703 4.6875 14.7186C4.6875 14.6248 4.78125 14.5311 4.875 14.578L7.26562 15.0936C7.59375 15.1873 7.82812 15.4686 7.875 15.7967C6.23437 15.7967 4.82812 15.7967 4.6875 15.7498Z" fill="white"/>
<path d="M28.7344 9.23438L25.3594 7.64062C24.2344 7.125 23.0156 6.9375 21.8438 7.17188L21.3281 6.14063C20.9531 5.20313 20.0625 4.54688 19.0312 4.54688H8.0625C7.03125 4.54688 6.14062 5.15625 5.76562 6.09375L3.9375 9.89063C3.51562 9.28125 2.8125 8.90625 2.0625 8.90625H1.26562C0.5625 8.90625 0 9.46875 0 10.1719V10.6875C0 11.3906 0.5625 11.9531 1.26562 11.9531H2.48438C1.96875 12.6094 1.73438 13.4531 1.73438 14.2969V17.1094C1.73438 18.1875 2.10938 19.2188 2.85938 20.1094V22.2188C2.85938 23.1562 3.60938 23.9062 4.54688 23.9062H6.28125C7.21875 23.9062 7.96875 23.1562 7.96875 22.2188V21.375H17.3438C19.4062 24.1875 22.6406 25.4062 22.6875 25.4062C22.7812 25.4531 22.875 25.4531 23.0156 25.4062C23.0625 25.3594 30 22.8281 30 16.5V11.25C30 10.4062 29.4844 9.60938 28.7344 9.23438ZM6.60938 6.46875C6.84375 5.85938 7.40625 5.48438 8.0625 5.48438H19.0312C19.6875 5.48438 20.25 5.85937 20.5312 6.51562L20.9531 7.40625C20.7656 7.45313 20.5781 7.54687 20.3906 7.64062L17.0156 9.23438C16.2656 9.60938 15.75 10.3594 15.75 11.2031H4.26562C4.45312 10.9219 4.26562 11.3906 6.60938 6.46875ZM0.9375 10.6875V10.1719C0.9375 9.98438 1.07812 9.84375 1.26562 9.84375H2.0625C3 9.84375 3.32812 10.6875 3.42188 10.8281C3.375 10.9219 3.32812 10.9688 3.23438 11.0625H1.26562C1.07812 11.0156 0.9375 10.875 0.9375 10.6875ZM7.03125 22.1719C7.03125 22.5938 6.70312 22.9219 6.28125 22.9219H4.5C4.07812 22.9688 3.75 22.5938 3.75 22.1719V20.8125C4.3125 21.1406 4.96875 21.3281 5.625 21.3281H7.03125V22.1719ZM5.57812 20.4375C3.89062 20.4375 2.57812 18.7969 2.57812 17.0625V14.25C2.57812 13.4531 2.90625 12.7031 3.46875 12.0937H15.75V16.2187H10.5938C10.3594 16.2187 10.125 16.4062 10.125 16.6875C10.125 16.9687 10.3125 17.1562 10.5938 17.1562H15.7969C15.8438 17.4844 15.8438 17.7656 15.9375 18.0469H10.5938C10.3594 18.0469 10.125 18.2344 10.125 18.5156C10.125 18.7969 10.3125 18.9844 10.5938 18.9844H16.125C16.3125 19.5 16.5 20.0156 16.7812 20.4375H5.57812ZM29.0625 16.5C29.0625 21.7031 23.8125 24.0938 22.875 24.4688C19.5 23.1094 16.6875 20.2031 16.6875 16.5C16.6875 14.7656 16.6875 13.8281 16.6875 11.25C16.6875 10.7344 16.9688 10.3125 17.4375 10.0781L20.8125 8.48438C22.1719 7.82813 23.6719 7.82813 25.0312 8.48438L28.4062 10.0781C28.8281 10.3125 29.1562 10.7344 29.1562 11.25V16.5H29.0625Z" fill="white"/>
<path d="M27.4687 11.1562L24.375 9.70313C23.4375 9.23437 22.2656 9.23437 21.3281 9.70313L18.2812 11.1562C18.1406 11.25 18 11.3906 18 11.5781V16.5C18 20.2031 21.2344 22.2188 22.6406 22.9219C22.7812 22.9688 22.9219 22.9688 23.0625 22.9219C24.4688 22.2188 27.7031 20.2031 27.7031 16.5V11.5781C27.7031 11.3906 27.6094 11.25 27.4687 11.1562ZM26.8125 16.5C26.8125 19.5 24.1875 21.2813 22.875 21.9844C21.3281 21.1406 18.9375 19.4531 18.9375 16.5V11.8594L21.75 10.5C22.4531 10.1719 23.2969 10.1719 24 10.5L26.8125 11.8594V16.5Z" fill="white"/>
<path d="M21.0469 16.3591C20.8594 16.2185 20.5782 16.2654 20.3907 16.4529C20.2032 16.6404 20.2969 16.9216 20.4844 17.1091L22.2657 18.4685C22.4532 18.6091 22.7344 18.5622 22.9219 18.3747L25.5469 14.9529C25.6875 14.7654 25.6407 14.4841 25.4532 14.2966C25.2657 14.156 24.9844 14.2029 24.7969 14.3904L22.4532 17.4372L21.0469 16.3591Z" fill="black"/>
</svg>
