<svg width="35" height="35" viewBox="0 0 35 35" fill="none" xmlns="http://www.w3.org/2000/svg">
<g clip-path="url(#clip0_97_100)">
<path d="M34.207 30.7617L29.8525 26.4072L29.4561 26.8037L28.5059 25.8535C29.1143 24.8281 29.4424 23.666 29.4424 22.4424C29.4424 21.3008 29.1553 20.2002 28.6221 19.2227C29.0391 17.8486 29.2646 16.4268 29.2646 14.9775C29.2646 6.94531 22.7295 0.416992 14.7041 0.416992C6.67187 0.416992 0.136719 6.95215 0.136719 14.9775C0.136719 23.0029 6.67187 29.5381 14.6973 29.5381C16.29 29.5381 17.8623 29.2852 19.3389 28.7861L20.0156 28.5879C20.8564 28.957 21.7793 29.1621 22.7227 29.1621C23.9394 29.1621 25.1084 28.834 26.1338 28.2256L27.084 29.1758L26.6875 29.5723L31.042 33.9268C31.4795 34.3643 32.0537 34.583 32.6279 34.583C33.2021 34.583 33.7764 34.3643 34.2139 33.9268C35.082 33.0518 35.082 31.6299 34.207 30.7617ZM27.4736 17.6914C26.2021 16.4199 24.5137 15.7227 22.7227 15.7227C22.4629 15.7227 22.21 15.7432 21.957 15.7705C21.957 15.6953 21.9639 15.6201 21.9639 15.5449H28.123C28.0889 16.3857 27.9795 17.2197 27.7881 18.04C27.6855 17.917 27.583 17.8008 27.4736 17.6914ZM8.33301 9.58398C8.83887 9.58398 9.24902 9.99414 9.24902 10.5C9.24902 11.0059 8.83887 11.416 8.33301 11.416C7.82715 11.416 7.41699 11.0059 7.41699 10.5C7.41699 9.99414 7.82715 9.58398 8.33301 9.58398ZM8.6543 12.5029C9.625 12.3457 10.3633 11.5117 10.3633 10.5C10.3633 9.7207 9.91211 9.04394 9.26953 8.70898C9.31738 8.51074 9.37207 8.3125 9.42676 8.11426C10.917 8.69531 12.5098 9.02344 14.1436 9.08496V14.417H8.55859C8.56543 13.7744 8.59961 13.1318 8.6543 12.5029ZM15.2578 9.08496C16.8848 9.02344 18.4707 8.69531 19.9609 8.11426C20.4805 9.9873 20.8018 12.1406 20.8496 14.417H15.2578V9.08496ZM15.2578 7.95019V1.59277C17.0283 1.96191 18.6074 4.04004 19.6328 7.04102C18.252 7.58789 16.7754 7.88867 15.2578 7.95019ZM17.999 1.94824C20.0225 2.46094 21.8682 3.43848 23.4131 4.75781C22.5723 5.47559 21.6562 6.09082 20.6787 6.57617C19.9951 4.61426 19.0791 3.02148 17.999 1.94824ZM14.1367 1.59961V7.95019C12.6191 7.88867 11.1426 7.58789 9.75488 7.04102C10.8076 3.97168 12.4072 1.96191 14.1367 1.59961ZM14.1367 15.5381V20.8701C12.5098 20.9316 10.9238 21.2598 9.43359 21.8408C8.91406 19.9678 8.59277 17.8145 8.54492 15.5381H14.1367ZM14.1367 22.0049V28.3623C12.3662 27.9932 10.7871 25.915 9.76172 22.9141C11.1494 22.3672 12.626 22.0732 14.1367 22.0049ZM11.4023 28.0137C9.37891 27.501 7.5332 26.5234 5.98828 25.2041C6.8291 24.4863 7.74512 23.8711 8.72266 23.3857C9.39941 25.3477 10.3223 26.9404 11.4023 28.0137ZM15.2578 28.3555V21.998C15.5107 22.0117 15.7637 22.0254 16.0166 22.0527C16.0098 22.1826 15.9961 22.3125 15.9961 22.4424C15.9961 24.0557 16.5635 25.5732 17.5957 26.79C17.0625 27.4258 16.2559 28.1504 15.2578 28.3555ZM16.1738 20.9453C15.873 20.918 15.5654 20.8906 15.2578 20.8838V15.5449H20.8428C20.8428 15.6953 20.8359 15.8457 20.8291 15.9961C19.7627 16.3105 18.7783 16.8848 17.9717 17.6914C17.0625 18.6006 16.4541 19.7217 16.1738 20.9453ZM28.1299 14.417H21.9775C21.9297 11.9424 21.5947 9.64551 21.0273 7.64941C22.1826 7.08887 23.2695 6.37793 24.2539 5.52344C26.5303 7.83398 27.9863 10.958 28.1299 14.417ZM8.72949 6.57617C7.75195 6.09082 6.83594 5.47559 5.98828 4.75098C7.5332 3.43164 9.3789 2.4541 11.4092 1.94141C10.3428 3.00781 9.41992 4.58691 8.72949 6.57617ZM5.1543 5.53027C6.14551 6.3916 7.23242 7.10254 8.39453 7.66308C8.31933 7.92969 8.24414 8.20312 8.17578 8.4834C7.12988 8.56543 6.30273 9.43359 6.30273 10.5C6.30273 11.3408 6.81543 12.0654 7.54687 12.373C7.48535 13.0498 7.45117 13.7334 7.4375 14.417H1.27148C1.41504 10.958 2.87109 7.83398 5.1543 5.53027ZM1.27148 15.5381H7.42383C7.47168 18.0127 7.80664 20.3096 8.37402 22.3057C7.21875 22.8662 6.13184 23.5771 5.14746 24.4316C2.87109 22.1279 1.41504 18.9971 1.27148 15.5381ZM17.9853 28.0205C18.1221 27.8838 18.2588 27.7334 18.3955 27.583C18.4912 27.665 18.5937 27.7402 18.6963 27.8154C18.457 27.8838 18.2246 27.959 17.9853 28.0205ZM18.7646 26.4004C17.7051 25.3408 17.124 23.9326 17.124 22.4424C17.124 20.9453 17.7051 19.5371 18.7646 18.4844C19.8242 17.4248 21.2324 16.8437 22.7227 16.8437C24.2197 16.8437 25.6279 17.4248 26.6807 18.4844C27.7402 19.5439 28.3213 20.9521 28.3213 22.4424C28.3213 23.5361 28.0068 24.5889 27.4189 25.4844L27.3301 25.6143C27.2275 25.7646 27.125 25.9014 27.0156 26.0312C26.9062 26.1611 26.7969 26.2842 26.6807 26.4004C26.5644 26.5166 26.4346 26.6328 26.3115 26.7353C26.1816 26.8447 26.0449 26.9473 25.8945 27.0498L25.7646 27.1387C24.8691 27.7197 23.8232 28.0342 22.7227 28.0342C21.2256 28.041 19.8174 27.46 18.7646 26.4004ZM27.0635 27.5762C27.207 27.4531 27.3437 27.3301 27.4805 27.2002C27.6103 27.0703 27.7402 26.9336 27.8564 26.79L28.6631 27.5967L27.8701 28.3896L27.0635 27.5762ZM33.4141 33.1338C32.9766 33.5713 32.2656 33.5713 31.8281 33.1338L28.2666 29.5723L29.8525 27.9863L33.4141 31.5478C33.8516 31.9853 33.8516 32.6963 33.4141 33.1338Z" fill="white"/>
<path d="M26.0928 19.1882C24.2949 17.3904 21.376 17.3904 19.5781 19.1882L20.3711 19.9812C21.7314 18.6208 23.9395 18.6208 25.2998 19.9812L26.0928 19.1882Z" fill="#FF3600"/>
</g>
<defs>
<clipPath id="clip0_97_100">
<rect width="35" height="35" fill="white"/>
</clipPath>
</defs>
</svg>
