<svg width="45" height="50" viewBox="0 0 45 50" fill="none" xmlns="http://www.w3.org/2000/svg">
<path d="M34.694 35.2041C32.1429 37.2449 28.5715 38.7755 25.0001 38.7755C16.8368 38.7755 11.2246 32.6531 11.2246 24.4898C11.2246 16.3265 16.8368 10.7143 25.0001 10.7143C28.5715 10.7143 32.1429 11.7347 34.694 14.2857L36.2246 15.8163L44.3878 8.16326L42.347 6.63264C37.7552 2.55101 31.6327 0 25.0001 0C10.7144 0 6.10352e-05 10.7143 6.10352e-05 25C6.10352e-05 39.2857 10.7144 50 25.0001 50C31.6327 50 37.7552 47.449 42.347 43.3674L44.3878 41.8367L36.2246 33.6735L34.694 35.2041Z" fill="white"/>
<path d="M24.4902 33.1631C28.9987 33.1631 32.6535 29.5083 32.6535 24.9998C32.6535 20.4914 28.9987 16.8365 24.4902 16.8365C19.9818 16.8365 16.327 20.4914 16.327 24.9998C16.327 29.5083 19.9818 33.1631 24.4902 33.1631Z" fill="#FF3600"/>
</svg>
