<svg width="30" height="30" viewBox="0 0 30 30" fill="none" xmlns="http://www.w3.org/2000/svg">
<path d="M19.3119 10.3386C19.5628 10.3386 19.7661 10.1419 19.7661 9.89914V9.3223C19.7661 9.07953 19.5628 8.88281 19.3119 8.88281C19.0611 8.88281 18.8578 9.07953 18.8578 9.3223V9.89914C18.8578 10.1419 19.0611 10.3386 19.3119 10.3386Z" fill="white"/>
<path d="M15.3992 10.3386C15.6501 10.3386 15.8533 10.1419 15.8533 9.89914V9.3223C15.8533 9.07953 15.6501 8.88281 15.3992 8.88281C15.1483 8.88281 14.9451 9.07953 14.9451 9.3223V9.89914C14.9451 10.1419 15.1484 10.3386 15.3992 10.3386Z" fill="white"/>
<path d="M17.3511 13.8328C18.2295 13.8328 18.9442 13.1411 18.9442 12.2911C18.9442 12.0483 18.7409 11.8516 18.49 11.8516C18.2392 11.8516 18.0359 12.0483 18.0359 12.2911C18.0359 12.6565 17.7287 12.9538 17.3511 12.9538C16.9735 12.9538 16.6663 12.6565 16.6663 12.2911C16.6663 12.0483 16.4631 11.8516 16.2122 11.8516C15.9613 11.8516 15.7581 12.0483 15.7581 12.2911C15.7581 13.1411 16.4727 13.8328 17.3511 13.8328Z" fill="white"/>
<path d="M27.6958 23.5665C27.9466 23.5665 28.1499 23.3698 28.1499 23.127V21.764C28.1499 20.5051 27.319 19.397 26.0781 19.0056L20.4622 17.2935V15.5451C21.7728 14.6086 22.4174 13.0767 22.3617 11.5266C23.4036 11.604 24.5389 11.0063 24.5389 9.86257V8.94503C24.5389 8.50555 24.3616 8.10555 24.073 7.80782C24.0789 7.77957 24.082 6.55422 24.082 6.55422C24.082 6.31145 23.8788 6.11473 23.6279 6.11473C23.377 6.11473 23.1738 6.31145 23.1738 6.55422V7.28084H16.8165C16.0653 7.28084 15.454 6.68935 15.454 5.96238V2.19744C15.454 1.47047 16.0653 0.878975 16.8165 0.878975H19.8991C21.7048 0.878975 23.1738 2.30057 23.1738 4.04797V4.63864C23.1738 4.88142 23.377 5.07813 23.6279 5.07813C23.8788 5.07813 24.082 4.88142 24.082 4.63864V4.04797C24.0821 1.8159 22.2056 0 19.8992 0H16.8165C15.6974 0 14.7654 0.787679 14.58 1.82018H13.8185C12.0657 1.82018 10.6396 3.20029 10.6396 4.89659C10.6396 4.89659 10.6421 7.76779 10.6459 7.79071C10.3474 8.0902 10.1631 8.49705 10.1631 8.94503V9.86257C10.1631 10.9886 11.2931 11.613 12.3404 11.5266C12.2405 13.0678 12.9493 14.6229 14.2399 15.5451V17.311L10.1543 18.7888C9.75668 18.9332 9.40972 19.1813 9.1511 19.5063L6.51996 22.8117V21.3406C6.51996 20.9437 6.33745 20.5873 6.04965 20.3455V18.5253C6.04965 17.7812 5.42403 17.1758 4.65509 17.1758C3.88614 17.1758 3.26059 17.7812 3.26059 18.5253V20.0222C2.30411 20.0222 1.84998 20.5415 1.84998 21.3406V25.0433C1.84998 25.6277 2.24514 26.1244 2.79028 26.2967V27.8049C2.79028 29.9188 5.61168 30.8374 6.96901 29.0437L9.37345 26.2324V29.5605C9.37345 29.8033 9.57672 30 9.82759 30H27.6958C27.9466 30 28.1499 29.8033 28.1499 29.5605V25.0426C28.1499 24.7998 27.9466 24.6031 27.6958 24.6031C27.4449 24.6031 27.2416 24.7998 27.2416 25.0426V29.121H24.3882V23.2898C24.3882 23.047 24.185 22.8503 23.9341 22.8503C23.6832 22.8503 23.48 23.047 23.48 23.2898V23.6455H10.2818V23.192C10.2818 22.9492 10.0785 22.7525 9.82765 22.7525C9.57678 22.7525 9.37351 22.9492 9.37351 23.192V24.8538L6.25529 28.4998C5.51183 29.3682 3.69862 29.3944 3.69862 27.8049V26.3619H5.14144V26.8325C5.14144 27.0752 5.34471 27.272 5.59558 27.272C5.84644 27.272 6.04971 27.0752 6.04971 26.8325V26.0386C6.33764 25.7966 6.52026 25.4402 6.52026 25.0431V24.2516L9.8707 20.0427C10.026 19.8475 10.2344 19.6985 10.4728 19.6119L14.6204 18.1117L17.0779 19.9024C17.2555 20.0318 17.4896 20.0021 17.6532 19.8813L20.094 18.1027L25.8009 19.8426C26.6626 20.1145 27.2416 20.8866 27.2416 21.7639V23.1269C27.2416 23.3698 27.445 23.5665 27.6958 23.5665ZM23.48 24.5246V27.3034H15.6836C15.4327 27.3034 15.2295 27.5001 15.2295 27.7428C15.2295 27.9856 15.4327 28.1823 15.6836 28.1823H23.48V29.1211H10.2818V28.1823H13.7048C13.9556 28.1823 14.1589 27.9856 14.1589 27.7428C14.1589 27.5001 13.9556 27.3034 13.7048 27.3034H10.2818V24.5246H23.48ZM4.16886 18.5254C4.16886 18.2659 4.38703 18.0548 4.65509 18.0548C4.92327 18.0548 5.14138 18.266 5.14138 18.5254V20.0223H4.16886V18.5254ZM2.75831 21.3407C2.75831 21.0984 2.96201 20.9013 3.21245 20.9013H5.15761C5.40805 20.9013 5.61174 21.0984 5.61174 21.3407V21.8425H4.18503C3.93416 21.8425 3.73089 22.0392 3.73089 22.282C3.73089 22.5248 3.93416 22.7215 4.18503 22.7215H5.61174V23.6628H4.18503C3.93416 23.6628 3.73089 23.8595 3.73089 24.1023C3.73089 24.345 3.93416 24.5417 4.18503 24.5417H5.61174V25.0435C5.61174 25.3366 5.42809 25.4631 5.15791 25.4828L3.21245 25.483C2.96201 25.483 2.75831 25.2859 2.75831 25.0435V21.3407ZM23.6307 9.86257C23.6307 10.2955 23.2668 10.6476 22.8195 10.6476H22.3618V8.15993H22.8195C23.2668 8.15993 23.6307 8.51211 23.6307 8.94497V9.86257ZM11.5479 4.89659C11.5479 3.6849 12.5665 2.69916 13.8185 2.69916H14.5458V5.96238V5.9625C14.5458 6.68947 13.9346 7.28096 13.1834 7.28096H12.7946H11.5479V4.89659ZM11.8826 10.6476C11.4353 10.6476 11.0714 10.2954 11.0714 9.86257V8.94503C11.0714 8.51211 11.4354 8.15999 11.8826 8.15999H12.3405V10.6477L11.8826 10.6476ZM13.2488 11.9132V8.15835C13.964 8.13866 14.5977 7.79791 15 7.27938C15.4146 7.81356 16.0746 8.15982 16.8165 8.15982H21.4534L21.4535 11.9132C21.4535 16.7425 13.2488 16.7369 13.2488 11.9132ZM19.5539 16.0522V17.3948L17.3512 19.0011L15.1483 17.3947V16.0522C16.2312 16.681 18.3908 16.6419 19.5539 16.0522Z" fill="white"/>
<path d="M4.33412 12.5627C4.54824 12.7342 4.76235 12.7342 4.9764 12.5627L6.85725 10.7424C7.03461 10.5707 7.03461 10.2925 6.85719 10.1209C6.67989 9.94929 6.39233 9.94929 6.21498 10.1209L4.65529 11.6304L4.03597 11.031C3.85855 10.8594 3.57105 10.8594 3.3937 11.031C3.21634 11.2027 3.21634 11.4809 3.3937 11.6525L4.33412 12.5627Z" fill="black"/>
<path d="M3.21245 15.4396H7.03852C7.78972 15.4396 8.40093 14.8481 8.40093 14.1211V13.6193H9.82771C10.3073 13.6157 10.5192 13.2617 10.1506 12.8709L8.40093 11.1583V8.55674C8.40093 7.82977 7.78972 7.23828 7.03852 7.23828H3.21245C2.46124 7.23828 1.85004 7.82977 1.85004 8.55674V14.1211C1.85004 14.8481 2.46118 15.4396 3.21245 15.4396ZM2.75831 8.55674C2.75831 8.31438 2.96201 8.11726 3.21245 8.11726H7.03852C7.28896 8.11726 7.49266 8.31438 7.49266 8.55674V11.3389C7.49266 11.4547 7.53977 11.5657 7.62387 11.6479L8.74008 12.7404H7.9468C7.69593 12.7404 7.49266 12.9371 7.49266 13.1799V14.1211C7.49266 14.3635 7.28896 14.5606 7.03852 14.5606H3.21245C2.96201 14.5606 2.75831 14.3635 2.75831 14.1211V8.55674Z" fill="white"/>
</svg>
