<svg width="60" height="60" viewBox="0 0 60 60" fill="none" xmlns="http://www.w3.org/2000/svg">
<g clip-path="url(#clip0_684_617)">
<path d="M58.6406 52.7344L51.1758 45.2695L50.4961 45.9492L48.8672 44.3203C49.9101 42.5625 50.4727 40.5703 50.4727 38.4727C50.4727 36.5156 49.9805 34.6289 49.0664 32.9531C49.7812 30.5977 50.168 28.1602 50.168 25.6758C50.168 11.9062 38.9648 0.714844 25.207 0.714844C11.4375 0.714844 0.234375 11.918 0.234375 25.6758C0.234375 39.4336 11.4375 50.6367 25.1953 50.6367C27.9258 50.6367 30.6211 50.2031 33.1523 49.3477L34.3125 49.0078C35.7539 49.6406 37.3359 49.9922 38.9531 49.9922C41.0391 49.9922 43.043 49.4297 44.8008 48.3867L46.4297 50.0156L45.75 50.6953L53.2148 58.1602C53.9648 58.9102 54.9492 59.2852 55.9336 59.2852C56.918 59.2852 57.9023 58.9102 58.6523 58.1602C60.1406 56.6602 60.1406 54.2227 58.6406 52.7344ZM47.0976 30.3281C44.918 28.1484 42.0234 26.9531 38.9531 26.9531C38.5078 26.9531 38.0742 26.9883 37.6406 27.0352C37.6406 26.9062 37.6523 26.7773 37.6523 26.6484H48.2109C48.1523 28.0898 47.9648 29.5195 47.6367 30.9258C47.4609 30.7148 47.2851 30.5156 47.0976 30.3281ZM14.2852 16.4297C15.1523 16.4297 15.8555 17.1328 15.8555 18C15.8555 18.8672 15.1523 19.5703 14.2852 19.5703C13.418 19.5703 12.7148 18.8672 12.7148 18C12.7148 17.1328 13.418 16.4297 14.2852 16.4297ZM14.8359 21.4336C16.5 21.1641 17.7656 19.7344 17.7656 18C17.7656 16.6641 16.9922 15.5039 15.8906 14.9297C15.9727 14.5898 16.0664 14.25 16.1602 13.9102C18.7148 14.9062 21.4453 15.4687 24.2461 15.5742V24.7148H14.6719C14.6836 23.6133 14.7422 22.5117 14.8359 21.4336ZM26.1562 15.5742C28.9453 15.4687 31.6641 14.9062 34.2187 13.9102C35.1094 17.1211 35.6602 20.8125 35.7422 24.7148H26.1562V15.5742ZM26.1562 13.6289V2.73047C29.1914 3.36328 31.8984 6.92578 33.6562 12.0703C31.2891 13.0078 28.7578 13.5234 26.1562 13.6289ZM30.8555 3.33984C34.3242 4.21875 37.4883 5.89453 40.1367 8.15625C38.6953 9.38672 37.125 10.4414 35.4492 11.2734C34.2773 7.91016 32.707 5.17969 30.8555 3.33984ZM24.2344 2.74219V13.6289C21.6328 13.5234 19.1016 13.0078 16.7227 12.0703C18.5273 6.80859 21.2695 3.36328 24.2344 2.74219ZM24.2344 26.6367V35.7773C21.4453 35.8828 18.7266 36.4453 16.1719 37.4414C15.2812 34.2305 14.7305 30.5391 14.6484 26.6367H24.2344ZM24.2344 37.7227V48.6211C21.1992 47.9883 18.4922 44.4258 16.7344 39.2812C19.1133 38.3437 21.6445 37.8398 24.2344 37.7227ZM19.5469 48.0234C16.0781 47.1445 12.9141 45.4687 10.2656 43.207C11.707 41.9766 13.2773 40.9219 14.9531 40.0898C16.1133 43.4531 17.6953 46.1836 19.5469 48.0234ZM26.1562 48.6094V37.7109C26.5898 37.7344 27.0234 37.7578 27.457 37.8047C27.4453 38.0273 27.4219 38.25 27.4219 38.4727C27.4219 41.2383 28.3945 43.8398 30.1641 45.9258C29.25 47.0156 27.8672 48.2578 26.1562 48.6094ZM27.7266 35.9062C27.2109 35.8594 26.6836 35.8125 26.1562 35.8008V26.6484H35.7305C35.7305 26.9062 35.7187 27.1641 35.707 27.4219C33.8789 27.9609 32.1914 28.9453 30.8086 30.3281C29.25 31.8867 28.207 33.8086 27.7266 35.9062ZM48.2227 24.7148H37.6758C37.5937 20.4727 37.0195 16.5352 36.0469 13.1133C38.0273 12.1523 39.8906 10.9336 41.5781 9.46875C45.4805 13.4297 47.9766 18.7852 48.2227 24.7148ZM14.9648 11.2734C13.2891 10.4414 11.7187 9.38672 10.2656 8.14453C12.9141 5.88281 16.0781 4.20703 19.5586 3.32812C17.7305 5.15625 16.1484 7.86328 14.9648 11.2734ZM8.83594 9.48047C10.5352 10.957 12.3984 12.1758 14.3906 13.1367C14.2617 13.5937 14.1328 14.0625 14.0156 14.543C12.2227 14.6836 10.8047 16.1719 10.8047 18C10.8047 19.4414 11.6836 20.6836 12.9375 21.2109C12.832 22.3711 12.7734 23.543 12.75 24.7148H2.17969C2.42578 18.7852 4.92187 13.4297 8.83594 9.48047ZM2.17969 26.6367H12.7266C12.8086 30.8789 13.3828 34.8164 14.3555 38.2383C12.375 39.1992 10.5117 40.418 8.82422 41.8828C4.92187 37.9336 2.42578 32.5664 2.17969 26.6367ZM30.832 48.0352C31.0664 47.8008 31.3008 47.543 31.5352 47.2852C31.6992 47.4258 31.875 47.5547 32.0508 47.6836C31.6406 47.8008 31.2422 47.9297 30.832 48.0352ZM32.168 45.2578C30.3516 43.4414 29.3555 41.0273 29.3555 38.4727C29.3555 35.9062 30.3516 33.4922 32.168 31.6875C33.9844 29.8711 36.3984 28.875 38.9531 28.875C41.5195 28.875 43.9336 29.8711 45.7383 31.6875C47.5547 33.5039 48.5508 35.918 48.5508 38.4727C48.5508 40.3477 48.0117 42.1523 47.0039 43.6875L46.8516 43.9102C46.6758 44.168 46.5 44.4023 46.3125 44.625C46.125 44.8477 45.9375 45.0586 45.7383 45.2578C45.5391 45.457 45.3164 45.6562 45.1055 45.832C44.8828 46.0195 44.6484 46.1953 44.3906 46.3711L44.168 46.5234C42.6328 47.5195 40.8398 48.0586 38.9531 48.0586C36.3867 48.0703 33.9727 47.0742 32.168 45.2578ZM46.3945 47.2734C46.6406 47.0625 46.875 46.8516 47.1094 46.6289C47.332 46.4062 47.5547 46.1719 47.7539 45.9258L49.1367 47.3086L47.7773 48.668L46.3945 47.2734ZM57.2812 56.8008C56.5312 57.5508 55.3125 57.5508 54.5625 56.8008L48.457 50.6953L51.1758 47.9766L57.2812 54.082C58.0312 54.832 58.0312 56.0508 57.2812 56.8008Z" fill="white"/>
<path d="M44.7305 32.8945C41.6484 29.8125 36.6445 29.8125 33.5625 32.8945L34.9219 34.2539C37.2539 31.9219 41.0391 31.9219 43.3711 34.2539L44.7305 32.8945Z" fill="#FF3600"/>
</g>
<defs>
<clipPath id="clip0_684_617">
<rect width="60" height="60" fill="white"/>
</clipPath>
</defs>
</svg>
