<svg width="50" height="50" viewBox="0 0 50 50" fill="none" xmlns="http://www.w3.org/2000/svg">
<g clip-path="url(#clip0_191_1432)">
<path d="M48.8672 43.9453L42.6465 37.7246L42.0801 38.291L40.7227 36.9336C41.5918 35.4687 42.0605 33.8086 42.0605 32.0605C42.0605 30.4297 41.6504 28.8574 40.8887 27.4609C41.4844 25.498 41.8066 23.4668 41.8066 21.3965C41.8066 9.92187 32.4707 0.595703 21.0059 0.595703C9.53125 0.595703 0.195312 9.93164 0.195312 21.3965C0.195312 32.8613 9.53125 42.1973 20.9961 42.1973C23.2715 42.1973 25.5176 41.8359 27.627 41.123L28.5937 40.8398C29.7949 41.3672 31.1133 41.6602 32.4609 41.6602C34.1992 41.6602 35.8691 41.1914 37.334 40.3223L38.6914 41.6797L38.125 42.2461L44.3457 48.4668C44.9707 49.0918 45.791 49.4043 46.6113 49.4043C47.4316 49.4043 48.2519 49.0918 48.8769 48.4668C50.1172 47.2168 50.1172 45.1855 48.8672 43.9453ZM39.248 25.2734C37.4316 23.457 35.0195 22.4609 32.4609 22.4609C32.0898 22.4609 31.7285 22.4902 31.3672 22.5293C31.3672 22.4219 31.3769 22.3145 31.3769 22.207H40.1758C40.1269 23.4082 39.9707 24.5996 39.6973 25.7715C39.5508 25.5957 39.4043 25.4297 39.248 25.2734ZM11.9043 13.6914C12.627 13.6914 13.2129 14.2773 13.2129 15C13.2129 15.7227 12.627 16.3086 11.9043 16.3086C11.1816 16.3086 10.5957 15.7227 10.5957 15C10.5957 14.2773 11.1816 13.6914 11.9043 13.6914ZM12.3633 17.8613C13.75 17.6367 14.8047 16.4453 14.8047 15C14.8047 13.8867 14.1602 12.9199 13.2422 12.4414C13.3105 12.1582 13.3887 11.875 13.4668 11.5918C15.5957 12.4219 17.8711 12.8906 20.2051 12.9785V20.5957H12.2266C12.2363 19.6777 12.2852 18.7598 12.3633 17.8613ZM21.7969 12.9785C24.1211 12.8906 26.3867 12.4219 28.5156 11.5918C29.2578 14.2676 29.7168 17.3437 29.7852 20.5957H21.7969V12.9785ZM21.7969 11.3574V2.27539C24.3262 2.80273 26.582 5.77148 28.0469 10.0586C26.0742 10.8398 23.9648 11.2695 21.7969 11.3574ZM25.7129 2.7832C28.6035 3.51562 31.2402 4.91211 33.4473 6.79687C32.2461 7.82227 30.9375 8.70117 29.541 9.39453C28.5645 6.5918 27.2559 4.31641 25.7129 2.7832ZM20.1953 2.28516V11.3574C18.0273 11.2695 15.918 10.8398 13.9355 10.0586C15.4395 5.67383 17.7246 2.80273 20.1953 2.28516ZM20.1953 22.1973V29.8144C17.8711 29.9023 15.6055 30.3711 13.4766 31.2012C12.7344 28.5254 12.2754 25.4492 12.207 22.1973H20.1953ZM20.1953 31.4355V40.5176C17.666 39.9902 15.4102 37.0215 13.9453 32.7344C15.9277 31.9531 18.0371 31.5332 20.1953 31.4355ZM16.2891 40.0195C13.3984 39.2871 10.7617 37.8906 8.55469 36.0059C9.75586 34.9805 11.0645 34.1016 12.4609 33.4082C13.4277 36.2109 14.7461 38.4863 16.2891 40.0195ZM21.7969 40.5078V31.4258C22.1582 31.4453 22.5195 31.4648 22.8809 31.5039C22.8711 31.6895 22.8516 31.875 22.8516 32.0605C22.8516 34.3652 23.6621 36.5332 25.1367 38.2715C24.375 39.1797 23.2227 40.2148 21.7969 40.5078ZM23.1055 29.9219C22.6758 29.8828 22.2363 29.8437 21.7969 29.834V22.207H29.7754C29.7754 22.4219 29.7656 22.6367 29.7559 22.8516C28.2324 23.3008 26.8262 24.1211 25.6738 25.2734C24.375 26.5723 23.5059 28.1738 23.1055 29.9219ZM40.1855 20.5957H31.3965C31.3281 17.0605 30.8496 13.7793 30.0391 10.9277C31.6895 10.127 33.2422 9.11133 34.6484 7.89062C37.9004 11.1914 39.9805 15.6543 40.1855 20.5957ZM12.4707 9.39453C11.0742 8.70117 9.76562 7.82227 8.55469 6.78711C10.7617 4.90234 13.3984 3.50586 16.2988 2.77344C14.7754 4.29687 13.457 6.55273 12.4707 9.39453ZM7.36328 7.90039C8.7793 9.13086 10.332 10.1465 11.9922 10.9473C11.8848 11.3281 11.7773 11.7187 11.6797 12.1191C10.1855 12.2363 9.00391 13.4766 9.00391 15C9.00391 16.2012 9.73633 17.2363 10.7812 17.6758C10.6934 18.6426 10.6445 19.6191 10.625 20.5957H1.81641C2.02148 15.6543 4.10156 11.1914 7.36328 7.90039ZM1.81641 22.1973H10.6055C10.6738 25.7324 11.1523 29.0137 11.9629 31.8652C10.3125 32.666 8.75977 33.6816 7.35352 34.9023C4.10156 31.6113 2.02148 27.1387 1.81641 22.1973ZM25.6934 40.0293C25.8887 39.834 26.084 39.6191 26.2793 39.4043C26.416 39.5215 26.5625 39.6289 26.709 39.7363C26.3672 39.834 26.0352 39.9414 25.6934 40.0293ZM26.8066 37.7148C25.293 36.2012 24.4629 34.1894 24.4629 32.0605C24.4629 29.9219 25.293 27.9102 26.8066 26.4062C28.3203 24.8926 30.332 24.0625 32.4609 24.0625C34.5996 24.0625 36.6113 24.8926 38.1152 26.4062C39.6289 27.9199 40.459 29.9316 40.459 32.0605C40.459 33.623 40.0098 35.1269 39.1699 36.4062L39.043 36.5918C38.8965 36.8066 38.75 37.0019 38.5938 37.1875C38.4375 37.373 38.2812 37.5488 38.1152 37.7148C37.9492 37.8809 37.7637 38.0469 37.5879 38.1934C37.4023 38.3496 37.207 38.4961 36.9922 38.6426L36.8066 38.7695C35.5273 39.5996 34.0332 40.0488 32.4609 40.0488C30.3223 40.0586 28.3105 39.2285 26.8066 37.7148ZM38.6621 39.3945C38.8672 39.2187 39.0625 39.043 39.2578 38.8574C39.4434 38.6719 39.6289 38.4766 39.7949 38.2715L40.9473 39.4238L39.8145 40.5566L38.6621 39.3945ZM47.7344 47.334C47.1094 47.959 46.0937 47.959 45.4687 47.334L40.3809 42.2461L42.6465 39.9805L47.7344 45.0684C48.3594 45.6934 48.3594 46.709 47.7344 47.334Z" fill="white"/>
<path d="M37.2754 27.4126C34.707 24.8442 30.5371 24.8442 27.9688 27.4126L29.1016 28.5454C31.0449 26.602 34.1992 26.602 36.1426 28.5454L37.2754 27.4126Z" fill="#FF3600"/>
</g>
<defs>
<clipPath id="clip0_191_1432">
<rect width="50" height="50" fill="white"/>
</clipPath>
</defs>
</svg>
