<svg width="35" height="35" viewBox="0 0 35 35" fill="none" xmlns="http://www.w3.org/2000/svg">
<g clip-path="url(#clip0_398_881)">
<path d="M21.9001 32.5C23.4397 33.4932 25.2743 33.9261 27.0955 33.7257C28.9166 33.5254 30.6133 32.7041 31.9001 31.4L33.0251 30.3C33.5183 29.7955 33.7945 29.118 33.7945 28.4125C33.7945 27.707 33.5183 27.0295 33.0251 26.525L28.2501 21.8C27.7499 21.3083 27.0765 21.0329 26.3751 21.0329C25.6737 21.0329 25.0004 21.3083 24.5001 21.8V21.8C23.9957 22.2932 23.3182 22.5693 22.6126 22.5693C21.9071 22.5693 21.2296 22.2932 20.7251 21.8L13.2251 14.3C12.9749 14.0534 12.7763 13.7596 12.6406 13.4355C12.505 13.1115 12.4352 12.7638 12.4352 12.4125C12.4352 12.0612 12.505 11.7135 12.6406 11.3894C12.7763 11.0654 12.9749 10.7715 13.2251 10.525V10.525C13.7168 10.0247 13.9923 9.35138 13.9923 8.64998C13.9923 7.94858 13.7168 7.27524 13.2251 6.77498L8.47513 2.02498C7.97065 1.53177 7.29315 1.25562 6.58763 1.25562C5.88211 1.25562 5.20461 1.53177 4.70013 2.02498L3.60013 3.14998C2.296 4.43684 1.47472 6.13349 1.27439 7.95465C1.07406 9.77581 1.5069 11.6104 2.50013 13.15C7.67524 20.7768 14.26 27.3446 21.9001 32.5V32.5Z" stroke="white" stroke-width="1.5" stroke-linecap="round" stroke-linejoin="round"/>
</g>
<defs>
<clipPath id="clip0_398_881">
<rect width="35" height="35" fill="white"/>
</clipPath>
</defs>
</svg>
