<svg width="35" height="35" viewBox="0 0 35 35" fill="none" xmlns="http://www.w3.org/2000/svg">
<g clip-path="url(#clip0_97_113)">
<path d="M7.58337 8.75H5.25004C4.94062 8.75 4.64388 8.87292 4.42508 9.09171C4.20629 9.3105 4.08337 9.60725 4.08337 9.91667V12.25C4.08337 12.5594 4.20629 12.8562 4.42508 13.075C4.64388 13.2938 4.94062 13.4167 5.25004 13.4167H7.58337C7.89279 13.4167 8.18954 13.2938 8.40833 13.075C8.62712 12.8562 8.75004 12.5594 8.75004 12.25V9.91667C8.75004 9.60725 8.62712 9.3105 8.40833 9.09171C8.18954 8.87292 7.89279 8.75 7.58337 8.75ZM5.25004 12.25V9.91667H7.58337V12.25H5.25004Z" fill="white"/>
<path d="M13.4166 8.75H11.0833C10.7739 8.75 10.4771 8.87292 10.2583 9.09171C10.0395 9.3105 9.91663 9.60725 9.91663 9.91667V12.25C9.91663 12.5594 10.0395 12.8562 10.2583 13.075C10.4771 13.2938 10.7739 13.4167 11.0833 13.4167H13.4166C13.726 13.4167 14.0228 13.2938 14.2416 13.075C14.4604 12.8562 14.5833 12.5594 14.5833 12.25V9.91667C14.5833 9.60725 14.4604 9.3105 14.2416 9.09171C14.0228 8.87292 13.726 8.75 13.4166 8.75ZM11.0833 12.25V9.91667H13.4166V12.25H11.0833Z" fill="white"/>
<path d="M16.9167 13.4167H19.25C19.5594 13.4167 19.8562 13.2938 20.075 13.075C20.2938 12.8562 20.4167 12.5594 20.4167 12.25V9.91667C20.4167 9.60725 20.2938 9.3105 20.075 9.09171C19.8562 8.87292 19.5594 8.75 19.25 8.75H16.9167C16.6072 8.75 16.3105 8.87292 16.0917 9.09171C15.8729 9.3105 15.75 9.60725 15.75 9.91667V12.25C15.75 12.5594 15.8729 12.8562 16.0917 13.075C16.3105 13.2938 16.6072 13.4167 16.9167 13.4167ZM16.9167 9.91667H19.25V12.25H16.9167V9.91667Z" fill="white"/>
<path d="M22.75 13.4167H25.0834C25.3928 13.4167 25.6895 13.2938 25.9083 13.075C26.1271 12.8562 26.25 12.5594 26.25 12.25V9.91667C26.25 9.60725 26.1271 9.3105 25.9083 9.09171C25.6895 8.87292 25.3928 8.75 25.0834 8.75H22.75C22.4406 8.75 22.1439 8.87292 21.9251 9.09171C21.7063 9.3105 21.5834 9.60725 21.5834 9.91667V12.25C21.5834 12.5594 21.7063 12.8562 21.9251 13.075C22.1439 13.2938 22.4406 13.4167 22.75 13.4167ZM22.75 9.91667H25.0834V12.25H22.75V9.91667Z" fill="white"/>
<path d="M7.58337 15.1665H5.25004C4.94062 15.1665 4.64388 15.2894 4.42508 15.5082C4.20629 15.727 4.08337 16.0238 4.08337 16.3332V18.6665C4.08337 18.9759 4.20629 19.2727 4.42508 19.4915C4.64388 19.7103 4.94062 19.8332 5.25004 19.8332H7.58337C7.89279 19.8332 8.18954 19.7103 8.40833 19.4915C8.62712 19.2727 8.75004 18.9759 8.75004 18.6665V16.3332C8.75004 16.0238 8.62712 15.727 8.40833 15.5082C8.18954 15.2894 7.89279 15.1665 7.58337 15.1665ZM5.25004 18.6665V16.3332H7.58337V18.6665H5.25004Z" fill="white"/>
<path d="M13.4166 15.1665H11.0833C10.7739 15.1665 10.4771 15.2894 10.2583 15.5082C10.0395 15.727 9.91663 16.0238 9.91663 16.3332V18.6665C9.91663 18.9759 10.0395 19.2727 10.2583 19.4915C10.4771 19.7103 10.7739 19.8332 11.0833 19.8332H13.4166C13.726 19.8332 14.0228 19.7103 14.2416 19.4915C14.4604 19.2727 14.5833 18.9759 14.5833 18.6665V16.3332C14.5833 16.0238 14.4604 15.727 14.2416 15.5082C14.0228 15.2894 13.726 15.1665 13.4166 15.1665ZM11.0833 18.6665V16.3332H13.4166V18.6665H11.0833Z" fill="white"/>
<path d="M16.9167 19.8332H19.25C19.5594 19.8332 19.8562 19.7103 20.075 19.4915C20.2938 19.2727 20.4167 18.9759 20.4167 18.6665V16.3332C20.4167 16.0238 20.2938 15.727 20.075 15.5082C19.8562 15.2894 19.5594 15.1665 19.25 15.1665H16.9167C16.6072 15.1665 16.3105 15.2894 16.0917 15.5082C15.8729 15.727 15.75 16.0238 15.75 16.3332V18.6665C15.75 18.9759 15.8729 19.2727 16.0917 19.4915C16.3105 19.7103 16.6072 19.8332 16.9167 19.8332ZM16.9167 16.3332H19.25V18.6665H16.9167V16.3332Z" fill="white"/>
<path d="M7.58337 21.5835H5.25004C4.94062 21.5835 4.64388 21.7064 4.42508 21.9252C4.20629 22.144 4.08337 22.4407 4.08337 22.7502V25.0835C4.08337 25.3929 4.20629 25.6897 4.42508 25.9085C4.64388 26.1272 4.94062 26.2502 5.25004 26.2502H7.58337C7.89279 26.2502 8.18954 26.1272 8.40833 25.9085C8.62712 25.6897 8.75004 25.3929 8.75004 25.0835V22.7502C8.75004 22.4407 8.62712 22.144 8.40833 21.9252C8.18954 21.7064 7.89279 21.5835 7.58337 21.5835ZM5.25004 25.0835V22.7502H7.58337V25.0835H5.25004Z" fill="white"/>
<path d="M13.4166 21.5835H11.0833C10.7739 21.5835 10.4771 21.7064 10.2583 21.9252C10.0395 22.144 9.91663 22.4407 9.91663 22.7502V25.0835C9.91663 25.3929 10.0395 25.6897 10.2583 25.9085C10.4771 26.1272 10.7739 26.2502 11.0833 26.2502H13.4166C13.726 26.2502 14.0228 26.1272 14.2416 25.9085C14.4604 25.6897 14.5833 25.3929 14.5833 25.0835V22.7502C14.5833 22.4407 14.4604 22.144 14.2416 21.9252C14.0228 21.7064 13.726 21.5835 13.4166 21.5835ZM11.0833 25.0835V22.7502H13.4166V25.0835H11.0833Z" fill="white"/>
<path d="M30.3333 18.5168V4.08333C30.3333 3.4645 30.0875 2.871 29.6499 2.43342C29.2123 1.99583 28.6188 1.75 28 1.75H27.4167C27.4167 1.28587 27.2323 0.840752 26.9041 0.512563C26.5759 0.184374 26.1308 0 25.6667 0C25.2025 0 24.7574 0.184374 24.4292 0.512563C24.101 0.840752 23.9167 1.28587 23.9167 1.75H20.4167C20.4167 1.28587 20.2323 0.840752 19.9041 0.512563C19.5759 0.184374 19.1308 0 18.6667 0C18.2025 0 17.7574 0.184374 17.4292 0.512563C17.101 0.840752 16.9167 1.28587 16.9167 1.75H13.4167C13.4167 1.28587 13.2323 0.840752 12.9041 0.512563C12.5759 0.184374 12.1308 0 11.6667 0C11.2025 0 10.7574 0.184374 10.4292 0.512563C10.101 0.840752 9.91667 1.28587 9.91667 1.75H6.41667C6.41667 1.28587 6.23229 0.840752 5.9041 0.512563C5.57592 0.184374 5.1308 0 4.66667 0C4.20254 0 3.75742 0.184374 3.42923 0.512563C3.10104 0.840752 2.91667 1.28587 2.91667 1.75H2.33333C1.71449 1.75 1.121 1.99583 0.683418 2.43342C0.245833 2.871 0 3.4645 0 4.08333L0 27.4167C0 28.0355 0.245833 28.629 0.683418 29.0666C1.121 29.5042 1.71449 29.75 2.33333 29.75H18.2356C18.7941 31.031 19.6513 32.1595 20.7356 33.0411C21.8199 33.9227 23.0996 34.5316 24.4676 34.817C25.8356 35.1024 27.252 35.0558 28.5983 34.6812C29.9446 34.3067 31.1816 33.615 32.2056 32.6641C33.2297 31.7133 34.011 30.5309 34.4841 29.216C34.9573 27.9011 35.1086 26.492 34.9252 25.1066C34.7419 23.7213 34.2293 22.4 33.4304 21.2535C32.6315 20.1069 31.5695 19.1685 30.3333 18.5168ZM25.0833 1.75C25.0833 1.59529 25.1448 1.44692 25.2542 1.33752C25.3636 1.22812 25.512 1.16667 25.6667 1.16667C25.8214 1.16667 25.9698 1.22812 26.0791 1.33752C26.1885 1.44692 26.25 1.59529 26.25 1.75V2.91667C26.25 3.07138 26.1885 3.21975 26.0791 3.32915C25.9698 3.43854 25.8214 3.5 25.6667 3.5C25.512 3.5 25.3636 3.43854 25.2542 3.32915C25.1448 3.21975 25.0833 3.07138 25.0833 2.91667V1.75ZM18.0833 1.75C18.0833 1.59529 18.1448 1.44692 18.2542 1.33752C18.3636 1.22812 18.512 1.16667 18.6667 1.16667C18.8214 1.16667 18.9698 1.22812 19.0791 1.33752C19.1885 1.44692 19.25 1.59529 19.25 1.75V2.91667C19.25 3.07138 19.1885 3.21975 19.0791 3.32915C18.9698 3.43854 18.8214 3.5 18.6667 3.5C18.512 3.5 18.3636 3.43854 18.2542 3.32915C18.1448 3.21975 18.0833 3.07138 18.0833 2.91667V1.75ZM11.0833 1.75C11.0833 1.59529 11.1448 1.44692 11.2542 1.33752C11.3636 1.22812 11.512 1.16667 11.6667 1.16667C11.8214 1.16667 11.9698 1.22812 12.0791 1.33752C12.1885 1.44692 12.25 1.59529 12.25 1.75V2.91667C12.25 3.07138 12.1885 3.21975 12.0791 3.32915C11.9698 3.43854 11.8214 3.5 11.6667 3.5C11.512 3.5 11.3636 3.43854 11.2542 3.32915C11.1448 3.21975 11.0833 3.07138 11.0833 2.91667V1.75ZM4.08333 1.75C4.08333 1.59529 4.14479 1.44692 4.25419 1.33752C4.36358 1.22812 4.51196 1.16667 4.66667 1.16667C4.82138 1.16667 4.96975 1.22812 5.07915 1.33752C5.18854 1.44692 5.25 1.59529 5.25 1.75V2.91667C5.25 3.07138 5.18854 3.21975 5.07915 3.32915C4.96975 3.43854 4.82138 3.5 4.66667 3.5C4.51196 3.5 4.36358 3.43854 4.25419 3.32915C4.14479 3.21975 4.08333 3.07138 4.08333 2.91667V1.75ZM2.33333 2.91667H2.91667C2.91667 3.3808 3.10104 3.82592 3.42923 4.1541C3.75742 4.48229 4.20254 4.66667 4.66667 4.66667C5.1308 4.66667 5.57592 4.48229 5.9041 4.1541C6.23229 3.82592 6.41667 3.3808 6.41667 2.91667H9.91667C9.91667 3.3808 10.101 3.82592 10.4292 4.1541C10.7574 4.48229 11.2025 4.66667 11.6667 4.66667C12.1308 4.66667 12.5759 4.48229 12.9041 4.1541C13.2323 3.82592 13.4167 3.3808 13.4167 2.91667H16.9167C16.9167 3.3808 17.101 3.82592 17.4292 4.1541C17.7574 4.48229 18.2025 4.66667 18.6667 4.66667C19.1308 4.66667 19.5759 4.48229 19.9041 4.1541C20.2323 3.82592 20.4167 3.3808 20.4167 2.91667H23.9167C23.9167 3.3808 24.101 3.82592 24.4292 4.1541C24.7574 4.48229 25.2025 4.66667 25.6667 4.66667C26.1308 4.66667 26.5759 4.48229 26.9041 4.1541C27.2323 3.82592 27.4167 3.3808 27.4167 2.91667H28C28.3094 2.91667 28.6062 3.03958 28.825 3.25838C29.0438 3.47717 29.1667 3.77391 29.1667 4.08333V5.83333H1.16667V4.08333C1.16667 3.77391 1.28958 3.47717 1.50838 3.25838C1.72717 3.03958 2.02391 2.91667 2.33333 2.91667ZM2.33333 28.5833C2.02391 28.5833 1.72717 28.4604 1.50838 28.2416C1.28958 28.0228 1.16667 27.7261 1.16667 27.4167V7H29.1667V18.0104C28.2308 17.6748 27.2442 17.5022 26.25 17.5V16.3333C26.25 16.0239 26.1271 15.7272 25.9083 15.5084C25.6895 15.2896 25.3928 15.1667 25.0833 15.1667H22.75C22.4406 15.1667 22.1438 15.2896 21.925 15.5084C21.7063 15.7272 21.5833 16.0239 21.5833 16.3333V18.6667C21.5841 18.7283 21.59 18.7897 21.6008 18.8504C20.4962 19.547 19.5603 20.4805 18.8609 21.5833H16.9167C16.6072 21.5833 16.3105 21.7063 16.0917 21.925C15.8729 22.1438 15.75 22.4406 15.75 22.75V25.0833C15.75 25.3928 15.8729 25.6895 16.0917 25.9083C16.3105 26.1271 16.6072 26.25 16.9167 26.25H17.5C17.5023 27.0389 17.6118 27.8239 17.8255 28.5833H2.33333ZM25.0833 17.5869C24.2791 17.693 23.4936 17.9114 22.75 18.2356V16.3333H25.0833V17.5869ZM17.5869 25.0833H16.9167V22.75H18.2356C17.9114 23.4936 17.693 24.2791 17.5869 25.0833ZM26.25 33.8333C24.7502 33.8333 23.284 33.3886 22.0369 32.5553C20.7899 31.722 19.8179 30.5377 19.2439 29.152C18.67 27.7663 18.5198 26.2416 18.8124 24.7706C19.105 23.2995 19.8272 21.9483 20.8878 20.8878C21.9483 19.8272 23.2995 19.105 24.7706 18.8124C26.2416 18.5198 27.7663 18.67 29.152 19.2439C30.5377 19.8179 31.722 20.7899 32.5553 22.0369C33.3886 23.284 33.8333 24.7502 33.8333 26.25C33.831 28.2605 33.0313 30.188 31.6097 31.6097C30.188 33.0313 28.2605 33.831 26.25 33.8333Z" fill="white"/>
<path d="M28.7111 22.9687L24.4527 28.2934L23.7469 27.5876C23.6369 27.4813 23.4895 27.4225 23.3366 27.4238C23.1836 27.4252 23.0373 27.4865 22.9292 27.5947C22.821 27.7028 22.7597 27.8491 22.7583 28.0021C22.757 28.155 22.8158 28.3024 22.922 28.4124L24.0887 29.5791C24.1426 29.6333 24.2067 29.6763 24.2773 29.7056C24.3478 29.735 24.4235 29.75 24.5 29.75H24.5326C24.6145 29.7455 24.6944 29.7237 24.7673 29.6862C24.8401 29.6488 24.9043 29.5963 24.9555 29.5324L29.6222 23.6991C29.7189 23.5782 29.7636 23.4239 29.7466 23.2701C29.7295 23.1163 29.652 22.9756 29.5312 22.8789C29.4104 22.7822 29.2561 22.7375 29.1023 22.7545C28.9485 22.7716 28.8077 22.8491 28.7111 22.9699V22.9687Z" fill="#FF3600"/>
</g>
<defs>
<clipPath id="clip0_97_113">
<rect width="35" height="35" fill="white"/>
</clipPath>
</defs>
</svg>
