<svg width="60" height="60" viewBox="0 0 60 60" fill="none" xmlns="http://www.w3.org/2000/svg">
<path d="M8.39314 42.2962H9.42626L9.72814 53.5743C9.75751 54.373 10.4069 54.9987 11.2069 54.9987H18.9894C19.7881 54.9987 20.4375 54.373 20.4675 53.5637L20.63 47.3124H22.47C23.1094 49.2843 24.9419 50.723 27.1231 50.723C29.8325 50.723 32.0363 48.5193 32.0363 45.8099C32.0363 43.1005 29.8331 40.8968 27.1231 40.8968C24.5431 40.8968 22.445 42.9024 22.2488 45.433H20.6788L20.76 42.2955H22.2813C24.0088 42.2955 25.4144 40.8899 25.4144 39.1624V37.4468H40.2213C40.84 37.4468 41.4044 37.1349 41.73 36.6124C42.0581 36.0868 42.09 35.4393 41.8125 34.8699L40.5675 32.3943C40.2731 31.778 39.6606 31.3962 38.9681 31.3962H25.4138V29.733H36.625C38.0394 30.308 39.5769 30.6349 41.1875 30.6662L43.4119 35.0812C43.825 35.9255 44.5881 36.5405 45.5056 36.7699L51.86 38.3612C52.4494 38.5068 52.8613 39.0337 52.8613 39.6412V44.1255C52.8613 44.8512 52.2656 45.4405 51.5338 45.4405H50.1625C49.9706 42.9055 47.87 40.8955 45.2863 40.8955C42.7063 40.8955 40.6081 42.9012 40.4119 45.4318H33.8219C33.3031 45.4318 32.8825 45.8524 32.8825 46.3712C32.8825 46.8899 33.3031 47.3105 33.8219 47.3105H40.6338C41.2731 49.2824 43.1056 50.7212 45.2869 50.7212C47.4656 50.7212 49.2956 49.2868 49.9375 47.3199H51.5344C53.3019 47.3199 54.7406 45.8868 54.7406 44.1255V39.6412C54.7406 38.1662 53.7413 36.8899 52.3138 36.5374L45.9625 34.9468C45.5831 34.8518 45.2688 34.5999 45.0963 34.2468L43.2356 30.538C49.4675 29.6612 54.2825 24.308 54.2825 17.838C54.2825 10.758 48.5225 4.99805 41.4425 4.99805C34.3625 4.99805 28.6025 10.758 28.6025 17.838C28.6025 21.8868 30.4906 25.4974 33.4275 27.8524H25.1931C24.5656 25.6337 22.545 23.9943 20.1288 23.9943H10.6619C7.68313 23.9943 5.26001 26.4174 5.26001 29.3955V39.1605C5.25938 40.8905 6.66501 42.2962 8.39314 42.2962ZM27.1225 42.7768C28.7963 42.7768 30.1563 44.138 30.1563 45.8105C30.1563 47.4837 28.7956 48.8443 27.1225 48.8443C25.45 48.8443 24.0888 47.4837 24.0888 45.8105C24.0888 44.1374 25.4506 42.7768 27.1225 42.7768ZM45.2863 48.8443C43.6138 48.8443 42.2525 47.4837 42.2525 45.8105C42.2525 44.1374 43.6138 42.7768 45.2863 42.7768C46.96 42.7768 48.32 44.138 48.32 45.8105C48.3206 47.483 46.96 48.8443 45.2863 48.8443ZM30.4813 17.8405C30.4813 11.7968 35.3981 6.87992 41.4419 6.87992C47.4856 6.87992 52.4025 11.7968 52.4025 17.8405C52.4025 23.8843 47.4856 28.8012 41.4419 28.8012C35.3981 28.8012 30.4813 23.8843 30.4813 17.8405ZM38.88 33.2224L40.0594 35.5687H25.4138V33.2724L38.88 33.2224ZM7.13876 29.398C7.13876 27.4555 8.71938 25.8755 10.6619 25.8755H20.1288C22.0069 25.8755 23.535 27.4043 23.535 29.2824V39.163C23.535 39.8543 22.9725 40.4168 22.2813 40.4168H20.7706V33.1555C20.7706 32.6368 20.3506 32.2162 19.8313 32.2162C19.3125 32.2162 18.8919 32.6368 18.8919 33.1555L18.6013 53.1199H16.0388V43.1874C16.0388 42.6687 15.6181 42.248 15.0994 42.248C14.58 42.248 14.16 42.6687 14.16 43.1874V53.1199H11.5969L11.3056 33.1555C11.3056 32.6368 10.8856 32.2162 10.3663 32.2162C9.84751 32.2162 9.42689 32.6368 9.42689 33.1555V40.4174H8.39376C7.70189 40.4174 7.13939 39.8549 7.13939 39.1637V29.398H7.13876Z" fill="white"/>
<path d="M7.6944 12.3599C7.72627 12.548 8.10815 12.988 8.18065 13.0512C8.14752 13.3199 8.12877 15.0249 8.12877 15.0249C8.39002 18.3737 9.94627 21.0937 12.2544 22.2818C13.125 22.7612 14.2706 23.0737 15.3213 23.0399C16.0644 23.0162 16.7681 22.9287 17.3944 22.7137C20.2638 21.7855 22.2225 18.838 22.5094 14.9524C22.5094 14.9524 22.4888 13.323 22.4544 13.0605C22.4975 13.0224 22.8544 12.6874 22.9169 12.5018C22.9169 12.5018 23.4206 10.9974 23.7706 9.80865C24.1888 8.5599 23.6706 7.16678 22.4288 6.44365C21.1119 5.87928 18.8113 5.16678 15.3288 5.20615C11.0938 5.25365 8.14815 6.43928 8.10252 6.46615C6.95627 7.1549 6.44502 8.52428 6.8594 9.7949L7.6944 12.3599ZM20.6338 14.8824C20.4556 17.2643 19.3713 20.1387 16.8006 20.9312C14.6019 21.6087 13.3625 20.7505 13.1513 20.6305C11.4156 19.7368 10.2094 17.533 10.005 14.9518V13.9855C10.3081 14.0549 10.6175 14.0993 10.9313 14.0993H19.7063C20.0225 14.0993 20.33 14.0549 20.6319 13.9868L20.6338 14.8824ZM9.01377 8.11303C10.7875 7.43115 12.9113 7.08553 15.3288 7.08553C18.4925 7.08553 20.5331 7.67553 21.5813 8.11678C21.9569 8.33803 22.1281 8.79803 21.9794 9.24428C21.7138 10.143 21.3681 11.1999 21.215 11.6649C20.7975 12.0205 20.2563 12.2212 19.7063 12.2212H10.9313C10.5156 12.2212 9.5419 11.7643 9.45377 11.6912L8.64752 9.21365C8.51252 8.80053 8.66315 8.35803 9.01377 8.11303Z" fill="white"/>
<path d="M38.5331 21.6256C38.7881 21.8806 39.1231 22.0088 39.4588 22.0088C39.7944 22.0088 40.1294 21.8806 40.385 21.6256L46.735 15.2763C47.1019 14.9094 47.1019 14.315 46.735 13.9475C46.3681 13.5806 45.7738 13.5806 45.4063 13.9475L39.4588 19.8938L37.4788 17.9138C37.1119 17.5469 36.5175 17.5469 36.15 17.9138C35.7831 18.2806 35.7831 18.875 36.15 19.2425L38.5331 21.6256Z" fill="#FF3600"/>
</svg>
