<svg width="50" height="50" viewBox="0 0 50 50" fill="none" xmlns="http://www.w3.org/2000/svg">
<g clip-path="url(#clip0_191_1444)">
<path d="M31.25 46.0938H45.3125C45.5197 46.0938 45.7184 46.0114 45.8649 45.8649C46.0114 45.7184 46.0938 45.5197 46.0938 45.3125V26.5625C46.0938 26.3553 46.0114 26.1566 45.8649 26.0101C45.7184 25.8636 45.5197 25.7812 45.3125 25.7812H31.25C31.0428 25.7812 30.8441 25.8636 30.6976 26.0101C30.5511 26.1566 30.4688 26.3553 30.4688 26.5625V45.3125C30.4688 45.5197 30.5511 45.7184 30.6976 45.8649C30.8441 46.0114 31.0428 46.0938 31.25 46.0938ZM32.0313 41.4062H35.1563V44.5312H32.0313V41.4062ZM44.5313 32.0312V35.1562H41.4063V32.0312H44.5313ZM39.8438 35.1562H36.7188V32.0312H39.8438V35.1562ZM39.8438 44.5312H36.7188V41.4062H39.8438V44.5312ZM39.8438 39.8438H36.7188V36.7188H39.8438V39.8438ZM35.1563 35.1562H32.0313V32.0312H35.1563V35.1562ZM35.1563 36.7188V39.8438H32.0313V36.7188H35.1563ZM41.4063 44.5312V36.7188H44.5313V44.5312H41.4063ZM44.5313 27.3438V30.4688H32.0313V27.3438H44.5313Z" fill="white"/>
<path d="M48.4375 22.6569H40.1789L37.6562 17.4007C37.3372 16.7424 36.8634 16.1712 36.2756 15.7359C35.6877 15.3005 35.0032 15.014 34.2805 14.9007C35.612 13.9333 36.604 12.5702 37.115 11.0057C37.626 9.44128 37.6299 7.75539 37.1261 6.18859C36.6223 4.62179 35.6365 3.25411 34.3095 2.28066C32.9824 1.30721 31.3818 0.777719 29.7361 0.767722C28.0903 0.757725 26.4834 1.26773 25.1446 2.22499C23.8058 3.18224 22.8035 4.53785 22.2807 6.09841C21.7579 7.65898 21.7413 9.34479 22.2333 10.9153C22.7253 12.4859 23.7006 13.861 25.0203 14.8444H21.0938C21.0949 13.4927 20.7454 12.1638 20.0792 10.9876C19.4131 9.81138 18.4532 8.82814 17.2933 8.13397C16.1334 7.4398 14.8133 7.05845 13.4619 7.0272C12.1105 6.99595 10.7741 7.31586 9.58341 7.95567C8.39268 8.59548 7.38833 9.53329 6.66853 10.6774C5.94872 11.8216 5.5381 13.1329 5.47679 14.4833C5.41548 15.8336 5.70559 17.1768 6.31875 18.3814C6.93191 19.5861 7.84715 20.6111 8.975 21.3561L7.31016 24.4811C6.98239 24.3114 6.61909 24.2217 6.25 24.2194H3.125C2.5034 24.2194 1.90726 24.4664 1.46772 24.9059C1.02818 25.3454 0.78125 25.9416 0.78125 26.5632C0.78125 27.1848 1.02818 27.7809 1.46772 28.2205C1.90726 28.66 2.5034 28.9069 3.125 28.9069H3.98438C2.92804 30.0802 2.34358 31.6032 2.34375 33.1819V39.0632C2.34965 40.4894 2.90997 41.8574 3.90625 42.878V46.0944C3.90625 46.9232 4.23549 47.7181 4.82154 48.3041C5.40759 48.8902 6.20245 49.2194 7.03125 49.2194H10.1562C10.9851 49.2194 11.7799 48.8902 12.366 48.3041C12.952 47.7181 13.2812 46.9232 13.2812 46.0944V44.5319H27.3438V48.4382C27.3438 48.6454 27.4261 48.8441 27.5726 48.9906C27.7191 49.1371 27.9178 49.2194 28.125 49.2194H48.4375C48.6447 49.2194 48.8434 49.1371 48.9899 48.9906C49.1364 48.8441 49.2188 48.6454 49.2188 48.4382V23.4382C49.2188 23.231 49.1364 23.0323 48.9899 22.8858C48.8434 22.7392 48.6447 22.6569 48.4375 22.6569ZM23.4375 8.59443C23.4375 7.3583 23.8041 6.14992 24.4908 5.12212C25.1776 4.09431 26.1537 3.29323 27.2957 2.82018C28.4378 2.34714 29.6944 2.22337 30.9068 2.46452C32.1192 2.70568 33.2328 3.30094 34.1069 4.17501C34.981 5.04909 35.5763 6.16274 35.8174 7.37512C36.0586 8.5875 35.9348 9.84416 35.4617 10.9862C34.9887 12.1282 34.1876 13.1044 33.1598 13.7911C32.132 14.4779 30.9236 14.8444 29.6875 14.8444C28.0305 14.8426 26.4418 14.1835 25.2701 13.0118C24.0984 11.8401 23.4394 10.2515 23.4375 8.59443ZM33.5938 16.4069C34.1485 16.4082 34.6917 16.5654 35.1614 16.8606C35.6311 17.1558 36.0083 17.5771 36.25 18.0765L38.4461 22.6569H36.068L34.3148 18.4499C34.2555 18.3076 34.1553 18.186 34.027 18.1005C33.8987 18.015 33.7479 17.9694 33.5938 17.9694H20.4367C20.658 17.4678 20.8254 16.944 20.9359 16.4069H33.5938ZM17.1164 28.1257L23.0656 19.5319H25.0711L19.1219 28.1257H17.1164ZM12.6844 25.5976L14.1828 22.6007C15.2334 22.4774 16.248 22.1417 17.1648 21.6142C18.0817 21.0867 18.8818 20.3782 19.5164 19.5319H21.1648L15.2156 28.1257H14.2469C13.9491 28.1257 13.6563 28.0496 13.3962 27.9046C13.1361 27.7596 12.9174 27.5505 12.7608 27.2972C12.6043 27.0439 12.5151 26.7548 12.5017 26.4573C12.4883 26.1598 12.5512 25.8639 12.6844 25.5976ZM7.03125 14.8444C7.03125 13.6083 7.39781 12.3999 8.08456 11.3721C8.77132 10.3443 9.74744 9.54323 10.8895 9.07018C12.0315 8.59714 13.2882 8.47337 14.5006 8.71452C15.7129 8.95568 16.8266 9.55093 17.7007 10.425C18.5747 11.2991 19.17 12.4127 19.4112 13.6251C19.6523 14.8375 19.5285 16.0942 19.0555 17.2362C18.5825 18.3782 17.7814 19.3544 16.7536 20.0411C15.7258 20.7279 14.5174 21.0944 13.2812 21.0944C11.6242 21.0926 10.0356 20.4335 8.86389 19.2618C7.69219 18.0901 7.03311 16.5015 7.03125 14.8444ZM2.34375 26.5632C2.34375 26.356 2.42606 26.1573 2.57257 26.0108C2.71909 25.8642 2.9178 25.7819 3.125 25.7819H6.25C6.36246 25.7842 6.47308 25.8108 6.57422 25.8601L5.78125 27.3444H3.125C2.9178 27.3444 2.71909 27.2621 2.57257 27.1156C2.42606 26.9691 2.34375 26.7704 2.34375 26.5632ZM11.7188 46.0944C11.7188 46.5088 11.5541 46.9063 11.2611 47.1993C10.9681 47.4923 10.5707 47.6569 10.1562 47.6569H7.03125C6.61685 47.6569 6.21942 47.4923 5.9264 47.1993C5.63337 46.9063 5.46875 46.5088 5.46875 46.0944V43.989C6.19998 44.3422 7.00043 44.529 7.8125 44.5358H11.7188V46.0944ZM7.8125 42.9694C6.7765 42.9694 5.78293 42.5579 5.05036 41.8253C4.3178 41.0928 3.90625 40.0992 3.90625 39.0632V33.1819C3.90381 32.2772 4.15478 31.39 4.63074 30.6206C5.10669 29.8512 5.7886 29.2305 6.59922 28.8288C6.74413 28.756 6.86307 28.6404 6.93984 28.4976L10.3586 22.0913C11.0221 22.3613 11.7199 22.5377 12.432 22.6155L11.2867 24.8991C11.0345 25.4037 10.9155 25.9643 10.9409 26.5278C10.9662 27.0913 11.1353 27.639 11.4318 28.1188C11.7284 28.5986 12.1427 28.9947 12.6354 29.2693C13.1281 29.544 13.6828 29.6882 14.2469 29.6882H27.3438V32.8132H14.8438C14.72 32.8133 14.5981 32.8428 14.488 32.8992C14.3779 32.9556 14.2828 33.0374 14.2104 33.1378C14.1381 33.2382 14.0907 33.3543 14.072 33.4766C14.0534 33.5989 14.064 33.7239 14.1031 33.8413L15.6656 38.5288C15.7174 38.6843 15.8168 38.8196 15.9497 38.9155C16.0826 39.0114 16.2423 39.0631 16.4062 39.0632H27.3438V42.9694H7.8125ZM27.3438 34.3757V37.5007H16.9695L15.9281 34.3757H27.3438ZM27.3438 23.4382V28.1257H21.0227L26.9719 19.5319H33.0727L34.375 22.6569H28.125C27.9178 22.6569 27.7191 22.7392 27.5726 22.8858C27.4261 23.0323 27.3438 23.231 27.3438 23.4382ZM47.6562 47.6569H28.9062V24.2194H47.6562V47.6569Z" fill="white"/>
<path d="M9.375 32.8125C8.75694 32.8125 8.15275 32.9958 7.63885 33.3392C7.12494 33.6825 6.7244 34.1706 6.48788 34.7416C6.25135 35.3126 6.18947 35.941 6.31005 36.5472C6.43063 37.1533 6.72825 37.7102 7.16529 38.1472C7.60233 38.5842 8.15915 38.8819 8.76534 39.0025C9.37154 39.123 9.99987 39.0611 10.5709 38.8246C11.1419 38.5881 11.63 38.1876 11.9733 37.6737C12.3167 37.1598 12.5 36.5556 12.5 35.9375C12.5 35.1087 12.1708 34.3138 11.5847 33.7278C10.9987 33.1417 10.2038 32.8125 9.375 32.8125ZM9.375 37.5C9.06597 37.5 8.76388 37.4084 8.50692 37.2367C8.24997 37.065 8.0497 36.821 7.93144 36.5354C7.81318 36.2499 7.78224 35.9358 7.84252 35.6327C7.90281 35.3296 8.05163 35.0512 8.27015 34.8326C8.48867 34.6141 8.76708 34.4653 9.07017 34.405C9.37327 34.3447 9.68744 34.3757 9.97294 34.4939C10.2585 34.6122 10.5025 34.8125 10.6742 35.0694C10.8459 35.3264 10.9375 35.6285 10.9375 35.9375C10.9375 36.3519 10.7729 36.7493 10.4799 37.0424C10.1868 37.3354 9.7894 37.5 9.375 37.5Z" fill="white"/>
<path d="M29.6875 6.25C29.8947 6.25 30.0934 6.33231 30.2399 6.47882C30.3864 6.62534 30.4688 6.82405 30.4688 7.03125H32.0312C32.0292 6.54823 31.8781 6.07763 31.5984 5.68383C31.3187 5.29002 30.9241 4.99225 30.4688 4.83125V3.90625H28.9062V4.83125C28.3854 5.0147 27.9463 5.37657 27.6667 5.85276C27.3871 6.32895 27.285 6.88873 27.3786 7.43295C27.4722 7.97717 27.7553 8.47072 28.1779 8.82617C28.6005 9.18163 29.1353 9.37605 29.6875 9.375C29.842 9.375 29.9931 9.42082 30.1215 9.50666C30.25 9.59251 30.3501 9.71452 30.4093 9.85728C30.4684 10 30.4839 10.1571 30.4537 10.3087C30.4236 10.4602 30.3492 10.5994 30.2399 10.7087C30.1307 10.8179 29.9915 10.8923 29.8399 10.9225C29.6884 10.9526 29.5313 10.9372 29.3885 10.878C29.2458 10.8189 29.1238 10.7188 29.0379 10.5903C28.9521 10.4618 28.9062 10.3108 28.9062 10.1562H27.3438C27.3458 10.6393 27.4969 11.1099 27.7766 11.5037C28.0563 11.8975 28.4509 12.1952 28.9062 12.3562V13.2812H30.4688V12.3562C30.9896 12.1728 31.4287 11.8109 31.7083 11.3347C31.9879 10.8586 32.09 10.2988 31.9964 9.75455C31.9028 9.21033 31.6197 8.71678 31.1971 8.36133C30.7745 8.00587 30.2397 7.81145 29.6875 7.8125C29.4803 7.8125 29.2816 7.73019 29.1351 7.58368C28.9886 7.43716 28.9062 7.23845 28.9062 7.03125C28.9062 6.82405 28.9886 6.62534 29.1351 6.47882C29.2816 6.33231 29.4803 6.25 29.6875 6.25Z" fill="#FF3600"/>
<path d="M14.0625 19.5312V18.6062C14.5833 18.4228 15.0225 18.0609 15.3021 17.5847C15.5817 17.1086 15.6837 16.5488 15.5901 16.0045C15.4966 15.4603 15.2134 14.9668 14.7908 14.6113C14.3682 14.2559 13.8335 14.0615 13.2812 14.0625C13.1267 14.0625 12.9757 14.0167 12.8472 13.9308C12.7187 13.845 12.6186 13.723 12.5595 13.5802C12.5003 13.4375 12.4849 13.2804 12.515 13.1288C12.5452 12.9773 12.6196 12.8381 12.7288 12.7288C12.8381 12.6196 12.9773 12.5452 13.1288 12.515C13.2804 12.4849 13.4375 12.5003 13.5802 12.5595C13.723 12.6186 13.845 12.7187 13.9308 12.8472C14.0167 12.9757 14.0625 13.1267 14.0625 13.2812H15.625C15.623 12.7982 15.4718 12.3276 15.1921 11.9338C14.9124 11.54 14.5179 11.2423 14.0625 11.0813V10.1562H12.5V11.0813C11.9792 11.2647 11.54 11.6266 11.2604 12.1028C10.9808 12.5789 10.8788 13.1387 10.9724 13.683C11.0659 14.2272 11.3491 14.7207 11.7717 15.0762C12.1943 15.4316 12.729 15.626 13.2812 15.625C13.4358 15.625 13.5868 15.6708 13.7153 15.7567C13.8438 15.8425 13.9439 15.9645 14.003 16.1073C14.0622 16.25 14.0776 16.4071 14.0475 16.5587C14.0173 16.7102 13.9429 16.8494 13.8337 16.9587C13.7244 17.0679 13.5852 17.1423 13.4337 17.1725C13.2821 17.2026 13.125 17.1872 12.9823 17.128C12.8395 17.0689 12.7175 16.9688 12.6317 16.8403C12.5458 16.7118 12.5 16.5608 12.5 16.4062H10.9375C10.9395 16.8893 11.0907 17.3599 11.3704 17.7537C11.6501 18.1475 12.0446 18.4452 12.5 18.6062V19.5312H14.0625Z" fill="#FF3600"/>
</g>
<defs>
<clipPath id="clip0_191_1444">
<rect width="50" height="50" fill="white"/>
</clipPath>
</defs>
</svg>
