<svg width="60" height="60" viewBox="0 0 60 60" fill="none" xmlns="http://www.w3.org/2000/svg">
<g clip-path="url(#clip0_19_128)">
<path d="M37.5 55.3125H54.375C54.6236 55.3125 54.8621 55.2137 55.0379 55.0379C55.2137 54.8621 55.3125 54.6236 55.3125 54.375V31.875C55.3125 31.6264 55.2137 31.3879 55.0379 31.2121C54.8621 31.0363 54.6236 30.9375 54.375 30.9375H37.5C37.2514 30.9375 37.0129 31.0363 36.8371 31.2121C36.6613 31.3879 36.5625 31.6264 36.5625 31.875V54.375C36.5625 54.6236 36.6613 54.8621 36.8371 55.0379C37.0129 55.2137 37.2514 55.3125 37.5 55.3125ZM38.4375 49.6875H42.1875V53.4375H38.4375V49.6875ZM53.4375 38.4375V42.1875H49.6875V38.4375H53.4375ZM47.8125 42.1875H44.0625V38.4375H47.8125V42.1875ZM47.8125 53.4375H44.0625V49.6875H47.8125V53.4375ZM47.8125 47.8125H44.0625V44.0625H47.8125V47.8125ZM42.1875 42.1875H38.4375V38.4375H42.1875V42.1875ZM42.1875 44.0625V47.8125H38.4375V44.0625H42.1875ZM49.6875 53.4375V44.0625H53.4375V53.4375H49.6875ZM53.4375 32.8125V36.5625H38.4375V32.8125H53.4375Z" fill="white"/>
<path d="M58.125 27.1874H48.2147L45.1875 20.8799C44.8046 20.09 44.2361 19.4045 43.5307 18.8821C42.8252 18.3597 42.0038 18.0158 41.1366 17.8799C42.7344 16.7191 43.9248 15.0833 44.538 13.206C45.1512 11.3286 45.1559 9.30554 44.5513 7.42538C43.9467 5.54522 42.7639 3.904 41.1714 2.73586C39.5789 1.56772 37.6582 0.932336 35.6833 0.920339C33.7084 0.908343 31.7801 1.52035 30.1735 2.66906C28.567 3.81776 27.3643 5.44449 26.7369 7.31717C26.1095 9.18984 26.0896 11.2128 26.68 13.0975C27.2703 14.9822 28.4408 16.6323 30.0244 17.8124H25.3125C25.3139 16.1903 24.8944 14.5956 24.0951 13.1842C23.2957 11.7727 22.1438 10.5928 20.7519 9.75984C19.3601 8.92683 17.7759 8.46921 16.1543 8.43171C14.5326 8.39421 12.929 8.77811 11.5001 9.54588C10.0712 10.3136 8.86599 11.439 8.00223 12.812C7.13847 14.185 6.64572 15.7586 6.57215 17.379C6.49858 18.9994 6.84671 20.6112 7.5825 22.0568C8.31829 23.5024 9.41658 24.7324 10.77 25.6264L8.77219 29.3764C8.37887 29.1728 7.94291 29.0652 7.5 29.0624H3.75C3.00408 29.0624 2.28871 29.3587 1.76126 29.8861C1.23382 30.4136 0.9375 31.129 0.9375 31.8749C0.9375 32.6208 1.23382 33.3362 1.76126 33.8636C2.28871 34.3911 3.00408 34.6874 3.75 34.6874H4.78125C3.51364 36.0954 2.8123 37.9229 2.8125 39.8174V46.8749C2.81958 48.5864 3.49197 50.228 4.6875 51.4527V55.3124C4.6875 56.3069 5.08259 57.2608 5.78585 57.964C6.48911 58.6673 7.44294 59.0624 8.4375 59.0624H12.1875C13.1821 59.0624 14.1359 58.6673 14.8392 57.964C15.5424 57.2608 15.9375 56.3069 15.9375 55.3124V53.4374H32.8125V58.1249C32.8125 58.3735 32.9113 58.612 33.0871 58.7878C33.2629 58.9636 33.5014 59.0624 33.75 59.0624H58.125C58.3736 59.0624 58.6121 58.9636 58.7879 58.7878C58.9637 58.612 59.0625 58.3735 59.0625 58.1249V28.1249C59.0625 27.8762 58.9637 27.6378 58.7879 27.462C58.6121 27.2862 58.3736 27.1874 58.125 27.1874ZM28.125 10.3124C28.125 8.82903 28.5649 7.37898 29.389 6.14561C30.2131 4.91224 31.3844 3.95095 32.7549 3.38329C34.1253 2.81564 35.6333 2.66711 37.0882 2.9565C38.543 3.24589 39.8794 3.9602 40.9283 5.00909C41.9772 6.05798 42.6915 7.39436 42.9809 8.84921C43.2703 10.3041 43.1218 11.8121 42.5541 13.1825C41.9864 14.553 41.0251 15.7243 39.7918 16.5484C38.5584 17.3725 37.1084 17.8124 35.625 17.8124C33.6366 17.8102 31.7302 17.0193 30.3242 15.6132C28.9181 14.2072 28.1272 12.3008 28.125 10.3124ZM40.3125 19.6874C40.9782 19.6889 41.6301 19.8776 42.1937 20.2318C42.7573 20.5861 43.21 21.0916 43.5 21.6908L46.1353 27.1874H43.2816L41.1778 22.139C41.1066 21.9682 40.9864 21.8223 40.8324 21.7197C40.6784 21.6171 40.4975 21.5624 40.3125 21.5624H24.5241C24.7896 20.9604 24.9905 20.3319 25.1231 19.6874H40.3125ZM20.5397 33.7499L27.6788 23.4374H30.0853L22.9462 33.7499H20.5397ZM15.2213 30.7161L17.0194 27.1199C18.2801 26.9719 19.4976 26.5691 20.5978 25.9361C21.6981 25.3031 22.6581 24.4529 23.4197 23.4374H25.3978L18.2587 33.7499H17.0963C16.7389 33.7499 16.3875 33.6586 16.0754 33.4846C15.7633 33.3106 15.5009 33.0597 15.313 32.7557C15.1252 32.4518 15.0181 32.1048 15.002 31.7479C14.986 31.3909 15.0614 31.0357 15.2213 30.7161ZM8.4375 17.8124C8.4375 16.329 8.87737 14.879 9.70148 13.6456C10.5256 12.4122 11.6969 11.451 13.0674 10.8833C14.4378 10.3156 15.9458 10.1671 17.4007 10.4565C18.8555 10.7459 20.1919 11.4602 21.2408 12.5091C22.2897 13.558 23.004 14.8944 23.2934 16.3492C23.5828 17.8041 23.4343 19.3121 22.8666 20.6825C22.2989 22.053 21.3376 23.2243 20.1043 24.0484C18.8709 24.8725 17.4209 25.3124 15.9375 25.3124C13.9491 25.3102 12.0427 24.5193 10.6367 23.1132C9.23063 21.7072 8.43973 19.8008 8.4375 17.8124ZM2.8125 31.8749C2.8125 31.6262 2.91127 31.3878 3.08709 31.212C3.2629 31.0362 3.50136 30.9374 3.75 30.9374H7.5C7.63495 30.9401 7.76769 30.9721 7.88906 31.0311L6.9375 32.8124H3.75C3.50136 32.8124 3.2629 32.7136 3.08709 32.5378C2.91127 32.362 2.8125 32.1235 2.8125 31.8749ZM14.0625 55.3124C14.0625 55.8097 13.865 56.2866 13.5133 56.6382C13.1617 56.9898 12.6848 57.1874 12.1875 57.1874H8.4375C7.94022 57.1874 7.46331 56.9898 7.11167 56.6382C6.76004 56.2866 6.5625 55.8097 6.5625 55.3124V52.7858C7.43997 53.2098 8.40052 53.4339 9.375 53.4421H14.0625V55.3124ZM9.375 51.5624C8.1318 51.5624 6.93951 51.0685 6.06044 50.1894C5.18136 49.3104 4.6875 48.1181 4.6875 46.8749V39.8174C4.68457 38.7318 4.98574 37.667 5.55689 36.7438C6.12803 35.8205 6.94633 35.0757 7.91906 34.5936C8.09295 34.5063 8.23569 34.3675 8.32781 34.1961L12.4303 26.5086C13.2265 26.8326 14.0639 27.0444 14.9184 27.1377L13.5441 29.878C13.2414 30.4835 13.0985 31.1562 13.129 31.8325C13.1595 32.5087 13.3623 33.1658 13.7182 33.7416C14.0741 34.3174 14.5713 34.7927 15.1625 35.1223C15.7537 35.4519 16.4194 35.6249 17.0963 35.6249H32.8125V39.3749H17.8125C17.664 39.375 17.5177 39.4104 17.3856 39.4781C17.2535 39.5458 17.1393 39.644 17.0525 39.7644C16.9657 39.8849 16.9088 40.0242 16.8864 40.171C16.864 40.3178 16.8768 40.4678 16.9237 40.6086L18.7987 46.2336C18.8609 46.4202 18.9802 46.5826 19.1397 46.6977C19.2992 46.8127 19.4908 46.8747 19.6875 46.8749H32.8125V51.5624H9.375ZM32.8125 41.2499V44.9999H20.3634L19.1138 41.2499H32.8125ZM32.8125 28.1249V33.7499H25.2272L32.3662 23.4374H39.6872L41.25 27.1874H33.75C33.5014 27.1874 33.2629 27.2862 33.0871 27.462C32.9113 27.6378 32.8125 27.8762 32.8125 28.1249ZM57.1875 57.1874H34.6875V29.0624H57.1875V57.1874Z" fill="white"/>
<path d="M11.25 39.375C10.5083 39.375 9.7833 39.5949 9.16661 40.007C8.54993 40.419 8.06928 41.0047 7.78545 41.6899C7.50162 42.3752 7.42736 43.1292 7.57206 43.8566C7.71675 44.584 8.0739 45.2522 8.59835 45.7766C9.1228 46.3011 9.79098 46.6583 10.5184 46.8029C11.2458 46.9476 11.9998 46.8734 12.6851 46.5895C13.3703 46.3057 13.956 45.8251 14.368 45.2084C14.7801 44.5917 15 43.8667 15 43.125C15 42.1304 14.6049 41.1766 13.9017 40.4734C13.1984 39.7701 12.2446 39.375 11.25 39.375ZM11.25 45C10.8792 45 10.5167 44.89 10.2083 44.684C9.89997 44.478 9.65964 44.1851 9.51773 43.8425C9.37581 43.4999 9.33868 43.1229 9.41103 42.7592C9.48338 42.3955 9.66195 42.0614 9.92418 41.7992C10.1864 41.537 10.5205 41.3584 10.8842 41.286C11.2479 41.2137 11.6249 41.2508 11.9675 41.3927C12.3101 41.5346 12.603 41.775 12.809 42.0833C13.015 42.3916 13.125 42.7542 13.125 43.125C13.125 43.6223 12.9275 44.0992 12.5758 44.4508C12.2242 44.8025 11.7473 45 11.25 45Z" fill="white"/>
<path d="M35.625 7.5C35.8736 7.5 36.1121 7.59877 36.2879 7.77459C36.4637 7.9504 36.5625 8.18886 36.5625 8.4375H38.4375C38.4351 7.85788 38.2537 7.29316 37.918 6.82059C37.5824 6.34803 37.109 5.9907 36.5625 5.7975V4.6875H34.6875V5.7975C34.0625 6.01764 33.5356 6.45189 33.2 7.02331C32.8645 7.59474 32.742 8.26647 32.8543 8.91954C32.9666 9.57261 33.3064 10.1649 33.8135 10.5914C34.3206 11.018 34.9624 11.2513 35.625 11.25C35.8104 11.25 35.9917 11.305 36.1458 11.408C36.3 11.511 36.4202 11.6574 36.4911 11.8287C36.5621 12 36.5807 12.1885 36.5445 12.3704C36.5083 12.5523 36.419 12.7193 36.2879 12.8504C36.1568 12.9815 35.9898 13.0708 35.8079 13.107C35.626 13.1432 35.4375 13.1246 35.2662 13.0536C35.0949 12.9827 34.9485 12.8625 34.8455 12.7083C34.7425 12.5542 34.6875 12.3729 34.6875 12.1875H32.8125C32.8149 12.7671 32.9963 13.3318 33.332 13.8044C33.6676 14.277 34.141 14.6343 34.6875 14.8275V15.9375H36.5625V14.8275C37.1875 14.6074 37.7144 14.1731 38.05 13.6017C38.3855 13.0303 38.508 12.3585 38.3957 11.7055C38.2834 11.0524 37.9436 10.4601 37.4365 10.0336C36.9294 9.60705 36.2876 9.37374 35.625 9.375C35.3764 9.375 35.1379 9.27623 34.9621 9.10041C34.7863 8.9246 34.6875 8.68614 34.6875 8.4375C34.6875 8.18886 34.7863 7.9504 34.9621 7.77459C35.1379 7.59877 35.3764 7.5 35.625 7.5Z" fill="#FF3600"/>
<path d="M16.875 23.4375V22.3275C17.5 22.1074 18.0269 21.6731 18.3625 21.1017C18.698 20.5303 18.8205 19.8585 18.7082 19.2055C18.5959 18.5524 18.2561 17.9601 17.749 17.5336C17.2419 17.107 16.6001 16.8737 15.9375 16.875C15.7521 16.875 15.5708 16.82 15.4167 16.717C15.2625 16.614 15.1423 16.4676 15.0714 16.2963C15.0004 16.125 14.9818 15.9365 15.018 15.7546C15.0542 15.5727 15.1435 15.4057 15.2746 15.2746C15.4057 15.1435 15.5727 15.0542 15.7546 15.018C15.9365 14.9818 16.125 15.0004 16.2963 15.0714C16.4676 15.1423 16.614 15.2625 16.717 15.4167C16.82 15.5708 16.875 15.7521 16.875 15.9375H18.75C18.7476 15.3579 18.5662 14.7932 18.2305 14.3206C17.8949 13.848 17.4215 13.4907 16.875 13.2975V12.1875H15V13.2975C14.375 13.5176 13.8481 13.9519 13.5125 14.5233C13.177 15.0947 13.0545 15.7665 13.1668 16.4195C13.2791 17.0726 13.6189 17.6649 14.126 18.0914C14.6331 18.518 15.2749 18.7513 15.9375 18.75C16.1229 18.75 16.3042 18.805 16.4583 18.908C16.6125 19.011 16.7327 19.1574 16.8036 19.3287C16.8746 19.5 16.8932 19.6885 16.857 19.8704C16.8208 20.0523 16.7315 20.2193 16.6004 20.3504C16.4693 20.4815 16.3023 20.5708 16.1204 20.607C15.9385 20.6432 15.75 20.6246 15.5787 20.5536C15.4074 20.4827 15.261 20.3625 15.158 20.2083C15.055 20.0542 15 19.8729 15 19.6875H13.125C13.1274 20.2671 13.3088 20.8318 13.6445 21.3044C13.9801 21.777 14.4535 22.1343 15 22.3275V23.4375H16.875Z" fill="#FF3600"/>
</g>
<defs>
<clipPath id="clip0_19_128">
<rect width="60" height="60" fill="white"/>
</clipPath>
</defs>
</svg>
