<svg width="35" height="35" viewBox="0 0 35 35" fill="none" xmlns="http://www.w3.org/2000/svg">
<path d="M4.89602 24.6728H5.49867L5.67477 31.2517C5.6919 31.7176 6.0707 32.0826 6.53737 32.0826H11.0772C11.5431 32.0826 11.9219 31.7176 11.9394 31.2455L12.0342 27.5989H13.1075C13.4805 28.7492 14.5495 29.5884 15.8218 29.5884C17.4023 29.5884 18.6878 28.3029 18.6878 26.7225C18.6878 25.142 17.4027 23.8565 15.8218 23.8565C14.3168 23.8565 13.0929 25.0264 12.9785 26.5026H12.0626L12.11 24.6724H12.9974C14.0051 24.6724 14.8251 23.8525 14.8251 22.8447V21.844H23.4624C23.8234 21.844 24.1526 21.662 24.3425 21.3572C24.5339 21.0506 24.5525 20.6729 24.3907 20.3408L23.6644 18.8967C23.4927 18.5372 23.1354 18.3144 22.7314 18.3144H14.8247V17.3443H21.3646C22.1897 17.6797 23.0865 17.8704 24.0261 17.8886L25.3236 20.464C25.5646 20.9566 26.0098 21.3153 26.545 21.4491L30.2517 22.3773C30.5955 22.4623 30.8358 22.7696 30.8358 23.124V25.7399C30.8358 26.1632 30.4883 26.507 30.0614 26.507H29.2615C29.1496 25.0282 27.9242 23.8557 26.417 23.8557C24.912 23.8557 23.6881 25.0257 23.5736 26.5019H19.7295C19.4269 26.5019 19.1815 26.7472 19.1815 27.0498C19.1815 27.3525 19.4269 27.5978 19.7295 27.5978H23.703C24.076 28.7481 25.145 29.5873 26.4174 29.5873C27.6883 29.5873 28.7558 28.7506 29.1302 27.6033H30.0617C31.0928 27.6033 31.9321 26.7673 31.9321 25.7399V23.124C31.9321 22.2636 31.3491 21.5191 30.5164 21.3135L26.8115 20.3856C26.5902 20.3302 26.4068 20.1833 26.3062 19.9773L25.2208 17.8139C28.8561 17.3023 31.6648 14.1797 31.6648 10.4055C31.6648 6.27553 28.3048 2.91553 24.1748 2.91553C20.0448 2.91553 16.6848 6.27553 16.6848 10.4055C16.6848 12.7673 17.7862 14.8735 19.4994 16.2472H14.696C14.33 14.953 13.1513 13.9967 11.7418 13.9967H6.21945C4.48185 13.9967 3.06836 15.4102 3.06836 17.1474V22.8437C3.06799 23.8528 3.88794 24.6728 4.89602 24.6728ZM15.8215 24.9531C16.7978 24.9531 17.5912 25.7472 17.5912 26.7228C17.5912 27.6988 16.7975 28.4925 15.8215 28.4925C14.8459 28.4925 14.0518 27.6988 14.0518 26.7228C14.0518 25.7468 14.8462 24.9531 15.8215 24.9531ZM26.417 28.4925C25.4414 28.4925 24.6473 27.6988 24.6473 26.7228C24.6473 25.7468 25.4414 24.9531 26.417 24.9531C27.3934 24.9531 28.1867 25.7472 28.1867 26.7228C28.1871 27.6984 27.3934 28.4925 26.417 28.4925ZM17.7808 10.407C17.7808 6.88146 20.6489 4.01329 24.1745 4.01329C27.7 4.01329 30.5682 6.88146 30.5682 10.407C30.5682 13.9325 27.7 16.8007 24.1745 16.8007C20.6489 16.8007 17.7808 13.9325 17.7808 10.407ZM22.68 19.3797L23.368 20.7484H14.8247V19.4089L22.68 19.3797ZM4.1643 17.1489C4.1643 16.0157 5.08633 15.0941 6.21945 15.0941H11.7418C12.8374 15.0941 13.7288 15.9858 13.7288 17.0814V22.8451C13.7288 23.2483 13.4007 23.5765 12.9974 23.5765H12.1162V19.3407C12.1162 19.0381 11.8712 18.7928 11.5683 18.7928C11.2657 18.7928 11.0203 19.0381 11.0203 19.3407L10.8508 30.9866H9.35596V25.1927C9.35596 24.8901 9.1106 24.6447 8.808 24.6447C8.50503 24.6447 8.26003 24.8901 8.26003 25.1927V30.9866H6.76487L6.59497 19.3407C6.59497 19.0381 6.34997 18.7928 6.04701 18.7928C5.7444 18.7928 5.49904 19.0381 5.49904 19.3407V23.5768H4.89638C4.49279 23.5768 4.16466 23.2487 4.16466 22.8455V17.1489H4.1643Z" fill="black"/>
<path d="M4.4884 7.21006C4.507 7.3198 4.72976 7.57647 4.77205 7.61329C4.75272 7.77006 4.74179 8.76465 4.74179 8.76465C4.89418 10.7181 5.802 12.3048 7.1484 12.9978C7.65627 13.2775 8.32455 13.4598 8.93741 13.4401C9.3709 13.4262 9.78142 13.3752 10.1467 13.2498C11.8205 12.7083 12.9631 10.989 13.1305 8.72236C13.1305 8.72236 13.1185 7.77189 13.0984 7.61876C13.1236 7.59652 13.3317 7.40111 13.3682 7.29283C13.3682 7.29283 13.662 6.41527 13.8662 5.72184C14.1101 4.9934 13.8079 4.18074 13.0835 3.75892C12.3153 3.4297 10.9732 3.01408 8.94179 3.03704C6.47137 3.06475 4.75309 3.75637 4.72647 3.77204C4.05783 4.17382 3.7596 4.97262 4.00132 5.71382L4.4884 7.21006ZM12.0364 8.68152C11.9325 10.071 11.2999 11.7477 9.80038 12.21C8.51778 12.6052 7.79481 12.1046 7.67158 12.0346C6.65913 11.5132 5.95548 10.2277 5.83627 8.72199V8.15835C6.01309 8.19882 6.19356 8.2247 6.37658 8.2247H11.4953C11.6798 8.2247 11.8592 8.19881 12.0353 8.15908L12.0364 8.68152ZM5.25804 4.73272C6.29272 4.33496 7.53158 4.13335 8.94179 4.13335C10.7873 4.13335 11.9777 4.47751 12.5891 4.73491C12.8082 4.86397 12.9081 5.13231 12.8213 5.39262C12.6664 5.91689 12.4648 6.5334 12.3754 6.80465C12.1319 7.0121 11.8162 7.12913 11.4953 7.12913H6.37658C6.13413 7.12913 5.56611 6.86262 5.5147 6.81996L5.04439 5.37475C4.96564 5.13376 5.05351 4.87564 5.25804 4.73272Z" fill="black"/>
<path d="M22.4777 12.615C22.6264 12.7638 22.8218 12.8385 23.0176 12.8385C23.2134 12.8385 23.4088 12.7638 23.5579 12.615L27.2621 8.9112C27.4761 8.69719 27.4761 8.35047 27.2621 8.13609C27.0481 7.92208 26.7014 7.92208 26.487 8.13609L23.0176 11.6047L21.8626 10.4497C21.6486 10.2357 21.3019 10.2357 21.0875 10.4497C20.8735 10.6638 20.8735 11.0105 21.0875 11.2248L22.4777 12.615Z" fill="#FF3600"/>
</svg>
