<svg width="16" height="16" viewBox="0 0 16 16" fill="none" xmlns="http://www.w3.org/2000/svg">
<path d="M14.6067 9.88996L11.3333 7.99996L14.6067 6.10996C14.9253 5.92596 15.0347 5.51796 14.8507 5.19929L13.8507 3.46729C13.6667 3.14863 13.2593 3.03929 12.94 3.22329L9.66667 5.11329V1.33329C9.66667 0.965293 9.368 0.666626 9 0.666626H7C6.632 0.666626 6.33334 0.965293 6.33334 1.33329V5.11329L3.06 3.22329C2.74067 3.03929 2.33334 3.14863 2.14934 3.46729L1.14934 5.19929C0.965338 5.51796 1.074 5.92596 1.39334 6.10996L4.66667 7.99996L1.39334 9.88996C1.07467 10.074 0.965338 10.482 1.14934 10.8006L2.14934 12.5326C2.33334 12.8513 2.74134 12.9606 3.06 12.7766L6.33334 10.8866V14.6666C6.33334 15.0346 6.632 15.3333 7 15.3333H9C9.368 15.3333 9.66667 15.0346 9.66667 14.6666V10.8866L12.94 12.7766C13.2587 12.9606 13.6667 12.8513 13.8507 12.5326L14.8507 10.8006C15.0347 10.482 14.926 10.074 14.6067 9.88996Z" fill="#d79e05"/>
</svg>
