<svg width="61" height="60" viewBox="0 0 61 60" fill="none" xmlns="http://www.w3.org/2000/svg">
<g clip-path="url(#clip0_238_155)">
<path d="M15.4062 28.4997L10.625 27.4684C9.3125 27.1872 8.09375 28.2184 8.09375 29.5309V31.4997C8.09375 33.0934 9.3125 33.4684 10.8125 33.4684H16.0625C17.0937 33.4684 18.125 33.2809 18.125 32.1559V31.8747C18.125 30.1872 17 28.7809 15.4062 28.4997ZM9.875 31.4997C9.875 31.4059 9.875 31.4059 9.875 29.4372C9.875 29.2497 10.0625 29.0622 10.25 29.1559L15.0312 30.1872C15.6875 30.3747 16.1562 30.9372 16.25 31.5934C12.9687 31.5934 10.1562 31.5934 9.875 31.4997Z" fill="white"/>
<path d="M57.9688 18.4688L51.2188 15.2812C48.9688 14.25 46.5312 13.875 44.1875 14.3438L43.1562 12.2813C42.4062 10.4063 40.625 9.09375 38.5625 9.09375H16.625C14.5625 9.09375 12.7812 10.3125 12.0312 12.1875L8.375 19.7813C7.53125 18.5625 6.125 17.8125 4.625 17.8125H3.03125C1.625 17.8125 0.5 18.9375 0.5 20.3438V21.375C0.5 22.7812 1.625 23.9062 3.03125 23.9062H5.46875C4.4375 25.2188 3.96875 26.9062 3.96875 28.5938V34.2188C3.96875 36.375 4.71875 38.4375 6.21875 40.2188V44.4375C6.21875 46.3125 7.71875 47.8125 9.59375 47.8125H13.0625C14.9375 47.8125 16.4375 46.3125 16.4375 44.4375V42.75H35.1875C39.3125 48.375 45.7812 50.8125 45.875 50.8125C46.0625 50.9062 46.25 50.9062 46.5312 50.8125C46.625 50.7188 60.5 45.6562 60.5 33V22.5C60.5 20.8125 59.4688 19.2188 57.9688 18.4688ZM13.7188 12.9375C14.1875 11.7188 15.3125 10.9688 16.625 10.9688H38.5625C39.875 10.9688 41 11.7187 41.5625 13.0312L42.4062 14.8125C42.0312 14.9063 41.6562 15.0937 41.2812 15.2812L34.5312 18.4688C33.0312 19.2188 32 20.7188 32 22.4062H9.03125C9.40625 21.8438 9.03125 22.7812 13.7188 12.9375ZM2.375 21.375V20.3438C2.375 19.9688 2.65625 19.6875 3.03125 19.6875H4.625C6.5 19.6875 7.15625 21.375 7.34375 21.6563C7.25 21.8438 7.15625 21.9375 6.96875 22.125H3.03125C2.65625 22.0313 2.375 21.75 2.375 21.375ZM14.5625 44.3438C14.5625 45.1875 13.9062 45.8438 13.0625 45.8438H9.5C8.65625 45.9375 8 45.1875 8 44.3438V41.625C9.125 42.2812 10.4375 42.6562 11.75 42.6562H14.5625V44.3438ZM11.6562 40.875C8.28125 40.875 5.65625 37.5938 5.65625 34.125V28.5C5.65625 26.9062 6.3125 25.4062 7.4375 24.1875H32V32.4375H21.6875C21.2188 32.4375 20.75 32.8125 20.75 33.375C20.75 33.9375 21.125 34.3125 21.6875 34.3125H32.0938C32.1875 34.9687 32.1875 35.5312 32.375 36.0938H21.6875C21.2188 36.0938 20.75 36.4688 20.75 37.0312C20.75 37.5938 21.125 37.9688 21.6875 37.9688H32.75C33.125 39 33.5 40.0312 34.0625 40.875H11.6562ZM58.625 33C58.625 43.4062 48.125 48.1875 46.25 48.9375C39.5 46.2188 33.875 40.4062 33.875 33C33.875 29.5312 33.875 27.6562 33.875 22.5C33.875 21.4688 34.4375 20.625 35.375 20.1562L42.125 16.9688C44.8438 15.6563 47.8438 15.6563 50.5625 16.9688L57.3125 20.1562C58.1562 20.625 58.8125 21.4688 58.8125 22.5V33H58.625Z" fill="white"/>
<path d="M55.4375 22.3125L49.25 19.4063C47.375 18.4687 45.0312 18.4687 43.1562 19.4063L37.0625 22.3125C36.7812 22.5 36.5 22.7813 36.5 23.1563V33C36.5 40.4063 42.9687 44.4375 45.7812 45.8438C46.0625 45.9375 46.3438 45.9375 46.625 45.8438C49.4375 44.4375 55.9062 40.4063 55.9062 33V23.1563C55.9062 22.7813 55.7187 22.5 55.4375 22.3125ZM54.125 33C54.125 39 48.875 42.5625 46.25 43.9688C43.1562 42.2813 38.375 38.9063 38.375 33V23.7187L44 21C45.4063 20.3437 47.0938 20.3437 48.5 21L54.125 23.7187V33Z" fill="white"/>
<path d="M42.5938 32.7182C42.2188 32.437 41.6563 32.5307 41.2813 32.9057C40.9063 33.2807 41.0938 33.8432 41.4688 34.2182L45.0313 36.937C45.4063 37.2182 45.9688 37.1245 46.3438 36.7495L51.5938 29.9057C51.8751 29.5307 51.7813 28.9682 51.4063 28.5932C51.0313 28.312 50.4688 28.4057 50.0938 28.7807L45.4063 34.8745L42.5938 32.7182Z" fill="#FF3600"/>
</g>
<defs>
<clipPath id="clip0_238_155">
<rect width="60" height="60" fill="white" transform="translate(0.5)"/>
</clipPath>
</defs>
</svg>
