<svg width="30" height="30" viewBox="0 0 30 30" fill="none" xmlns="http://www.w3.org/2000/svg">
<g clip-path="url(#clip0_24_22)">
<path d="M18.7715 27.8572C20.0911 28.7085 21.6636 29.0795 23.2246 28.9078C24.7856 28.7361 26.2399 28.0322 27.3429 26.9143L28.3072 25.9715C28.7299 25.5391 28.9666 24.9583 28.9666 24.3536C28.9666 23.7489 28.7299 23.1682 28.3072 22.7357L24.2143 18.6858C23.7855 18.2643 23.2084 18.0282 22.6072 18.0282C22.006 18.0282 21.4288 18.2643 21 18.6858V18.6858C20.5676 19.1085 19.9869 19.3452 19.3822 19.3452C18.7775 19.3452 18.1967 19.1085 17.7643 18.6858L11.3358 12.2572C11.1213 12.0458 10.951 11.794 10.8348 11.5162C10.7185 11.2385 10.6587 10.9404 10.6587 10.6393C10.6587 10.3382 10.7185 10.0402 10.8348 9.76241C10.951 9.48467 11.1213 9.2328 11.3358 9.02147V9.02147C11.7572 8.59267 11.9933 8.01552 11.9933 7.41432C11.9933 6.81312 11.7572 6.23597 11.3358 5.80718L7.26433 1.73575C6.83192 1.313 6.2512 1.07629 5.64647 1.07629C5.04174 1.07629 4.46103 1.313 4.02861 1.73575L3.08576 2.70004C1.96793 3.80306 1.26397 5.25733 1.09227 6.81832C0.920556 8.37932 1.29156 9.95184 2.1429 11.2715C6.57871 17.8087 12.2228 23.4383 18.7715 27.8572V27.8572Z" stroke="#d79e05" stroke-width="1.5" stroke-linecap="round" stroke-linejoin="round"/>
</g>
<defs>
<clipPath id="clip0_24_22">
<rect width="30" height="30" fill="white"/>
</clipPath>
</defs>
</svg>
