<svg width="60" height="60" viewBox="0 0 60 60" fill="none" xmlns="http://www.w3.org/2000/svg">
<g clip-path="url(#clip0_309_4)">
<path d="M37.5 55.3125H54.375C54.6236 55.3125 54.8621 55.2137 55.0379 55.0379C55.2137 54.8621 55.3125 54.6236 55.3125 54.375V31.875C55.3125 31.6264 55.2137 31.3879 55.0379 31.2121C54.8621 31.0363 54.6236 30.9375 54.375 30.9375H37.5C37.2514 30.9375 37.0129 31.0363 36.8371 31.2121C36.6613 31.3879 36.5625 31.6264 36.5625 31.875V54.375C36.5625 54.6236 36.6613 54.8621 36.8371 55.0379C37.0129 55.2137 37.2514 55.3125 37.5 55.3125ZM38.4375 49.6875H42.1875V53.4375H38.4375V49.6875ZM53.4375 38.4375V42.1875H49.6875V38.4375H53.4375ZM47.8125 42.1875H44.0625V38.4375H47.8125V42.1875ZM47.8125 53.4375H44.0625V49.6875H47.8125V53.4375ZM47.8125 47.8125H44.0625V44.0625H47.8125V47.8125ZM42.1875 42.1875H38.4375V38.4375H42.1875V42.1875ZM42.1875 44.0625V47.8125H38.4375V44.0625H42.1875ZM49.6875 53.4375V44.0625H53.4375V53.4375H49.6875ZM53.4375 32.8125V36.5625H38.4375V32.8125H53.4375Z" fill="white"/>
<path d="M58.125 27.1891H48.2147L45.1875 20.8816C44.8046 20.0917 44.2361 19.4062 43.5307 18.8838C42.8252 18.3614 42.0038 18.0175 41.1366 17.8816C42.7344 16.7208 43.9248 15.085 44.538 13.2077C45.1512 11.3303 45.1559 9.30725 44.5513 7.42709C43.9467 5.54693 42.7639 3.90571 41.1714 2.73757C39.5789 1.56943 37.6582 0.934045 35.6833 0.922048C33.7084 0.910052 31.7801 1.52206 30.1735 2.67077C28.567 3.81947 27.3643 5.4462 26.7369 7.31887C26.1095 9.19155 26.0896 11.2145 26.68 13.0992C27.2703 14.9839 28.4408 16.634 30.0244 17.8141H25.3125C25.3139 16.192 24.8944 14.5973 24.0951 13.1859C23.2957 11.7744 22.1438 10.5945 20.7519 9.76155C19.3601 8.92854 17.7759 8.47092 16.1543 8.43342C14.5326 8.39592 12.929 8.77982 11.5001 9.54759C10.0712 10.3154 8.86599 11.4407 8.00223 12.8137C7.13847 14.1867 6.64572 15.7603 6.57215 17.3807C6.49858 19.0011 6.84671 20.6129 7.5825 22.0585C8.31829 23.5041 9.41658 24.7341 10.77 25.6282L8.77219 29.3782C8.37887 29.1745 7.94291 29.0669 7.5 29.0641H3.75C3.00408 29.0641 2.28871 29.3604 1.76126 29.8879C1.23382 30.4153 0.9375 31.1307 0.9375 31.8766C0.9375 32.6225 1.23382 33.3379 1.76126 33.8653C2.28871 34.3928 3.00408 34.6891 3.75 34.6891H4.78125C3.51364 36.0971 2.8123 37.9246 2.8125 39.8191V46.8766C2.81958 48.5881 3.49197 50.2297 4.6875 51.4544V55.3141C4.6875 56.3087 5.08259 57.2625 5.78585 57.9657C6.48911 58.669 7.44294 59.0641 8.4375 59.0641H12.1875C13.1821 59.0641 14.1359 58.669 14.8392 57.9657C15.5424 57.2625 15.9375 56.3087 15.9375 55.3141V53.4391H32.8125V58.1266C32.8125 58.3752 32.9113 58.6137 33.0871 58.7895C33.2629 58.9653 33.5014 59.0641 33.75 59.0641H58.125C58.3736 59.0641 58.6121 58.9653 58.7879 58.7895C58.9637 58.6137 59.0625 58.3752 59.0625 58.1266V28.1266C59.0625 27.878 58.9637 27.6395 58.7879 27.4637C58.6121 27.2879 58.3736 27.1891 58.125 27.1891ZM28.125 10.3141C28.125 8.83074 28.5649 7.38069 29.389 6.14732C30.2131 4.91395 31.3844 3.95266 32.7549 3.385C34.1253 2.81734 35.6333 2.66882 37.0882 2.95821C38.543 3.2476 39.8794 3.9619 40.9283 5.0108C41.9772 6.05969 42.6915 7.39606 42.9809 8.85092C43.2703 10.3058 43.1218 11.8138 42.5541 13.1842C41.9864 14.5547 41.0251 15.726 39.7918 16.5501C38.5584 17.3742 37.1084 17.8141 35.625 17.8141C33.6366 17.8119 31.7302 17.021 30.3242 15.6149C28.9181 14.2089 28.1272 12.3025 28.125 10.3141ZM40.3125 19.6891C40.9782 19.6906 41.6301 19.8793 42.1937 20.2335C42.7573 20.5878 43.21 21.0933 43.5 21.6925L46.1353 27.1891H43.2816L41.1778 22.1407C41.1066 21.9699 40.9864 21.824 40.8324 21.7214C40.6784 21.6188 40.4975 21.5641 40.3125 21.5641H24.5241C24.7896 20.9621 24.9905 20.3336 25.1231 19.6891H40.3125ZM20.5397 33.7516L27.6788 23.4391H30.0853L22.9462 33.7516H20.5397ZM15.2213 30.7178L17.0194 27.1216C18.2801 26.9736 19.4976 26.5709 20.5978 25.9378C21.6981 25.3048 22.6581 24.4546 23.4197 23.4391H25.3978L18.2587 33.7516H17.0963C16.7389 33.7516 16.3875 33.6603 16.0754 33.4863C15.7633 33.3123 15.5009 33.0614 15.313 32.7574C15.1252 32.4535 15.0181 32.1065 15.002 31.7496C14.986 31.3926 15.0614 31.0374 15.2213 30.7178ZM8.4375 17.8141C8.4375 16.3307 8.87737 14.8807 9.70148 13.6473C10.5256 12.414 11.6969 11.4527 13.0674 10.885C14.4378 10.3173 15.9458 10.1688 17.4007 10.4582C18.8555 10.7476 20.1919 11.4619 21.2408 12.5108C22.2897 13.5597 23.004 14.8961 23.2934 16.3509C23.5828 17.8058 23.4343 19.3138 22.8666 20.6842C22.2989 22.0547 21.3376 23.226 20.1043 24.0501C18.8709 24.8742 17.4209 25.3141 15.9375 25.3141C13.9491 25.3119 12.0427 24.521 10.6367 23.1149C9.23063 21.7089 8.43973 19.8025 8.4375 17.8141ZM2.8125 31.8766C2.8125 31.628 2.91127 31.3895 3.08709 31.2137C3.2629 31.0379 3.50136 30.9391 3.75 30.9391H7.5C7.63495 30.9418 7.76769 30.9738 7.88906 31.0328L6.9375 32.8141H3.75C3.50136 32.8141 3.2629 32.7153 3.08709 32.5395C2.91127 32.3637 2.8125 32.1252 2.8125 31.8766ZM14.0625 55.3141C14.0625 55.8114 13.865 56.2883 13.5133 56.6399C13.1617 56.9916 12.6848 57.1891 12.1875 57.1891H8.4375C7.94022 57.1891 7.46331 56.9916 7.11167 56.6399C6.76004 56.2883 6.5625 55.8114 6.5625 55.3141V52.7875C7.43997 53.2115 8.40052 53.4356 9.375 53.4438H14.0625V55.3141ZM9.375 51.5641C8.1318 51.5641 6.93951 51.0702 6.06044 50.1912C5.18136 49.3121 4.6875 48.1198 4.6875 46.8766V39.8191C4.68457 38.7335 4.98574 37.6687 5.55689 36.7455C6.12803 35.8222 6.94633 35.0774 7.91906 34.5953C8.09295 34.508 8.23569 34.3692 8.32781 34.1978L12.4303 26.5103C13.2265 26.8344 14.0639 27.0461 14.9184 27.1394L13.5441 29.8797C13.2414 30.4852 13.0985 31.158 13.129 31.8342C13.1595 32.5104 13.3623 33.1676 13.7182 33.7433C14.0741 34.3191 14.5713 34.7944 15.1625 35.124C15.7537 35.4536 16.4194 35.6266 17.0963 35.6266H32.8125V39.3766H17.8125C17.664 39.3767 17.5177 39.4121 17.3856 39.4798C17.2535 39.5475 17.1393 39.6457 17.0525 39.7661C16.9657 39.8866 16.9088 40.026 16.8864 40.1727C16.864 40.3195 16.8768 40.4695 16.9237 40.6103L18.7987 46.2353C18.8609 46.422 18.9802 46.5843 19.1397 46.6994C19.2992 46.8144 19.4908 46.8764 19.6875 46.8766H32.8125V51.5641H9.375ZM32.8125 41.2516V45.0016H20.3634L19.1138 41.2516H32.8125ZM32.8125 28.1266V33.7516H25.2272L32.3662 23.4391H39.6872L41.25 27.1891H33.75C33.5014 27.1891 33.2629 27.2879 33.0871 27.4637C32.9113 27.6395 32.8125 27.878 32.8125 28.1266ZM57.1875 57.1891H34.6875V29.0641H57.1875V57.1891Z" fill="white"/>
<path d="M11.25 39.375C10.5083 39.375 9.7833 39.5949 9.16661 40.007C8.54993 40.419 8.06928 41.0047 7.78545 41.6899C7.50162 42.3752 7.42736 43.1292 7.57206 43.8566C7.71675 44.584 8.0739 45.2522 8.59835 45.7766C9.1228 46.3011 9.79098 46.6583 10.5184 46.8029C11.2458 46.9476 11.9998 46.8734 12.6851 46.5895C13.3703 46.3057 13.956 45.8251 14.368 45.2084C14.7801 44.5917 15 43.8667 15 43.125C15 42.1304 14.6049 41.1766 13.9017 40.4734C13.1984 39.7701 12.2446 39.375 11.25 39.375ZM11.25 45C10.8792 45 10.5167 44.89 10.2083 44.684C9.89997 44.478 9.65964 44.1851 9.51773 43.8425C9.37581 43.4999 9.33868 43.1229 9.41103 42.7592C9.48338 42.3955 9.66195 42.0614 9.92418 41.7992C10.1864 41.537 10.5205 41.3584 10.8842 41.286C11.2479 41.2137 11.6249 41.2508 11.9675 41.3927C12.3101 41.5346 12.603 41.775 12.809 42.0833C13.015 42.3916 13.125 42.7542 13.125 43.125C13.125 43.6223 12.9275 44.0992 12.5758 44.4508C12.2242 44.8025 11.7473 45 11.25 45Z" fill="white"/>
<path d="M35.625 7.5C35.8736 7.5 36.1121 7.59877 36.2879 7.77459C36.4637 7.9504 36.5625 8.18886 36.5625 8.4375H38.4375C38.4351 7.85788 38.2537 7.29316 37.918 6.82059C37.5824 6.34803 37.109 5.9907 36.5625 5.7975V4.6875H34.6875V5.7975C34.0625 6.01764 33.5356 6.45189 33.2 7.02331C32.8645 7.59474 32.742 8.26647 32.8543 8.91954C32.9666 9.57261 33.3064 10.1649 33.8135 10.5914C34.3206 11.018 34.9624 11.2513 35.625 11.25C35.8104 11.25 35.9917 11.305 36.1458 11.408C36.3 11.511 36.4202 11.6574 36.4911 11.8287C36.5621 12 36.5807 12.1885 36.5445 12.3704C36.5083 12.5523 36.419 12.7193 36.2879 12.8504C36.1568 12.9815 35.9898 13.0708 35.8079 13.107C35.626 13.1432 35.4375 13.1246 35.2662 13.0536C35.0949 12.9827 34.9485 12.8625 34.8455 12.7083C34.7425 12.5542 34.6875 12.3729 34.6875 12.1875H32.8125C32.8149 12.7671 32.9963 13.3318 33.332 13.8044C33.6676 14.277 34.141 14.6343 34.6875 14.8275V15.9375H36.5625V14.8275C37.1875 14.6074 37.7144 14.1731 38.05 13.6017C38.3855 13.0303 38.508 12.3585 38.3957 11.7055C38.2834 11.0524 37.9436 10.4601 37.4365 10.0336C36.9294 9.60705 36.2876 9.37374 35.625 9.375C35.3764 9.375 35.1379 9.27623 34.9621 9.10041C34.7863 8.9246 34.6875 8.68614 34.6875 8.4375C34.6875 8.18886 34.7863 7.9504 34.9621 7.77459C35.1379 7.59877 35.3764 7.5 35.625 7.5Z" fill="black"/>
<path d="M16.875 23.4375V22.3275C17.5 22.1074 18.0269 21.6731 18.3625 21.1017C18.698 20.5303 18.8205 19.8585 18.7082 19.2055C18.5959 18.5524 18.2561 17.9601 17.749 17.5336C17.2419 17.107 16.6001 16.8737 15.9375 16.875C15.7521 16.875 15.5708 16.82 15.4167 16.717C15.2625 16.614 15.1423 16.4676 15.0714 16.2963C15.0004 16.125 14.9818 15.9365 15.018 15.7546C15.0542 15.5727 15.1435 15.4057 15.2746 15.2746C15.4057 15.1435 15.5727 15.0542 15.7546 15.018C15.9365 14.9818 16.125 15.0004 16.2963 15.0714C16.4676 15.1423 16.614 15.2625 16.717 15.4167C16.82 15.5708 16.875 15.7521 16.875 15.9375H18.75C18.7476 15.3579 18.5662 14.7932 18.2305 14.3206C17.8949 13.848 17.4215 13.4907 16.875 13.2975V12.1875H15V13.2975C14.375 13.5176 13.8481 13.9519 13.5125 14.5233C13.177 15.0947 13.0545 15.7665 13.1668 16.4195C13.2791 17.0726 13.6189 17.6649 14.126 18.0914C14.6331 18.518 15.2749 18.7513 15.9375 18.75C16.1229 18.75 16.3042 18.805 16.4583 18.908C16.6125 19.011 16.7327 19.1574 16.8036 19.3287C16.8746 19.5 16.8932 19.6885 16.857 19.8704C16.8208 20.0523 16.7315 20.2193 16.6004 20.3504C16.4693 20.4815 16.3023 20.5708 16.1204 20.607C15.9385 20.6432 15.75 20.6246 15.5787 20.5536C15.4074 20.4827 15.261 20.3625 15.158 20.2083C15.055 20.0542 15 19.8729 15 19.6875H13.125C13.1274 20.2671 13.3088 20.8318 13.6445 21.3044C13.9801 21.777 14.4535 22.1343 15 22.3275V23.4375H16.875Z" fill="black"/>
</g>
<defs>
<clipPath id="clip0_309_4">
<rect width="60" height="60" fill="white"/>
</clipPath>
</defs>
</svg>
