<svg width="30" height="30" viewBox="0 0 30 30" fill="none" xmlns="http://www.w3.org/2000/svg">
<path d="M14.9978 20.4005C17.9564 20.4005 20.3549 17.9969 20.3549 15.0319C20.3549 12.0669 17.9564 9.66333 14.9978 9.66333C12.0391 9.66333 9.64062 12.0669 9.64062 15.0319C9.64062 17.9969 12.0391 20.4005 14.9978 20.4005Z" stroke="#FF3600" stroke-width="1.5" stroke-linecap="round" stroke-linejoin="round"/>
<path d="M15 9.66335V1.07361" stroke="#FF3600" stroke-width="1.5" stroke-linecap="round" stroke-linejoin="round"/>
<path d="M20.3555 28.9904V25.7693H24.6412C25.2095 25.7693 25.7545 25.543 26.1564 25.1403C26.5583 24.7376 26.784 24.1914 26.784 23.6218V15.0321C26.7844 12.8548 26.1843 10.7197 25.0498 8.86278C23.9153 7.00586 22.2907 5.49933 20.3555 4.50964" stroke="#FF3600" stroke-width="1.5" stroke-linecap="round" stroke-linejoin="round"/>
<path d="M9.64184 4.50952C7.70579 5.49862 6.08032 7.00489 4.94506 8.86186C3.80981 10.7188 3.20898 12.8542 3.20898 15.032C3.20898 17.2097 3.80981 19.3451 4.94506 21.2021C6.08032 23.059 7.70579 24.5653 9.64184 25.5544V28.9903" stroke="#FF3600" stroke-width="1.5" stroke-linecap="round" stroke-linejoin="round"/>
</svg>
