<svg width="60" height="60" viewBox="0 0 60 60" fill="none" xmlns="http://www.w3.org/2000/svg">
<path d="M38.6241 20.6782C39.1258 20.6782 39.5324 20.2848 39.5324 19.7993V18.6456C39.5324 18.16 39.1258 17.7666 38.6241 17.7666C38.1224 17.7666 37.7158 18.16 37.7158 18.6456V19.7993C37.7158 20.2848 38.1225 20.6782 38.6241 20.6782Z" fill="white"/>
<path d="M30.7989 20.6782C31.3006 20.6782 31.7072 20.2848 31.7072 19.7993V18.6456C31.7072 18.16 31.3006 17.7666 30.7989 17.7666C30.2972 17.7666 29.8906 18.16 29.8906 18.6456V19.7993C29.8906 20.2848 30.2973 20.6782 30.7989 20.6782Z" fill="white"/>
<path d="M34.7027 27.6624C36.4595 27.6624 37.8888 26.2791 37.8888 24.5789C37.8888 24.0934 37.4823 23.7 36.9805 23.7C36.4788 23.7 36.0723 24.0934 36.0723 24.5789C36.0723 25.3098 35.4579 25.9044 34.7027 25.9044C33.9475 25.9044 33.3331 25.3099 33.3331 24.5789C33.3331 24.0934 32.9266 23.7 32.4249 23.7C31.9231 23.7 31.5166 24.0934 31.5166 24.5789C31.5166 26.2791 32.9459 27.6624 34.7027 27.6624Z" fill="white"/>
<path d="M55.3918 47.133C55.8935 47.133 56.3 46.7395 56.3 46.254V43.528C56.3 41.0102 54.6383 38.7941 52.1564 38.0112L40.9247 34.587V31.0902C43.5458 29.2172 44.835 26.1534 44.7237 23.0532C46.8075 23.2081 49.078 22.0127 49.078 19.7251V17.8901C49.078 17.0111 48.7235 16.2111 48.1463 15.6156C48.158 15.5591 48.1643 13.1084 48.1643 13.1084C48.1643 12.6229 47.7578 12.2295 47.256 12.2295C46.7543 12.2295 46.3478 12.6229 46.3478 13.1084V14.5617H33.6332C32.1307 14.5617 30.9083 13.3787 30.9083 11.9248V4.39487C30.9083 2.94093 32.1307 1.75795 33.6332 1.75795H39.7985C43.4098 1.75795 46.3478 4.60114 46.3478 8.09594V9.27729C46.3478 9.76283 46.7543 10.1563 47.256 10.1563C47.7578 10.1563 48.1643 9.76283 48.1643 9.27729V8.09594C48.1644 3.63181 44.4115 0 39.7986 0H33.6333C31.395 0 29.5311 1.57536 29.1602 3.64036H27.6373C24.1316 3.64036 21.2794 6.40058 21.2794 9.79319C21.2794 9.79319 21.2845 15.5356 21.292 15.5814C20.695 16.1804 20.3265 16.9941 20.3265 17.8901V19.7251C20.3265 21.9772 22.5865 23.2259 24.6811 23.0532C24.4813 26.1356 25.8989 29.2458 28.4801 31.0902V34.622L20.3088 37.5776C19.5136 37.8664 18.8197 38.3626 18.3025 39.0126L13.0402 45.6234V42.6813C13.0402 41.8874 12.6752 41.1747 12.0995 40.6909V37.0507C12.0995 35.5624 10.8483 34.3515 9.31042 34.3515C7.77253 34.3515 6.52141 35.5624 6.52141 37.0507V40.0443C4.60847 40.0443 3.7002 41.083 3.7002 42.6813V50.0867C3.7002 51.2555 4.49051 52.2487 5.58081 52.5934V55.6098C5.58081 59.8376 11.2236 61.6747 13.9383 58.0873L18.7471 52.4647V59.121C18.7471 59.6066 19.1537 60 19.6554 60H55.3918C55.8935 60 56.3 59.6066 56.3 59.121V50.0852C56.3 49.5996 55.8935 49.2062 55.3918 49.2062C54.89 49.2062 54.4835 49.5996 54.4835 50.0852V58.242H48.7767V46.5796C48.7767 46.094 48.3702 45.7006 47.8685 45.7006C47.3667 45.7006 46.9602 46.094 46.9602 46.5796V47.2911H20.5638V46.384C20.5638 45.8984 20.1573 45.505 19.6555 45.505C19.1538 45.505 18.7473 45.8984 18.7473 46.384V49.7077L12.5108 56.9995C11.0239 58.7364 7.39748 58.7889 7.39748 55.6098V52.7237H10.2831V53.6649C10.2831 54.1505 10.6897 54.5439 11.1914 54.5439C11.6931 54.5439 12.0997 54.1505 12.0997 53.6649V52.0771C12.6755 51.5932 13.0408 50.8805 13.0408 50.0862V48.5032L19.7416 40.0854C20.0522 39.6951 20.4691 39.3971 20.9459 39.2238L29.241 36.2234L34.156 39.8048C34.5113 40.0637 34.9795 40.0041 35.3067 39.7626L40.1883 36.2054L51.602 39.6851C53.3254 40.2289 54.4835 41.7731 54.4835 43.5279V46.2539C54.4835 46.7395 54.8901 47.133 55.3918 47.133ZM46.9602 49.0491V54.6067H31.3674C30.8657 54.6067 30.4592 55.0002 30.4592 55.4857C30.4592 55.9712 30.8657 56.3647 31.3674 56.3647H46.9603V58.2422H20.5638V56.3647H27.4098C27.9115 56.3647 28.3181 55.9712 28.3181 55.4857C28.3181 55.0002 27.9115 54.6067 27.4098 54.6067H20.5638V49.0491H46.9602ZM8.33796 37.0509C8.33796 36.5318 8.7743 36.1097 9.31042 36.1097C9.84679 36.1097 10.283 36.532 10.283 37.0509V40.0446H8.33796V37.0509ZM5.51686 42.6815C5.51686 42.1968 5.92426 41.8025 6.42514 41.8025H10.3155C10.8163 41.8025 11.2237 42.1968 11.2237 42.6815V43.685H8.3703C7.86857 43.685 7.46202 44.0785 7.46202 44.564C7.46202 45.0496 7.86857 45.443 8.3703 45.443H11.2237V47.3255H8.3703C7.86857 47.3255 7.46202 47.719 7.46202 48.2045C7.46202 48.69 7.86857 49.0835 8.3703 49.0835H11.2237V50.087C11.2237 50.6731 10.8564 50.9262 10.3161 50.9655L6.42514 50.966C5.92426 50.966 5.51686 50.5718 5.51686 50.087V42.6815ZM47.2616 19.7251C47.2616 20.591 46.5338 21.2952 45.6392 21.2952H44.7238V16.3199H45.6392C46.5339 16.3199 47.2616 17.0242 47.2616 17.8899V19.7251ZM23.096 9.79319C23.096 7.36979 25.1332 5.39831 27.6373 5.39831H29.0919V11.9248V11.925C29.0919 13.3789 27.8695 14.5619 26.3671 14.5619H25.5895H23.096V9.79319ZM23.7655 21.2952C22.8708 21.2952 22.1431 20.5909 22.1431 19.7251V17.8901C22.1431 17.0242 22.871 16.32 23.7655 16.32H24.6812V21.2953L23.7655 21.2952ZM26.4978 23.8263V16.3167C27.9283 16.2773 29.1956 15.5958 30.0003 14.5588C30.8295 15.6271 32.1494 16.3196 33.6333 16.3196H42.907L42.9072 23.8263C42.9072 33.485 26.4978 33.4737 26.4978 23.8263ZM39.1081 32.1044V34.7896L34.7026 38.0022L30.2968 34.7895V32.1045C32.4626 33.362 36.7818 33.2838 39.1081 32.1044Z" fill="white"/>
<path d="M8.66837 25.1217C9.09659 25.4648 9.52481 25.4648 9.95291 25.1217L13.7146 21.4812C14.0693 21.1378 14.0693 20.5813 13.7145 20.2381C13.3599 19.8949 12.7848 19.8949 12.4301 20.2381L9.3107 23.2571L8.07206 22.0583C7.71723 21.7151 7.14223 21.7151 6.78752 22.0583C6.43281 22.4016 6.43281 22.9581 6.78752 23.3014L8.66837 25.1217Z" fill="#FF3600"/>
<path d="M6.42502 30.8814H14.0772C15.5796 30.8814 16.802 29.6984 16.802 28.2444V27.2409H19.6555C20.6147 27.2335 21.0385 26.5255 20.3014 25.7439L16.802 22.3187V17.1157C16.802 15.6617 15.5796 14.4788 14.0772 14.4788H6.42502C4.92261 14.4788 3.7002 15.6617 3.7002 17.1157V28.2444C3.7002 29.6984 4.92249 30.8814 6.42502 30.8814ZM5.51674 17.1157C5.51674 16.631 5.92413 16.2367 6.42502 16.2367H14.0772C14.578 16.2367 14.9854 16.631 14.9854 17.1157V22.6801C14.9854 22.9115 15.0797 23.1335 15.2479 23.298L17.4803 25.4831H15.8937C15.392 25.4831 14.9854 25.8765 14.9854 26.362V28.2444C14.9854 28.7292 14.578 29.1234 14.0772 29.1234H6.42502C5.92413 29.1234 5.51674 28.7292 5.51674 28.2444V17.1157Z" fill="white"/>
</svg>
