<svg width="61" height="60" viewBox="0 0 61 60" fill="none" xmlns="http://www.w3.org/2000/svg">
<path d="M38 55.3125H54.875C55.1236 55.3125 55.3621 55.2137 55.5379 55.0379C55.7137 54.8621 55.8125 54.6236 55.8125 54.375V31.875C55.8125 31.6264 55.7137 31.3879 55.5379 31.2121C55.3621 31.0363 55.1236 30.9375 54.875 30.9375H38C37.7514 30.9375 37.5129 31.0363 37.3371 31.2121C37.1613 31.3879 37.0625 31.6264 37.0625 31.875V54.375C37.0625 54.6236 37.1613 54.8621 37.3371 55.0379C37.5129 55.2137 37.7514 55.3125 38 55.3125ZM38.9375 49.6875H42.6875V53.4375H38.9375V49.6875ZM53.9375 38.4375V42.1875H50.1875V38.4375H53.9375ZM48.3125 42.1875H44.5625V38.4375H48.3125V42.1875ZM48.3125 53.4375H44.5625V49.6875H48.3125V53.4375ZM48.3125 47.8125H44.5625V44.0625H48.3125V47.8125ZM42.6875 42.1875H38.9375V38.4375H42.6875V42.1875ZM42.6875 44.0625V47.8125H38.9375V44.0625H42.6875ZM50.1875 53.4375V44.0625H53.9375V53.4375H50.1875ZM53.9375 32.8125V36.5625H38.9375V32.8125H53.9375Z" fill="white"/>
<path d="M58.625 27.1871H48.7147L45.6875 20.8796C45.3046 20.0897 44.7361 19.4043 44.0307 18.8819C43.3252 18.3594 42.5038 18.0156 41.6366 17.8796C43.2344 16.7188 44.4248 15.0831 45.038 13.2057C45.6512 11.3284 45.6559 9.3053 45.0513 7.42513C44.4467 5.54497 43.2639 3.90376 41.6714 2.73562C40.0789 1.56748 38.1582 0.932091 36.1833 0.920095C34.2084 0.908098 32.2801 1.52011 30.6735 2.66881C29.067 3.81752 27.8643 5.44424 27.2369 7.31692C26.6095 9.1896 26.5896 11.2126 27.18 13.0972C27.7703 14.9819 28.9408 16.632 30.5244 17.8121H25.8125C25.8139 16.1901 25.3944 14.5954 24.5951 13.1839C23.7957 11.7725 22.6438 10.5926 21.2519 9.75959C19.8601 8.92659 18.2759 8.46897 16.6543 8.43147C15.0326 8.39397 13.429 8.77786 12.0001 9.54563C10.5712 10.3134 9.36599 11.4388 8.50223 12.8118C7.63847 14.1847 7.14572 15.7583 7.07215 17.3788C6.99858 18.9992 7.34671 20.611 8.0825 22.0566C8.81829 23.5022 9.91658 24.7321 11.27 25.6262L9.27219 29.3762C8.87887 29.1725 8.44291 29.0649 8 29.0621H4.25C3.50408 29.0621 2.78871 29.3585 2.26126 29.8859C1.73382 30.4134 1.4375 31.1287 1.4375 31.8746C1.4375 32.6206 1.73382 33.3359 2.26126 33.8634C2.78871 34.3908 3.50408 34.6871 4.25 34.6871H5.28125C4.01364 36.0951 3.3123 37.9226 3.3125 39.8171V46.8746C3.31958 48.5861 3.99197 50.2278 5.1875 51.4525V55.3121C5.1875 56.3067 5.58259 57.2605 6.28585 57.9638C6.98911 58.6671 7.94294 59.0621 8.9375 59.0621H12.6875C13.6821 59.0621 14.6359 58.6671 15.3392 57.9638C16.0424 57.2605 16.4375 56.3067 16.4375 55.3121V53.4371H33.3125V58.1246C33.3125 58.3733 33.4113 58.6117 33.5871 58.7876C33.7629 58.9634 34.0014 59.0621 34.25 59.0621H58.625C58.8736 59.0621 59.1121 58.9634 59.2879 58.7876C59.4637 58.6117 59.5625 58.3733 59.5625 58.1246V28.1246C59.5625 27.876 59.4637 27.6375 59.2879 27.4617C59.1121 27.2859 58.8736 27.1871 58.625 27.1871ZM28.625 10.3121C28.625 8.82879 29.0649 7.37874 29.889 6.14537C30.7131 4.912 31.8844 3.95071 33.2549 3.38305C34.6253 2.81539 36.1333 2.66687 37.5882 2.95626C39.043 3.24565 40.3794 3.95995 41.4283 5.00884C42.4772 6.05774 43.1915 7.39411 43.4809 8.84897C43.7703 10.3038 43.6218 11.8118 43.0541 13.1823C42.4864 14.5527 41.5251 15.7241 40.2918 16.5482C39.0584 17.3723 37.6084 17.8121 36.125 17.8121C34.1366 17.8099 32.2302 17.019 30.8242 15.613C29.4181 14.2069 28.6272 12.3006 28.625 10.3121ZM40.8125 19.6871C41.4782 19.6887 42.1301 19.8773 42.6937 20.2316C43.2573 20.5858 43.71 21.0914 44 21.6906L46.6353 27.1871H43.7816L41.6778 22.1387C41.6066 21.9679 41.4864 21.8221 41.3324 21.7195C41.1784 21.6169 40.9975 21.5621 40.8125 21.5621H25.0241C25.2896 20.9601 25.4905 20.3316 25.6231 19.6871H40.8125ZM21.0397 33.7496L28.1788 23.4371H30.5853L23.4462 33.7496H21.0397ZM15.7213 30.7159L17.5194 27.1196C18.7801 26.9717 19.9976 26.5689 21.0978 25.9359C22.1981 25.3028 23.1581 24.4527 23.9197 23.4371H25.8978L18.7587 33.7496H17.5963C17.2389 33.7497 16.8875 33.6583 16.5754 33.4843C16.2633 33.3103 16.0009 33.0594 15.813 32.7555C15.6252 32.4515 15.5181 32.1046 15.502 31.7476C15.486 31.3906 15.5614 31.0355 15.7213 30.7159ZM8.9375 17.8121C8.9375 16.3288 9.37737 14.8787 10.2015 13.6454C11.0256 12.412 12.1969 11.4507 13.5674 10.883C14.9378 10.3154 16.4458 10.1669 17.9007 10.4563C19.3555 10.7456 20.6919 11.46 21.7408 12.5088C22.7897 13.5577 23.504 14.8941 23.7934 16.349C24.0828 17.8038 23.9343 19.3118 23.3666 20.6823C22.7989 22.0527 21.8376 23.2241 20.6043 24.0482C19.3709 24.8723 17.9209 25.3121 16.4375 25.3121C14.4491 25.3099 12.5427 24.519 11.1367 23.113C9.73063 21.7069 8.93973 19.8006 8.9375 17.8121ZM3.3125 31.8746C3.3125 31.626 3.41127 31.3875 3.58709 31.2117C3.7629 31.0359 4.00136 30.9371 4.25 30.9371H8C8.13495 30.9398 8.26769 30.9718 8.38906 31.0309L7.4375 32.8121H4.25C4.00136 32.8121 3.7629 32.7134 3.58709 32.5376C3.41127 32.3617 3.3125 32.1233 3.3125 31.8746ZM14.5625 55.3121C14.5625 55.8094 14.365 56.2863 14.0133 56.638C13.6617 56.9896 13.1848 57.1871 12.6875 57.1871H8.9375C8.44022 57.1871 7.96331 56.9896 7.61167 56.638C7.26004 56.2863 7.0625 55.8094 7.0625 55.3121V52.7856C7.93997 53.2095 8.90052 53.4336 9.875 53.4418H14.5625V55.3121ZM9.875 51.5621C8.6318 51.5621 7.43951 51.0683 6.56044 50.1892C5.68136 49.3101 5.1875 48.1178 5.1875 46.8746V39.8171C5.18457 38.7315 5.48574 37.6668 6.05689 36.7435C6.62803 35.8203 7.44633 35.0754 8.41906 34.5934C8.59295 34.5061 8.73569 34.3673 8.82781 34.1959L12.9303 26.5084C13.7265 26.8324 14.5639 27.0441 15.4184 27.1375L14.0441 29.8778C13.7414 30.4832 13.5985 31.156 13.629 31.8322C13.6595 32.5084 13.8623 33.1656 14.2182 33.7414C14.5741 34.3172 15.0713 34.7924 15.6625 35.122C16.2537 35.4516 16.9194 35.6246 17.5963 35.6246H33.3125V39.3746H18.3125C18.164 39.3748 18.0177 39.4101 17.8856 39.4779C17.7535 39.5456 17.6393 39.6437 17.5525 39.7642C17.4657 39.8846 17.4088 40.024 17.3864 40.1708C17.364 40.3175 17.3768 40.4675 17.4237 40.6084L19.2987 46.2334C19.3609 46.42 19.4802 46.5823 19.6397 46.6974C19.7992 46.8125 19.9908 46.8745 20.1875 46.8746H33.3125V51.5621H9.875ZM33.3125 41.2496V44.9996H20.8634L19.6138 41.2496H33.3125ZM33.3125 28.1246V33.7496H25.7272L32.8662 23.4371H40.1872L41.75 27.1871H34.25C34.0014 27.1871 33.7629 27.2859 33.5871 27.4617C33.4113 27.6375 33.3125 27.876 33.3125 28.1246ZM57.6875 57.1871H35.1875V29.0621H57.6875V57.1871Z" fill="white"/>
<path d="M11.75 39.375C11.0083 39.375 10.2833 39.5949 9.66661 40.007C9.04993 40.419 8.56928 41.0047 8.28545 41.6899C8.00162 42.3752 7.92736 43.1292 8.07206 43.8566C8.21675 44.584 8.5739 45.2522 9.09835 45.7766C9.6228 46.3011 10.291 46.6583 11.0184 46.8029C11.7458 46.9476 12.4998 46.8734 13.1851 46.5895C13.8703 46.3057 14.456 45.8251 14.868 45.2084C15.2801 44.5917 15.5 43.8667 15.5 43.125C15.5 42.1304 15.1049 41.1766 14.4017 40.4734C13.6984 39.7701 12.7446 39.375 11.75 39.375ZM11.75 45C11.3792 45 11.0167 44.89 10.7083 44.684C10.4 44.478 10.1596 44.1851 10.0177 43.8425C9.87581 43.4999 9.83868 43.1229 9.91103 42.7592C9.98338 42.3955 10.162 42.0614 10.4242 41.7992C10.6864 41.537 11.0205 41.3584 11.3842 41.286C11.7479 41.2137 12.1249 41.2508 12.4675 41.3927C12.8101 41.5346 13.103 41.775 13.309 42.0833C13.515 42.3916 13.625 42.7542 13.625 43.125C13.625 43.6223 13.4275 44.0992 13.0758 44.4508C12.7242 44.8025 12.2473 45 11.75 45Z" fill="white"/>
<path d="M36.125 7.5C36.3736 7.5 36.6121 7.59877 36.7879 7.77459C36.9637 7.9504 37.0625 8.18886 37.0625 8.4375H38.9375C38.9351 7.85788 38.7537 7.29316 38.418 6.82059C38.0824 6.34803 37.609 5.9907 37.0625 5.7975V4.6875H35.1875V5.7975C34.5625 6.01764 34.0356 6.45189 33.7 7.02331C33.3645 7.59474 33.242 8.26647 33.3543 8.91954C33.4666 9.57261 33.8064 10.1649 34.3135 10.5914C34.8206 11.018 35.4624 11.2513 36.125 11.25C36.3104 11.25 36.4917 11.305 36.6458 11.408C36.8 11.511 36.9202 11.6574 36.9911 11.8287C37.0621 12 37.0807 12.1885 37.0445 12.3704C37.0083 12.5523 36.919 12.7193 36.7879 12.8504C36.6568 12.9815 36.4898 13.0708 36.3079 13.107C36.126 13.1432 35.9375 13.1246 35.7662 13.0536C35.5949 12.9827 35.4485 12.8625 35.3455 12.7083C35.2425 12.5542 35.1875 12.3729 35.1875 12.1875H33.3125C33.3149 12.7671 33.4963 13.3318 33.832 13.8044C34.1676 14.277 34.641 14.6343 35.1875 14.8275V15.9375H37.0625V14.8275C37.6875 14.6074 38.2144 14.1731 38.55 13.6017C38.8855 13.0303 39.008 12.3585 38.8957 11.7055C38.7834 11.0524 38.4436 10.4601 37.9365 10.0336C37.4294 9.60705 36.7876 9.37374 36.125 9.375C35.8764 9.375 35.6379 9.27623 35.4621 9.10041C35.2863 8.9246 35.1875 8.68614 35.1875 8.4375C35.1875 8.18886 35.2863 7.9504 35.4621 7.77459C35.6379 7.59877 35.8764 7.5 36.125 7.5Z" fill="#FF3600"/>
<path d="M17.375 23.4375V22.3275C18 22.1074 18.5269 21.6731 18.8625 21.1017C19.198 20.5303 19.3205 19.8585 19.2082 19.2055C19.0959 18.5524 18.7561 17.9601 18.249 17.5336C17.7419 17.107 17.1001 16.8737 16.4375 16.875C16.2521 16.875 16.0708 16.82 15.9167 16.717C15.7625 16.614 15.6423 16.4676 15.5714 16.2963C15.5004 16.125 15.4818 15.9365 15.518 15.7546C15.5542 15.5727 15.6435 15.4057 15.7746 15.2746C15.9057 15.1435 16.0727 15.0542 16.2546 15.018C16.4365 14.9818 16.625 15.0004 16.7963 15.0714C16.9676 15.1423 17.114 15.2625 17.217 15.4167C17.32 15.5708 17.375 15.7521 17.375 15.9375H19.25C19.2476 15.3579 19.0662 14.7932 18.7305 14.3206C18.3949 13.848 17.9215 13.4907 17.375 13.2975V12.1875H15.5V13.2975C14.875 13.5176 14.3481 13.9519 14.0125 14.5233C13.677 15.0947 13.5545 15.7665 13.6668 16.4195C13.7791 17.0726 14.1189 17.6649 14.626 18.0914C15.1331 18.518 15.7749 18.7513 16.4375 18.75C16.6229 18.75 16.8042 18.805 16.9583 18.908C17.1125 19.011 17.2327 19.1574 17.3036 19.3287C17.3746 19.5 17.3932 19.6885 17.357 19.8704C17.3208 20.0523 17.2315 20.2193 17.1004 20.3504C16.9693 20.4815 16.8023 20.5708 16.6204 20.607C16.4385 20.6432 16.25 20.6246 16.0787 20.5536C15.9074 20.4827 15.761 20.3625 15.658 20.2083C15.555 20.0542 15.5 19.8729 15.5 19.6875H13.625C13.6274 20.2671 13.8088 20.8318 14.1445 21.3044C14.4801 21.777 14.9535 22.1343 15.5 22.3275V23.4375H17.375Z" fill="#FF3600"/>
</svg>
