<svg width="44" height="44" viewBox="0 0 44 44" fill="none" xmlns="http://www.w3.org/2000/svg">
<g clip-path="url(#clip0_398_859)">
<path d="M43.0136 38.7257L37.5947 33.3068L37.1013 33.8002L35.9188 32.6177C36.676 31.3417 37.0843 29.8955 37.0843 28.3728C37.0843 26.9521 36.727 25.5825 36.0635 24.366C36.5824 22.6561 36.8631 20.8867 36.8631 19.0832C36.8631 9.08752 28.7305 0.963379 18.7434 0.963379C8.74782 0.963379 0.615234 9.09602 0.615234 19.0832C0.615234 29.0703 8.74782 37.203 18.7349 37.203C20.717 37.203 22.6736 36.8882 24.5111 36.2672L25.3533 36.0205C26.3996 36.4799 27.5481 36.7351 28.722 36.7351C30.2362 36.7351 31.6909 36.3268 32.9669 35.5696L34.1494 36.7521L33.656 37.2455L39.0749 42.6644C39.6193 43.2089 40.3339 43.4811 41.0485 43.4811C41.7631 43.4811 42.4777 43.2089 43.0221 42.6644C44.1025 41.5756 44.1025 39.8061 43.0136 38.7257ZM34.6343 22.4604C33.052 20.8781 30.9508 20.0104 28.722 20.0104C28.3987 20.0104 28.084 20.036 27.7692 20.07C27.7692 19.9764 27.7777 19.8828 27.7777 19.7893H35.4425C35.3999 20.8356 35.2638 21.8735 35.0256 22.8943C34.898 22.7412 34.7704 22.5966 34.6343 22.4604ZM10.815 12.3712C11.4445 12.3712 11.9549 12.8816 11.9549 13.5111C11.9549 14.1406 11.4445 14.6511 10.815 14.6511C10.1855 14.6511 9.67508 14.1406 9.67508 13.5111C9.67508 12.8816 10.1855 12.3712 10.815 12.3712ZM11.2148 16.0037C12.4228 15.808 13.3415 14.7702 13.3415 13.5111C13.3415 12.5413 12.7801 11.6992 11.9804 11.2823C12.04 11.0356 12.108 10.7889 12.1761 10.5422C14.0306 11.2653 16.0127 11.6736 18.0459 11.7502V18.3856H11.0957C11.1042 17.586 11.1468 16.7863 11.2148 16.0037ZM19.4325 11.7502C21.4571 11.6736 23.4307 11.2653 25.2852 10.5422C25.9317 12.8731 26.3316 15.5528 26.3911 18.3856H19.4325V11.7502ZM19.4325 10.338V2.42657C21.6358 2.88595 23.6009 5.47206 24.8769 9.20661C23.1585 9.88717 21.321 10.2615 19.4325 10.338ZM22.8437 2.86894C25.3618 3.50696 27.6586 4.72345 29.5812 6.36529C28.5349 7.25852 27.3949 8.02415 26.1784 8.62814C25.3278 6.18665 24.1878 4.20453 22.8437 2.86894ZM18.0374 2.43508V10.338C16.1488 10.2615 14.3113 9.88717 12.5844 9.20661C13.8945 5.38699 15.8851 2.88595 18.0374 2.43508ZM18.0374 19.7808V26.4162C16.0127 26.4927 14.0391 26.9011 12.1846 27.6242C11.5381 25.2933 11.1383 22.6136 11.0787 19.7808H18.0374ZM18.0374 27.8283V35.7398C15.8341 35.2804 13.869 32.6943 12.5929 28.9598C14.3198 28.2792 16.1573 27.9134 18.0374 27.8283ZM14.6346 35.3059C12.1166 34.6679 9.81969 33.4514 7.89713 31.8096C8.94348 30.9163 10.0834 30.1507 11.2999 29.5467C12.1421 31.9882 13.2905 33.9703 14.6346 35.3059ZM19.4325 35.7313V27.8198C19.7472 27.8368 20.062 27.8538 20.3767 27.8879C20.3682 28.0495 20.3512 28.2111 20.3512 28.3728C20.3512 30.3804 21.0573 32.269 22.3418 33.7832C21.6783 34.5743 20.6745 35.4761 19.4325 35.7313ZM20.5724 26.5097C20.1981 26.4757 19.8153 26.4417 19.4325 26.4332V19.7893H26.3826C26.3826 19.9764 26.3741 20.1636 26.3656 20.3507C25.0385 20.742 23.8135 21.4566 22.8097 22.4604C21.6783 23.5919 20.9212 24.987 20.5724 26.5097ZM35.451 18.3856H27.7948C27.7352 15.3061 27.3184 12.4478 26.6123 9.96373C28.05 9.26616 29.4026 8.38144 30.6276 7.31807C33.4604 10.1934 35.2723 14.0811 35.451 18.3856ZM11.3084 8.62814C10.0919 8.02415 8.95199 7.25852 7.89713 6.35679C9.81969 4.71494 12.1166 3.49845 14.6431 2.86043C13.316 4.18751 12.1676 6.15262 11.3084 8.62814ZM6.85929 7.32658C8.09279 8.39845 9.44539 9.28318 10.8916 9.98075C10.798 10.3125 10.7044 10.6528 10.6193 11.0016C9.31779 11.1037 8.28845 12.184 8.28845 13.5111C8.28845 14.5575 8.92647 15.4592 9.83671 15.842C9.76015 16.6842 9.71761 17.5349 9.7006 18.3856H2.02738C2.20602 14.0811 4.01799 10.1934 6.85929 7.32658ZM2.02738 19.7808H9.68358C9.74313 22.8603 10.16 25.7186 10.866 28.2026C9.42838 28.9002 8.07578 29.7849 6.85079 30.8483C4.01799 27.9815 2.20602 24.0853 2.02738 19.7808ZM22.8267 35.3144C22.9969 35.1443 23.167 34.9571 23.3371 34.77C23.4562 34.8721 23.5838 34.9657 23.7115 35.0592C23.4137 35.1443 23.1245 35.2379 22.8267 35.3144ZM23.7965 33.2983C22.478 31.9797 21.7549 30.2273 21.7549 28.3728C21.7549 26.5097 22.478 24.7573 23.7965 23.4472C25.1151 22.1287 26.8675 21.4056 28.722 21.4056C30.585 21.4056 32.3374 22.1287 33.6475 23.4472C34.9661 24.7658 35.6892 26.5183 35.6892 28.3728C35.6892 29.7339 35.2978 31.044 34.5662 32.1584L34.4557 32.32C34.3281 32.5072 34.2005 32.6773 34.0643 32.8389C33.9282 33.0005 33.7921 33.1537 33.6475 33.2983C33.5029 33.4429 33.3413 33.5875 33.1881 33.7151C33.0265 33.8512 32.8564 33.9789 32.6692 34.1065L32.5076 34.217C31.3932 34.9401 30.0916 35.3315 28.722 35.3315C26.859 35.34 25.1066 34.6169 23.7965 33.2983ZM34.1239 34.7615C34.3025 34.6084 34.4727 34.4552 34.6428 34.2936C34.8044 34.132 34.9661 33.9618 35.1107 33.7832L36.1145 34.787L35.1277 35.7738L34.1239 34.7615ZM42.0268 41.6776C41.4823 42.2221 40.5976 42.2221 40.0532 41.6776L35.6211 37.2455L37.5947 35.2719L42.0268 39.704C42.5712 40.2485 42.5712 41.1332 42.0268 41.6776Z" fill="white"/>
<path d="M32.9157 24.3235C30.6784 22.0862 27.0459 22.0862 24.8086 24.3235L25.7954 25.3103C27.4883 23.6174 30.236 23.6174 31.9289 25.3103L32.9157 24.3235Z" fill="#FF3600"/>
</g>
<defs>
<clipPath id="clip0_398_859">
<rect width="43.5553" height="43.5556" fill="white" transform="translate(0.445312 0.444336)"/>
</clipPath>
</defs>
</svg>
