<svg width="60" height="60" viewBox="0 0 60 60" fill="none" xmlns="http://www.w3.org/2000/svg">
<path d="M14.9062 28.4997L10.125 27.4684C8.8125 27.1872 7.59375 28.2184 7.59375 29.5309V31.4997C7.59375 33.0934 8.8125 33.4684 10.3125 33.4684H15.5625C16.5937 33.4684 17.625 33.2809 17.625 32.1559V31.8747C17.625 30.1872 16.5 28.7809 14.9062 28.4997ZM9.375 31.4997C9.375 31.4059 9.375 31.4059 9.375 29.4372C9.375 29.2497 9.5625 29.0622 9.75 29.1559L14.5312 30.1872C15.1875 30.3747 15.6562 30.9372 15.75 31.5934C12.4687 31.5934 9.65625 31.5934 9.375 31.4997Z" fill="white"/>
<path d="M57.4688 18.4688L50.7188 15.2812C48.4688 14.25 46.0312 13.875 43.6875 14.3438L42.6562 12.2813C41.9062 10.4063 40.125 9.09375 38.0625 9.09375H16.125C14.0625 9.09375 12.2812 10.3125 11.5312 12.1875L7.875 19.7813C7.03125 18.5625 5.625 17.8125 4.125 17.8125H2.53125C1.125 17.8125 0 18.9375 0 20.3438V21.375C0 22.7812 1.125 23.9062 2.53125 23.9062H4.96875C3.9375 25.2188 3.46875 26.9062 3.46875 28.5938V34.2188C3.46875 36.375 4.21875 38.4375 5.71875 40.2188V44.4375C5.71875 46.3125 7.21875 47.8125 9.09375 47.8125H12.5625C14.4375 47.8125 15.9375 46.3125 15.9375 44.4375V42.75H34.6875C38.8125 48.375 45.2812 50.8125 45.375 50.8125C45.5625 50.9062 45.75 50.9062 46.0312 50.8125C46.125 50.7188 60 45.6562 60 33V22.5C60 20.8125 58.9688 19.2188 57.4688 18.4688ZM13.2188 12.9375C13.6875 11.7188 14.8125 10.9688 16.125 10.9688H38.0625C39.375 10.9688 40.5 11.7187 41.0625 13.0312L41.9062 14.8125C41.5312 14.9063 41.1562 15.0937 40.7812 15.2812L34.0312 18.4688C32.5312 19.2188 31.5 20.7188 31.5 22.4062H8.53125C8.90625 21.8438 8.53125 22.7812 13.2188 12.9375ZM1.875 21.375V20.3438C1.875 19.9688 2.15625 19.6875 2.53125 19.6875H4.125C6 19.6875 6.65625 21.375 6.84375 21.6563C6.75 21.8438 6.65625 21.9375 6.46875 22.125H2.53125C2.15625 22.0313 1.875 21.75 1.875 21.375ZM14.0625 44.3438C14.0625 45.1875 13.4062 45.8438 12.5625 45.8438H9C8.15625 45.9375 7.5 45.1875 7.5 44.3438V41.625C8.625 42.2812 9.9375 42.6562 11.25 42.6562H14.0625V44.3438ZM11.1562 40.875C7.78125 40.875 5.15625 37.5938 5.15625 34.125V28.5C5.15625 26.9062 5.8125 25.4062 6.9375 24.1875H31.5V32.4375H21.1875C20.7188 32.4375 20.25 32.8125 20.25 33.375C20.25 33.9375 20.625 34.3125 21.1875 34.3125H31.5938C31.6875 34.9687 31.6875 35.5312 31.875 36.0938H21.1875C20.7188 36.0938 20.25 36.4688 20.25 37.0312C20.25 37.5938 20.625 37.9688 21.1875 37.9688H32.25C32.625 39 33 40.0312 33.5625 40.875H11.1562ZM58.125 33C58.125 43.4062 47.625 48.1875 45.75 48.9375C39 46.2188 33.375 40.4062 33.375 33C33.375 29.5312 33.375 27.6562 33.375 22.5C33.375 21.4688 33.9375 20.625 34.875 20.1562L41.625 16.9688C44.3438 15.6563 47.3438 15.6563 50.0625 16.9688L56.8125 20.1562C57.6562 20.625 58.3125 21.4688 58.3125 22.5V33H58.125Z" fill="white"/>
<path d="M54.9375 22.3125L48.75 19.4063C46.875 18.4687 44.5312 18.4687 42.6562 19.4063L36.5625 22.3125C36.2812 22.5 36 22.7813 36 23.1563V33C36 40.4063 42.4687 44.4375 45.2812 45.8438C45.5625 45.9375 45.8438 45.9375 46.125 45.8438C48.9375 44.4375 55.4062 40.4063 55.4062 33V23.1563C55.4062 22.7813 55.2187 22.5 54.9375 22.3125ZM53.625 33C53.625 39 48.375 42.5625 45.75 43.9688C42.6562 42.2813 37.875 38.9063 37.875 33V23.7187L43.5 21C44.9063 20.3437 46.5938 20.3437 48 21L53.625 23.7187V33Z" fill="white"/>
<path d="M42.0938 32.7182C41.7188 32.437 41.1563 32.5307 40.7813 32.9057C40.4063 33.2807 40.5938 33.8432 40.9688 34.2182L44.5313 36.937C44.9063 37.2182 45.4688 37.1245 45.8438 36.7495L51.0938 29.9057C51.3751 29.5307 51.2813 28.9682 50.9063 28.5932C50.5313 28.312 49.9688 28.4057 49.5938 28.7807L44.9063 34.8745L42.0938 32.7182Z" fill="#FF3600"/>
</svg>
