<svg width="60" height="60" viewBox="0 0 60 60" fill="none" xmlns="http://www.w3.org/2000/svg">
<path d="M8.39289 42.2962H9.42602L9.72789 53.5743C9.75727 54.373 10.4066 54.9987 11.2066 54.9987H18.9891C19.7879 54.9987 20.4373 54.373 20.4673 53.5637L20.6298 47.3124H22.4698C23.1091 49.2843 24.9416 50.723 27.1229 50.723C29.8323 50.723 32.036 48.5193 32.036 45.8099C32.036 43.1005 29.8329 40.8968 27.1229 40.8968C24.5429 40.8968 22.4448 42.9024 22.2485 45.433H20.6785L20.7598 42.2955H22.281C24.0085 42.2955 25.4141 40.8899 25.4141 39.1624V37.4468H40.221C40.8398 37.4468 41.4041 37.1349 41.7298 36.6124C42.0579 36.0868 42.0898 35.4393 41.8123 34.8699L40.5673 32.3943C40.2729 31.778 39.6604 31.3962 38.9679 31.3962H25.4135V29.733H36.6248C38.0391 30.308 39.5766 30.6349 41.1873 30.6662L43.4116 35.0812C43.8248 35.9255 44.5879 36.5405 45.5054 36.7699L51.8598 38.3612C52.4491 38.5068 52.861 39.0337 52.861 39.6412V44.1255C52.861 44.8512 52.2654 45.4405 51.5335 45.4405H50.1623C49.9704 42.9055 47.8698 40.8955 45.286 40.8955C42.706 40.8955 40.6079 42.9012 40.4116 45.4318H33.8216C33.3029 45.4318 32.8823 45.8524 32.8823 46.3712C32.8823 46.8899 33.3029 47.3105 33.8216 47.3105H40.6335C41.2729 49.2824 43.1054 50.7212 45.2866 50.7212C47.4654 50.7212 49.2954 49.2868 49.9373 47.3199H51.5341C53.3016 47.3199 54.7404 45.8868 54.7404 44.1255V39.6412C54.7404 38.1662 53.741 36.8899 52.3135 36.5374L45.9623 34.9468C45.5829 34.8518 45.2685 34.5999 45.096 34.2468L43.2354 30.538C49.4673 29.6612 54.2823 24.308 54.2823 17.838C54.2823 10.758 48.5223 4.99805 41.4423 4.99805C34.3623 4.99805 28.6023 10.758 28.6023 17.838C28.6023 21.8868 30.4904 25.4974 33.4273 27.8524H25.1929C24.5654 25.6337 22.5448 23.9943 20.1285 23.9943H10.6616C7.68289 23.9943 5.25977 26.4174 5.25977 29.3955V39.1605C5.25914 40.8905 6.66477 42.2962 8.39289 42.2962ZM27.1223 42.7768C28.796 42.7768 30.156 44.138 30.156 45.8105C30.156 47.4837 28.7954 48.8443 27.1223 48.8443C25.4498 48.8443 24.0885 47.4837 24.0885 45.8105C24.0885 44.1374 25.4504 42.7768 27.1223 42.7768ZM45.286 48.8443C43.6135 48.8443 42.2523 47.4837 42.2523 45.8105C42.2523 44.1374 43.6135 42.7768 45.286 42.7768C46.9598 42.7768 48.3198 44.138 48.3198 45.8105C48.3204 47.483 46.9598 48.8443 45.286 48.8443ZM30.481 17.8405C30.481 11.7968 35.3979 6.87992 41.4416 6.87992C47.4854 6.87992 52.4023 11.7968 52.4023 17.8405C52.4023 23.8843 47.4854 28.8012 41.4416 28.8012C35.3979 28.8012 30.481 23.8843 30.481 17.8405ZM38.8798 33.2224L40.0591 35.5687H25.4135V33.2724L38.8798 33.2224ZM7.13852 29.398C7.13852 27.4555 8.71914 25.8755 10.6616 25.8755H20.1285C22.0066 25.8755 23.5348 27.4043 23.5348 29.2824V39.163C23.5348 39.8543 22.9723 40.4168 22.281 40.4168H20.7704V33.1555C20.7704 32.6368 20.3504 32.2162 19.831 32.2162C19.3123 32.2162 18.8916 32.6368 18.8916 33.1555L18.601 53.1199H16.0385V43.1874C16.0385 42.6687 15.6179 42.248 15.0991 42.248C14.5798 42.248 14.1598 42.6687 14.1598 43.1874V53.1199H11.5966L11.3054 33.1555C11.3054 32.6368 10.8854 32.2162 10.366 32.2162C9.84727 32.2162 9.42664 32.6368 9.42664 33.1555V40.4174H8.39352C7.70164 40.4174 7.13914 39.8549 7.13914 39.1637V29.398H7.13852Z" fill="white"/>
<path d="M7.69437 12.3599C7.72624 12.548 8.10812 12.988 8.18062 13.0512C8.14749 13.3199 8.12874 15.0249 8.12874 15.0249C8.38999 18.3737 9.94624 21.0937 12.2544 22.2818C13.125 22.7612 14.2706 23.0737 15.3212 23.0399C16.0644 23.0162 16.7681 22.9287 17.3944 22.7137C20.2637 21.7855 22.2225 18.838 22.5094 14.9524C22.5094 14.9524 22.4887 13.323 22.4544 13.0605C22.4975 13.0224 22.8544 12.6874 22.9169 12.5018C22.9169 12.5018 23.4206 10.9974 23.7706 9.80865C24.1887 8.5599 23.6706 7.16678 22.4287 6.44365C21.1119 5.87928 18.8112 5.16678 15.3287 5.20615C11.0937 5.25365 8.14812 6.43928 8.10249 6.46615C6.95624 7.1549 6.44499 8.52428 6.85937 9.7949L7.69437 12.3599ZM20.6337 14.8824C20.4556 17.2643 19.3712 20.1387 16.8006 20.9312C14.6019 21.6087 13.3625 20.7505 13.1512 20.6305C11.4156 19.7368 10.2094 17.533 10.005 14.9518V13.9855C10.3081 14.0549 10.6175 14.0993 10.9312 14.0993H19.7062C20.0225 14.0993 20.33 14.0549 20.6319 13.9868L20.6337 14.8824ZM9.01374 8.11303C10.7875 7.43115 12.9112 7.08553 15.3287 7.08553C18.4925 7.08553 20.5331 7.67553 21.5812 8.11678C21.9569 8.33803 22.1281 8.79803 21.9794 9.24428C21.7137 10.143 21.3681 11.1999 21.215 11.6649C20.7975 12.0205 20.2562 12.2212 19.7062 12.2212H10.9312C10.5156 12.2212 9.54187 11.7643 9.45374 11.6912L8.64749 9.21365C8.51249 8.80053 8.66312 8.35803 9.01374 8.11303Z" fill="white"/>
<path d="M38.5333 21.6256C38.7883 21.8806 39.1233 22.0088 39.4589 22.0088C39.7945 22.0088 40.1295 21.8806 40.3852 21.6256L46.7352 15.2763C47.102 14.9094 47.102 14.315 46.7352 13.9475C46.3683 13.5806 45.7739 13.5806 45.4064 13.9475L39.4589 19.8938L37.4789 17.9138C37.112 17.5469 36.5177 17.5469 36.1502 17.9138C35.7833 18.2806 35.7833 18.875 36.1502 19.2425L38.5333 21.6256Z" fill="#FF3600"/>
</svg>
