<svg width="47" height="47" viewBox="0 0 47 47" fill="none" xmlns="http://www.w3.org/2000/svg">
<path d="M7.41128 33.4191H8.20381L8.43538 42.0708C8.45791 42.6835 8.95606 43.1635 9.56975 43.1635H15.5398C16.1526 43.1635 16.6507 42.6836 16.6737 42.0627L16.7984 37.2672H18.2099C18.7003 38.7798 20.1061 39.8835 21.7794 39.8835C23.8578 39.8835 25.5483 38.193 25.5483 36.1146C25.5483 34.0361 23.8582 32.3456 21.7794 32.3456C19.8002 32.3456 18.1907 33.8841 18.0401 35.8255H16.8358L16.8981 33.4186H18.0651C19.3903 33.4186 20.4685 32.3403 20.4685 31.0151V29.699H31.8271C32.3018 29.699 32.7347 29.4598 32.9845 29.0589C33.2362 28.6557 33.2607 28.159 33.0478 27.7222L32.0927 25.8231C31.8669 25.3504 31.3971 25.0574 30.8658 25.0574H20.4681V23.7816H29.0684C30.1534 24.2227 31.3328 24.4734 32.5684 24.4974L34.2747 27.8843C34.5916 28.532 35.177 29.0038 35.8809 29.1798L40.7554 30.4004C41.2075 30.5122 41.5235 30.9163 41.5235 31.3824V34.8224C41.5235 35.3791 41.0666 35.8312 40.5051 35.8312H39.4532C39.306 33.8865 37.6946 32.3446 35.7126 32.3446C33.7334 32.3446 32.1239 33.8832 31.9734 35.8245H26.9181C26.5201 35.8245 26.1975 36.1472 26.1975 36.5451C26.1975 36.9431 26.5201 37.2657 26.9181 37.2657H32.1436C32.634 38.7784 34.0398 39.8821 35.713 39.8821C37.3844 39.8821 38.7882 38.7818 39.2806 37.2729H40.5056C41.8615 37.2729 42.9652 36.1735 42.9652 34.8224V31.3824C42.9652 30.2509 42.1985 29.2718 41.1035 29.0014L36.2313 27.7812C35.9403 27.7083 35.6991 27.5151 35.5668 27.2442L34.1395 24.3991C38.9201 23.7265 42.6137 19.6199 42.6137 14.6566C42.6137 9.2254 38.1951 4.80676 32.764 4.80676C27.3328 4.80676 22.9142 9.2254 22.9142 14.6566C22.9142 17.7625 24.3626 20.5323 26.6155 22.3389H20.2988C19.8175 20.6369 18.2674 19.3793 16.4139 19.3793H9.15167C6.86663 19.3793 5.00781 21.2381 5.00781 23.5227V31.0137C5.00733 32.3408 6.08561 33.4191 7.41128 33.4191ZM21.7789 33.7878C23.0628 33.7878 24.1061 34.832 24.1061 36.115C24.1061 37.3985 23.0624 38.4423 21.7789 38.4423C20.4959 38.4423 19.4516 37.3985 19.4516 36.115C19.4516 34.8315 20.4964 33.7878 21.7789 33.7878ZM35.7126 38.4423C34.4296 38.4423 33.3853 37.3985 33.3853 36.115C33.3853 34.8315 34.4296 33.7878 35.7126 33.7878C36.9965 33.7878 38.0398 34.832 38.0398 36.115C38.0403 37.3981 36.9965 38.4423 35.7126 38.4423ZM24.3554 14.6586C24.3554 10.0223 28.1272 6.2504 32.7635 6.2504C37.3997 6.2504 41.1716 10.0223 41.1716 14.6586C41.1716 19.2949 37.3997 23.0667 32.7635 23.0667C28.1272 23.0667 24.3554 19.2949 24.3554 14.6586ZM30.7982 26.4584L31.703 28.2582H20.4681V26.4967L30.7982 26.4584ZM6.44903 23.5246C6.44903 22.0345 7.66155 20.8224 9.15167 20.8224H16.4139C17.8546 20.8224 19.0268 21.9952 19.0268 23.4359V31.0156C19.0268 31.5459 18.5953 31.9774 18.0651 31.9774H16.9063V26.4071C16.9063 26.0091 16.5841 25.6865 16.1856 25.6865C15.7877 25.6865 15.465 26.0091 15.465 26.4071L15.2421 41.7222H13.2764V34.1028C13.2764 33.7048 12.9537 33.3822 12.5557 33.3822C12.1573 33.3822 11.8351 33.7048 11.8351 34.1028V41.7222H9.86893L9.6455 26.4071C9.6455 26.0091 9.32332 25.6865 8.9249 25.6865C8.52695 25.6865 8.20429 26.0091 8.20429 26.4071V31.9778H7.41176C6.88101 31.9778 6.44951 31.5463 6.44951 31.0161V23.5246H6.44903Z" fill="white"/>
<path d="M6.87491 10.4542C6.89936 10.5985 7.1923 10.9361 7.24792 10.9845C7.22251 11.1907 7.20813 12.4986 7.20813 12.4986C7.40853 15.0675 8.60236 17.1541 10.373 18.0655C11.0408 18.4333 11.9197 18.673 12.7256 18.6471C13.2957 18.6289 13.8355 18.5618 14.3159 18.3968C16.5171 17.6849 18.0197 15.4238 18.2397 12.443C18.2397 12.443 18.2239 11.1931 18.1975 10.9917C18.2306 10.9624 18.5044 10.7055 18.5523 10.5631C18.5523 10.5631 18.9388 9.40902 19.2072 8.4971C19.528 7.53915 19.1305 6.47045 18.1779 5.91573C17.1677 5.48278 15.4028 4.9362 12.7314 4.96641C9.48262 5.00285 7.22299 5.91237 7.18799 5.93299C6.30868 6.46134 5.9165 7.51182 6.23437 8.48655L6.87491 10.4542ZM16.8009 12.3893C16.6643 14.2165 15.8324 16.4215 13.8605 17.0294C12.1738 17.5492 11.223 16.8909 11.061 16.7988C9.72954 16.1132 8.80421 14.4227 8.64743 12.4425V11.7013C8.87996 11.7545 9.11728 11.7885 9.35797 11.7885H16.0894C16.332 11.7885 16.5679 11.7545 16.7995 11.7022L16.8009 12.3893ZM7.88702 7.19634C9.24769 6.67326 10.8769 6.40812 12.7314 6.40812C15.1583 6.40812 16.7237 6.86073 17.5277 7.19922C17.8159 7.36895 17.9473 7.72183 17.8332 8.06415C17.6294 8.75361 17.3643 9.56436 17.2468 9.92108C16.9265 10.1939 16.5113 10.3478 16.0894 10.3478H9.35797C9.03913 10.3478 8.29216 9.99731 8.22455 9.94121L7.60607 8.04066C7.50251 7.72374 7.61805 7.38429 7.88702 7.19634Z" fill="white"/>
<path d="M30.5314 17.5621C30.727 17.7577 30.984 17.856 31.2415 17.856C31.4989 17.856 31.7559 17.7577 31.952 17.5621L36.8232 12.6913C37.1046 12.4099 37.1046 11.9539 36.8232 11.672C36.5417 11.3906 36.0858 11.3906 35.8039 11.672L31.2415 16.2335L29.7226 14.7146C29.4411 14.4332 28.9852 14.4332 28.7033 14.7146C28.4218 14.9961 28.4218 15.452 28.7033 15.7339L30.5314 17.5621Z" fill="#FF3600"/>
</svg>
