<svg width="60" height="60" viewBox="0 0 60 60" fill="none" xmlns="http://www.w3.org/2000/svg">
<path d="M38.6239 20.6782C39.1256 20.6782 39.5321 20.2848 39.5321 19.7993V18.6456C39.5321 18.16 39.1256 17.7666 38.6239 17.7666C38.1221 17.7666 37.7156 18.16 37.7156 18.6456V19.7993C37.7156 20.2848 38.1222 20.6782 38.6239 20.6782Z" fill="white"/>
<path d="M30.7984 20.6782C31.3001 20.6782 31.7067 20.2848 31.7067 19.7993V18.6456C31.7067 18.16 31.3001 17.7666 30.7984 17.7666C30.2967 17.7666 29.8901 18.16 29.8901 18.6456V19.7993C29.8901 20.2848 30.2968 20.6782 30.7984 20.6782Z" fill="white"/>
<path d="M34.7023 27.6626C36.4592 27.6626 37.8884 26.2793 37.8884 24.5792C37.8884 24.0936 37.4819 23.7002 36.9802 23.7002C36.4784 23.7002 36.0719 24.0936 36.0719 24.5792C36.0719 25.31 35.4575 25.9047 34.7023 25.9047C33.9471 25.9047 33.3328 25.3101 33.3328 24.5792C33.3328 24.0936 32.9262 23.7002 32.4245 23.7002C31.9228 23.7002 31.5162 24.0936 31.5162 24.5792C31.5162 26.2793 32.9455 27.6626 34.7023 27.6626Z" fill="white"/>
<path d="M55.3916 47.133C55.8933 47.133 56.2999 46.7395 56.2999 46.254V43.528C56.2999 41.0102 54.6381 38.7941 52.1562 38.0112L40.9245 34.587V31.0902C43.5456 29.2172 44.8348 26.1534 44.7235 23.0532C46.8073 23.2081 49.0779 22.0127 49.0779 19.7251V17.8901C49.0779 17.0111 48.7233 16.2111 48.1461 15.6156C48.1578 15.5591 48.1641 13.1084 48.1641 13.1084C48.1641 12.6229 47.7576 12.2295 47.2559 12.2295C46.7541 12.2295 46.3476 12.6229 46.3476 13.1084V14.5617H33.633C32.1306 14.5617 30.9081 13.3787 30.9081 11.9248V4.39487C30.9081 2.94093 32.1306 1.75795 33.633 1.75795H39.7983C43.4096 1.75795 46.3476 4.60114 46.3476 8.09594V9.27729C46.3476 9.76283 46.7541 10.1563 47.2559 10.1563C47.7576 10.1563 48.1641 9.76283 48.1641 9.27729V8.09594C48.1643 3.63181 44.4113 0 39.7985 0H33.6331C31.3949 0 29.531 1.57536 29.16 3.64036H27.6371C24.1315 3.64036 21.2792 6.40058 21.2792 9.79319C21.2792 9.79319 21.2843 15.5356 21.2918 15.5814C20.6948 16.1804 20.3263 16.9941 20.3263 17.8901V19.7251C20.3263 21.9772 22.5863 23.2259 24.6809 23.0532C24.4811 26.1356 25.8987 29.2458 28.4799 31.0902V34.622L20.3086 37.5776C19.5134 37.8664 18.8195 38.3626 18.3023 39.0126L13.04 45.6234V42.6813C13.04 41.8874 12.675 41.1747 12.0994 40.6909V37.0507C12.0994 35.5624 10.8481 34.3515 9.31024 34.3515C7.77235 34.3515 6.52123 35.5624 6.52123 37.0507V40.0443C4.60829 40.0443 3.70001 41.083 3.70001 42.6813V50.0867C3.70001 51.2555 4.49033 52.2487 5.58062 52.5934V55.6098C5.58062 59.8376 11.2234 61.6747 13.9381 58.0873L18.747 52.4647V59.121C18.747 59.6066 19.1535 60 19.6552 60H55.3916C55.8933 60 56.2999 59.6066 56.2999 59.121V50.0852C56.2999 49.5996 55.8933 49.2062 55.3916 49.2062C54.8898 49.2062 54.4833 49.5996 54.4833 50.0852V58.242H48.7766V46.5796C48.7766 46.094 48.37 45.7006 47.8683 45.7006C47.3666 45.7006 46.96 46.094 46.96 46.5796V47.2911H20.5636V46.384C20.5636 45.8984 20.1571 45.505 19.6554 45.505C19.1536 45.505 18.7471 45.8984 18.7471 46.384V49.7077L12.5106 56.9995C11.0237 58.7364 7.39729 58.7889 7.39729 55.6098V52.7237H10.2829V53.6649C10.2829 54.1505 10.6895 54.5439 11.1912 54.5439C11.6929 54.5439 12.0995 54.1505 12.0995 53.6649V52.0771C12.6753 51.5932 13.0406 50.8805 13.0406 50.0862V48.5032L19.7415 40.0854C20.052 39.6951 20.4689 39.3971 20.9457 39.2238L29.2408 36.2234L34.1558 39.8048C34.5111 40.0637 34.9793 40.0041 35.3065 39.7626L40.1882 36.2054L51.6018 39.6851C53.3252 40.2289 54.4833 41.7731 54.4833 43.5279V46.2539C54.4833 46.7395 54.89 47.133 55.3916 47.133ZM46.96 49.0491V54.6067H31.3672C30.8655 54.6067 30.459 55.0002 30.459 55.4857C30.459 55.9712 30.8655 56.3647 31.3672 56.3647H46.9601V58.2422H20.5636V56.3647H27.4096C27.9113 56.3647 28.3179 55.9712 28.3179 55.4857C28.3179 55.0002 27.9113 54.6067 27.4096 54.6067H20.5636V49.0491H46.96ZM8.33778 37.0509C8.33778 36.5318 8.77411 36.1097 9.31024 36.1097C9.8466 36.1097 10.2828 36.532 10.2828 37.0509V40.0446H8.33778V37.0509ZM5.51668 42.6815C5.51668 42.1968 5.92407 41.8025 6.42496 41.8025H10.3153C10.8162 41.8025 11.2235 42.1968 11.2235 42.6815V43.685H8.37011C7.86838 43.685 7.46184 44.0785 7.46184 44.564C7.46184 45.0496 7.86838 45.443 8.37011 45.443H11.2235V47.3255H8.37011C7.86838 47.3255 7.46184 47.719 7.46184 48.2045C7.46184 48.69 7.86838 49.0835 8.37011 49.0835H11.2235V50.087C11.2235 50.6731 10.8562 50.9262 10.3159 50.9655L6.42496 50.966C5.92407 50.966 5.51668 50.5718 5.51668 50.087V42.6815ZM47.2614 19.7251C47.2614 20.591 46.5336 21.2952 45.639 21.2952H44.7236V16.3199H45.639C46.5337 16.3199 47.2614 17.0242 47.2614 17.8899V19.7251ZM23.0958 9.79319C23.0958 7.36979 25.133 5.39831 27.6371 5.39831H29.0917V11.9248V11.925C29.0917 13.3789 27.8693 14.5619 26.3669 14.5619H25.5893H23.0958V9.79319ZM23.7654 21.2952C22.8706 21.2952 22.1429 20.5909 22.1429 19.7251V17.8901C22.1429 17.0242 22.8708 16.32 23.7654 16.32H24.681V21.2953L23.7654 21.2952ZM26.4976 23.8263V16.3167C27.9282 16.2773 29.1954 15.5958 30.0001 14.5588C30.8293 15.6271 32.1492 16.3196 33.6331 16.3196H42.9068L42.907 23.8263C42.907 33.485 26.4976 33.4737 26.4976 23.8263ZM39.1079 32.1044V34.7896L34.7024 38.0022L30.2966 34.7895V32.1045C32.4624 33.362 36.7816 33.2838 39.1079 32.1044Z" fill="white"/>
<path d="M8.66825 25.1214C9.09647 25.4646 9.52469 25.4646 9.95279 25.1214L13.7145 21.4809C14.0692 21.1376 14.0692 20.5811 13.7144 20.2378C13.3598 19.8947 12.7847 19.8947 12.43 20.2378L9.31058 23.2568L8.07194 22.058C7.71711 21.7149 7.14211 21.7149 6.7874 22.058C6.43268 22.4014 6.43268 22.9578 6.7874 23.3011L8.66825 25.1214Z" fill="#FF3600"/>
<path d="M6.42496 30.8811H14.0771C15.5795 30.8811 16.8019 29.6981 16.8019 28.2442V27.2406H19.6555C20.6146 27.2333 21.0385 26.5253 20.3013 25.7437L16.8019 22.3185V17.1154C16.8019 15.6615 15.5795 14.4785 14.0771 14.4785H6.42496C4.92255 14.4785 3.70013 15.6615 3.70013 17.1154V28.2442C3.70013 29.6981 4.92243 30.8811 6.42496 30.8811ZM5.51668 17.1154C5.51668 16.6307 5.92407 16.2365 6.42496 16.2365H14.0771C14.578 16.2365 14.9854 16.6307 14.9854 17.1154V22.6798C14.9854 22.9113 15.0796 23.1333 15.2478 23.2978L17.4802 25.4828H15.8937C15.3919 25.4828 14.9854 25.8762 14.9854 26.3618V28.2442C14.9854 28.7289 14.578 29.1232 14.0771 29.1232H6.42496C5.92407 29.1232 5.51668 28.7289 5.51668 28.2442V17.1154Z" fill="white"/>
</svg>
