<svg width="60" height="60" viewBox="0 0 60 60" fill="none" xmlns="http://www.w3.org/2000/svg">
<path d="M30 23.1914C33.8672 23.1914 37.0078 20.0508 37.0078 16.1836C36.6211 6.89062 23.3789 6.89062 22.9922 16.1836C22.9922 20.0508 26.1328 23.1914 30 23.1914ZM30 10.3945C33.1875 10.3945 35.789 12.9961 35.789 16.1836C35.4726 23.8594 24.5273 23.8594 24.2109 16.1836C24.2109 12.9961 26.8125 10.3945 30 10.3945ZM17.5547 19.3828H19.2656C19.4883 20.1211 19.7812 20.8359 20.1445 21.5156L18.9375 22.7227C18.4336 23.2266 18.4336 24.0469 18.9375 24.5508L21.6328 27.2461C22.1133 27.75 22.9804 27.75 23.4609 27.2461L24.6679 26.0391C25.3476 26.4023 26.0625 26.707 26.8008 26.918V28.6289C26.8008 29.3438 27.375 29.918 28.0898 29.918H31.9101C32.625 29.918 33.1992 29.3438 33.1992 28.6289V26.918C33.9375 26.6953 34.6406 26.4023 35.332 26.0391L36.5508 27.2461C37.0312 27.75 37.8984 27.75 38.3789 27.2461L41.0742 24.5508C41.5781 24.0703 41.5781 23.2031 41.0742 22.7227L39.8672 21.5156C40.2304 20.8359 40.5351 20.1211 40.7461 19.3828H42.457C43.1719 19.3828 43.7461 18.8086 43.7461 18.0937V14.2734C43.7461 13.5586 43.1719 12.9844 42.457 12.9844H40.7461C40.5234 12.2461 40.2304 11.5312 39.8672 10.8516L41.0742 9.64453C41.5781 9.16406 41.5781 8.29687 41.0742 7.81641L38.3789 5.12109C37.875 4.61719 37.0547 4.61719 36.5508 5.12109L35.332 6.32812C34.6523 5.96484 33.9375 5.66016 33.1992 5.44922V3.73828C33.1992 3.02344 32.625 2.44922 31.9101 2.44922H28.0898C27.375 2.44922 26.8008 3.02344 26.8008 3.73828V5.44922C26.0625 5.67187 25.3476 5.96484 24.6679 6.32812L23.4492 5.10937C22.9453 4.60547 22.125 4.60547 21.6211 5.10937L18.9258 7.80469C18.4219 8.30859 18.4219 9.12891 18.9258 9.63281L20.1328 10.8398C19.7695 11.5195 19.4765 12.2344 19.2539 12.9727H17.5429C16.8281 12.9727 16.2539 13.5469 16.2539 14.2617V18.082C16.2539 18.8086 16.8398 19.3828 17.5547 19.3828ZM17.4726 14.2734C17.4726 14.2266 17.5078 14.1914 17.5547 14.1914H19.7344C20.0156 14.1914 20.25 14.0039 20.3203 13.7344C20.5547 12.7969 20.9297 11.8945 21.4336 11.0625C21.5742 10.8281 21.539 10.5234 21.3398 10.3242L19.7929 8.78906C19.7578 8.75391 19.7578 8.70703 19.7929 8.68359L22.4883 5.98828C22.5234 5.95312 22.5703 5.96484 22.5937 5.98828L24.1406 7.52344C24.3398 7.72266 24.6445 7.75781 24.8789 7.61719C25.7109 7.11328 26.6133 6.75 27.5508 6.50391C27.8203 6.43359 28.0078 6.1875 28.0078 5.91797V3.73828C28.0078 3.69141 28.0429 3.65625 28.0898 3.65625H31.9101C31.957 3.65625 31.9922 3.69141 31.9922 3.73828V5.91797C31.9922 6.19922 32.1797 6.43359 32.4492 6.50391C33.3867 6.73828 34.289 7.11328 35.1211 7.61719C35.3554 7.75781 35.6719 7.72266 35.8594 7.52344L37.4062 5.97656C37.4414 5.94141 37.4883 5.95312 37.5117 5.97656L40.207 8.67187V8.77734L38.6719 10.3242C38.4726 10.5234 38.4375 10.8281 38.5781 11.0625C39.082 11.8945 39.457 12.7969 39.6914 13.7344C39.7617 14.0039 39.9961 14.1914 40.2773 14.1914H42.457C42.5039 14.1914 42.539 14.2266 42.539 14.2734V18.0937C42.539 18.1406 42.5039 18.1758 42.457 18.1758H40.2773C39.9961 18.1758 39.75 18.3633 39.6914 18.6328C39.457 19.5703 39.082 20.4727 38.5781 21.3047C38.4375 21.5391 38.4726 21.8438 38.6719 22.043L40.207 23.5781V23.6836L37.5117 26.3789L37.9453 26.8125C37.5586 26.5781 36.2109 25.1836 35.8594 24.8438C35.6601 24.6445 35.3554 24.6094 35.1211 24.75C34.2773 25.2539 33.3867 25.6289 32.4492 25.8633C32.1797 25.9336 31.9922 26.1797 31.9922 26.4492V28.6289C31.9922 28.6758 31.957 28.7109 31.9101 28.7109H28.0898C28.0429 28.7109 28.0078 28.6758 28.0078 28.6289V26.4492C28.0078 26.168 27.8203 25.9219 27.5508 25.8633C26.6133 25.6289 25.7109 25.2539 24.8789 24.75C24.6445 24.6094 24.3398 24.6445 24.1406 24.8438L22.6054 26.3789L23.039 26.8125C22.7109 26.6484 20.1328 24.0117 19.8047 23.6836C19.7695 23.6484 19.7695 23.6016 19.8047 23.5781L21.3398 22.043C21.539 21.8438 21.5742 21.5391 21.4336 21.3047C20.9297 20.4727 20.5664 19.5703 20.3203 18.6328C20.25 18.3633 20.0039 18.1758 19.7344 18.1758H17.5547C17.5078 18.1758 17.4726 18.1406 17.4726 18.0937V14.2734ZM41.4961 38.707C41.4961 38.7187 41.4961 38.7187 41.4961 38.707ZM59.789 40.582C59.6133 39.7969 59.1679 39.1172 58.6172 38.6367C59.332 38.168 59.8008 37.3125 59.8008 36.3516C59.8711 35.8359 59.5195 35.332 58.9922 35.332C58.1367 35.3906 56.2031 35.1328 55.4648 35.6484L53.5664 31.8984C52.9101 30.6094 51.6679 29.8125 50.3086 29.8125H39.3164C37.7578 29.7891 36.4101 30.9023 35.8125 32.3789H24.7617C24.5859 32.3789 24.4219 32.3906 24.2461 32.4141C23.6484 30.9258 22.289 29.7773 20.7187 29.8125H9.72654C8.36717 29.8125 7.11326 30.6094 6.45701 31.8984L4.55857 35.6484C3.82029 35.1328 1.87498 35.3789 1.03123 35.332C0.503884 35.3203 0.164041 35.8359 0.234353 36.3516C0.234353 37.3125 0.703103 38.168 1.40623 38.6367C0.878884 39.0938 0.457009 39.7383 0.257791 40.4766C-0.164084 41.6016 0.585916 44.2031 0.714822 45.3633V50.5078C0.714822 51.4219 1.41795 52.1719 2.27342 52.1719H4.99217C5.75388 52.1719 6.39842 51.5859 6.53904 50.8125H14.6133V55.7461C14.6133 56.7422 15.375 57.5508 16.3008 57.5508H19.3828C20.2265 57.5508 20.9297 56.8828 21.0586 56.0156H40.8984C41.0156 56.8828 41.7187 57.5508 42.5742 57.5508H45.6562C46.5937 57.5508 47.3554 56.7422 47.3554 55.7461V50.8125H53.4844C53.625 51.5859 54.2578 52.1719 55.0312 52.1719H57.75C58.6172 52.1719 59.3203 51.4219 59.3203 50.5078V45.3281C59.4375 44.2383 60.1406 41.6602 59.789 40.582ZM56.6719 36.5508H58.5703C58.4883 37.2656 57.9492 37.8281 57.3047 37.8281C57.2461 37.8281 56.6015 37.8281 56.5547 37.8164L56.0039 36.7383C56.2031 36.6211 56.4375 36.5508 56.6719 36.5508ZM39.2929 31.043H50.2851C51.1758 31.043 52.0078 31.582 52.4648 32.4609C52.4648 32.4609 54.6797 36.8203 54.6797 36.832C54.7383 36.9844 55.1015 37.6641 55.1836 37.8281L55.1718 37.8164H42.3984L40.8164 34.6992C40.125 33.3398 38.6836 32.3672 37.1484 32.3789C37.6172 31.5469 38.4258 31.043 39.2929 31.043ZM24.7383 33.6094H37.207C38.25 33.6094 39.2226 34.2422 39.75 35.2617C40.5351 36.8086 42.1172 39.9258 42.9023 41.4609H19.0547C19.3945 40.793 20.1094 39.3867 20.4492 38.7187C21.5859 36.8672 22.1015 33.6914 24.7383 33.6094ZM40.207 44.5313C39.457 44.8242 38.9062 45.4805 38.6484 46.2422C38.6601 46.1953 38.6719 46.1602 38.6953 46.1133C38.6367 46.2656 38.5898 46.418 38.5664 46.5703C38.5898 46.4648 38.6133 46.3477 38.6601 46.2422C38.625 46.3477 38.5898 46.4648 38.5664 46.5703V46.5586H23.3906C22.8047 43.7109 18.9844 43.6172 18.2812 46.4414C17.1094 46.1367 16.0664 45.4102 15.3281 44.4609C15.7031 43.2891 16.8281 42.5625 18.0586 42.6445C18.0469 42.6445 18.0234 42.6445 18.0117 42.6328C18.3047 42.6328 18.5976 42.6445 18.8906 42.6445H35.2734H43.6406C44.9297 42.5156 46.2304 43.1836 46.6172 44.4727C45.7383 45.3516 44.8945 46.1133 43.6523 46.4414C43.3711 44.9414 41.6484 43.9805 40.207 44.5313ZM42.5273 47.1797C42.4804 49.3125 39.75 49.3125 39.7031 47.1914C39.75 45.0586 42.4804 45.0469 42.5273 47.1797ZM22.2304 47.1797C22.1836 49.3125 19.4648 49.3125 19.4062 47.1914C19.4531 45.0586 22.1836 45.0469 22.2304 47.1797ZM5.29685 36.8672C5.28513 36.832 7.52342 32.4961 7.52342 32.4609C7.96873 31.582 8.80076 31.043 9.7031 31.043H20.6953C21.7148 31.0195 22.6289 31.793 23.039 32.7891C21.1172 33.832 20.5078 36.0234 19.5234 37.8281H4.81638L5.29685 36.8672ZM3.3281 36.5508C3.56248 36.5508 3.78513 36.6211 3.99607 36.75L3.44529 37.8281C3.42185 37.8398 2.74217 37.8398 2.69529 37.8398C2.05076 37.8398 1.5117 37.2773 1.42967 36.5625H3.3281V36.5508ZM4.98045 50.9531H2.2617C1.80467 50.9414 1.93357 50.1797 1.91013 49.875C2.28513 50.3086 2.78904 50.6367 3.33982 50.7539C3.69138 50.8594 4.83982 50.8008 5.22654 50.8125C5.16795 50.9063 5.0742 50.9531 4.98045 50.9531ZM3.86717 49.6055C3.09373 49.6055 2.51951 48.8906 2.41404 48.1641L1.91013 45.1758C1.91013 45.1406 1.8867 45.1055 1.8867 45.0703L1.40623 42.1875C2.14451 42.7969 2.99998 43.2422 3.93748 43.4531C4.44138 46.1133 7.98045 46.1836 8.58982 43.5469H14.4258C14.3086 43.7813 14.1914 44.0273 14.1328 44.2852H13.3242C11.9531 44.2852 10.7461 45 10.289 46.043L9.55076 47.7656C9.46873 47.9531 9.49217 48.1641 9.60935 48.3398C9.71482 48.5156 9.91404 48.6094 10.1133 48.6094H14.4023L14.5664 49.5703H3.86717V49.6055ZM5.08592 42.9492C5.0742 41.9766 6.0117 41.2617 6.80857 41.7539C7.79295 42.3633 7.53513 44.2969 6.24607 44.2969C5.61326 44.3086 5.08592 43.6992 5.08592 42.9492ZM8.62498 42.6445C8.67185 42.9492 8.64842 43.2656 8.5781 43.5586C8.6367 43.2656 8.64842 42.9492 8.62498 42.6445ZM13.9336 45.8672C13.9453 46.1836 14.1328 47.1094 14.1797 47.4258H11.0156L11.3906 46.5469C11.6484 45.9492 12.4336 45.5273 13.3008 45.5273H13.9219C13.9219 45.6328 13.9336 45.75 13.9336 45.8672ZM8.5781 42.3516C8.60154 42.4453 8.61326 42.5508 8.62498 42.6445C8.29685 39.9141 4.75779 39.6094 3.97263 42.2227C3.0117 41.9414 2.10935 41.3555 1.48826 40.5586C1.80467 39.7031 2.53123 39.1172 3.33982 39.0469H18.9023C18.6679 39.6445 17.707 40.9453 17.3554 41.4727C16.6523 41.5547 15.8789 41.8125 15.3633 42.3398H8.5781V42.3516ZM19.3828 56.3437H16.289C15.6328 56.3203 15.8437 55.2539 15.8203 54.8203C16.7226 56.1562 18.3984 56.0859 19.8047 56.0273C19.7226 56.2148 19.5586 56.3437 19.3828 56.3437ZM46.125 55.7578C46.125 56.0742 45.9023 56.3437 45.6445 56.3437H42.5625C42.375 56.3437 42.2226 56.2148 42.1406 56.0273C42.1758 56.0977 42.9375 56.0156 43.0312 56.0156C44.1797 56.1094 45.4687 55.8516 46.1367 54.8203V55.7578H46.125ZM46.7344 46.1836C46.5469 47.3672 46.3359 48.5508 46.1367 49.7344L45.5625 53.1094C45.3984 54.0938 44.6719 54.8086 43.8398 54.8086H18.1172C17.2734 54.8086 16.5469 54.0938 16.3828 53.1094C16.1836 51.9492 15.6914 49.0664 15.5039 47.9531L15.1992 46.125C16.0547 46.8984 17.1211 47.4727 18.2578 47.707C18.7734 50.707 22.7812 50.7891 23.3906 47.8008H38.5664L38.5547 47.7891C38.5078 47.5898 38.4961 47.3906 38.4961 47.1797C38.5547 50.5664 43.0429 51.082 43.6992 47.6953C44.8242 47.4609 45.8672 46.8867 46.7461 46.125L46.7344 46.1836ZM46.5703 42.3516C45.9375 41.7539 45.0937 41.543 44.25 41.4609C44.25 41.4609 43.0312 39.0469 43.0195 39.0469L43.0312 39.0586H56.6601C57.4687 39.1289 58.1953 39.7266 58.5117 40.5703C57.8437 41.2852 57.0234 42.0117 56.039 42.2344C55.957 41.9648 55.8515 41.707 55.6875 41.4727V41.4844C54.5156 39.6797 51.832 40.3008 51.4101 42.3633C51.4219 42.3516 46.5703 42.3516 46.5703 42.3516ZM55.8281 41.6953C55.8047 41.6367 55.7695 41.5898 55.7344 41.5312C55.7695 41.5898 55.7929 41.6484 55.8281 41.6953ZM54.914 42.9492C54.8906 44.7305 52.5937 44.7305 52.5703 42.9492C52.5937 41.2031 54.8554 41.1211 54.914 42.9492ZM58.0898 50.5078C58.0898 50.7539 57.9375 50.9531 57.7383 50.9531H55.0195C54.9258 50.9531 54.832 50.8945 54.7734 50.8125C55.1953 50.7891 56.3203 50.8711 56.707 50.7422C57.2461 50.625 57.7383 50.2969 58.0898 49.875V50.5078ZM58.125 45.0703C58.125 45.1055 58.1015 45.1406 58.1015 45.1758L57.5976 48.1641C57.457 48.9961 56.8476 49.6055 56.1445 49.6055H47.4023L47.5664 48.6445H49.9101C50.332 48.6562 50.6484 48.1875 50.4726 47.8008L49.7344 46.0781C49.4297 45.3516 48.75 44.7891 47.8828 44.5078H47.8945C47.8125 44.1914 47.6953 43.8633 47.5429 43.582H51.4336C52.0429 46.2188 55.5703 46.1367 56.0859 43.4883C57 43.2539 57.8789 42.832 58.6054 42.2227L58.125 45.0703ZM47.7656 47.4258C47.8125 47.1094 47.9883 46.1836 48 45.8789C48.5625 46.1602 48.75 46.9219 48.9844 47.4258H47.7656ZM52.4062 40.8164C52.4179 40.8164 52.4179 40.8164 52.4062 40.8164ZM2.13279 42.7266C2.22654 42.7852 2.30857 42.832 2.40232 42.8789C2.2617 42.8086 2.13279 42.7383 2.0156 42.6445C2.03904 42.668 2.08592 42.6914 2.13279 42.7266ZM6.91404 40.4766C6.92576 40.4648 6.92576 40.4766 6.93748 40.4766C6.93748 40.4766 6.93748 40.4766 6.92576 40.4883C6.91404 40.4766 6.91404 40.4766 6.91404 40.4766ZM36.4922 50.7422C36 49.582 34.6523 48.8086 33.1289 48.8086H28.8164C27.2929 48.8086 25.9453 49.582 25.4531 50.7422L24.6211 52.7109C24.4453 53.0977 24.7617 53.5664 25.1836 53.5547H36.7734C37.1953 53.5664 37.5117 53.0977 37.3359 52.7109C37.3242 52.7109 36.4922 50.7422 36.4922 50.7422ZM26.0976 52.3359L26.5664 51.2227C26.8711 50.5078 27.7969 50.0156 28.8164 50.0156H33.1289C34.1484 50.0156 35.0742 50.5078 35.3672 51.2227L35.8359 52.3359H26.0976Z" fill="white"/>
<path d="M29.9995 9.59712C33.6044 9.59717 36.5269 12.5196 36.5269 16.1245C36.5268 19.7293 33.6043 22.6518 29.9995 22.6518C26.3946 22.6518 23.4722 19.7293 23.4722 16.1245C23.4722 12.5196 26.3946 9.59712 29.9995 9.59712Z" stroke="#FF3600"/>
</svg>
