<svg width="50" height="50" viewBox="0 0 50 50" fill="none" xmlns="http://www.w3.org/2000/svg">
<path d="M12.4219 23.7497L8.4375 22.8904C7.34375 22.656 6.32812 23.5154 6.32812 24.6091V26.2497C6.32812 27.5779 7.34375 27.8904 8.59375 27.8904H12.9687C13.8281 27.8904 14.6875 27.7341 14.6875 26.7966V26.5622C14.6875 25.156 13.75 23.9841 12.4219 23.7497ZM7.8125 26.2497C7.8125 26.1716 7.8125 26.1716 7.8125 24.531C7.8125 24.3747 7.96875 24.2185 8.125 24.2966L12.1094 25.156C12.6562 25.3122 13.0469 25.781 13.125 26.3279C10.3906 26.3279 8.04687 26.3279 7.8125 26.2497Z" fill="white"/>
<path d="M47.8906 15.3906L42.2656 12.7344C40.3906 11.875 38.3594 11.5625 36.4062 11.9531L35.5469 10.2344C34.9219 8.67188 33.4375 7.57812 31.7187 7.57812H13.4375C11.7188 7.57812 10.2344 8.59375 9.60938 10.1563L6.5625 16.4844C5.85937 15.4688 4.6875 14.8438 3.4375 14.8438H2.10938C0.9375 14.8438 0 15.7813 0 16.9531V17.8125C0 18.9844 0.9375 19.9219 2.10938 19.9219H4.14062C3.28125 21.0156 2.89062 22.4219 2.89062 23.8281V28.5156C2.89062 30.3125 3.51562 32.0312 4.76562 33.5156V37.0312C4.76562 38.5938 6.01562 39.8438 7.57812 39.8438H10.4688C12.0312 39.8438 13.2812 38.5938 13.2812 37.0312V35.625H28.9062C32.3438 40.3125 37.7344 42.3438 37.8125 42.3438C37.9688 42.4219 38.125 42.4219 38.3594 42.3438C38.4375 42.2656 50 38.0469 50 27.5V18.75C50 17.3438 49.1406 16.0156 47.8906 15.3906ZM11.0156 10.7813C11.4062 9.76563 12.3438 9.14062 13.4375 9.14062H31.7187C32.8125 9.14062 33.75 9.76562 34.2188 10.8594L34.9219 12.3438C34.6094 12.4219 34.2969 12.5781 33.9844 12.7344L28.3594 15.3906C27.1094 16.0156 26.25 17.2656 26.25 18.6719H7.10938C7.42188 18.2031 7.10938 18.9844 11.0156 10.7813ZM1.5625 17.8125V16.9531C1.5625 16.6406 1.79688 16.4062 2.10938 16.4062H3.4375C5 16.4062 5.54688 17.8125 5.70312 18.0469C5.625 18.2031 5.54688 18.2812 5.39062 18.4375H2.10938C1.79688 18.3594 1.5625 18.125 1.5625 17.8125ZM11.7188 36.9531C11.7188 37.6562 11.1719 38.2031 10.4688 38.2031H7.5C6.79688 38.2812 6.25 37.6562 6.25 36.9531V34.6875C7.1875 35.2344 8.28125 35.5469 9.375 35.5469H11.7188V36.9531ZM9.29688 34.0625C6.48438 34.0625 4.29688 31.3281 4.29688 28.4375V23.75C4.29688 22.4219 4.84375 21.1719 5.78125 20.1562H26.25V27.0312H17.6562C17.2656 27.0312 16.875 27.3437 16.875 27.8125C16.875 28.2812 17.1875 28.5937 17.6562 28.5937H26.3281C26.4062 29.1406 26.4062 29.6094 26.5625 30.0781H17.6562C17.2656 30.0781 16.875 30.3906 16.875 30.8594C16.875 31.3281 17.1875 31.6406 17.6562 31.6406H26.875C27.1875 32.5 27.5 33.3594 27.9688 34.0625H9.29688ZM48.4375 27.5C48.4375 36.1719 39.6875 40.1562 38.125 40.7812C32.5 38.5156 27.8125 33.6719 27.8125 27.5C27.8125 24.6094 27.8125 23.0469 27.8125 18.75C27.8125 17.8906 28.2812 17.1875 29.0625 16.7969L34.6875 14.1406C36.9531 13.0469 39.4531 13.0469 41.7188 14.1406L47.3438 16.7969C48.0469 17.1875 48.5938 17.8906 48.5938 18.75V27.5H48.4375Z" fill="white"/>
<path d="M45.7812 18.5937L40.625 16.1719C39.0625 15.3906 37.1094 15.3906 35.5469 16.1719L30.4687 18.5937C30.2344 18.75 30 18.9844 30 19.2969V27.5C30 33.6719 35.3906 37.0313 37.7344 38.2031C37.9687 38.2813 38.2031 38.2813 38.4375 38.2031C40.7812 37.0313 46.1719 33.6719 46.1719 27.5V19.2969C46.1719 18.9844 46.0156 18.75 45.7812 18.5937ZM44.6875 27.5C44.6875 32.5 40.3125 35.4688 38.125 36.6406C35.5469 35.2344 31.5625 32.4219 31.5625 27.5V19.7656L36.25 17.5C37.4219 16.9531 38.8281 16.9531 40 17.5L44.6875 19.7656V27.5Z" fill="white"/>
<path d="M35.0781 27.2652C34.7656 27.0308 34.2969 27.1089 33.9844 27.4214C33.6719 27.7339 33.8281 28.2027 34.1406 28.5152L37.1094 30.7808C37.4219 31.0152 37.8906 30.9371 38.2031 30.6246L42.5781 24.9214C42.8125 24.6089 42.7344 24.1402 42.4219 23.8277C42.1094 23.5933 41.6406 23.6714 41.3281 23.9839L37.4219 29.0621L35.0781 27.2652Z" fill="#FF3600"/>
</svg>
