<svg width="60" height="60" viewBox="0 0 60 60" fill="none" xmlns="http://www.w3.org/2000/svg">
<path d="M38.6239 20.6792C39.1256 20.6792 39.5321 20.2858 39.5321 19.8002V18.6466C39.5321 18.161 39.1256 17.7676 38.6239 17.7676C38.1221 17.7676 37.7156 18.161 37.7156 18.6466V19.8002C37.7156 20.2858 38.1222 20.6792 38.6239 20.6792Z" fill="white"/>
<path d="M30.7984 20.6792C31.3001 20.6792 31.7067 20.2858 31.7067 19.8002V18.6466C31.7067 18.161 31.3001 17.7676 30.7984 17.7676C30.2967 17.7676 29.8901 18.161 29.8901 18.6466V19.8002C29.8901 20.2858 30.2968 20.6792 30.7984 20.6792Z" fill="white"/>
<path d="M34.7022 27.6616C36.4591 27.6616 37.8883 26.2784 37.8883 24.5782C37.8883 24.0926 37.4818 23.6992 36.98 23.6992C36.4783 23.6992 36.0718 24.0926 36.0718 24.5782C36.0718 25.309 35.4574 25.9037 34.7022 25.9037C33.947 25.9037 33.3327 25.3091 33.3327 24.5782C33.3327 24.0926 32.9261 23.6992 32.4244 23.6992C31.9227 23.6992 31.5161 24.0926 31.5161 24.5782C31.5161 26.2784 32.9454 27.6616 34.7022 27.6616Z" fill="white"/>
<path d="M55.3915 47.133C55.8932 47.133 56.2998 46.7395 56.2998 46.254V43.528C56.2998 41.0102 54.638 38.7941 52.1561 38.0112L40.9244 34.587V31.0902C43.5456 29.2172 44.8347 26.1534 44.7234 23.0532C46.8072 23.2081 49.0778 22.0127 49.0778 19.7251V17.8901C49.0778 17.0111 48.7232 16.2111 48.146 15.6156C48.1578 15.5591 48.1641 13.1084 48.1641 13.1084C48.1641 12.6229 47.7575 12.2295 47.2558 12.2295C46.7541 12.2295 46.3475 12.6229 46.3475 13.1084V14.5617H33.6329C32.1305 14.5617 30.9081 13.3787 30.9081 11.9248V4.39487C30.9081 2.94093 32.1305 1.75795 33.6329 1.75795H39.7983C43.4096 1.75795 46.3475 4.60114 46.3475 8.09594V9.27729C46.3475 9.76283 46.7541 10.1563 47.2558 10.1563C47.7575 10.1563 48.1641 9.76283 48.1641 9.27729V8.09594C48.1642 3.63181 44.4112 0 39.7984 0H33.633C31.3948 0 29.5309 1.57536 29.16 3.64036H27.6371C24.1314 3.64036 21.2792 6.40058 21.2792 9.79319C21.2792 9.79319 21.2843 15.5356 21.2918 15.5814C20.6947 16.1804 20.3262 16.9941 20.3262 17.8901V19.7251C20.3262 21.9772 22.5862 23.2259 24.6808 23.0532C24.481 26.1356 25.8986 29.2458 28.4798 31.0902V34.622L20.3085 37.5776C19.5134 37.8664 18.8194 38.3626 18.3022 39.0126L13.0399 45.6234V42.6813C13.0399 41.8874 12.6749 41.1747 12.0993 40.6909V37.0507C12.0993 35.5624 10.8481 34.3515 9.31018 34.3515C7.77229 34.3515 6.52117 35.5624 6.52117 37.0507V40.0443C4.60822 40.0443 3.69995 41.083 3.69995 42.6813V50.0867C3.69995 51.2555 4.49027 52.2487 5.58056 52.5934V55.6098C5.58056 59.8376 11.2234 61.6747 13.938 58.0873L18.7469 52.4647V59.121C18.7469 59.6066 19.1534 60 19.6552 60H55.3915C55.8932 60 56.2998 59.6066 56.2998 59.121V50.0852C56.2998 49.5996 55.8932 49.2062 55.3915 49.2062C54.8898 49.2062 54.4832 49.5996 54.4832 50.0852V58.242H48.7765V46.5796C48.7765 46.094 48.37 45.7006 47.8682 45.7006C47.3665 45.7006 46.9599 46.094 46.9599 46.5796V47.2911H20.5636V46.384C20.5636 45.8984 20.157 45.505 19.6553 45.505C19.1536 45.505 18.747 45.8984 18.747 46.384V49.7077L12.5106 56.9995C11.0237 58.7364 7.39723 58.7889 7.39723 55.6098V52.7237H10.2829V53.6649C10.2829 54.1505 10.6894 54.5439 11.1912 54.5439C11.6929 54.5439 12.0994 54.1505 12.0994 53.6649V52.0771C12.6753 51.5932 13.0405 50.8805 13.0405 50.0862V48.5032L19.7414 40.0854C20.0519 39.6951 20.4689 39.3971 20.9457 39.2238L29.2407 36.2234L34.1557 39.8048C34.511 40.0637 34.9792 40.0041 35.3064 39.7626L40.1881 36.2054L51.6017 39.6851C53.3251 40.2289 54.4832 41.7731 54.4832 43.5279V46.2539C54.4832 46.7395 54.8899 47.133 55.3915 47.133ZM46.9599 49.0491V54.6067H31.3672C30.8655 54.6067 30.4589 55.0002 30.4589 55.4857C30.4589 55.9712 30.8655 56.3647 31.3672 56.3647H46.9601V58.2422H20.5636V56.3647H27.4095C27.9113 56.3647 28.3178 55.9712 28.3178 55.4857C28.3178 55.0002 27.9113 54.6067 27.4095 54.6067H20.5636V49.0491H46.9599ZM8.33772 37.0509C8.33772 36.5318 8.77405 36.1097 9.31018 36.1097C9.84654 36.1097 10.2828 36.532 10.2828 37.0509V40.0446H8.33772V37.0509ZM5.51662 42.6815C5.51662 42.1968 5.92401 41.8025 6.42489 41.8025H10.3152C10.8161 41.8025 11.2235 42.1968 11.2235 42.6815V43.685H8.37005C7.86832 43.685 7.46178 44.0785 7.46178 44.564C7.46178 45.0496 7.86832 45.443 8.37005 45.443H11.2235V47.3255H8.37005C7.86832 47.3255 7.46178 47.719 7.46178 48.2045C7.46178 48.69 7.86832 49.0835 8.37005 49.0835H11.2235V50.087C11.2235 50.6731 10.8562 50.9262 10.3158 50.9655L6.42489 50.966C5.92401 50.966 5.51662 50.5718 5.51662 50.087V42.6815ZM47.2614 19.7251C47.2614 20.591 46.5335 21.2952 45.639 21.2952H44.7235V16.3199H45.639C46.5337 16.3199 47.2614 17.0242 47.2614 17.8899V19.7251ZM23.0957 9.79319C23.0957 7.36979 25.1329 5.39831 27.6371 5.39831H29.0917V11.9248V11.925C29.0917 13.3789 27.8692 14.5619 26.3668 14.5619H25.5892H23.0957V9.79319ZM23.7653 21.2952C22.8706 21.2952 22.1429 20.5909 22.1429 19.7251V17.8901C22.1429 17.0242 22.8707 16.32 23.7653 16.32H24.681V21.2953L23.7653 21.2952ZM26.4975 23.8263V16.3167C27.9281 16.2773 29.1953 15.5958 30.0001 14.5588C30.8292 15.6271 32.1492 16.3196 33.633 16.3196H42.9067L42.907 23.8263C42.907 33.485 26.4975 33.4737 26.4975 23.8263ZM39.1079 32.1044V34.7896L34.7024 38.0022L30.2965 34.7895V32.1045C32.4623 33.362 36.7816 33.2838 39.1079 32.1044Z" fill="white"/>
<path d="M8.66825 25.1214C9.09647 25.4646 9.52469 25.4646 9.95279 25.1214L13.7145 21.4809C14.0692 21.1376 14.0692 20.5811 13.7144 20.2378C13.3598 19.8947 12.7847 19.8947 12.43 20.2378L9.31058 23.2568L8.07194 22.058C7.71711 21.7149 7.14211 21.7149 6.7874 22.058C6.43268 22.4014 6.43268 22.9578 6.7874 23.3011L8.66825 25.1214Z" fill="#FF3600"/>
<path d="M6.4249 30.8811H14.077C15.5794 30.8811 16.8019 29.6981 16.8019 28.2442V27.2406H19.6554C20.6146 27.2333 21.0384 26.5253 20.3013 25.7437L16.8019 22.3185V17.1154C16.8019 15.6615 15.5794 14.4785 14.077 14.4785H6.4249C4.92249 14.4785 3.70007 15.6615 3.70007 17.1154V28.2442C3.70007 29.6981 4.92237 30.8811 6.4249 30.8811ZM5.51662 17.1154C5.51662 16.6307 5.92401 16.2365 6.4249 16.2365H14.077C14.5779 16.2365 14.9853 16.6307 14.9853 17.1154V22.6798C14.9853 22.9113 15.0795 23.1333 15.2477 23.2978L17.4802 25.4828H15.8936C15.3919 25.4828 14.9853 25.8762 14.9853 26.3618V28.2442C14.9853 28.7289 14.5779 29.1232 14.077 29.1232H6.4249C5.92401 29.1232 5.51662 28.7289 5.51662 28.2442V17.1154Z" fill="white"/>
</svg>
