<svg width="60" height="60" viewBox="0 0 60 60" fill="none" xmlns="http://www.w3.org/2000/svg">
<path d="M8.39314 42.2981H9.42626L9.72814 53.5762C9.75751 54.375 10.4069 55.0006 11.2069 55.0006H18.9894C19.7881 55.0006 20.4375 54.375 20.4675 53.5656L20.63 47.3144H22.47C23.1094 49.2862 24.9419 50.725 27.1231 50.725C29.8325 50.725 32.0363 48.5212 32.0363 45.8119C32.0363 43.1025 29.8331 40.8987 27.1231 40.8987C24.5431 40.8987 22.445 42.9044 22.2488 45.435H20.6788L20.76 42.2975H22.2813C24.0088 42.2975 25.4144 40.8919 25.4144 39.1644V37.4487H40.2213C40.84 37.4487 41.4044 37.1369 41.73 36.6144C42.0581 36.0888 42.09 35.4412 41.8125 34.8719L40.5675 32.3962C40.2731 31.78 39.6606 31.3981 38.9681 31.3981H25.4138V29.735H36.625C38.0394 30.31 39.5769 30.6369 41.1875 30.6681L43.4119 35.0831C43.825 35.9275 44.5881 36.5425 45.5056 36.7719L51.86 38.3631C52.4494 38.5087 52.8613 39.0356 52.8613 39.6431V44.1275C52.8613 44.8531 52.2656 45.4425 51.5338 45.4425H50.1625C49.9706 42.9075 47.87 40.8975 45.2863 40.8975C42.7063 40.8975 40.6081 42.9031 40.4119 45.4338H33.8219C33.3031 45.4338 32.8825 45.8544 32.8825 46.3731C32.8825 46.8919 33.3031 47.3125 33.8219 47.3125H40.6338C41.2731 49.2844 43.1056 50.7231 45.2869 50.7231C47.4656 50.7231 49.2956 49.2887 49.9375 47.3219H51.5344C53.3019 47.3219 54.7406 45.8887 54.7406 44.1275V39.6431C54.7406 38.1681 53.7413 36.8919 52.3138 36.5394L45.9625 34.9487C45.5831 34.8538 45.2688 34.6019 45.0963 34.2487L43.2356 30.54C49.4675 29.6631 54.2825 24.31 54.2825 17.84C54.2825 10.76 48.5225 5 41.4425 5C34.3625 5 28.6025 10.76 28.6025 17.84C28.6025 21.8888 30.4906 25.4994 33.4275 27.8544H25.1931C24.5656 25.6356 22.545 23.9963 20.1288 23.9963H10.6619C7.68313 23.9963 5.26001 26.4194 5.26001 29.3975V39.1625C5.25938 40.8925 6.66501 42.2981 8.39314 42.2981ZM27.1225 42.7787C28.7963 42.7787 30.1563 44.14 30.1563 45.8125C30.1563 47.4856 28.7956 48.8462 27.1225 48.8462C25.45 48.8462 24.0888 47.4856 24.0888 45.8125C24.0888 44.1394 25.4506 42.7787 27.1225 42.7787ZM45.2863 48.8462C43.6138 48.8462 42.2525 47.4856 42.2525 45.8125C42.2525 44.1394 43.6138 42.7787 45.2863 42.7787C46.96 42.7787 48.32 44.14 48.32 45.8125C48.3206 47.485 46.96 48.8462 45.2863 48.8462ZM30.4813 17.8425C30.4813 11.7987 35.3981 6.88188 41.4419 6.88188C47.4856 6.88188 52.4025 11.7987 52.4025 17.8425C52.4025 23.8862 47.4856 28.8031 41.4419 28.8031C35.3981 28.8031 30.4813 23.8862 30.4813 17.8425ZM38.88 33.2244L40.0594 35.5706H25.4138V33.2744L38.88 33.2244ZM7.13876 29.4C7.13876 27.4575 8.71938 25.8775 10.6619 25.8775H20.1288C22.0069 25.8775 23.535 27.4062 23.535 29.2844V39.165C23.535 39.8562 22.9725 40.4187 22.2813 40.4187H20.7706V33.1575C20.7706 32.6387 20.3506 32.2181 19.8313 32.2181C19.3125 32.2181 18.8919 32.6387 18.8919 33.1575L18.6013 53.1219H16.0388V43.1894C16.0388 42.6706 15.6181 42.25 15.0994 42.25C14.58 42.25 14.16 42.6706 14.16 43.1894V53.1219H11.5969L11.3056 33.1575C11.3056 32.6387 10.8856 32.2181 10.3663 32.2181C9.84751 32.2181 9.42689 32.6387 9.42689 33.1575V40.4194H8.39376C7.70189 40.4194 7.13939 39.8569 7.13939 39.1656V29.4H7.13876Z" fill="white"/>
<path d="M7.69437 12.3623C7.72624 12.5505 8.10812 12.9905 8.18062 13.0536C8.14749 13.3223 8.12874 15.0273 8.12874 15.0273C8.38999 18.3761 9.94624 21.0961 12.2544 22.2842C13.125 22.7636 14.2706 23.0761 15.3212 23.0423C16.0644 23.0186 16.7681 22.9311 17.3944 22.7161C20.2637 21.788 22.2225 18.8405 22.5094 14.9548C22.5094 14.9548 22.4887 13.3255 22.4544 13.063C22.4975 13.0248 22.8544 12.6898 22.9169 12.5042C22.9169 12.5042 23.4206 10.9998 23.7706 9.81109C24.1887 8.56234 23.6706 7.16922 22.4287 6.44609C21.1119 5.88172 18.8112 5.16922 15.3287 5.20859C11.0937 5.25609 8.14812 6.44172 8.10249 6.46859C6.95624 7.15734 6.44499 8.52672 6.85937 9.79734L7.69437 12.3623ZM20.6337 14.8848C20.4556 17.2667 19.3712 20.1411 16.8006 20.9336C14.6019 21.6111 13.3625 20.753 13.1512 20.633C11.4156 19.7392 10.2094 17.5355 10.005 14.9542V13.988C10.3081 14.0573 10.6175 14.1017 10.9312 14.1017H19.7062C20.0225 14.1017 20.33 14.0573 20.6319 13.9892L20.6337 14.8848ZM9.01374 8.11547C10.7875 7.43359 12.9112 7.08797 15.3287 7.08797C18.4925 7.08797 20.5331 7.67797 21.5812 8.11922C21.9569 8.34047 22.1281 8.80047 21.9794 9.24672C21.7137 10.1455 21.3681 11.2023 21.215 11.6673C20.7975 12.023 20.2562 12.2236 19.7062 12.2236H10.9312C10.5156 12.2236 9.54187 11.7667 9.45374 11.6936L8.64749 9.21609C8.51249 8.80297 8.66312 8.36047 9.01374 8.11547Z" fill="white"/>
<path d="M38.5332 21.6252C38.7882 21.8802 39.1232 22.0083 39.4588 22.0083C39.7944 22.0083 40.1294 21.8802 40.385 21.6252L46.735 15.2758C47.1019 14.9089 47.1019 14.3145 46.735 13.947C46.3682 13.5802 45.7738 13.5802 45.4063 13.947L39.4588 19.8933L37.4788 17.9133C37.1119 17.5464 36.5175 17.5464 36.15 17.9133C35.7832 18.2802 35.7832 18.8745 36.15 19.242L38.5332 21.6252Z" fill="black"/>
</svg>
