<svg width="30" height="30" viewBox="0 0 30 30" fill="none" xmlns="http://www.w3.org/2000/svg">
<g clip-path="url(#clip0_617_101)">
<path d="M6.5 7.5H4.5C4.23478 7.5 3.98043 7.60536 3.79289 7.79289C3.60536 7.98043 3.5 8.23478 3.5 8.5V10.5C3.5 10.7652 3.60536 11.0196 3.79289 11.2071C3.98043 11.3946 4.23478 11.5 4.5 11.5H6.5C6.76522 11.5 7.01957 11.3946 7.20711 11.2071C7.39464 11.0196 7.5 10.7652 7.5 10.5V8.5C7.5 8.23478 7.39464 7.98043 7.20711 7.79289C7.01957 7.60536 6.76522 7.5 6.5 7.5ZM4.5 10.5V8.5H6.5V10.5H4.5Z" fill="white"/>
<path d="M11.5 7.5H9.5C9.23478 7.5 8.98043 7.60536 8.79289 7.79289C8.60536 7.98043 8.5 8.23478 8.5 8.5V10.5C8.5 10.7652 8.60536 11.0196 8.79289 11.2071C8.98043 11.3946 9.23478 11.5 9.5 11.5H11.5C11.7652 11.5 12.0196 11.3946 12.2071 11.2071C12.3946 11.0196 12.5 10.7652 12.5 10.5V8.5C12.5 8.23478 12.3946 7.98043 12.2071 7.79289C12.0196 7.60536 11.7652 7.5 11.5 7.5ZM9.5 10.5V8.5H11.5V10.5H9.5Z" fill="white"/>
<path d="M14.5 11.5H16.5C16.7652 11.5 17.0196 11.3946 17.2071 11.2071C17.3946 11.0196 17.5 10.7652 17.5 10.5V8.5C17.5 8.23478 17.3946 7.98043 17.2071 7.79289C17.0196 7.60536 16.7652 7.5 16.5 7.5H14.5C14.2348 7.5 13.9804 7.60536 13.7929 7.79289C13.6054 7.98043 13.5 8.23478 13.5 8.5V10.5C13.5 10.7652 13.6054 11.0196 13.7929 11.2071C13.9804 11.3946 14.2348 11.5 14.5 11.5ZM14.5 8.5H16.5V10.5H14.5V8.5Z" fill="white"/>
<path d="M19.5 11.5H21.5C21.7652 11.5 22.0196 11.3946 22.2071 11.2071C22.3946 11.0196 22.5 10.7652 22.5 10.5V8.5C22.5 8.23478 22.3946 7.98043 22.2071 7.79289C22.0196 7.60536 21.7652 7.5 21.5 7.5H19.5C19.2348 7.5 18.9804 7.60536 18.7929 7.79289C18.6054 7.98043 18.5 8.23478 18.5 8.5V10.5C18.5 10.7652 18.6054 11.0196 18.7929 11.2071C18.9804 11.3946 19.2348 11.5 19.5 11.5ZM19.5 8.5H21.5V10.5H19.5V8.5Z" fill="white"/>
<path d="M6.5 13H4.5C4.23478 13 3.98043 13.1054 3.79289 13.2929C3.60536 13.4804 3.5 13.7348 3.5 14V16C3.5 16.2652 3.60536 16.5196 3.79289 16.7071C3.98043 16.8946 4.23478 17 4.5 17H6.5C6.76522 17 7.01957 16.8946 7.20711 16.7071C7.39464 16.5196 7.5 16.2652 7.5 16V14C7.5 13.7348 7.39464 13.4804 7.20711 13.2929C7.01957 13.1054 6.76522 13 6.5 13ZM4.5 16V14H6.5V16H4.5Z" fill="white"/>
<path d="M11.5 13H9.5C9.23478 13 8.98043 13.1054 8.79289 13.2929C8.60536 13.4804 8.5 13.7348 8.5 14V16C8.5 16.2652 8.60536 16.5196 8.79289 16.7071C8.98043 16.8946 9.23478 17 9.5 17H11.5C11.7652 17 12.0196 16.8946 12.2071 16.7071C12.3946 16.5196 12.5 16.2652 12.5 16V14C12.5 13.7348 12.3946 13.4804 12.2071 13.2929C12.0196 13.1054 11.7652 13 11.5 13ZM9.5 16V14H11.5V16H9.5Z" fill="white"/>
<path d="M14.5 17H16.5C16.7652 17 17.0196 16.8946 17.2071 16.7071C17.3946 16.5196 17.5 16.2652 17.5 16V14C17.5 13.7348 17.3946 13.4804 17.2071 13.2929C17.0196 13.1054 16.7652 13 16.5 13H14.5C14.2348 13 13.9804 13.1054 13.7929 13.2929C13.6054 13.4804 13.5 13.7348 13.5 14V16C13.5 16.2652 13.6054 16.5196 13.7929 16.7071C13.9804 16.8946 14.2348 17 14.5 17ZM14.5 14H16.5V16H14.5V14Z" fill="white"/>
<path d="M6.5 18.5H4.5C4.23478 18.5 3.98043 18.6054 3.79289 18.7929C3.60536 18.9804 3.5 19.2348 3.5 19.5V21.5C3.5 21.7652 3.60536 22.0196 3.79289 22.2071C3.98043 22.3946 4.23478 22.5 4.5 22.5H6.5C6.76522 22.5 7.01957 22.3946 7.20711 22.2071C7.39464 22.0196 7.5 21.7652 7.5 21.5V19.5C7.5 19.2348 7.39464 18.9804 7.20711 18.7929C7.01957 18.6054 6.76522 18.5 6.5 18.5ZM4.5 21.5V19.5H6.5V21.5H4.5Z" fill="white"/>
<path d="M11.5 18.5H9.5C9.23478 18.5 8.98043 18.6054 8.79289 18.7929C8.60536 18.9804 8.5 19.2348 8.5 19.5V21.5C8.5 21.7652 8.60536 22.0196 8.79289 22.2071C8.98043 22.3946 9.23478 22.5 9.5 22.5H11.5C11.7652 22.5 12.0196 22.3946 12.2071 22.2071C12.3946 22.0196 12.5 21.7652 12.5 21.5V19.5C12.5 19.2348 12.3946 18.9804 12.2071 18.7929C12.0196 18.6054 11.7652 18.5 11.5 18.5ZM9.5 21.5V19.5H11.5V21.5H9.5Z" fill="white"/>
<path d="M26 15.8715V3.5C26 2.96957 25.7893 2.46086 25.4142 2.08579C25.0391 1.71071 24.5304 1.5 24 1.5H23.5C23.5 1.10218 23.342 0.720644 23.0607 0.43934C22.7794 0.158035 22.3978 0 22 0C21.6022 0 21.2206 0.158035 20.9393 0.43934C20.658 0.720644 20.5 1.10218 20.5 1.5H17.5C17.5 1.10218 17.342 0.720644 17.0607 0.43934C16.7794 0.158035 16.3978 0 16 0C15.6022 0 15.2206 0.158035 14.9393 0.43934C14.658 0.720644 14.5 1.10218 14.5 1.5H11.5C11.5 1.10218 11.342 0.720644 11.0607 0.43934C10.7794 0.158035 10.3978 0 10 0C9.60218 0 9.22064 0.158035 8.93934 0.43934C8.65804 0.720644 8.5 1.10218 8.5 1.5H5.5C5.5 1.10218 5.34197 0.720644 5.06066 0.43934C4.77936 0.158035 4.39783 0 4 0C3.60218 0 3.22064 0.158035 2.93934 0.43934C2.65804 0.720644 2.5 1.10218 2.5 1.5H2C1.46957 1.5 0.960859 1.71071 0.585787 2.08579C0.210714 2.46086 0 2.96957 0 3.5L0 23.5C0 24.0304 0.210714 24.5391 0.585787 24.9142C0.960859 25.2893 1.46957 25.5 2 25.5H15.6305C16.1092 26.598 16.844 27.5653 17.7734 28.3209C18.7028 29.0766 19.7996 29.5985 20.9722 29.8431C22.1448 30.0877 23.3589 30.0478 24.5128 29.7268C25.6668 29.4057 26.7271 28.8129 27.6048 27.9978C28.4826 27.1828 29.1523 26.1693 29.5578 25.0423C29.9634 23.9152 30.0931 22.7074 29.9359 21.52C29.7788 20.3325 29.3394 19.2 28.6546 18.2173C27.9698 17.2345 27.0595 16.4301 26 15.8715ZM21.5 1.5C21.5 1.36739 21.5527 1.24021 21.6464 1.14645C21.7402 1.05268 21.8674 1 22 1C22.1326 1 22.2598 1.05268 22.3536 1.14645C22.4473 1.24021 22.5 1.36739 22.5 1.5V2.5C22.5 2.63261 22.4473 2.75979 22.3536 2.85355C22.2598 2.94732 22.1326 3 22 3C21.8674 3 21.7402 2.94732 21.6464 2.85355C21.5527 2.75979 21.5 2.63261 21.5 2.5V1.5ZM15.5 1.5C15.5 1.36739 15.5527 1.24021 15.6464 1.14645C15.7402 1.05268 15.8674 1 16 1C16.1326 1 16.2598 1.05268 16.3536 1.14645C16.4473 1.24021 16.5 1.36739 16.5 1.5V2.5C16.5 2.63261 16.4473 2.75979 16.3536 2.85355C16.2598 2.94732 16.1326 3 16 3C15.8674 3 15.7402 2.94732 15.6464 2.85355C15.5527 2.75979 15.5 2.63261 15.5 2.5V1.5ZM9.5 1.5C9.5 1.36739 9.55268 1.24021 9.64645 1.14645C9.74022 1.05268 9.86739 1 10 1C10.1326 1 10.2598 1.05268 10.3536 1.14645C10.4473 1.24021 10.5 1.36739 10.5 1.5V2.5C10.5 2.63261 10.4473 2.75979 10.3536 2.85355C10.2598 2.94732 10.1326 3 10 3C9.86739 3 9.74022 2.94732 9.64645 2.85355C9.55268 2.75979 9.5 2.63261 9.5 2.5V1.5ZM3.5 1.5C3.5 1.36739 3.55268 1.24021 3.64645 1.14645C3.74022 1.05268 3.86739 1 4 1C4.13261 1 4.25979 1.05268 4.35355 1.14645C4.44732 1.24021 4.5 1.36739 4.5 1.5V2.5C4.5 2.63261 4.44732 2.75979 4.35355 2.85355C4.25979 2.94732 4.13261 3 4 3C3.86739 3 3.74022 2.94732 3.64645 2.85355C3.55268 2.75979 3.5 2.63261 3.5 2.5V1.5ZM2 2.5H2.5C2.5 2.89783 2.65804 3.27936 2.93934 3.56066C3.22064 3.84197 3.60218 4 4 4C4.39783 4 4.77936 3.84197 5.06066 3.56066C5.34197 3.27936 5.5 2.89783 5.5 2.5H8.5C8.5 2.89783 8.65804 3.27936 8.93934 3.56066C9.22064 3.84197 9.60218 4 10 4C10.3978 4 10.7794 3.84197 11.0607 3.56066C11.342 3.27936 11.5 2.89783 11.5 2.5H14.5C14.5 2.89783 14.658 3.27936 14.9393 3.56066C15.2206 3.84197 15.6022 4 16 4C16.3978 4 16.7794 3.84197 17.0607 3.56066C17.342 3.27936 17.5 2.89783 17.5 2.5H20.5C20.5 2.89783 20.658 3.27936 20.9393 3.56066C21.2206 3.84197 21.6022 4 22 4C22.3978 4 22.7794 3.84197 23.0607 3.56066C23.342 3.27936 23.5 2.89783 23.5 2.5H24C24.2652 2.5 24.5196 2.60536 24.7071 2.79289C24.8946 2.98043 25 3.23478 25 3.5V5H1V3.5C1 3.23478 1.10536 2.98043 1.29289 2.79289C1.48043 2.60536 1.73478 2.5 2 2.5ZM2 24.5C1.73478 24.5 1.48043 24.3946 1.29289 24.2071C1.10536 24.0196 1 23.7652 1 23.5V6H25V15.4375C24.1978 15.1499 23.3522 15.0019 22.5 15V14C22.5 13.7348 22.3946 13.4804 22.2071 13.2929C22.0196 13.1054 21.7652 13 21.5 13H19.5C19.2348 13 18.9804 13.1054 18.7929 13.2929C18.6054 13.4804 18.5 13.7348 18.5 14V16C18.5007 16.0528 18.5057 16.1055 18.515 16.1575C17.5682 16.7546 16.766 17.5547 16.1665 18.5H14.5C14.2348 18.5 13.9804 18.6054 13.7929 18.7929C13.6054 18.9804 13.5 19.2348 13.5 19.5V21.5C13.5 21.7652 13.6054 22.0196 13.7929 22.2071C13.9804 22.3946 14.2348 22.5 14.5 22.5H15C15.002 23.1762 15.0958 23.8491 15.279 24.5H2ZM21.5 15.0745C20.8106 15.1655 20.1374 15.3526 19.5 15.6305V14H21.5V15.0745ZM15.0745 21.5H14.5V19.5H15.6305C15.3526 20.1374 15.1655 20.8106 15.0745 21.5ZM22.5 29C21.2144 29 19.9577 28.6188 18.8888 27.9046C17.8199 27.1903 16.9868 26.1752 16.4948 24.9874C16.0028 23.7997 15.8741 22.4928 16.1249 21.2319C16.3757 19.971 16.9948 18.8129 17.9038 17.9038C18.8129 16.9948 19.971 16.3757 21.2319 16.1249C22.4928 15.8741 23.7997 16.0028 24.9874 16.4948C26.1752 16.9868 27.1903 17.8199 27.9046 18.8888C28.6188 19.9577 29 21.2144 29 22.5C28.998 24.2233 28.3126 25.8754 27.094 27.094C25.8754 28.3126 24.2233 28.998 22.5 29Z" fill="white"/>
<path d="M24.6095 19.6866L20.9595 24.2506L20.3545 23.6456C20.2602 23.5546 20.1339 23.5042 20.0028 23.5053C19.8717 23.5065 19.7463 23.559 19.6536 23.6517C19.5609 23.7444 19.5083 23.8698 19.5072 24.0009C19.506 24.132 19.5564 24.2583 19.6475 24.3526L20.6475 25.3526C20.6937 25.3991 20.7486 25.436 20.8091 25.4611C20.8696 25.4863 20.9345 25.4992 21 25.4991H21.028C21.0981 25.4953 21.1667 25.4767 21.2291 25.4445C21.2916 25.4124 21.3466 25.3675 21.3905 25.3126L25.3905 20.3126C25.4734 20.2091 25.5117 20.0768 25.4971 19.945C25.4825 19.8132 25.4161 19.6925 25.3125 19.6096C25.2089 19.5268 25.0767 19.4884 24.9448 19.5031C24.813 19.5177 24.6924 19.5841 24.6095 19.6876V19.6866Z" fill="black"/>
</g>
<defs>
<clipPath id="clip0_617_101">
<rect width="30" height="30" fill="white"/>
</clipPath>
</defs>
</svg>
