<svg width="52" height="36" viewBox="0 0 52 36" fill="none" xmlns="http://www.w3.org/2000/svg">
<path d="M13.5873 15.383C16.6349 15.383 19.0899 16.2553 20.9524 18C22.8148 19.7447 23.746 22.1915 23.746 25.3404C23.746 28.4043 22.709 30.9574 20.6349 33C18.6032 35 15.6825 36 11.873 36C8.06349 36 5.12169 34.7234 3.04762 32.1702C1.01587 29.617 0 26.3192 0 22.2766C0 18.4468 0.931217 15.0851 2.79365 12.1915C4.69841 9.25532 7.06878 6.78723 9.90476 4.78723C12.7407 2.78723 15.5556 1.19149 18.3492 0L20.6349 4.78723C18.8148 5.51063 16.9524 6.53191 15.0476 7.85106C13.1852 9.17021 11.619 10.6383 10.3492 12.2553C9.07936 13.8723 8.42328 15.4681 8.38095 17.0426C8.55026 16.7872 9.10053 16.4468 10.0317 16.0213C10.963 15.5957 12.1481 15.383 13.5873 15.383ZM41.8413 15.383C44.8889 15.383 47.3439 16.2553 49.2063 18C51.0688 19.7447 52 22.1915 52 25.3404C52 28.4043 50.963 30.9574 48.8889 33C46.8571 35 43.9365 36 40.127 36C36.3175 36 33.3757 34.7234 31.3016 32.1702C29.2698 29.617 28.254 26.3192 28.254 22.2766C28.254 18.4468 29.1852 15.0851 31.0476 12.1915C32.9524 9.25532 35.3227 6.78723 38.1587 4.78723C40.9947 2.78723 43.8095 1.19149 46.6032 0L48.8889 4.78723C47.0688 5.51063 45.2063 6.53191 43.3016 7.85106C41.4392 9.17021 39.873 10.6383 38.6032 12.2553C37.3333 13.8723 36.6772 15.4681 36.6349 17.0426C36.8042 16.7872 37.3545 16.4468 38.2857 16.0213C39.2169 15.5957 40.4021 15.383 41.8413 15.383Z" fill="#FF3600"/>
</svg>
